<?xml version="1.0" encoding="UTF-8"?>
<svg id="Layer_1" data-name="Layer 1" xmlns="http://www.w3.org/2000/svg" viewBox="0 0 1185.31 777.35">
  <defs>
    <style>
      .cls-1 {
        stroke-width: 2px;
      }

      .cls-1, .cls-2, .cls-3, .cls-4 {
        stroke-miterlimit: 10;
      }

      .cls-1, .cls-2, .cls-4 {
        stroke: #ce7787;
      }

      .cls-1, .cls-5 {
        fill: #fabdb6;
      }

      .cls-2, .cls-3 {
        stroke-width: 3px;
      }

      .cls-2, .cls-3, .cls-4 {
        fill: none;
      }

      .cls-3 {
        stroke: #1f3555;
      }
    </style>
  </defs>
  <path vector-effect="non-scaling-stroke" class="cls-3" d="M17.91,540.89c2.15-19.36,9.48-63.78,40.11-104.44,46.82-62.15,113.46-66.84,137.5-68.6,25.91-1.9,83.9-6.15,127.07,39,16.33,17.08,25.58,36.04,30.84,49.58,3.32-8.27,9.5-20.41,20.75-30.69,27.93-25.52,62.91-17.45,68.42-16.07-12.83-13-42.76-46.9-54.27-101.76-16.16-77.06,16.04-138.28,23.59-152.64,56.81-108,177.4-112.31,186.39-112.47"/>
  <path vector-effect="non-scaling-stroke" class="cls-3" d="M1003.59,44.33c4.39,1.11,32.25,8.73,47.98,40.34,16.03,32.21,6.79,63.86,5.33,68.57,6.94-5.63,17.06-12.26,30.21-16.13,32.92-9.69,60.7,5.03,69.3,10.08"/>
  <path vector-effect="non-scaling-stroke" class="cls-1" d="M1119.1,299.33c4.05,12.58-2.8,29.76-17.16,43.35-19.71-1.36-33.78-11.84-35.33-24.58-.76-6.24.96-17.28,8.25-20.88,5.19-2.56,11.79-.64,16.76,4.7,1.4-9.02,6.65-15.77,12.39-16.69,7.68-1.23,13.28,8.48,15.09,14.1Z"/>
  <path vector-effect="non-scaling-stroke" class="cls-4" d="M1140.17,276.75c-.9,5.86-6.39,10.59-13.82,11.98-6.54-5.73-9.47-13.44-7.67-18.7.88-2.58,3.49-6.33,6.65-5.77,2.25.4,4.17,2.87,4.91,6.22,2.13-3.07,5.17-4.25,7.31-3.08,2.87,1.56,3.02,6.74,2.62,9.36Z"/>
  <path vector-effect="non-scaling-stroke" class="cls-2" d="M520.98,124.58c-14.06,19.05-9.25,52.05,11.89,83.22,38.89,8.82,71.34-.99,80.63-21.74,4.54-10.15,6.66-29.85-5.7-40.06-8.8-7.27-22.55-7.74-34.82-1.5,1.74-16.08-5.12-30.5-15.8-35.3-14.3-6.42-29.93,6.88-36.21,15.39Z"/>
  <path vector-effect="non-scaling-stroke" class="cls-5" d="M581.55,236.05c3.94,10.79-2.52,25.3-16.18,36.63-18.85-1.52-32.36-10.7-33.91-21.59-.76-5.33.83-14.71,7.78-17.64,4.95-2.09,11.27-.33,16.05,4.3,1.29-7.66,6.28-13.32,11.76-13.99,7.34-.91,12.74,7.47,14.5,12.28Z"/>
  <path vector-effect="non-scaling-stroke" class="cls-1" d="M87.19,635.21c4.05,12.58-2.8,29.76-17.16,43.35-19.71-1.36-33.78-11.84-35.33-24.58-.76-6.24.96-17.28,8.25-20.88,5.19-2.56,11.79-.64,16.76,4.7,1.4-9.02,6.65-15.77,12.39-16.69,7.68-1.23,13.28,8.48,15.09,14.1Z"/>
  <path vector-effect="non-scaling-stroke" class="cls-1" d="M89.89,110.78c4.05,12.58-2.8,29.76-17.16,43.35-19.71-1.36-33.78-11.84-35.33-24.58-.76-6.24.96-17.28,8.25-20.88,5.19-2.56,11.79-.64,16.76,4.7,1.4-9.02,6.65-15.77,12.39-16.69,7.68-1.23,13.28,8.48,15.09,14.1Z"/>
  <path vector-effect="non-scaling-stroke" class="cls-4" d="M110.95,88.21c-.9,5.86-6.39,10.59-13.82,11.98-6.54-5.73-9.47-13.44-7.67-18.7.88-2.58,3.49-6.33,6.65-5.77,2.25.4,4.17,2.87,4.91,6.22,2.13-3.07,5.17-4.25,7.31-3.08,2.87,1.56,3.02,6.74,2.62,9.36Z"/>
</svg>