<?xml version="1.0" encoding="UTF-8"?>
<svg id="Layer_1" data-name="Layer 1" xmlns="http://www.w3.org/2000/svg" viewBox="0 0 1185.31 777.35">
  <defs>
    <style>
      .cls-1, .cls-2, .cls-3, .cls-4, .cls-5 {
        stroke-miterlimit: 10;
      }

      .cls-1, .cls-2, .cls-3, .cls-5 {
        stroke: #ce7787;
      }

      .cls-1, .cls-3 {
        stroke-width: 2px;
      }

      .cls-1, .cls-4, .cls-5 {
        fill: none;
      }

      .cls-2, .cls-3, .cls-6 {
        fill: #fabdb6;
      }

      .cls-4 {
        stroke: #1f3555;
        stroke-width: 3px;
      }
    </style>
  </defs>
  <path vector-effect="non-scaling-stroke" class="cls-2" d="M794.16,399.25c-1.61,6.95-11.87,12.49-25.83,14.02-12.39-6.9-18.03-16.1-14.73-22.33,1.61-3.05,6.46-7.46,12.43-6.76,4.25.5,7.9,3.47,9.34,7.46,3.96-3.61,9.66-4.97,13.71-3.55,5.42,1.9,5.79,8.05,5.08,11.15Z"/>
  <path vector-effect="non-scaling-stroke" class="cls-1" d="M862.37,334.07c-11.3,11.67-7.43,31.89,9.55,50.99,31.24,5.41,57.32-.61,64.78-13.32,3.65-6.22,5.35-18.29-4.58-24.55-7.07-4.46-18.11-4.74-27.98-.92,1.4-9.85-4.11-18.69-12.69-21.63-11.49-3.93-24.05,4.22-29.09,9.43Z"/>
  <path vector-effect="non-scaling-stroke" class="cls-6" d="M860.53,286.76c3.17,6.61-2.02,15.5-13,22.44-15.15-.93-26-6.55-27.24-13.22-.61-3.26.67-9.01,6.25-10.81,3.98-1.28,9.05-.2,12.9,2.64,1.03-4.69,5.04-8.16,9.45-8.57,5.9-.56,10.24,4.57,11.65,7.53Z"/>
  <path vector-effect="non-scaling-stroke" class="cls-1" d="M623.14,708.11c11.3,11.67,7.43,31.89-9.55,50.99-31.24,5.41-57.32-.61-64.78-13.32-3.65-6.22-5.35-18.29,4.58-24.55,7.07-4.46,18.11-4.74,27.98-.92-1.4-9.85,4.11-18.69,12.69-21.63,11.49-3.93,24.05,4.22,29.09,9.43Z"/>
  <path vector-effect="non-scaling-stroke" class="cls-6" d="M636.19,746.52c-3.17,6.61,2.02,15.5,13,22.44,15.15-.93,26-6.55,27.24-13.22.61-3.26-.67-9.01-6.25-10.81-3.98-1.28-9.05-.2-12.9,2.64-1.03-4.69-5.04-8.16-9.45-8.57-5.9-.56-10.24,4.57-11.65,7.53Z"/>
  <g>
    <path vector-effect="non-scaling-stroke" class="cls-4" d="M182.1,395.44c3.99,11.28,17.34,43.02,58.53,67.3,43.78,25.8,91.1,26.73,111.21,26.91,18.66.16,77.03,0,125.22-32.24,24.78-16.58,37.22-35.2,43.24-46.21"/>
    <path vector-effect="non-scaling-stroke" class="cls-4" d="M498.52,393.77c1.81,2.87,5.7,8.04,13.31,12.39,7.45,4.26,14.71,5.58,18.16,6.18,19.52,3.39,44.44-1.63,59.69-14.96,3.49-3.05,8.74-8.52,11.9-16.81"/>
  </g>
  <g>
    <path vector-effect="non-scaling-stroke" class="cls-4" d="M1177.75.81c2.02,3.17,10.9,18,2.51,35.07-7.39,15.03-23.46,22.24-28.15,24.18,3.92,3.23,10.46,9.48,13.56,18.45,1.5,4.34,5.91,17.1-4.32,28.06-13.67,14.64-41.57,13.34-42.99,13.26"/>
    <path vector-effect="non-scaling-stroke" class="cls-4" d="M1096.41,81.79c5.51,4.63,27.74,24.34,26.04,52.27-.18,3-3.47,41.53-50.65,58.46-28.03,10.06-63.49,9.6-90.84-2.35-13.16-5.75-21.6-12.91-26.46-17.81"/>
  </g>
  <path vector-effect="non-scaling-stroke" class="cls-3" d="M47.77,420.49c6.66,10.16,26.39,14.64,49.71,11.42,15.85-15.7,19.5-32.27,10.56-40.63-4.38-4.09-14.76-9.01-23.92-5.51-6.53,2.49-10.65,8.58-10.63,15.35-8.47-4.02-18.43-3.84-24.11-.01-7.6,5.13-4.58,14.84-1.61,19.38Z"/>
  <path vector-effect="non-scaling-stroke" class="cls-5" d="M3.13,397.39c1.17,4.97,8.27,8.98,17.87,10.15,8.45-4.85,12.24-11.39,9.92-15.85-1.13-2.18-4.51-5.36-8.6-4.89-2.91.34-5.4,2.43-6.35,5.27-2.75-2.6-6.68-3.6-9.45-2.61-3.71,1.33-3.91,5.71-3.39,7.93Z"/>
  <path vector-effect="non-scaling-stroke" class="cls-2" d="M106.99,754.41c3.17,6.61-2.02,15.5-13,22.44-15.15-.93-26-6.55-27.24-13.22-.61-3.26.67-9.01,6.25-10.81,3.98-1.28,9.05-.2,12.9,2.64,1.03-4.69,5.04-8.16,9.45-8.57,5.9-.56,10.24,4.57,11.65,7.53Z"/>
  <path vector-effect="non-scaling-stroke" class="cls-5" d="M138.59,726.24c-1.17,4.97-8.27,8.98-17.87,10.15-8.45-4.85-12.24-11.39-9.92-15.85,1.13-2.18,4.51-5.36,8.6-4.89,2.91.34,5.4,2.43,6.35,5.27,2.75-2.6,6.68-3.6,9.45-2.61,3.71,1.33,3.91,5.71,3.39,7.93Z"/>
</svg>