<?xml version="1.0" encoding="UTF-8"?>
<svg id="Layer_1" data-name="Layer 1" xmlns="http://www.w3.org/2000/svg" viewBox="0 0 1185.31 777.35">
  <defs>
    <style>
      .cls-1, .cls-2 {
        stroke-width: 2px;
      }

      .cls-1, .cls-2, .cls-3, .cls-4, .cls-5 {
        stroke-miterlimit: 10;
      }

      .cls-1, .cls-2, .cls-3, .cls-5 {
        stroke: #ce7787;
      }

      .cls-1, .cls-3, .cls-4, .cls-5 {
        fill: none;
      }

      .cls-2, .cls-6 {
        fill: #fabdb6;
      }

      .cls-3, .cls-4 {
        stroke-width: 3px;
      }

      .cls-4 {
        stroke: #1f3555;
      }
    </style>
  </defs>
  <g>
    <path vector-effect="non-scaling-stroke" class="cls-4" d="M860.17,391.68c.03-2.58.77-30.07,22.96-46.18,17.7-12.86,36.59-9.42,41.41-8.35,28.01,6.2,38.87,33.71,39.86,36.34,2.94-9.09,9.6-25.51,24.44-39.73,26.34-25.23,58.97-24.88,70.99-24.75,33.48.36,56.69,15.95,66.03,22.4,12.27,8.48,39.41,27.25,48.68,63.85,7.22,28.49-.17,52.85-2.77,61.05-6.41,20.21-16.84,34.16-23.45,41.77"/>
    <path vector-effect="non-scaling-stroke" class="cls-4" d="M1050.87,499.41c4.88-4.87,14.11-12.71,27.49-16.39,20.05-5.51,36.62,1.85,47.51,6.69,8.11,3.61,24.98,11.38,37.86,30.54,13.37,19.89,14.49,40.22,14.83,48.36.47,11.05-.95,20.3-2.39,26.76"/>
  </g>
  <g>
    <g>
      <path vector-effect="non-scaling-stroke" class="cls-4" d="M138.09,401.52c-5.48.09-34.86.02-56.83-23.16-16.17-17.06-28.72-47.06-16.84-74.61,13.28-30.79,49.46-40.86,76-36.92,28.55,4.24,45.52,24.62,50,30.37"/>
      <path vector-effect="non-scaling-stroke" class="cls-4" d="M430.12,345.67c2.64-29.95-16.24-57.4-43.8-64.92-25.4-6.93-53.03,4.49-67.05,28.16"/>
    </g>
    <path vector-effect="non-scaling-stroke" class="cls-4" d="M175.48,281.38c3.85-5.46,10.02-12.98,19.22-20.01,1.9-1.45,12.76-9.62,28.25-14.58,9.54-3.06,52.19-14.95,85.78,11.48,6.14,4.83,18.14,15.79,26.03,36"/>
  </g>
  <path vector-effect="non-scaling-stroke" class="cls-4" d="M1.31,430.89c3.23-5.81,9.68-15.22,21.09-21.38,18.72-10.1,42.95-7.21,62.99,6.74.79-2.61,2.52-7.06,6.43-11.2,6.63-7.03,14.91-8.27,17.47-8.55"/>
  <path vector-effect="non-scaling-stroke" class="cls-1" d="M707.69,307.41c7.75,10.92,5.1,29.83-6.56,47.7-21.45,5.06-39.35-.57-44.47-12.46-2.51-5.82-3.67-17.11,3.14-22.97,4.86-4.17,12.43-4.44,19.2-.86-.96-9.22,2.82-17.48,8.71-20.23,7.88-3.68,16.51,3.95,19.97,8.82Z"/>
  <path vector-effect="non-scaling-stroke" class="cls-6" d="M716.66,343.35c-2.17,6.19,1.39,14.5,8.92,20.99,10.4-.87,17.85-6.13,18.7-12.37.42-3.05-.46-8.43-4.29-10.11-2.73-1.2-6.22-.19-8.85,2.47-.71-4.39-3.46-7.63-6.48-8.02-4.05-.52-7.03,4.28-8,7.04Z"/>
  <path vector-effect="non-scaling-stroke" class="cls-2" d="M1156.83,296.5c-4.57,9.5-18.12,13.7-34.12,10.68-10.88-14.69-13.39-30.19-7.25-38.01,3-3.82,10.13-8.43,16.42-5.15,4.48,2.33,7.31,8.02,7.29,14.36,5.81-3.76,12.65-3.6,16.55,0,5.21,4.8,3.14,13.89,1.1,18.13Z"/>
  <path vector-effect="non-scaling-stroke" class="cls-3" d="M940.13,608.01c-12.48,15.1-8.21,41.26,10.56,65.96,34.52,6.99,63.32-.79,71.56-17.23,4.03-8.04,5.91-23.66-5.06-31.76-7.81-5.77-20.01-6.14-30.91-1.19,1.54-12.75-4.54-24.18-14.02-27.98-12.69-5.09-26.56,5.46-32.14,12.2Z"/>
  <path vector-effect="non-scaling-stroke" class="cls-2" d="M478.26,286.01c-3.59,9.97,2.48,23.59,15.23,34.36,17.49-1.08,29.98-9.38,31.35-19.49.67-4.94-.86-13.7-7.32-16.55-4.61-2.03-10.46-.51-14.88,3.72-1.24-7.15-5.9-12.5-11-13.23-6.82-.97-11.78,6.72-13.39,11.17Z"/>
  <path vector-effect="non-scaling-stroke" class="cls-5" d="M459.56,268.12c.8,4.65,5.67,8.4,12.26,9.49,5.8-4.54,8.4-10.65,6.81-14.83-.78-2.04-3.09-5.02-5.9-4.57-2,.31-3.7,2.28-4.36,4.93-1.89-2.43-4.59-3.37-6.49-2.44-2.55,1.24-2.68,5.34-2.33,7.42Z"/>
</svg>