<?xml version="1.0" encoding="UTF-8"?>
<svg id="Layer_1" data-name="Layer 1" xmlns="http://www.w3.org/2000/svg" viewBox="0 0 1185.31 777.35">
  <defs>
    <style>
      .cls-1, .cls-2, .cls-3, .cls-4, .cls-5, .cls-6 {
        stroke-miterlimit: 10;
      }

      .cls-1, .cls-2, .cls-3, .cls-4, .cls-6 {
        stroke: #ce7787;
      }

      .cls-1, .cls-3 {
        stroke-width: 2px;
      }

      .cls-1, .cls-4, .cls-5, .cls-6 {
        fill: none;
      }

      .cls-2, .cls-3, .cls-7 {
        fill: #fabdb6;
      }

      .cls-4, .cls-5 {
        stroke-width: 3px;
      }

      .cls-5 {
        stroke: #1f3555;
      }
    </style>
  </defs>
  <path vector-effect="non-scaling-stroke" class="cls-3" d="M85.1,378.04c3.31,8.3-2.29,19.63-14.04,28.61-16.12-.9-27.63-7.81-28.9-16.22-.62-4.11.79-11.4,6.75-13.77,4.25-1.69,9.64-.42,13.71,3.1,1.14-5.95,5.44-10.41,10.14-11.01,6.29-.81,10.86,5.6,12.34,9.3Z"/>
  <path vector-effect="non-scaling-stroke" class="cls-3" d="M713.81,435.24c-4.21,7.91-16.7,11.4-31.45,8.89-10.03-12.23-12.34-25.13-6.68-31.64,2.77-3.18,9.34-7.01,15.13-4.29,4.13,1.94,6.74,6.68,6.72,11.95,5.36-3.13,11.66-2.99,15.25,0,4.81,4,2.9,11.56,1.02,15.09Z"/>
  <path vector-effect="non-scaling-stroke" class="cls-2" d="M67.18,160.92c2,5.15-1.28,12.07-8.22,17.48-9.58-.72-16.45-5.1-17.24-10.3-.38-2.54.42-7.02,3.95-8.42,2.52-1,5.73-.16,8.16,2.05.65-3.65,3.19-6.35,5.98-6.68,3.73-.43,6.48,3.56,7.37,5.86Z"/>
  <path vector-effect="non-scaling-stroke" class="cls-6" d="M742.05,417.25c-.74,3.87-5.23,6.99-11.3,7.9-5.35-3.78-7.74-8.87-6.28-12.34.72-1.7,2.85-4.18,5.44-3.81,1.84.26,3.41,1.9,4.02,4.1,1.74-2.02,4.23-2.8,5.98-2.03,2.35,1.03,2.47,4.45,2.14,6.17Z"/>
  <path vector-effect="non-scaling-stroke" class="cls-1" d="M73.72,546.08c7.15,9.09,4.7,24.83-6.04,39.71-19.77,4.21-36.26-.47-40.98-10.37-2.31-4.84-3.38-14.24,2.9-19.12,4.47-3.47,11.46-3.69,17.7-.72-.88-7.67,2.6-14.55,8.03-16.84,7.27-3.06,15.21,3.28,18.4,7.34Z"/>
  <path vector-effect="non-scaling-stroke" class="cls-6" d="M102.34,363.14c-.74,3.87-5.23,6.99-11.3,7.9-5.35-3.78-7.74-8.87-6.28-12.34.72-1.7,2.85-4.18,5.44-3.81,1.84.26,3.41,1.9,4.02,4.1,1.74-2.02,4.23-2.8,5.98-2.03,2.35,1.03,2.47,4.45,2.14,6.17Z"/>
  <path vector-effect="non-scaling-stroke" class="cls-7" d="M81.98,575.99c-2,5.15,1.28,12.07,8.22,17.48,9.58-.72,16.45-5.1,17.24-10.3.38-2.54-.42-7.02-3.95-8.42-2.52-1-5.73-.16-8.16,2.05-.65-3.65-3.19-6.35-5.98-6.68-3.73-.43-6.48,3.56-7.37,5.86Z"/>
  <path vector-effect="non-scaling-stroke" class="cls-6" d="M87.17,138.99c-.74,3.87-5.23,6.99-11.3,7.9-5.35-3.78-7.74-8.87-6.28-12.34.72-1.7,2.85-4.18,5.44-3.81,1.84.26,3.41,1.9,4.02,4.1,1.74-2.02,4.23-2.8,5.98-2.03,2.35,1.03,2.47,4.45,2.14,6.17Z"/>
  <g>
    <path vector-effect="non-scaling-stroke" class="cls-5" d="M998.65,293.33c-12.2,6.59-31.65,15.36-57.19,19.91-13.44,2.4-42.98,6.2-78.47-2.02-44.88-10.39-72.69-35.45-84.16-46.9"/>
    <path vector-effect="non-scaling-stroke" class="cls-5" d="M492.14,218.22c6.65,4.32,42.78,26.99,79.48,15.35,5.06-1.6,10.8-4.07,16.77-7.96-2.78,8.22-7.58,26.46-1.13,47.84,1.8,5.97,11.75,38.98,46.07,51.53,28.37,10.37,61.69,3.6,84.27-17.22,2.11,4.9,9.91,21.16,29.34,29.96,21.85,9.89,48.81,6,66.29-8.11,11.78-9.5,16.19-21.17,17.85-26.71"/>
  </g>
  <path vector-effect="non-scaling-stroke" class="cls-7" d="M471.29,131.77c3.65,9.32-2.76,22-16.07,31.99-18.14-1.09-31.03-8.9-32.38-18.34-.66-4.62.99-12.78,7.72-15.4,4.8-1.87,10.86-.42,15.41,3.55,1.34-6.66,6.22-11.63,11.51-12.29,7.08-.87,12.17,6.33,13.81,10.49Z"/>
  <path vector-effect="non-scaling-stroke" class="cls-7" d="M1088.98,537.31c2,5.15-1.28,12.07-8.22,17.48-9.58-.72-16.45-5.1-17.24-10.3-.38-2.54.42-7.02,3.95-8.42,2.52-1,5.73-.16,8.16,2.05.65-3.65,3.19-6.35,5.98-6.68,3.73-.43,6.48,3.56,7.37,5.86Z"/>
  <path vector-effect="non-scaling-stroke" class="cls-4" d="M1105.26,347.4c5.29,15.66-7.55,34.35-32.19,47.18-31.79-5.91-53.52-21.29-54.74-36.61-.59-7.49,3.31-20.09,15.48-22.72,8.67-1.87,19.16,1.83,26.68,9.18,3.18-10.29,12.37-17.07,21.76-16.89,12.57.24,20.65,12.87,23.01,19.86Z"/>
  <path vector-effect="non-scaling-stroke" class="cls-2" d="M1126.46,390.95c-2,5.15,1.28,12.07,8.22,17.48,9.58-.72,16.45-5.1,17.24-10.3.38-2.54-.42-7.02-3.95-8.42-2.52-1-5.73-.16-8.16,2.05-.65-3.65-3.19-6.35-5.98-6.68-3.73-.43-6.48,3.56-7.37,5.86Z"/>
  <path vector-effect="non-scaling-stroke" class="cls-3" d="M242.54,717.38c-4.21,7.91-16.7,11.4-31.45,8.89-10.03-12.23-12.34-25.13-6.68-31.64,2.77-3.18,9.34-7.01,15.13-4.29,4.13,1.94,6.74,6.68,6.72,11.95,5.36-3.13,11.66-2.99,15.25,0,4.81,4,2.9,11.56,1.02,15.09Z"/>
</svg>