<?xml version="1.0" encoding="UTF-8"?>
<svg id="Layer_1" data-name="Layer 1" xmlns="http://www.w3.org/2000/svg" viewBox="0 0 1185.31 786.68">
  <defs>
    <style>
      .cls-1 {
        stroke: #203555;
      }

      .cls-1, .cls-2, .cls-3, .cls-4 {
        stroke-miterlimit: 10;
      }

      .cls-1, .cls-3 {
        fill: none;
      }

      .cls-2 {
        stroke-width: .5px;
      }

      .cls-2, .cls-3, .cls-4 {
        stroke: #1f3555;
      }

      .cls-2, .cls-4 {
        fill: #1f3555;
      }

      .cls-3 {
        stroke-width: .75px;
      }

      .cls-4 {
        stroke-width: 2px;
      }
    </style>
  </defs>
  <g>
    <path vector-effect="non-scaling-stroke" class="cls-1" d="M749.38,165.47c-11.41,36.22-13.84,63.39-13.76,82.06.04,9.48.73,18.66-1.6,32.8-4.07,24.64-11.78,30.76-11.66,46.28.13,16.75,9.28,33.02,19.44,41.98,29.28,25.82,92.97,13.89,126.17-21.55,29.85-31.87,31.25-78.68,20.12-108.73-7.92-21.4-16.82-19.8-24.35-45.14-7.85-26.42-1.79-40.36-13.76-70.78-2.34-5.95-4.65-10.88-8.47-21.54-8.63-24.09-6.13-26.79-10.59-34.88-9.75-17.69-36.61-31.88-61.41-25.65-16.02,4.03-25.66,15.19-29.64,20.52-8.79-6.59-23.06-16.08-42.35-23.59-10.92-4.25-31.97-11.19-99.52-13.34-17.2-.54-40.95-.89-69.45,0-5.08-5.54-19.11-19.25-41.35-22.64-2.84-.43-41.52-5.77-57.53,19.16-7.84,12.21-6.38,25.67-5.39,31.35-9.12,1.08-23.23,4.13-35.95,13.93-12.86,9.91-17.69,21.97-28.76,52.25-22.72,62.15-18.87,57.25-24.14,67-17.64,32.67-33.64,37.33-36,62.57-.59,6.31-2.24,23.95,9.53,35.9,12.31,12.5,35.26,14.66,57.8,5.22"/>
    <path vector-effect="non-scaling-stroke" class="cls-1" d="M460.34,156.24c-13.07,9.94-37.91,31.68-52.94,67.7-7.41,17.76-21.26,50.96-8.47,88.22,12.85,37.42,44.75,56.11,59.29,64.63,30.81,18.05,60.71,21,97.4,24.62,17.16,1.69,36.01,3.52,59.29,1.03,21.58-2.31,64.5-10.22,111.88-44.07"/>
    <path vector-effect="non-scaling-stroke" class="cls-1" d="M441.04,391.62c1.49,5.54,2.67,13.51,0,21.99-3.3,10.46-10.66,15.94-14.8,20.07-13.26,13.24-7.65,26.9-13.81,62.13-7.25,41.5-18.69,43.48-19.73,77.43-.57,18.39,2.81,17.13,1.97,37.28-1.06,25.55-6.75,33.97-11.84,63.09-5.51,31.51-8.26,47.27-2.96,58.31,16.19,33.72,75.9,35.86,88.79,36.32,22.11.79,48.32,1.73,69.06-15.29,25.05-20.57,32.29-59.31,20.35-97.82"/>
    <path vector-effect="non-scaling-stroke" class="cls-1" d="M710.68,392.78c.26,18.9,3.09,33.61,5.48,43.22,7.23,29.08,16.71,36.75,19.57,62.94,2.14,19.63-2.87,18.22-.78,37.15,3.4,30.84,16.88,36.22,21.13,62.94,3.65,22.95-5.95,21.18-7.04,56.87-1.21,39.21,10.14,49.15,1.57,73.55-1.64,4.67-8.02,22.12-25.04,34.88-32.66,24.49-87.24,18.77-112.7-9.1-11.75-12.87-15.22-28.19-18.78-43.98-5.15-22.8-3.57-42.27-1.57-54.59"/>
    <path vector-effect="non-scaling-stroke" class="cls-1" d="M412.43,495.82c-32.39,24.61-53.87,47.64-67.23,63.78-5.16,6.24-13.7,16.99-21.13,32.6-7.84,16.48-18.52,38.91-9.39,53.08,2.35,3.65,7.31,8.75,5.48,12.89-1.16,2.63-4.25,3.06-7.04,4.55-8,4.28-9.76,15.25-10.96,22.75-1.07,6.68-5.44,33.99,14.87,49.29,15.43,11.63,38.86,11.6,57.13-.76"/>
    <path vector-effect="non-scaling-stroke" class="cls-1" d="M737.37,511.83c44.19,16.87,55.56,32.19,56.27,43.97.49,8.04-3.68,19.58,3.13,25.78,4.22,3.84,8.07,1.44,14.87,4.55,10.92,4.99,18.82,19.32,18,31.85-.98,14.86-13.83,20.91-10.17,29.57,2.23,5.28,7.81,4.94,14.09,9.86,0,0,14.51,11.38,12.52,37.15-1.89,24.44-41.15,50.33-97.83,56.11"/>
    <path vector-effect="non-scaling-stroke" class="cls-1" d="M533.83,755.65c12.13-.67,25.49-.86,39.88-.27,15.12.62,29.03,2.02,41.56,3.81"/>
  </g>
  <path vector-effect="non-scaling-stroke" class="cls-2" d="M508.08,187.17c-2.74-5.46-1.44-13.29,2.92-17.5,4.36-4.21,10.11-3.2,12.85,2.26,2.74,5.46,1.44,13.29-2.92,17.5-4.36,4.21-10.11,3.2-12.85-2.26Z"/>
  <path vector-effect="non-scaling-stroke" class="cls-2" d="M654.04,203.96c-2.74-5.46-1.44-13.29,2.92-17.5,4.36-4.21,10.11-3.2,12.85,2.26,2.74,5.46,1.44,13.29-2.92,17.5-4.36,4.21-10.11,3.2-12.85-2.26Z"/>
  <path vector-effect="non-scaling-stroke" class="cls-4" d="M559.7,250.32c2.43-2.95,12.49-4.08,22.46-2.51,9.97,1.56,16.08,5.22,13.65,8.17-2.43,2.95-12.49,4.08-22.46,2.51-9.97-1.56-16.08-5.22-13.65-8.17Z"/>
  <g>
    <path vector-effect="non-scaling-stroke" class="cls-3" d="M573.96,263.84c-.83,10.22-1.67,20.45-2.5,30.67"/>
    <path vector-effect="non-scaling-stroke" class="cls-3" d="M540.64,297.69c7.66-.83,16.84-1.27,27.17-.62,12.03.75,22.39,2.77,30.68,4.95"/>
  </g>
</svg>