<?xml version="1.0" encoding="UTF-8"?>
<svg id="Layer_1" data-name="Layer 1" xmlns="http://www.w3.org/2000/svg" viewBox="0 0 1185.31 819.01">
  <defs>
    <style>
      .cls-1, .cls-2, .cls-3, .cls-4, .cls-5 {
        stroke-miterlimit: 10;
      }

      .cls-1, .cls-4 {
        fill: none;
        stroke: #203555;
      }

      .cls-2, .cls-3, .cls-5 {
        fill: #1f3555;
        stroke: #1f3555;
      }

      .cls-3 {
        stroke-width: .5px;
      }

      .cls-4, .cls-5 {
        stroke-width: 2px;
      }
    </style>
  </defs>
  <g>
    <path vector-effect="non-scaling-stroke" class="cls-1" d="M1101.12,140.57c-2.44-4.48-8.87-14.77-22.18-21.93-18.34-9.87-36.63-6.75-41.19-5.85"/>
    <path vector-effect="non-scaling-stroke" class="cls-1" d="M1145.35,127.26c-3.22-8.96-10.18-23.52-25.39-35.15-25.26-19.3-62.68-22.44-97.33-9.37"/>
  </g>
  <g>
    <path vector-effect="non-scaling-stroke" class="cls-4" d="M155.16,499.42c-21.4,25.01-23,42.07-20.24,53.17,3.58,14.44,15,20.75,15.57,38.8.36,11.31-4.07,10.82-7.79,28.74-4.69,22.57,1.37,27.96-3.11,56.04-2.36,14.76-4.8,14.04-4.67,21.56.37,21.46,17.77,37.54,27.42,46.21,31.5,28.32,69.84,36.14,87.58,39.55,43.38,8.34,78.94,2.4,105.59-2.29,26.69-4.7,48.26-11.58,63.35-17.19"/>
    <path vector-effect="non-scaling-stroke" class="cls-4" d="M455.96,413.3c1.6-.64,3.94-1.46,6.85-2.05,16.46-3.33,30.77,4.96,36.94,8.26,16.3,8.72,23.28,22.39,31.34,37.18,12.07,22.15,6.95,24.56,17.44,43.21,13.41,23.82,23.27,22.55,32.62,43.55,4.3,9.64,12.7,28.5,4.08,46.23-7.48,15.38-23.69,21.57-39.03,27.42-11.43,4.36-42.14,16.08-68.96,2.85-6.09-3-17.65-8.7-20.77-19.37-3.26-11.13,5.34-18.47,5.39-36.09.03-9-2.18-16.36-4.05-21.15"/>
    <path vector-effect="non-scaling-stroke" class="cls-4" d="M195.08,445.42c7.98-4.53,19.3-9.2,32.54-8.43,17.55,1.02,31.36,11.21,34.82,7.38,1.24-1.38.27-3.92-1.71-8.96-5.24-13.29-12-17.77-10.28-21.07,1.89-3.62,12.2-2.38,18.84-1.58,5.58.67,17.14,2.66,31.4,10.01,9.19,4.74,8.45,6,12.56,6.85,9.7,2,17-4.44,34.82-15.8,27.91-17.8,39.02-20.53,45.67-21.6,5.48-.89,19.33-3.12,25.12,3.69,2.23,2.62,3.51,6.87,2.28,10.54-1.86,5.55-8.87,7.9-8.56,8.43.35.6,8.09-4.27,17.13-5.79,15.71-2.65,29.32,5.84,33.11,8.43,6.37,4.35,14.46,9.88,14.84,18.96.44,10.35-9.45,17.47-10.85,18.44"/>
    <path vector-effect="non-scaling-stroke" class="cls-4" d="M534.91,620.61c5.98,10.37,5.88,13.99,4.42,15.24-2.9,2.49-10.44-5.06-22.92-4.01-6.99.59-12.55,3.63-16.47,5.76-6.74,3.67-10.86,7.81-11.92,8.91-10.18,10.52-7.01,18.19-15.33,25.68-5.13,4.61-8.44,3.59-17.6,7.34-2.7,1.1-26.02,10.99-36.34,33.01-1.7,3.62-8.58,18.87-3.41,36.16,7.12,23.81,32.24,35.14,41.45,39.3,64.56,29.13,150.11-11.6,159.57-22.01.61-.67,4.94-5.66,7.95-4.72,1.88.59,1.88,3.07,3.97,6.29,0,0,2.48,3.8,7.95,6.81,12.8,7.05,82.86-62.41,88.58-58.17.74.55-.04,2.02,1.59,5.04.43.79,2.72,4.85,6.8,6.05,3.99,1.18,7.95-.88,9.72-1.79,12.5-6.49,40.65-47.56,42.68-50.54"/>
    <path vector-effect="non-scaling-stroke" class="cls-4" d="M794.26,626.94c-3.98,14.31-6.75,26.4-8.67,35.71-1.06,5.16-2.17,10.95,1.33,14.77,2.76,3.01,6.38,2.64,11.34,7.39.77.74,3.13,3.03,4.67,6.16,3.1,6.28,1.35,12.73.67,15.39-3.1,12.08-7,27.32-4.67,35.09,4.74,15.81,41.25,20.52,60.04,20.93,9.93.22,59.35,1.3,90.73-32.01,9.1-9.66,14.51-28.19,25.35-65.25,0,0,19.84-67.88,7.34-105.27-2.51-7.51-6.67-13.54-6.67-13.54-2.96-4.29-5.08-5.99-6.67-8-4.81-6.08-3.63-13.5-.67-30.17,5.26-29.57,6.57-34.5,2.67-40.01-2.37-3.35-3.28-2.12-12.68-11.08-7.24-6.91-10.87-10.36-12.67-14.77-3.75-9.14,1.43-18.46,3.34-22.78,11.57-26.19-10.99-63.3-16.68-72.64-3.44-5.66-26.53-42.31-74.05-56.02-43.12-12.44-95.98-2.99-128.75,22.78-10.56,8.3-58.43,49.29-74.16,56.42-7.26,3.29-14.73,6.12-14.73,6.12-6.83,2.58-11.85,4.13-13.17,4.56-10.13,3.27-24.68,12.16-50.7,35.71-13.09,11.85-14.16,17.23-26.02,25.24-7.75,5.24-14.95,8.54-19.98,10.56"/>
    <path vector-effect="non-scaling-stroke" class="cls-4" d="M716.02,719.91c-.57,1.06-8.51,16.25-.2,27.47,7.05,9.52,20.91,9.6,28.98,9.64,27.76.16,47.65-18.46,53.82-24.74"/>
    <path vector-effect="non-scaling-stroke" class="cls-4" d="M141.74,635.12c-15.31,9.28-35.05,24.89-47.32,49.24-5.99,11.89-12.62,25.02-8.39,40.57,5.62,20.63,26.34,30.76,32.82,33.92,29.56,14.44,59.98,5.02,66.46,2.87"/>
    <path vector-effect="non-scaling-stroke" class="cls-4" d="M221.03,436.62c-6.32-4.05-17.86-10.27-33.69-12.62-7.8-1.16-28.56-4.25-47.93,6.73-20,11.34-26.93,31.1-29.17,37.5-3.03,8.65-2,11.4-6.77,25-3.02,8.6-5.49,13.39-10.89,24.84-9.61,20.39-14.42,30.59-15.68,34.77-3.91,12.91-10.54,34.82,2.08,49.04,12.84,14.46,37.83,12.23,42.08,11.79"/>
    <path vector-effect="non-scaling-stroke" class="cls-4" d="M869.15,294.19c14.53-2.55,33.83-7.2,55.13-16.23,22.25-9.43,34.47-14.8,42.95-27.61,9.16-13.84,13.44-35.6,1.93-51.21-6.73-9.13-20.61-18.53-30.4-15.59-5.22,1.57-6.84,5.91-14.48,7.13-1.86.3-8.36,1.33-13.03-2.23-5.92-4.51-4.64-13.15-4.34-15.14,1.72-11.64,12.91-18.4,14.96-19.59,13.5-7.84,27.93-4.45,28.34-7.09.49-3.17-20.32-7.42-20.03-8.66.31-1.3,23.94-.48,47.25,10.97,9.31,4.58,19.9,9.96,23.47,20.21,1.15,3.31,1.79,7.76,2.04,7.72.51-.07-4.15-18.19-.48-19.59,2.99-1.14,11.8,8.67,16.41,20.04,6.32,15.63,3.67,31.67,3.32,31.68-.16,0-.57-3.43-.31-6.93.32-4.32,1.9-12.32,4.72-12.73,3.81-.54,12.08,12.53,13.03,26.72,1.4,20.81-13.19,40.38-13.99,40.08-.4-.15.78-5.98,5.32-9.02,2.04-1.37,5.49-2.65,8.19-1.67,5.87,2.15,5.4,14.07,5.31,16.48-.89,22.67-32.6,40.61-37.16,43.2-41.04,23.23-89.52,12.54-105.27,8.41"/>
    <g>
      <path vector-effect="non-scaling-stroke" class="cls-1" d="M105.54,389.33c2.44-4.48,8.87-14.77,22.18-21.93,18.34-9.87,36.63-6.75,41.19-5.85"/>
      <path vector-effect="non-scaling-stroke" class="cls-1" d="M61.31,376.02c3.22-8.96,10.18-23.52,25.39-35.15,25.26-19.3,62.68-22.44,97.33-9.37"/>
    </g>
    <path vector-effect="non-scaling-stroke" class="cls-3" d="M225.06,542.97c1.94-1.15,9.38-5.13,17.96-2.2,7.57,2.59,10.79,8.77,11.64,10.58.72,1.55,3.8,8.13.72,14.57-3.84,8.04-14.57,10.17-21.55,9.48-2.13-.21-9.32-.92-14.22-6.87-.73-.88-5.51-6.9-3.59-14.57,1.65-6.62,7.15-9.87,9.05-10.99Z"/>
    <path vector-effect="non-scaling-stroke" class="cls-2" d="M375.89,546.85c1.94-1.15,9.38-5.13,17.96-2.2,7.57,2.59,10.79,8.77,11.64,10.58.72,1.55,3.8,8.13.72,14.57-3.84,8.04-14.57,10.17-21.55,9.48-2.13-.21-9.32-.92-14.22-6.87-.73-.88-5.51-6.9-3.59-14.57,1.65-6.62,7.15-9.87,9.05-10.99Z"/>
    <path vector-effect="non-scaling-stroke" class="cls-5" d="M323.23,640.15c-1.72-1.78-4.25-3.39-22.22-3.55-18.76-.16-22.26,1.55-24.87,3.76-.93.79-5.87,5.13-6.64,11.66-.96,8.11,5.16,14.05,10.25,18.98,5.47,5.31,10.78,10.45,18.96,10.43,10.76-.02,18.53-8.95,22.02-12.95,2.81-3.22,5.6-6.52,6.64-11.66,1.15-5.72-.12-12.5-4.15-16.66Z"/>
  </g>
</svg>