<?xml version="1.0" encoding="UTF-8"?>
<svg id="Layer_1" data-name="Layer 1" xmlns="http://www.w3.org/2000/svg" viewBox="0 0 1185.31 819.01">
  <defs>
    <style>
      .cls-1, .cls-2, .cls-3, .cls-4, .cls-5 {
        stroke-miterlimit: 10;
      }

      .cls-1, .cls-3, .cls-5 {
        fill: none;
      }

      .cls-1, .cls-4 {
        stroke: #203555;
      }

      .cls-2 {
        fill: #1f3555;
      }

      .cls-2, .cls-3 {
        stroke: #1f3555;
      }

      .cls-2, .cls-3, .cls-4 {
        stroke-width: 2px;
      }

      .cls-4 {
        fill: #fff6eb;
      }

      .cls-5 {
        stroke: #1e3555;
      }
    </style>
  </defs>
  <path vector-effect="non-scaling-stroke" class="cls-3" d="M508.71,270.37c-12.84,30.93-27.47,82.3-11.94,139.86,5.43,20.12,14.55,47.43,41.79,69.93,31.26,25.82,67.84,29.05,137.04,35.14,61.83,5.45,92.75,8.17,129.59-5.42,46.29-17.07,71.26-48,87.55-68.18,42.14-52.19,50.95-106.7,52.87-136.72"/>
  <path vector-effect="non-scaling-stroke" class="cls-3" d="M895.5,438.83c15.21,8.16,34.16,16.87,56.76,24.3,31.67,10.42,60.35,15,82.65,17.02"/>
  <path vector-effect="non-scaling-stroke" class="cls-3" d="M604.23,508.69c-.69,24.37.37,58,8.1,97.34,6.66,33.93,15.63,58.56,23.9,81,12.46,33.8,31.92,79.29,62.57,131.48"/>
  <path vector-effect="non-scaling-stroke" class="cls-3" d="M649.47,50.04c-31.57-6.96-54.17-4.1-69.21,0-16.92,4.62-31.76,12.85-61.18,17.63-10.08,1.64-18.49,2.32-24.07,2.64,7.19,3.51,20.22,8.66,37.11,8.81,6.98.06,13.09-.74,18.05-1.76-7.36,6.76-14.71,13.51-22.07,20.27,5.7-1.27,11.72-2.46,18.05-3.52,9.94-1.66,19.34-2.79,28.08-3.52-4.57,3.06-9.66,6.92-14.8,11.73-3.77,3.53-6.93,6.98-9.57,10.18,10.16-3.2,19.14-5.06,26.2-6.2,7.48-1.2,15.56-2.51,26.16-2.3,10.39.21,19.11,1.29,25.52,2.54"/>
  <path vector-effect="non-scaling-stroke" class="cls-3" d="M673.54,49.16c18.13-13.18,46.2-29.75,84.25-39.66,18.76-4.88,79.88-18.54,149.45,4.41,35.66,11.76,60.66,28.89,75.22,40.54"/>
  <path vector-effect="non-scaling-stroke" class="cls-3" d="M929.31,118.77c7.62.21,25.18,1.64,42.13,12.34,9.44,5.95,15.46,12.74,19.06,17.63.09-3.15.29-22.02-16.05-34.37-6.06-4.58-12.47-6.8-17.05-7.93,5.95-.78,19.18-1.8,34.1,3.53,12.33,4.4,20.17,11.12,24.07,14.98-2.94-8.13-8.63-19.32-20.06-29.08-2.34-2-4.7-3.75-7.02-5.29"/>
  <path vector-effect="non-scaling-stroke" class="cls-3" d="M604.23,508.69c-15.98,35.12-32.92,59.82-46.29,76.62-7.67,9.64-17.94,21.43-14.09,33.6,4.08,12.88,21.83,19.35,30.19,22.4,16.14,5.89,30.33,5.36,44.28,4.72,11.5-.53,29.09-2.47,49.64-9.43"/>
  <path vector-effect="non-scaling-stroke" class="cls-3" d="M944.56,249.88c3.03-2,8.63-5.08,16.25-5.91,14.18-1.54,29.2,5.42,35.87,16.74,8.67,14.72.5,32.16-11.77,41.37-17.31,12.99-39.78,7.35-41.48,6.89"/>
  <path vector-effect="non-scaling-stroke" class="cls-3" d="M668.13,410.89c2.13-.54,14.45-3.46,25.71,2.89,8.65,4.88,17.22,15.54,13.21,24.92-3.96,9.29-19.38,15.27-34.83,9.95"/>
  <path vector-effect="non-scaling-stroke" class="cls-3" d="M899.31,439.57c16.04.18,50.6-1.36,87-19.56,28.35-14.18,45.6-32.35,54.53-43.36"/>
  <path vector-effect="non-scaling-stroke" class="cls-4" d="M709.71,620.97c-.36,5.01-10.47,8.24-22.48,12.08-10.39,3.32-17.79,5.69-22.19,3.14-5.07-2.93-3.26-10.69-.07-15.37,4.29-6.28,13.96-11.2,24.41-10.81,10.05.37,20.71,5.66,20.33,10.96Z"/>
  <path vector-effect="non-scaling-stroke" class="cls-3" d="M707.9,277.76c-.53,5.07-1.3,12.1-2.34,20.55-1.24,10.11-1.73,13.01-5.17,15.21-5.66,3.61-11.62.42-19.82,4.49-7.14,3.54-9.3,9.27-9.73,10.52-.42,1.21-2.19,6.95,2.37,12.45,5.54,6.68,15.88,7.5,17.27,7.59"/>
  <g>
    <path vector-effect="non-scaling-stroke" class="cls-3" d="M947.77,228.89c3.04-22.13,2.06-41.34.07-56.11-21.09-5.3-48.66-10.37-81.22-11.67-35.15-1.41-65.09,2.01-87.62,6.09-4.73,12.8-9.17,27.63-12.41,44.28-4.91,25.27-5.7,47.81-4.85,66.22,21.28,6.56,49.55,13.31,83.39,16.27,32.88,2.88,61.33,1.33,83.25-1.26,7.4-15.33,15.71-37.02,19.39-63.82Z"/>
    <path vector-effect="non-scaling-stroke" class="cls-3" d="M687.01,217.61c10.17-2.38,24.77-4.59,42.21-3.3,14.4,1.07,26.37,4.21,35.21,7.26"/>
    <path vector-effect="non-scaling-stroke" class="cls-3" d="M689.15,207.24c1.49-20.83-2.03-38.3-5.75-50.61-27.11-7.21-61.3-14-101.19-16.71-29.48-2-56-1.36-78.63.42-6.83,20.07-13.21,43.19-17.85,69.03-3.64,20.27-5.65,39.17-6.62,56.35,20.27,7.22,46.93,14.72,78.91,18.77,41.59,5.27,77.06,2.8,102.29-.78,9.65-13.21,26.21-39.96,28.82-76.47Z"/>
  </g>
  <path vector-effect="non-scaling-stroke" class="cls-3" d="M933.37,136.59c2.06,2.99,4.28,6.82,6.04,11.45,3.05,8.03,3.48,15.15,3.3,20.05"/>
  <path vector-effect="non-scaling-stroke" class="cls-3" d="M557.17,137.47c.76-4.71,2.14-10.49,4.75-16.86,2.38-5.82,5.19-10.68,7.79-14.52"/>
  <path vector-effect="non-scaling-stroke" class="cls-3" d="M725.9,113.64c26.64-2.55,63.75-3.35,106.46,4.56,25.53,4.73,47.31,11.51,64.92,18.25-7.68-6.4-16.86-13.18-27.7-19.77-5.65-3.43-11.16-6.46-16.45-9.13,13.75,2.6,30.38,6.77,48.47,13.69,20.1,7.68,36.25,16.54,48.47,24.34-7.49-9.78-14.98-19.57-22.47-29.35"/>
  <path vector-effect="non-scaling-stroke" class="cls-5" d="M837.95,195.07c2.78.7,9.58,2.17,19.02,1.92,9.82-.26,16.89-2.23,19.66-3.09"/>
  <path vector-effect="non-scaling-stroke" class="cls-5" d="M562.97,168.69c4.23-.69,14.45-1.9,27.34,1,13.41,3.01,22.06,8.76,25.39,11.19"/>
  <path vector-effect="non-scaling-stroke" class="cls-2" d="M573.9,233.19c-4.02-2.8-5.24-11.78-2.74-20.06,2.51-8.28,7.8-12.71,11.82-9.91,4.02,2.8,5.24,11.78,2.74,20.06-2.51,8.28-7.8,12.71-11.82,9.91Z"/>
  <path vector-effect="non-scaling-stroke" class="cls-2" d="M842.52,246.29c-4.02-2.8-5.24-11.78-2.74-20.06,2.51-8.28,7.8-12.71,11.82-9.91,4.02,2.8,5.24,11.78,2.74,20.06-2.51,8.28-7.8,12.71-11.82,9.91Z"/>
  <path vector-effect="non-scaling-stroke" class="cls-3" d="M526.18,341.78c10.03-12.48,14.56-13.85,16.85-12.87,3.63,1.55,2.16,9.23,6.05,10.87,5.79,2.43,15.18-12,19.58-9.73,2.96,1.53.32,8.92,3.36,10.78,3.08,1.88,10.04-3.07,17.89-10.34"/>
  <path vector-effect="non-scaling-stroke" class="cls-3" d="M792.33,351.34c10.03-12.48,14.56-13.85,16.85-12.87,3.63,1.55,2.16,9.23,6.05,10.87,5.79,2.43,15.18-12,19.58-9.73,2.96,1.53.32,8.92,3.36,10.78,3.08,1.88,10.04-3.07,17.89-10.34"/>
  <path vector-effect="non-scaling-stroke" class="cls-1" d="M713.48,413.72c-1.28,1.7-4.44,6.32-5.07,12.82-.56,5.72,1.14,9.78,2.05,11.87,1.09,2.51,2.46,4.51,3.85,6.08,1.82,2.06,3.7,3.43,5.12,4.3"/>
</svg>