<?xml version="1.0" encoding="UTF-8"?>
<svg id="Layer_1" data-name="Layer 1" xmlns="http://www.w3.org/2000/svg" viewBox="0 0 1185.31 777.35">
  <defs>
    <style>
      .cls-1, .cls-2, .cls-3, .cls-4, .cls-5 {
        stroke-miterlimit: 10;
      }

      .cls-1, .cls-2, .cls-4 {
        fill: none;
      }

      .cls-1, .cls-3, .cls-4, .cls-5 {
        stroke: #1f3555;
      }

      .cls-2 {
        stroke: #203555;
      }

      .cls-3 {
        stroke-width: .5px;
      }

      .cls-3, .cls-5 {
        fill: #1f3555;
      }

      .cls-4 {
        stroke-width: .75px;
      }

      .cls-5 {
        stroke-width: 2px;
      }
    </style>
  </defs>
  <path vector-effect="non-scaling-stroke" class="cls-1" d="M805.48,293.35c26.16,2.19,49.31-8.07,58.18-25.75,5.57-11.1,3.78-22.48,3.2-26.27-.18-1.18-4.35-25.99-25.55-37.52-14.63-7.96-21.67-1.05-36.82-9.92-12.94-7.57-10.31-14.08-22.26-22.31-15.8-10.88-43.64-15.52-59.94-1.65-2.85,2.43-10.3,9.64-12.34,24.52-14.74-9.91-55.55-34.38-106.21-27.3-11.74,1.64-22.11,4.71-30.96,8.24-2.68-3.34-14.59-17.42-35.44-20.34-19.24-2.7-33.72,5.85-37.68,8.26-12.01,7.33-11.88,13.51-24.22,25.35-16.84,16.18-24.25,11.56-40.77,24.99-3.13,2.54-33.63,28.08-29.7,60.43.59,4.86,2.64,21.71,16.88,30.66,13.71,8.62,33.82,6.84,50.64-4.79"/>
  <path vector-effect="non-scaling-stroke" class="cls-1" d="M499.02,285.3c-.15,13.54-1.89,33.97-10.51,56.81-10.32,27.36-20.22,30.9-24.18,47.68-8.41,35.68,22.57,78.03,54.66,99.41,41.66,27.76,89.15,22.82,113.53,20.29,19.83-2.06,40.9-8.14,83.04-20.29,31.09-8.96,46.63-13.44,52.56-17.25,47.89-30.71,20.89-147.82,10.51-187.67"/>
  <path vector-effect="non-scaling-stroke" class="cls-5" d="M588.38,373.68c3.05-4.82,15.64-7.7,28.11-6.43,12.47,1.27,20.1,6.2,17.05,11.02-3.05,4.82-15.64,7.7-28.11,6.43-12.47-1.27-20.1-6.2-17.05-11.02Z"/>
  <path vector-effect="non-scaling-stroke" class="cls-4" d="M575.18,547.32c-.4,12.8-.79,25.61-1.19,38.41-3.47-.64-8.97-1.22-15.45,0-6.18,1.17-14.77,2.79-18.42,9.75-3.12,5.96-1.41,13.55,2.38,18.35,5.84,7.4,16.06,7.43,24.36,7.45,6.46.02,17.01.05,23.76-6.88,4.37-4.48,5.23-9.9,5.94-14.91,1.54-10.77,3.22-25.45,4.16-43.57"/>
  <path vector-effect="non-scaling-stroke" class="cls-4" d="M775.38,472.22c15.14,16.69,26.49,31.67,34.46,43,15.23,21.65,22.92,32.81,26.73,49.3,4.14,17.93,1.84,33.58-.59,43.57"/>
  <path vector-effect="non-scaling-stroke" class="cls-4" d="M677.88,535.75c-.4,12.8-.79,25.61-1.19,38.41-3.47-.64-8.97-1.22-15.45,0-6.18,1.17-14.77,2.79-18.42,9.75-3.12,5.96-1.41,13.55,2.38,18.35,5.84,7.4,16.06,7.43,24.36,7.45,6.46.02,17.01.05,23.76-6.88,4.37-4.48,5.23-9.9,5.94-14.91,1.54-10.77,3.22-25.45,4.16-43.57"/>
  <path vector-effect="non-scaling-stroke" class="cls-4" d="M560.45,507.64c-4.09,11.48-8.26,27.35-9,46.49-.46,11.92.51,22.48,1.95,31.23"/>
  <path vector-effect="non-scaling-stroke" class="cls-2" d="M638.2,167.55c-4.87,2.8-18.64,11.59-22.99,27.64-1.3,4.8-3.49,12.89,1.13,20.36.35.56,5.52,8.65,14.64,9.78,10.3,1.27,15.43-7.6,21.49-5.01,5.71,2.44,2.51,11.3,9.36,15.91,5.85,3.94,14.56,1.86,19.49-.59,6.73-3.35,9.75-9.04,11.4-12.25,8.35-16.29,1.05-34.34-.94-38.9"/>
  <path vector-effect="non-scaling-stroke" class="cls-3" d="M547.34,291c1.52-.96,7.35-4.3,14.08-1.84,5.93,2.17,8.46,7.34,9.12,8.86.57,1.3,2.98,6.81.56,12.19-3.01,6.73-11.42,8.51-16.9,7.94-1.67-.18-7.31-.77-11.15-5.75-.57-.74-4.32-5.77-2.82-12.19,1.3-5.54,5.6-8.26,7.1-9.2Z"/>
  <path vector-effect="non-scaling-stroke" class="cls-3" d="M677.92,297.17c1.52-.96,7.35-4.3,14.08-1.84,5.93,2.17,8.46,7.34,9.12,8.86.57,1.3,2.98,6.81.56,12.19-3.01,6.73-11.42,8.51-16.9,7.94-1.67-.18-7.31-.77-11.15-5.75-.57-.74-4.32-5.77-2.82-12.19,1.3-5.54,5.6-8.26,7.1-9.2Z"/>
  <g>
    <path vector-effect="non-scaling-stroke" class="cls-4" d="M610.42,391.98c-.72,8.67-1.43,17.34-2.15,26.01"/>
    <path vector-effect="non-scaling-stroke" class="cls-4" d="M581.78,420.7c6.58-.7,14.47-1.07,23.35-.53,10.34.64,19.25,2.35,26.37,4.2"/>
  </g>
</svg>