<?xml version="1.0" encoding="UTF-8"?>
<svg id="Layer_1" data-name="Layer 1" xmlns="http://www.w3.org/2000/svg" viewBox="0 0 1185.31 841.25">
  <defs>
    <style>
      .cls-1, .cls-2, .cls-3, .cls-4, .cls-5, .cls-6, .cls-7 {
        stroke-miterlimit: 10;
      }

      .cls-1, .cls-2, .cls-3, .cls-4, .cls-6 {
        stroke: #1f3555;
      }

      .cls-1, .cls-4, .cls-5, .cls-6 {
        fill: none;
      }

      .cls-2, .cls-3 {
        fill: #1f3555;
      }

      .cls-2, .cls-4 {
        stroke-width: .5px;
      }

      .cls-3 {
        stroke-width: .75px;
      }

      .cls-5, .cls-6, .cls-7 {
        stroke-width: 2px;
      }

      .cls-5, .cls-7 {
        stroke: #203555;
      }

      .cls-7 {
        fill: #fff6eb;
      }
    </style>
  </defs>
  <path vector-effect="non-scaling-stroke" class="cls-6" d="M460.81,155.03c9.91-1.4,23.26-2.33,38.83-.68,18.41,1.95,33.14,6.78,43.22,10.94"/>
  <path vector-effect="non-scaling-stroke" class="cls-6" d="M454.95,189.91c3.87,4.01,13.82,13.22,30.04,17.1,22.35,5.35,40.42-3.3,44.69-5.47"/>
  <path vector-effect="non-scaling-stroke" class="cls-6" d="M428.18,264.7c11.51-8.92,15.62-9.18,17.28-7.84,2.62,2.12-.56,8.6,2.26,10.86,4.19,3.36,15.67-7.42,18.74-4.5,2.07,1.97-2.01,7.94.05,10.22,2.08,2.3,9.12-.61,17.49-5.39"/>
  <g>
    <path vector-effect="non-scaling-stroke" class="cls-5" d="M538.03,767.45c.98,19.93,1.96,39.86,2.94,59.79-11.46,1.85-22.93,3.69-34.39,5.54"/>
    <g>
      <path vector-effect="non-scaling-stroke" class="cls-6" d="M820.65,43.64c-23.9-12.37-62.51-29.17-112.92-37.52-107.27-17.75-189,15.86-204.24,22.38-35.76,15.3-86.38,36.95-112.54,88.53-13.51,26.63-15.73,51.85-15.63,68.1"/>
      <g>
        <path vector-effect="non-scaling-stroke" class="cls-6" d="M757.85,252.59c-5.45,1.8-18.9,5.46-35.14,1.63-22.37-5.27-33.83-20.92-36.47-24.73"/>
        <g>
          <g>
            <path vector-effect="non-scaling-stroke" class="cls-4" d="M214.96,402.43c-1.4-3.67-2.81-7.33-4.21-11"/>
            <path vector-effect="non-scaling-stroke" class="cls-4" d="M226.82,398.77c1.19-3.47,2.38-6.94,3.58-10.41"/>
            <path vector-effect="non-scaling-stroke" class="cls-4" d="M219.59,396.61c-.5,2.28-.94,4.87-1.19,7.73-.24,2.64-.28,5.08-.21,7.27"/>
            <path vector-effect="non-scaling-stroke" class="cls-4" d="M221.98,405.64c-.42.56-.98,1.44-1.33,2.62-.43,1.43-.38,2.66-.28,3.41"/>
            <g>
              <path vector-effect="non-scaling-stroke" class="cls-1" d="M223.54,454.12c-10.78-2.48-27.61-4.93-47.62-1.96-10.42,1.54-19.25,4.19-26.26,6.87"/>
              <path vector-effect="non-scaling-stroke" class="cls-1" d="M202.07,567.89c-2.06.17-5.44.38-9.59.26-13.92-.4-23.1-4.09-45.33-11.81-4.72-1.64-12.56-4.34-22.52-7.66-1.24-7.32-2.09-18.47,1.11-31.42,1.73-7.02,4.24-12.9,6.67-17.53-1.76-1.36-8.74-7.05-9.02-15.54-.38-11.69,12.26-18.82,15.41-20.6,8.99-5.06,17.76-4.83,27.31-4.58,7.72.2,19.33.51,31.51,7.19,7.21,3.96,19.7,10.81,21.01,23.21,1.23,11.68-8.27,20.54-10.15,22.23-.79,5.16-1.8,10.55-3.07,16.12-3.38,14.74-7.94,27.81-12.79,39.08"/>
              <path vector-effect="non-scaling-stroke" class="cls-1" d="M240.71,458.94c1.98-.15,20.4-1.27,32.71,12.15,9.49,10.34,9.07,22.47,8.79,25.95-1.19,15.1-12,23.98-14.07,25.62-2.01,8.96-4.54,18.41-7.74,28.24-1.36,4.18-2.77,8.23-4.22,12.15-6.45,1.47-13.5,2.83-21.11,3.94-7.89,1.15-15.31,1.87-22.16,2.3"/>
              <g>
                <path vector-effect="non-scaling-stroke" class="cls-1" d="M203.86,421.27c-7.2,3.13-19.02,7.94-34.2,12.45-23.88,7.1-34.87,7.17-44.05,16.23-5.22,5.15-8.22,11.59-11.01,29.22-2.51,15.81-4.6,39.04-1.58,68.14-4.1-1.22-8.22.29-9.85,3.22-1.06,1.9-1.18,4.6.25,6.21,2.18,2.46,8.19,2.56,13.54-1.61,6.89,4.19,14.76,8.43,23.63,12.41,18.6,8.34,35.97,12.97,50.22,15.63-.3,4.81,3.82,8.9,8.86,8.96,4.95.06,9.13-3.78,9.11-8.5,6.28.67,13.96.98,22.65.23,13.02-1.13,23.66-4.24,31.26-7.13,1.8,2.92,4.99,4.23,7.39,3.45,2.85-.93,3.39-4.44,3.45-4.83.47-3.39-1.97-7-6.15-9.19,4.87-8.85,11.63-21.79,18.71-37.92,6.73-15.34,10.1-23.15,10.34-30.11.78-23.19-17.34-40.91-24.86-48.27-6.04-5.91-16.81-14.87-33.48-21.61"/>
                <path vector-effect="non-scaling-stroke" class="cls-1" d="M224.63,425.03c3.1,6.29,7.01,15.96,8.36,28.1,1.77,15.86-2.55,20.23-9.45,53.62-5.42,26.23-5.02,34.52-12.26,53.62-2.99,7.9-5.98,14.2-8.05,18.31"/>
                <path vector-effect="non-scaling-stroke" class="cls-1" d="M207.88,410.49c-.63-2.73-1.76-6.84-3.79-11.63-2.9-6.8-6.67-14.1-6.33-13.57.47.74,3.47,5.25,9.35,6.18.96.15,4.26.62,7.77-1.07,4.3-2.08,5.75-5.88,6.04-6.72,1.14,1.01,3.85,3.14,8.06,4.03,4.51.96,8.17-.05,9.64-.54-4.14,9.13-8.28,18.26-12.41,27.39"/>
                <path vector-effect="non-scaling-stroke" class="cls-1" d="M235.17,395.37c4.22.9,8.44,1.79,12.66,2.69-5.54,6.28-11.07,12.57-16.61,18.85"/>
                <path vector-effect="non-scaling-stroke" class="cls-4" d="M212.23,422.09c-.36,1.26-1.04,2.98-2.35,4.76-2.43,3.29-5.63,4.83-7.19,5.47"/>
                <path vector-effect="non-scaling-stroke" class="cls-4" d="M218.76,425.02c-1.05,1.52-2.12,3.28-3.11,5.31-1.86,3.81-2.84,7.35-3.37,10.2"/>
                <path vector-effect="non-scaling-stroke" class="cls-4" d="M229.22,424.97c2.45,2.58,5.17,5.85,7.75,9.84,2.05,3.18,3.6,6.19,4.79,8.87"/>
                <path vector-effect="non-scaling-stroke" class="cls-3" d="M238.24,419.35c-.81-.8-1.94-.6-4.08-1-3.25-.61-4.32-1.75-7.67-3.35-5.27-2.5-9.88-3.13-13.47-3.61-4.16-.56-6.27-.82-7.81.27-3.23,2.28-3.21,8.56-.64,10.17,1.51.95,2.76-.44,6.38-.4,4.98.05,5.29,2.7,10.75,3.55,4.89.75,6.64-1.07,11.04.47,1.88.65,3.26,1.58,4.16,2.27,2.7-5.4,2.26-7.47,1.36-8.36Z"/>
                <path vector-effect="non-scaling-stroke" class="cls-2" d="M239.67,419.7c1.51-.45,3.71-1.14,6.35-2.07,3.58-1.25,5.79-2.19,6.32-1.56.46.55-.97,1.55-1.01,3.86-.01.59-.04,1.92.84,3,.93,1.14,2.17,1.14,2.2,1.66.03.69-2.18,1.44-4.22,1.81-2.34.42-6.32.69-11.74-1.18.42-1.84.84-3.68,1.27-5.52Z"/>
                <path vector-effect="non-scaling-stroke" class="cls-6" d="M257.53,430.3c9.49,4.39,36.18,15.25,70.2,9.83,45.23-7.2,69.67-37.8,74.58-44.24"/>
                <path vector-effect="non-scaling-stroke" class="cls-7" d="M254.35,429.94c-2.49,3.96-11.67,2.93-22.59,1.72-9.45-1.05-16.17-1.8-18.43-5.47-2.6-4.23,2.21-9.91,6.73-12.56,6.06-3.57,15.66-4.08,23.51.01,7.56,3.94,13.41,12.12,10.78,16.3Z"/>
              </g>
            </g>
            <g>
              <path vector-effect="non-scaling-stroke" class="cls-6" d="M599.27,238.48c-1.45,6.4-3.5,15.28-6.07,25.93-3.08,12.74-4.09,16.37-7.84,18.53-6.17,3.56-11.38-1.65-20.1,2.02-7.6,3.2-10.76,10.14-11.4,11.66-.63,1.48-3.42,8.5,0,16.42,4.15,9.62,14.04,12.61,15.38,13"/>
              <path vector-effect="non-scaling-stroke" class="cls-1" d="M491.44,333.68c-4.82,3.94-10.3,9.1-15.6,15.68-8.34,10.37-13.16,20.45-16,28"/>
              <g>
                <path vector-effect="non-scaling-stroke" class="cls-6" d="M929.37,283.91c-4.53,39.19-1.88,71.78,1.66,94.81,1.28,8.3,5.22,31.93,15.16,61.62,8.17,24.38,17.68,44.8,26.25,60.81-7.95,2.27-15.9,4.54-23.86,6.81-5.06-4.47-10.12-8.95-15.18-13.42.44,6.05.89,12.1,1.33,18.15-5.32,1.41-10.65,2.82-15.98,4.23"/>
                <g>
                  <path vector-effect="non-scaling-stroke" class="cls-6" d="M469.09,87.33c-53.99,50.17-78.89,100.3-90.63,129.95-14.4,36.38-27.38,70.57-16.18,111.82,11.62,42.79,42.6,68.66,56.64,80.09,40.99,33.33,84.48,41.2,135.95,49.86,73.57,12.39,155.98,26.27,218.48-16.62,32-21.96,59.38-59.2,64.74-66.49,15.41-20.95,25.68-40.15,32.37-54.4"/>
                  <path vector-effect="non-scaling-stroke" class="cls-6" d="M402.31,395.89c-11.37,52.04-24.75,106.43-40.53,162.84-15.17,54.25-31.3,105.85-47.93,154.69,22.74,7.47,57.26,18.07,100.03,28.21,97.28,23.08,175.06,41.53,263.63,26.27,35.06-6.04,92.15-20.87,156.3-63.24-20.16-87.41-40.31-174.82-60.47-262.23"/>
                  <path vector-effect="non-scaling-stroke" class="cls-6" d="M887.87,401.31c5.18,34.27,8.58,61.63,10.69,79.87,3.8,32.79,5.14,50.85,16.53,73.52,7.62,15.16,16.71,26.38,23.33,33.58-13.64,4.43-29.21,10.54-45.69,19.06-10.97,5.67-20.68,11.55-29.16,17.25"/>
                  <path vector-effect="non-scaling-stroke" class="cls-6" d="M865.57,332.82c12.84-3.98,26.23-.28,33.04,8.57,6.42,8.35,5.74,19.66,1.09,26.57-8.22,12.24-32.67,16.33-57.71,4.38"/>
                  <path vector-effect="non-scaling-stroke" class="cls-6" d="M775.88,443.89c7.7,5.14,21.12,14.06,38.1,25.06,33.04,21.41,40.06,25.14,42.67,33.26,6.95,21.61-25.63,48.54-37.78,57.88"/>
                  <path vector-effect="non-scaling-stroke" class="cls-6" d="M556.78,373.92c9.11-3.35,19.34-1.75,26.37,4.1,7.86,6.55,11.11,17.9,5.86,27.36-5.31,9.57-17.73,14.35-29.3,10.94"/>
                  <path vector-effect="non-scaling-stroke" class="cls-1" d="M635.4,358.32c7.33,6.08,15.21,13.26,23.19,21.66,7.67,8.06,14.15,15.9,19.59,23.15"/>
                  <path vector-effect="non-scaling-stroke" class="cls-7" d="M825.99,558.05c-.31,4.58-9,7.53-19.34,11.04-8.94,3.04-15.3,5.2-19.09,2.87-4.36-2.68-2.81-9.77-.06-14.05,3.69-5.74,12.01-10.24,20.99-9.88,8.65.34,17.82,5.17,17.49,10.02Z"/>
                  <path vector-effect="non-scaling-stroke" class="cls-5" d="M613.36,774.93c.98,19.93,1.96,39.86,2.94,59.79-11.46,1.85-22.93,3.69-34.39,5.54"/>
                </g>
              </g>
            </g>
          </g>
          <g>
            <path vector-effect="non-scaling-stroke" class="cls-6" d="M897.99,108.8c11.81,19.85,26.37,50.2,32.66,89.2,10.54,65.37-8.19,117.77-19.03,142.38"/>
            <path vector-effect="non-scaling-stroke" class="cls-6" d="M834.41,150.8c11.03,17.6,25.28,45,33.05,80.78,8.3,38.22,5.86,70.54,2.55,91.33"/>
            <path vector-effect="non-scaling-stroke" class="cls-6" d="M804.27,110.87c-29.87-13.18-68.09-26.52-113.74-34.49-106.33-18.57-194.96,2.08-243.03,17.25"/>
            <path vector-effect="non-scaling-stroke" class="cls-6" d="M818.34,44.41c6.31-1.33,26.99-4.89,47.23,5.74,20.02,10.51,26.79,28.19,33.02,44.46,2.59,6.77,4.61,12.19,2.3,13.98-5.97,4.64-35.07-19.69-44.54-27.61-6.42-5.36-31.61-26.43-29.18-29.4,1.27-1.55,8.41,3.82,44.16,24.02,1.52.86,10.98,6.2,17.66,16.49,1.16,1.79,2.92,4.5,2.3,5.02-1.69,1.41-17.93-16.34-42.24-33.7-23.5-16.79-38.83-21.98-38.01-23.66,1.07-2.19,29.29,2.36,51.07,20.44,18.83,15.63,25.63,35.37,28.26,45.79"/>
            <path vector-effect="non-scaling-stroke" class="cls-6" d="M782.67,228.32c-7.9-5.77-19.04-12.69-33.47-18.39-17.06-6.74-32.44-9.28-43.41-10.28"/>
          </g>
          <path vector-effect="non-scaling-stroke" class="cls-6" d="M679.41,316.58c11.51-8.92,15.62-9.18,17.28-7.84,2.62,2.12-.56,8.6,2.26,10.86,4.19,3.36,15.67-7.42,18.74-4.5,2.07,1.97-2.01,7.94.05,10.22,2.08,2.3,9.12-.61,17.49-5.39"/>
        </g>
      </g>
    </g>
  </g>
</svg>