<?xml version="1.0" encoding="UTF-8"?>
<svg id="Layer_1" data-name="Layer 1" xmlns="http://www.w3.org/2000/svg" viewBox="0 0 1185.31 777.35">
  <defs>
    <style>
      .cls-1 {
        stroke-width: .5px;
      }

      .cls-1, .cls-2 {
        fill: none;
      }

      .cls-1, .cls-2, .cls-3, .cls-4 {
        stroke-miterlimit: 10;
      }

      .cls-1, .cls-2, .cls-4 {
        stroke: #747369;
      }

      .cls-2 {
        stroke-width: 2px;
      }

      .cls-3 {
        fill: #1f3555;
        stroke: #1f3555;
        stroke-width: .75px;
      }

      .cls-4 {
        fill: #747369;
        stroke-width: .25px;
      }
    </style>
  </defs>
  <path vector-effect="non-scaling-stroke" class="cls-1" d="M643.49,294.55c-3.77-1.76-8.36-3.46-13.71-4.59-17.11-3.63-31.65.7-38.75,3.4"/>
  <path vector-effect="non-scaling-stroke" class="cls-1" d="M641.03,304.07c-4.16-.59-9.07-.88-14.53-.42-17.47,1.48-29.92,9.79-35.82,14.41"/>
  <path vector-effect="non-scaling-stroke" class="cls-1" d="M644.4,311.91c-4.09.9-8.78,2.33-13.68,4.67-15.67,7.45-24.04,19.53-27.74,25.87"/>
  <g>
    <path vector-effect="non-scaling-stroke" class="cls-4" d="M716.48,286.99c-3.26-2.06-6.53-.27-12.88.57-9.43,1.25-13.33-1.23-16.42,1.91-.19.19-1.81,1.89-1.87,4.25-.09,3.85,4.01,6.56,8.85,9.75,4.25,2.8,6.65,4.33,9.73,3.9,2.17-.3,3.56-1.49,6.25-3.86,3.7-3.25,10.58-9.29,8.71-13.93-.59-1.48-1.86-2.28-2.37-2.6Z"/>
    <path vector-effect="non-scaling-stroke" class="cls-1" d="M756.49,297.34c4.03-1.13,8.85-2.07,14.33-2.32,17.51-.83,31.06,5.77,37.58,9.57"/>
    <path vector-effect="non-scaling-stroke" class="cls-1" d="M754.3,305.55c4.19.35,9.03,1.16,14.23,2.83,16.61,5.33,26.66,16.19,31.25,21.99"/>
    <g>
      <path vector-effect="non-scaling-stroke" class="cls-1" d="M627.57,256.46c-3.47-14.66,5.14-29.78,19.24-33.76,14.1-3.98,28.34,4.67,31.81,19.34,3.47,14.66-5.14,29.78-19.24,33.76-14.1,3.98-28.34-4.67-31.81-19.34Z"/>
      <path vector-effect="non-scaling-stroke" class="cls-3" d="M633.55,250.94c.67-9.83,10.32-17.02,19.58-15.96,6.1.7,12.01,4.98,14.2,11.13,3.42,9.61-2.81,22.19-13.37,23.89-10.55,1.7-21.15-8.16-20.41-19.05Z"/>
      <g>
        <path vector-effect="non-scaling-stroke" class="cls-2" d="M566.67,198.06c-6.84-14.9-21.7-41.74-51.54-64.62-5.57-4.27-53.09-39.6-120.26-37.42-68.95,2.24-128.97,41.54-157.69,90.68-15.2,26.01-18.79,49.89-22.45,74.21-5.71,37.95-.56,57.69,5.98,122.4,0,0,6.68,58.37,9.02,123.15,4.32,119.86-13,168.88,23.28,209.11,6.35,7.04,21.08,22.9,44.76,26.33,31.71,4.59,56.2-15.87,57.52-17.01,27.14-23.61,23.98-63.07,20.94-94.89-6.43-67.3-36.77-122.57-67.31-162.56"/>
        <path vector-effect="non-scaling-stroke" class="cls-2" d="M393.23,231.99c8.61,3.87,32.66,16.02,44.29,41.87,15.89,35.3-3.39,69.45-11.15,83.19-20.38,36.1-54.22,51.83-67.03,57.02"/>
        <path vector-effect="non-scaling-stroke" class="cls-2" d="M343.83,465.69c16.79-2.19,31.38-3.66,43.12-4.69,20.62-1.8,41.32-2.89,62.02-3.47,9.32-.26,15.94-.33,20.75-4.96,7.52-7.25,6.43-21.61.77-31.11-6.43-10.8-18.29-14.36-30.33-17.79-10.79-3.08-30.65-6.99-56.86-1.94"/>
        <path vector-effect="non-scaling-stroke" class="cls-2" d="M586.89,364.51c-20.65-18.91-28.59-37.24-32.01-47.73-13.22-40.65,4.01-78.98,19.62-113.69,9.96-22.14,20.81-39.01,28.23-49.58,5.56,5.79,11.97,13.48,17.91,23.21,5.17,8.47,8.72,16.41,11.2,23.12,12.71-2.78,27.58-5.12,44.27-6.1,27.56-1.62,51.33,1,69.64,4.42.08-3.71.46-7.84,1.34-12.28,2.65-13.37,8.65-23.52,13.45-30.05,8.41,4.4,20.32,11.84,31.38,23.91,7.11,7.77,15.02,18.71,24.46,43.98,11.56,30.95,20.49,54.86,18.14,87.35-.97,13.46-2.82,38.94-19.84,64.93-23.26,35.51-59.96,49.26-80.81,56.75-27.92,10.04-51.31,12.3-108.06,12.95-38.8.45-89.85.14-150.29-2.7"/>
      </g>
      <path vector-effect="non-scaling-stroke" class="cls-1" d="M752.67,288.24c3.48-2.24,7.77-4.52,12.9-6.34,16.42-5.84,31.44-3.46,38.87-1.72"/>
      <path vector-effect="non-scaling-stroke" class="cls-1" d="M722.64,252.19c-3.47-14.66,5.14-29.78,19.24-33.76,14.1-3.98,28.34,4.67,31.81,19.34,3.47,14.66-5.14,29.78-19.24,33.76-14.1,3.98-28.34-4.67-31.81-19.34Z"/>
      <path vector-effect="non-scaling-stroke" class="cls-3" d="M728.62,246.67c.67-9.83,10.32-17.02,19.58-15.96,6.1.7,12.01,4.98,14.2,11.13,3.42,9.61-2.81,22.19-13.37,23.89-10.55,1.7-21.15-8.16-20.41-19.05Z"/>
    </g>
  </g>
</svg>