<?xml version="1.0" encoding="UTF-8"?>
<svg id="Layer_1" data-name="Layer 1" xmlns="http://www.w3.org/2000/svg" viewBox="0 0 1185.31 841.25">
  <defs>
    <style>
      .cls-1, .cls-2, .cls-3, .cls-4, .cls-5 {
        stroke-miterlimit: 10;
      }

      .cls-1, .cls-2, .cls-3, .cls-5 {
        stroke: #203555;
      }

      .cls-1, .cls-3, .cls-4 {
        fill: none;
      }

      .cls-2 {
        fill: #203555;
      }

      .cls-3, .cls-4, .cls-5 {
        stroke-width: 2px;
      }

      .cls-4 {
        stroke: #1f3555;
      }

      .cls-5 {
        fill: #fff6eb;
      }
    </style>
  </defs>
  <path vector-effect="non-scaling-stroke" class="cls-1" d="M338.78,263.58c-1.03,1.79-2.58,5.07-2.8,9.39-.27,5.07,1.42,8.95,2.4,10.84"/>
  <path vector-effect="non-scaling-stroke" class="cls-1" d="M331.48,259.65c-1.87,1.11-5,3.28-7.56,6.94-2.99,4.29-3.64,8.42-3.81,10.5"/>
  <g>
    <g>
      <path vector-effect="non-scaling-stroke" class="cls-3" d="M514.32,744.13c3.65,24.88,7.3,49.76,10.95,74.63-9.74,2.56-19.47,5.12-29.21,7.68"/>
      <g>
        <path vector-effect="non-scaling-stroke" class="cls-3" d="M424.74,399.69c-20.48,98.25-40.97,196.5-61.45,294.74,28.2,13.29,62.03,26.47,101.3,36.75,102.58,26.87,192.97,21.1,250.34,12.6"/>
        <path vector-effect="non-scaling-stroke" class="cls-3" d="M424.74,399.69c-7.92,4.12-19.57,10.65-32.66,19.91-27.63,19.56-45.22,32-45.5,48.28-.41,23.61,35.84,40.68,40.15,42.65"/>
        <path vector-effect="non-scaling-stroke" class="cls-5" d="M424.07,514.76c-2.28,3.5-10.68,2.59-20.67,1.52-8.64-.93-14.8-1.59-16.86-4.83-2.38-3.73,2.02-8.76,6.16-11.11,5.55-3.15,14.33-3.61,21.51.01,6.91,3.48,12.27,10.71,9.86,14.41Z"/>
      </g>
      <path vector-effect="non-scaling-stroke" class="cls-3" d="M625.68,750.17c-3.65,24.88-7.3,49.76-10.95,74.63,9.74,2.56,19.47,5.12,29.21,7.68"/>
    </g>
    <path vector-effect="non-scaling-stroke" class="cls-4" d="M377.84,313.23c3.13-12.01,5.98-14.25,7.98-14.13,3.17.2,4.67,6.34,8.06,6.53,5.04.28,7.05-13.03,11.02-12.5,2.68.36,3.23,6.6,6.07,7.18,2.88.59,6.3-4.97,9.59-12.5"/>
    <g>
      <g>
        <path vector-effect="non-scaling-stroke" class="cls-3" d="M335.26,161.21c-15.23,4.2-44.75,14.51-70.06,39.67-12.97,12.89-21.04,25.91-26.07,36,9.5-21.06,19.01-42.12,28.51-63.18-4.84.8-14.84,3.06-24.44,10.29-7.72,5.81-11.83,12.31-13.85,16.16.11-3.06,1.1-21.63,17.92-33.8,8.7-6.29,17.89-8.17,22.81-8.82"/>
        <path vector-effect="non-scaling-stroke" class="cls-3" d="M288.01,102.43c-10.45.36-36.47,2.54-61.91,19.1-20.11,13.09-30.41,29.02-35.03,37.47,3.33-3,10.95-9.03,22.81-11.75,8.64-1.98,16-1.4,20.37-.73-6.27,2.51-17.41,8.01-25.25,19.1-2.17,3.07-3.74,6.08-4.89,8.82"/>
      </g>
      <path vector-effect="non-scaling-stroke" class="cls-3" d="M400.87,219.34c-4.33-.75-22.35-3.4-39.91,6.54-12.55,7.11-18.37,16.98-20.56,21.27"/>
      <g>
        <path vector-effect="non-scaling-stroke" class="cls-3" d="M326.3,84.06c42.37-33.99,83.14-51.29,109.16-60.24,31.76-10.92,123.21-42.38,201.21-5.14,8.71,4.16,15.39,8.28,19.55,11.02,6.21-3.49,15.94-7.96,28.51-9.55,11.41-1.45,18.69.3,39.92,2.94,8.42,1.05,20.71,2.45,35.84,3.67-23.9,5.88-47.79,11.75-71.69,17.63,17.59,5.79,31.51,11.96,41.55,16.9,8.63,4.24,23.21,11.49,22,14.69-.71,1.87-6.36,1.25-22,1.47-9.08.13-16.46.47-21.18.73"/>
        <path vector-effect="non-scaling-stroke" class="cls-4" d="M497.67,193.92c1.75,5.56,4.21,13.28,7.27,22.52,3.66,11.06,4.83,14.2,8.4,15.91,5.87,2.8,10.28-2.09,18.48.66,7.15,2.39,10.5,8.34,11.19,9.64.67,1.27,3.69,7.31,1.09,14.48-3.15,8.71-11.98,11.91-13.18,12.32"/>
        <g>
          <path vector-effect="non-scaling-stroke" class="cls-3" d="M448.5,117.86c22.42-7.53,50.83-14.32,83.91-16.16,35.09-1.96,53.13-2.96,74.95,5.14,10.43,3.88,23.29,10.42,26.07,7.35,2.22-2.45-3.11-9.84-7.33-13.96-8.73-8.53-20.26-10.47-25.25-11.02,15.69-.34,28.26.59,36.66,1.47,3,.31,1.41.2,39.1,5.88,10.04,1.51,20.44,1.63,30.14,4.41,4.87,1.39,9.09,2.98,10.59,1.47,2.21-2.23-2.99-9.73-8.15-16.16"/>
          <path vector-effect="non-scaling-stroke" class="cls-3" d="M838.77,175.53c5,6.46,12.04,17.26,16.03,31.95,3.57,13.17,3.34,24.47,2.53,31.95"/>
          <g>
            <path vector-effect="non-scaling-stroke" class="cls-3" d="M696.14,110.51c11.52,20.89,26.62,53.25,35.03,94.77,5.98,29.55,10.35,51.11,4.96,73.26-18.31,75.23-137.18,107.5-155.59,112.5-7.72,2.1-156.01,40.47-239.75-29.39-30.89-25.76-58.04-70.45-63.37-79.23-13.7-22.54-22.7-42.61-28.51-57.3"/>
            <path vector-effect="non-scaling-stroke" class="cls-3" d="M712.75,318.53c13.45,29.11,26.9,58.22,40.35,87.32"/>
            <path vector-effect="non-scaling-stroke" class="cls-3" d="M712,320.47c6.56,2.59,15.45,5.42,26.28,7.02,9.42,1.39,17.7,1.48,24.25,1.13"/>
            <path vector-effect="non-scaling-stroke" class="cls-2" d="M503.82,298.14c-2,2.75-3.08,5.7-3.95,8.07-3,8.2-4.02,18.62-1.07,19.62,1.55.53,2.6-2.09,8.86-5.86,4.87-2.93,9.31-4.41,12.11-5.33,4.4-1.44,7.69-2,9.74-2.4,11.04-2.13,12.03-4.35,23.92-7.46,15.93-4.16,18.37-1.27,28.34-5.86,3.13-1.44,5.9-3.11,10.92-4.26,3.58-.82,5.62-.76,12.7-1.86,8.49-1.33,8.99-1.96,9.15-2.4,1.23-3.26-10.96-9.71-13.21-10.87-.99-.51-6.23-3.18-11.3-4.57-13.57-3.72-24.21,2.21-59.35,10.65-11.31,2.72-21.23,4.75-26.87,12.51Z"/>
          </g>
          <path vector-effect="non-scaling-stroke" class="cls-3" d="M579.11,190.51c2.79-3.08,14.73-15.54,35.27-18.08,14.68-1.81,26.17,2.39,30.9,4.42"/>
          <path vector-effect="non-scaling-stroke" class="cls-1" d="M658.9,182.05c2.23.2,6.12.81,10.26,2.99,4.86,2.56,7.55,5.94,8.77,7.72"/>
          <path vector-effect="non-scaling-stroke" class="cls-1" d="M659.25,173.77c2.09-.73,5.87-1.76,10.66-1.49,5.61.31,9.71,2.24,11.68,3.34"/>
          <path vector-effect="non-scaling-stroke" class="cls-5" d="M838.73,173.65c-5.05,3.28-11.85,4.87-17.39,3.91-17.75-3.09-25.45-32.9-21.55-34.95,1.33-.7,4.91,1.36,13.82,11.13,1.55-1.75,5.88-6.13,13.16-7.71,2.46-.54,6.79-1.48,11.19.3,6.85,2.76,10.61,10.79,8.88,17.51-1.41,5.49-6.09,8.52-8.11,9.83Z"/>
          <path vector-effect="non-scaling-stroke" class="cls-4" d="M615.03,240.75c3.13-12.01,5.98-14.25,7.98-14.13,3.17.2,4.67,6.34,8.06,6.53,5.04.28,7.05-13.03,11.02-12.5,2.68.36,3.23,6.6,6.07,7.18,2.88.59,6.3-4.97,9.59-12.5"/>
        </g>
      </g>
    </g>
  </g>
</svg>