<?xml version="1.0" encoding="UTF-8"?>
<svg id="Layer_1" data-name="Layer 1" xmlns="http://www.w3.org/2000/svg" viewBox="0 0 1185.31 777.35">
  <defs>
    <style>
      .cls-1, .cls-2, .cls-3, .cls-4 {
        stroke-miterlimit: 10;
      }

      .cls-1, .cls-3, .cls-4 {
        fill: none;
        stroke: #203555;
      }

      .cls-2 {
        fill: #1f3555;
        stroke: #1f3555;
      }

      .cls-2, .cls-3 {
        stroke-width: .5px;
      }

      .cls-4 {
        stroke-width: .75px;
      }
    </style>
  </defs>
  <path vector-effect="non-scaling-stroke" class="cls-1" d="M355.91,296.53c-7.73-12.7-8.07-23.94-7.97-28.29.55-23.68,18.8-45.11,35.86-47.46,10.11-1.39,17.74,4.21,21.52-.91,3.51-4.76-1.46-11.75.8-21.9.94-4.22,3.48-10.6,14.35-19.17,25.88-20.41,60.98-23.22,68.54-23.73,14.18-.95,25.13.28,47.02,2.74,31.44,3.53,47.43,5.5,60.57,15.52,7.13,5.44,18.67,16.58,27.1,39.25"/>
  <path vector-effect="non-scaling-stroke" class="cls-1" d="M680.27,232.64c30.02,8.08,38.81,19.04,40.65,28.29,3.22,16.29-14.53,30.44-8.77,48.37.95,2.95,2.21,5.01,15.14,17.34,27.11,25.86,31.18,26,35.86,35.59,5.53,11.34,8.72,29.33,1.59,42.9-6.11,11.64-17.84,16.27-23.46,18.48-3.55,1.4-9.55,3.77-17.19,3.42-18.54-.85-21.36-16.57-41.44-20.08-10.42-1.82-13.65,1.72-22.55-2.6-2.39-1.16-11.14-5.56-16-15.64-5.89-12.23-4.03-28.6,4.27-42"/>
  <path vector-effect="non-scaling-stroke" class="cls-1" d="M354.7,218.16c-7.35,9.55-12.35,16.53-15.97,21.86-2.17,3.2-5.71,8.54-11.8,13.87-.52.45-2.11,1.83-4.27,3.39-11.17,8.08-20.72,8.96-31.93,15.46-8.56,4.97-13.99,8.29-17.35,15.48-4.56,9.76.5,14.51-4.48,25.67-3.66,8.22-7.35,7.79-9.86,16.13-.77,2.56-3.24,10.78.28,18.71,2.62,5.91,7.87,10.11,13.25,11.34,9.77,2.23,15.33-6.45,21.98-2.27,2.79,1.75,2.21,3.5,5.89,7.33,1.79,1.87,8.45,6.76,15.84,8.07,13.89,2.47,26.85-8.14,28.45-9.48"/>
  <path vector-effect="non-scaling-stroke" class="cls-1" d="M353.2,308.9c-9.36,22.18-7.91,34.76-4.43,42.28,3,6.48,7.34,8.83,8.86,17.33,1.6,8.93-2.04,12.81-2.58,24.1-.19,3.91-.75,15.46,4.06,24.52,7.15,13.45,19.66,9.22,36.92,24.52,10.44,9.25,6.57,11.43,14.77,17.76,19.14,14.78,36.58.05,58.33,14.37,9.55,6.29,5.77,8.86,14.77,14.8,17.55,11.59,34.66,3.6,84.17-4.23,10.65-1.68,19.21-2.79,24-3.38"/>
  <path vector-effect="non-scaling-stroke" class="cls-1" d="M610.87,475.04c14.76-.63,22.54-5.95,26.95-10.99,3.49-3.99,5.32-8.32,11.81-14.8,5.39-5.38,9.85-8.11,12.18-9.72,6.51-4.51,15.06-13.28,23.26-32.13"/>
  <path vector-effect="non-scaling-stroke" class="cls-1" d="M397.67,444.68c-2.92,10.9-7.7,20.05-15.04,26.23-4.49,3.78-5.19,3.21-10.85,7.24-10.91,7.79-8.57,15.27-18.53,22.25-7.02,4.93-10.56,2.87-14.01,8.28-2.87,4.5-1.15,7.05-3.61,15.01-2.69,8.67-5.99,9.66-9.49,17.59-3.69,8.37-4.28,16.94-4.07,21.74.91,20.05,18.64,33.13,20.79,34.67,18.32,13.11,45.83,8.5,69.14-11.38"/>
  <path vector-effect="non-scaling-stroke" class="cls-1" d="M471.21,523.69c-5.58,3.45-8.62,7.54-9.94,11.9-2.42,7.99,2.24,12.68-.45,21.22-.96,3.05-3.82,6.39-9.49,12.94-5.57,6.44-8.29,8.76-12.65,13.46-7.57,8.14-11.91,12.81-14.46,18.11-6.27,13.05-2.17,30.96,2.26,39.33,10.89,20.6,46.65,26.69,86.31,8.28"/>
  <path vector-effect="non-scaling-stroke" class="cls-1" d="M563.84,624.61c2.11-6.48,5.99-15.14,13.56-21.22,4.37-3.51,4.84-2.04,9.04-5.18,13.38-10,11.28-26.94,23.5-32.08,2.52-1.06,2.66-.36,4.97-1.55,8.02-4.14,11.46-15.22,13.1-24.32"/>
  <path vector-effect="non-scaling-stroke" class="cls-1" d="M619.4,562.18c15.5,13.6,24.91,14.11,30.75,11.71,9.06-3.72,12.95-15.81,23.05-15.53,3.85.11,3.64,1.87,9.49,3.62,13.51,4.04,25.78-2.06,28.92-3.62,7.06-3.51,13.44-6.68,17.17-13.97.91-1.79,1.69-3.86,3.62-4.66,4.26-1.76,7.03,5.72,13.56,7.76,10.34,3.23,17.3-11.18,27.56-7.24,3.32,1.28,2.65,2.81,8.13,5.69,6.31,3.32,10.77,3.17,14.91,4.14,8.66,2.04,12.67,8.22,18.98,13.97,17.09,15.57,39.01,16.95,49.26,17.59,11.4.72,21.08,1.33,32.08-4.66,2.11-1.15,25.28-14.28,28.02-41.92,1.19-12.05-2-21.82-4.07-26.91"/>
  <path vector-effect="non-scaling-stroke" class="cls-1" d="M714.1,294.03c16.11-1.6,29.94-3.29,40.89-4.76,25.2-3.37,29.33-4.89,34.34-8.28,11.72-7.92,18.37-21.41,24.4-33.64,6.12-12.41,4.97-14.76,9.94-20.7,7.32-8.75,19.96-15.78,32.54-12.42,8.67,2.32,18.45,9.89,18.18,16.84-.17,4.31-4.17,7.4-2.81,10.59.77,1.8,2.53,1.96,5.27,3.3,0,0,4.67,2.29,9.51,8.07,5.88,7.04,5.37,18.13,5.11,23.82-.34,7.4-.83,17.86-7.68,24.84-9.02,9.18-25.63,8.83-29.82,1.04-2.25-4.18-1.33-11.27,2.26-14.49,4.06-3.64,10.96-1.8,14.46,2.07,6.67,7.38,3.29,24.68-2.71,34.67-12.21,20.32-39.27,17.08-41.1,16.83"/>
  <path vector-effect="non-scaling-stroke" class="cls-1" d="M809.82,331.67c5.8,1.48,18.57,5.72,29.83,18.58,5.69,6.5,13.71,15.65,15.08,29.09,1.19,11.63-3.35,19.23,1.15,25.34,2.38,3.24,5.04,2.98,11.23,4.99,5.32,1.73,24.93,8.11,27.88,20.32,2.25,9.28-6.35,16.93-2.53,23.22,1.93,3.17,5.15,2.93,8.24,4.35,5.6,2.58,11.81,11.11,13.94,37.73"/>
  <path vector-effect="non-scaling-stroke" class="cls-1" d="M717.41,556.34c13.19,9.96,23.62,19.14,31.16,26.18,12.99,12.13,16.16,16.75,24.88,20.79,5.49,2.54,23.23,10.77,37.88-.26,12.58-9.47,14.66-26.94,15.02-30.55"/>
  <path vector-effect="non-scaling-stroke" class="cls-4" d="M783.74,586.38c2.13,2.45,5.12,6.56,7.16,12.47,1.06,3.06,1.61,5.87,1.91,8.2"/>
  <path vector-effect="non-scaling-stroke" class="cls-4" d="M802.84,581.02c2.01,1.73,4.46,4.15,6.88,7.44,2.49,3.39,4.2,6.67,5.35,9.3"/>
  <path vector-effect="non-scaling-stroke" class="cls-4" d="M345.99,566.17c-1.53.1-5.32.57-8.96,3.71-4.78,4.11-5.96,9.9-6.23,11.41"/>
  <path vector-effect="non-scaling-stroke" class="cls-4" d="M365.01,580.95c-2.04,1.24-4.68,3.16-7.31,6.11-3.76,4.23-5.8,8.68-6.88,11.58"/>
  <path vector-effect="non-scaling-stroke" class="cls-4" d="M442.33,617.83c-2.29.92-4.88,2.18-7.61,3.89-4.48,2.82-7.94,5.99-10.47,8.72"/>
  <path vector-effect="non-scaling-stroke" class="cls-4" d="M464.07,636.82c-2.58,1.14-5.98,3-9.51,6.07-4.31,3.75-7.13,7.82-8.83,10.74"/>
  <path vector-effect="non-scaling-stroke" class="cls-4" d="M526.66,638.22c-.28,2.09-.47,4.6-.38,7.43.15,4.54.97,8.32,1.78,11.07"/>
  <path vector-effect="non-scaling-stroke" class="cls-4" d="M540.4,633.7c-.05,1.62.05,5.02,1.78,8.59,2.63,5.42,7.12,7.29,8.27,7.72"/>
  <path vector-effect="non-scaling-stroke" class="cls-4" d="M643.01,203.71c2.24-.82,4.94-2.09,7.79-4.08,5.01-3.5,8.29-7.72,10.24-10.71"/>
  <path vector-effect="non-scaling-stroke" class="cls-1" d="M659.27,217.48c2.58.45,6.04.7,10.02,0,7.68-1.34,13.1-5.48,15.81-7.91"/>
  <path vector-effect="non-scaling-stroke" class="cls-1" d="M444.4,510.44c.68,2.52,1.83,5.72,3.82,9.02,4.36,7.23,10.17,10.6,13.07,11.99"/>
  <g>
    <path vector-effect="non-scaling-stroke" class="cls-4" d="M466.4,380.99c3.74,4.31,9.89,10.15,18.71,13.9,13.8,5.87,25.88,3.1,30.44,1.98,5.82-1.43,10.43-3.64,13.54-5.4,1.38.65,3.24,1.7,5.17,3.42,1.46,1.29,8.84,7.86,8.56,17.78-.24,8.39-5.89,16.35-11.74,17.78-8.6,2.09-21.02-9.13-25.27-30.08"/>
    <path vector-effect="non-scaling-stroke" class="cls-3" d="M521.31,398.82c.81,1.87,1.78,3.88,2.96,5.98,1.45,2.58,2.93,4.81,4.32,6.69"/>
  </g>
  <path vector-effect="non-scaling-stroke" class="cls-2" d="M487.95,329.19c1.04-1.17,2.55-2.25,13.07-2.77,10.99-.54,13.01.47,14.5,1.81.53.48,3.35,3.13,3.69,7.26.42,5.13-3.26,9.05-6.32,12.3-3.29,3.5-6.49,6.89-11.28,7.07-6.3.23-10.7-5.26-12.67-7.73-1.59-1.98-3.17-4.01-3.69-7.26-.58-3.61.28-7.95,2.71-10.69Z"/>
  <path vector-effect="non-scaling-stroke" class="cls-2" d="M559.1,273.73c1.28-.9,6.16-4.04,11.8-1.73,4.97,2.04,7.09,6.9,7.64,8.32.48,1.22,2.49,6.4.47,11.46-2.53,6.32-9.57,8-14.16,7.46-1.4-.17-6.13-.72-9.34-5.4-.48-.7-3.62-5.43-2.36-11.46,1.09-5.21,4.7-7.76,5.95-8.65Z"/>
  <path vector-effect="non-scaling-stroke" class="cls-2" d="M439.56,269.52c1.28-.9,6.16-4.04,11.8-1.73,4.97,2.04,7.09,6.9,7.64,8.32.48,1.22,2.49,6.4.47,11.46-2.53,6.32-9.57,8-14.16,7.46-1.4-.17-6.13-.72-9.34-5.4-.48-.7-3.62-5.43-2.36-11.46,1.09-5.21,4.7-7.76,5.95-8.65Z"/>
</svg>