<?xml version="1.0" encoding="UTF-8"?>
<svg id="Layer_1" data-name="Layer 1" xmlns="http://www.w3.org/2000/svg" viewBox="0 0 1185.31 819.01">
  <defs>
    <style>
      .cls-1, .cls-2 {
        fill: none;
      }

      .cls-1, .cls-2, .cls-3 {
        stroke: #1f3555;
        stroke-miterlimit: 10;
      }

      .cls-2 {
        stroke-width: .75px;
      }

      .cls-3 {
        fill: #1f3555;
        stroke-width: 2px;
      }
    </style>
  </defs>
  <path vector-effect="non-scaling-stroke" class="cls-1" d="M886.89,223.31c24.24,11.88,51.79,14.13,70.18,2.61,29.03-18.2,21.35-62.05,11.54-84.26-6.56-14.85-17.51-24.96-39.41-45.17-32.42-29.92-48.63-44.88-71.14-51.25-44.46-12.58-88.32,10.73-103.08,19.44-21.97-13.83-82.81-47.98-158.33-38.1-17.51,2.29-32.95,6.57-46.15,11.5-14.02-9.14-38.63-22.07-69.3-21.51-39.6.72-66.45,25.04-120.16,73.67-59.99,54.32-61.34,75.76-60.68,85.59.25,3.71,2.42,29.43,25.16,42.8,20.61,12.11,50.68,9.71,75.49-6.69"/>
  <path vector-effect="non-scaling-stroke" class="cls-1" d="M440.56,191.48c-.23,18.9-2.82,47.41-15.67,79.29-15.39,38.18-30.14,43.12-36.04,66.55-12.54,49.8,33.64,108.91,81.48,138.76,62.11,38.75,132.89,31.86,169.23,28.32,29.55-2.88,60.97-11.36,123.79-28.32,46.34-12.51,69.51-18.77,78.35-24.07,71.39-42.86,31.14-206.31,15.67-261.94"/>
  <path vector-effect="non-scaling-stroke" class="cls-1" d="M456.38,559.51c-4.46-3.29-11.36-8.44-19.72-14.85-29.17-22.39-33.01-27.24-42.72-28.5-19.13-2.49-35.34,12.31-38.12,14.85-11.63,10.61-20.57,28.39-15.12,45.72,1.17,3.7,5.93,18.81,21.03,23.16,8.98,2.59,22.59,1.64,29.57-7.13,5.12-6.43,4.18-13.92,3.8-16.17,12.82,9.42,25.63,18.84,38.45,28.27"/>
  <path vector-effect="non-scaling-stroke" class="cls-1" d="M443.65,461.17c-5.26,7.37-11.66,18.11-16.07,31.95-5.25,16.46-5.6,30.77-5,40.34"/>
  <path vector-effect="non-scaling-stroke" class="cls-1" d="M851.59,445.52c24.98,19.24,29.21,32.76,27.76,41.9-1.12,7.03-6.15,16.02-4.3,30.09.76,5.79,2.51,9.86,3.22,11.65,8.96,22.31,11.59,70.3,11.82,74.74,3.02,58.78-16.37,121.63-19.34,131.03"/>
  <path vector-effect="non-scaling-stroke" class="cls-1" d="M414.36,621.77c-2.93,16.88-5.08,35.89-5.58,56.7-.89,37.21,3.77,69.65,9.76,95.75"/>
  <path vector-effect="non-scaling-stroke" class="cls-1" d="M748.33,579.19c-4.46-3.29-11.36-8.44-19.72-14.85-29.17-22.39-33.01-27.24-42.72-28.5-19.13-2.49-35.34,12.31-38.12,14.85-11.63,10.61-20.57,28.39-15.12,45.72,1.17,3.7,5.93,18.81,21.03,23.16,8.98,2.59,22.59,1.64,29.57-7.13,5.12-6.43,4.18-13.92,3.8-16.17,12.82,9.42,25.63,18.84,38.45,28.27"/>
  <path vector-effect="non-scaling-stroke" class="cls-3" d="M532.9,225.11c-1.49-2.71-.9-6.55,1.31-8.57,2.21-2.02,5.21-1.46,6.7,1.25s.9,6.55-1.31,8.57c-2.21,2.02-5.21,1.46-6.7-1.25Z"/>
  <path vector-effect="non-scaling-stroke" class="cls-3" d="M726.01,241.3c-1.49-2.71-.9-6.55,1.31-8.57,2.21-2.02,5.21-1.46,6.7,1.25,1.49,2.71.9,6.55-1.31,8.57-2.21,2.02-5.21,1.46-6.7-1.25Z"/>
  <path vector-effect="non-scaling-stroke" class="cls-3" d="M573.77,314.83c4.55-6.72,23.31-10.74,41.9-8.98,18.59,1.77,29.97,8.65,25.42,15.37-4.55,6.72-23.31,10.74-41.9,8.98-18.59-1.77-29.97-8.65-25.42-15.37Z"/>
  <path vector-effect="non-scaling-stroke" class="cls-2" d="M615.27,365.67c-.91,3.55-4.67,16.24-18.07,24.67-20.87,13.12-45.3,3.43-46.57,2.9"/>
  <path vector-effect="non-scaling-stroke" class="cls-2" d="M614.33,359.5c.07,3.64.79,16.77,11.94,27.54,17.36,16.78,43.5,11.93,44.87,11.66"/>
</svg>