<?xml version="1.0" encoding="UTF-8"?>
<svg id="Layer_1" data-name="Layer 1" xmlns="http://www.w3.org/2000/svg" viewBox="0 0 1185.31 819.01">
  <defs>
    <style>
      .cls-1 {
        fill: #1f3555;
      }

      .cls-1, .cls-2 {
        stroke: #1f3555;
        stroke-miterlimit: 10;
        stroke-width: 2px;
      }

      .cls-2 {
        fill: none;
      }
    </style>
  </defs>
  <path vector-effect="non-scaling-stroke" class="cls-2" d="M138.86,491.44c-6.55,2.81-15.44,7.89-20.83,17.23-5.11,8.84-2.97,14.41-5.03,27.63-1.51,9.73-2.91,8.61-17.95,46.15-7.78,19.41-10.06,25.43-8.98,34.37,1.16,9.53,4.74,10.89,5.98,20.62,1.76,13.83-4.14,21.66-7.98,34.37-5.2,17.22-4.55,36.5,0,50.08,8.01,23.89,31.4,40.04,51.86,46.15,36.34,10.86,68.51-8.46,88.76-20.62,24.47-14.69,38.96-41.82,69.81-93.29,2.37-3.95,6.29-10.73,10.2-19.95,5.04-11.89,7.24-21.24,7.75-23.26,2.99-11.73,14.42-32.99,49.86-74.63"/>
  <path vector-effect="non-scaling-stroke" class="cls-2" d="M306.62,630.87c18.8,5.63,63.31,17.25,101.56,9.52,18.18-3.68,27.27-5.51,34.28-9.19,0,0,20.95-10.99,39.79-15.22.57-.13,2.07-.44,2.55.22.76,1.04-1.7,3.53-4.49,8.01-2.4,3.85-3.98,6.38-4.32,9.31-.65,5.59,3.49,10.31,3.99,10.8,8.77,8.65,29.31,6.03,43.88-.98,12.39-5.96,16.39-13.15,26.93-12.77,6.86.25,11.85,3.54,13.96,4.91,18.26,11.84,39.21,19.19,57.84,30.44,14.37,8.68,45.53,27.5,81.78,26.51,41.57-1.13,69.76-28.41,72.8-31.42,41-40.6,30.42-97.74,29.38-102.9"/>
  <path vector-effect="non-scaling-stroke" class="cls-2" d="M807.99,580.68c7.37,7.11,24.46,21.65,50.95,28.01,6.69,1.61,30.5,7.03,55.25-1.01,52.82-17.16,66.15-81.48,66.71-84.43"/>
  <path vector-effect="non-scaling-stroke" class="cls-2" d="M763.46,119.9c5.44-4.46,15.6-11.62,30.21-15.44,7.04-1.84,23.23-5.86,41.27.43,8.24,2.87,16.17,9.56,32.01,22.92,2.64,2.22,6.66,5.73,9.8,11.58,2.5,4.65,3.48,8.99,3.92,11.97"/>
  <path vector-effect="non-scaling-stroke" class="cls-2" d="M518.93,270.64c-39.72-9.37-65.55-3.31-81.93,4.14-17.94,8.17-18.38,15.55-36.38,20.74-29.18,8.42-42.57-5.53-74.67,0-18.56,3.2-17.62,8.47-47.87,20.74-46.16,18.72-55.3,9.25-82.33,22.62-4.44,2.2-54.76,28.1-65.1,82.95-7.62,40.4,10.91,72.88,17.23,82.95"/>
  <path vector-effect="non-scaling-stroke" class="cls-2" d="M653.52,449.88c15.5,11.66,28.2,20.56,36.9,26.51,12.73,8.71,22.75,15.12,21.94,22.59-.63,5.78-7.15,6.54-7.98,12.77-1.44,10.85,16.67,21.3,18.95,22.59,3.22,1.82,7.79,3.97,32.91,8.84,21.83,4.23,19.72,2.87,26.93,4.91,21.89,6.2,25.97,14.43,35.9,11.78,9.99-2.67,8.83-11.79,18.95-14.73,10.59-3.07,15.63,5.82,35.9,10.8,9.05,2.23,28.34,6.97,37.9-1.96,8.17-7.64,1.43-17.99,8.98-25.53,9.41-9.41,25.04,1.54,45.87-1.96,22.75-3.83,46.39-23.98,50.86-47.14,5.01-25.97-13.72-57.7-25.2-65.27-1.76-1.16-9.51-5.81-10.09-12.9-.13-1.56.13-2.72.67-4.96,2.11-8.84,3.16-13.25,4.2-16.53,4.63-14.63-4.94-33.19-6.15-35.54-3.65-7.07-6.94-13.47-14.23-17.82-4.57-2.73-8.39-3.27-8.67-5.61-.49-4.12,11.05-5.03,16.07-13.19,4.86-7.91.91-18.31-3.75-30.59-3.28-8.64-7.95-15.22-17.3-28.37-6.44-9.06-9.95-12.65-15.21-14.59-2.92-1.08-6.23-1.6-6.24-2.69-.02-1.68,7.77-1.2,13.45-5.38,5.76-4.24,10.17-13.85,7.6-20.73-4.96-13.3-33.26-9.07-37.63-22.85-1.62-5.12,1.87-7.05,0-12.48-4.25-12.34-26.69-15.16-29.83-15.55-25.11-3.15-32.74,9.68-54.46,7.21-8.51-.97-16.87-5.82-33.59-15.54-37.73-21.91-54.13-41.15-67.19-35.59-1.11.48-4.83,2.06-6.11,5.51-2.9,7.84,10.34,15.56,8.14,21.05-1.14,2.86-6.31,4.72-38.68,4.01-19.74-.43-25.48-1.29-28.5,2.51-2.68,3.36-3.35,10.54,6.62,27.57"/>
  <path vector-effect="non-scaling-stroke" class="cls-2" d="M670.66,138.32c-2.6-2.98-19.49-21.76-44.39-20.66-19.28.85-32.11,13.11-38.34,19.07-16.16,15.46-9.9,22.84-27.44,48.48-15.34,22.42-25.64,24.85-35.11,47.29-3.78,8.95-6.79,16.09-6.72,25.41.19,25.84,23.98,58.14,58.78,61.22,26.56,2.35,52.81-12.94,65.31-38.31"/>
  <path vector-effect="non-scaling-stroke" class="cls-2" d="M180.69,348.13c-7.55-4.9-22.99-16.65-25.3-34.46-3.35-25.79,22.42-51.81,46.4-60.43,17.27-6.21,34.92-3.81,36.69-11.23,1.14-4.77-4.82-9.89-6.94-11.72-15.5-13.33-46.33-16.35-68.93-3.42-30.84,17.65-36.45,59.39-45.13,57.13-2.75-.72-4-5.4-5.95-12.7-3.81-14.28-.57-22.86-2.48-23.44-3.01-.91-17.73,18.53-12.89,36.13,2.66,9.68,10.68,16.75,8.93,18.55-1.77,1.83-9.82-5.54-14.38-2.93-4.25,2.44-2.86,12.05-2.48,14.65,3.36,23.14,39.23,66.07,52.56,81.54"/>
  <path vector-effect="non-scaling-stroke" class="cls-1" d="M765.94,300.22c1.47-.91,7.08-4.07,13.56-1.74,5.71,2.05,8.15,6.95,8.79,8.38.55,1.23,2.87,6.44.54,11.54-2.9,6.37-11,8.05-16.27,7.51-1.61-.17-7.04-.73-10.74-5.44-.55-.7-4.16-5.46-2.71-11.54,1.25-5.24,5.4-7.81,6.83-8.71Z"/>
  <path vector-effect="non-scaling-stroke" class="cls-1" d="M893.71,278.38c1.32-.9,6.36-4.04,12.18-1.73,5.13,2.04,7.32,6.9,7.89,8.33.49,1.22,2.58,6.4.49,11.46-2.61,6.33-9.88,8-14.62,7.46-1.45-.17-6.33-.72-9.65-5.41-.49-.7-3.74-5.43-2.44-11.46,1.12-5.21,4.85-7.77,6.14-8.65Z"/>
  <path vector-effect="non-scaling-stroke" class="cls-1" d="M881.32,373.43c-1.11-1.19-2.79-2.24-15.24-1.65-13,.62-15.5,1.96-17.41,3.63-.68.59-4.3,3.86-5.14,8.51-1.04,5.78,2.94,9.74,6.23,13.03,3.55,3.54,6.99,6.98,12.67,6.64,7.46-.44,13.25-7.06,15.86-10.03,2.09-2.39,4.18-4.83,5.14-8.51,1.06-4.09.49-8.84-2.11-11.63Z"/>
  <path vector-effect="non-scaling-stroke" class="cls-2" d="M1047.82,250.78c6.07,3.68,14.48,9.81,21.78,19.38,13.76,18.05,14.82,36.83,14.78,44.51"/>
  <path vector-effect="non-scaling-stroke" class="cls-2" d="M1062.6,213.45c9.65,2.24,26.68,7.66,41.22,21.54,33.5,31.97,22.05,78.59,21,82.55"/>
</svg>