<?xml version="1.0" encoding="UTF-8"?>
<svg id="Layer_1" data-name="Layer 1" xmlns="http://www.w3.org/2000/svg" viewBox="0 0 2497.63 1233.82" preserveAspectRatio="none">
  <defs>
    <style>
      .cls-1 {
        stroke-width: 3px;
      }

      .cls-1, .cls-2, .cls-3, .cls-4, .cls-5, .cls-6 {
        stroke-miterlimit: 10;
      }

      .cls-1, .cls-3, .cls-4, .cls-5, .cls-6 {
        fill: none;
      }

      .cls-1, .cls-5, .cls-6 {
        stroke: #fff6ec;
      }

      .cls-7 {
        fill: #da9dc6;
      }

      .cls-2 {
        fill: #1f3555;
        stroke: #fff5ed;
      }

      .cls-2, .cls-4, .cls-6 {
        stroke-width: 2px;
      }

      .cls-3 {
        stroke: #1f3555;
      }

      .cls-4 {
        opacity: .42;
        stroke: #fff6ea;
      }

      .cls-8 {
        fill: #fff6ea;
      }
    </style>
  </defs>
  <g>
    <g>
      <path class="cls-2" d="M1141.08,759.97c.69-8.04-4.62-15.75-11.86-17.21-7.24-1.46-13.68,3.87-14.37,11.92-.69,8.04,4.62,15.75,11.86,17.21,7.24,1.46,13.68-3.87,14.37-11.92Z"/>
      <path class="cls-8" d="M1128.46,763c2.01-3.04,1.33-8.34-1.51-11.82-2.84-3.49-6.77-3.84-8.77-.8-2.01,3.04-1.33,8.34,1.51,11.82,2.84,3.49,6.77,3.84,8.77.8Z"/>
      <path class="cls-8" d="M1137.14,766.89c.91-2,.39-4.75-1.16-6.13-1.55-1.38-3.55-.88-4.46,1.13s-.39,4.75,1.16,6.13c1.55,1.38,3.55.88,4.46-1.13Z"/>
    </g>
    <g>
      <ellipse class="cls-7" cx="1118.8" cy="784.04" rx="11.45" ry="3.94" transform="translate(-150.65 279.12) rotate(-13.33)"/>
      <path class="cls-3" d="M1109.71,787.87c2.73-3.93,4.08-4.57,4.82-4.45,1.16.19.94,2.33,2.18,2.53,1.86.3,4.33-4.12,5.75-3.78.96.23.36,2.36,1.35,2.67,1,.31,3.01-1.43,5.21-3.84"/>
    </g>
    <g>
      <ellipse class="cls-7" cx="1205.84" cy="773.47" rx="11.45" ry="3.94" transform="translate(-145.86 298.91) rotate(-13.33)"/>
      <path class="cls-3" d="M1196.74,777.3c2.73-3.93,4.08-4.57,4.82-4.45,1.16.19.94,2.33,2.18,2.53,1.86.3,4.33-4.12,5.75-3.78.96.23.36,2.36,1.35,2.67,1,.31,3.01-1.43,5.21-3.84"/>
    </g>
    <g>
      <path class="cls-1" d="M1055.57,804.34c5.72-10.58,9.91-19.43,12.62-25.43,8.34-18.4,10.87-27.7,21.04-49.51,5.93-12.72,8.42-16.77,9.68-18.73,10.02-15.71,20.02-22.86,23.14-24.98,3.05-2.07,5.72-3.52,7.57-4.46"/>
      <path class="cls-1" d="M1164.27,676.47c7.46-1.49,20.72-3.01,36.02,1.64,19.51,5.93,31.26,18.48,38.29,26.32,16.65,18.57,22.92,38.3,26.08,48.62,5.75,18.76,6.44,34.29,7.15,50.41,1.01,22.87-1.74,24.72,0,48.17.97,13.04,2.68,24.03,5.05,39.25,2.15,13.84,4.29,25.32,5.89,33.45"/>
      <path class="cls-1" d="M1139.84,693.13c-4.67,2.4-11.17,6.35-17.79,12.69-3.85,3.69-12.48,12.14-18.13,26.48-3.86,9.78-4.95,18.79-5.13,25.39"/>
      <path class="cls-1" d="M1099.21,758.4c-.74-.11-1.79-.18-3,.07-5.15,1.06-7.51,6.64-7.71,7.13-.3.75-2.49,6.55.7,11.44,2.21,3.38,5.69,4.33,6.17,4.46,1.08.28,2.01.31,2.66.3"/>
      <path class="cls-1" d="M1095.92,781.73c.44,24.08,7.04,34.78,13.16,40.07,2.74,2.37,15.09,12.06,23.99,18.76,1.06.79,3.37,2.53,6,5.38,5.48,5.94,7.89,11.9,8.44,13.35.62,1.63,2.4,6.72,2.77,14.08.67,13.26-3.73,24.27-6.7,30.28"/>
      <path class="cls-1" d="M1233.28,774.55c.72,5.74,1.07,15.1-3.01,24.69-7.17,16.88-24.09,25.16-32.25,29.15-12.68,6.2-20.92,6.34-31.4,16.53-2.39,2.32-5.09,4.94-7.72,9.28-2.19,3.61-5.71,10.68-7.89,39.03-.39,5.02-.61,9.11-.73,11.69"/>
      <path class="cls-1" d="M1168.03,689.35c4.19-.46,10.49-.62,17.71,1.38,12.08,3.34,19.57,10.74,24.8,16.01,15,15.16,21.22,33.34,23.87,43.69"/>
      <path class="cls-1" d="M1228.62,755.36c.45-.67,1.18-1.58,2.27-2.39.42-.31,3.53-2.55,7.2-1.68,4.64,1.09,6.46,6.28,6.72,7.02,1.56,4.46.98,11.22-3.71,14.38-4.52,3.05-9.78.68-10.28.44"/>
      <path class="cls-1" d="M1096.57,782.48c-.27,4.62-.14,12.61,3.32,21.39,5.29,13.44,15.05,20.28,19.29,23.17,18.42,12.53,39.23,9.98,52.88,8.3,8.77-1.08,15.87-3.03,20.61-4.56"/>
      <path class="cls-1" d="M1147.83,701.01c-.97-2.52-1.94-5.04-2.91-7.56-.9,2.49-1.8,4.99-2.7,7.48-1.26-.8-2.52-1.59-3.78-2.39-.18,2.12-.36,4.24-.54,6.36-9.02,7.88-15.57,15.43-20.07,21.21-4.99,6.41-8.31,12.04-10.19,15.17-4.18,6.97-7.33,13.27-9.64,18.34"/>
      <path class="cls-1" d="M1152.57,697.28c1.86-1.25,3.73-2.5,5.59-3.75,1.21,2.82,2.76,3.79,3.89,4.17,2.24.76,3.88-.42,8.26.02,1.54.16,2.63.43,3.95.77,12.6,3.2,22.5,10.18,22.5,10.18.22.15.48.34.79.58,7.94,5.99,12.46,12.97,18.01,22.86,4.89,8.71,9.18,17.06,12.94,24.95"/>
      <g>
        <path class="cls-6" d="M1153.3,679.58c-.15-1.82.12-3.23.41-4.2,1.28-4.29,5.2-7.36,9.99-8.2-1.34-1.66-2.67-3.33-4.01-4.99-1.05,1.01-2.1,2.02-3.15,3.03-.68-1.43-1.36-2.86-2.04-4.29-2.11-.28-5.13-.38-8.67.55-5.46,1.43-9.34,4.57-11.35,6.47,1.45.51,3.83,1.6,6.11,4,3.19,3.35,4.36,7.34,4.79,9.17"/>
        <path class="cls-6" d="M1140.96,685.71c1.27-1.38,3.21-3.06,5.84-3.97,1.37-.47,4.37,0,10.31.97.59.1,1.67.29,1.94,1.14.12.38.1.92-.14,1.15-.51.46-1.65-.78-2.86-1.52-2.19-1.35-4.41-.99-8.81-.27-3.02.49-2.93,1.05-4.63,1.31-.21.03-.87.12-1.45.68-.23.22-.74.79-.64,1.05.26.72,4.72-2.57,10.16-2.16.94.07.25.13,5.45,1.27,1.44.32,2.62.56,2.68,1.21.05.43-.41.94-.84,1.15-.63.3-1.18-.08-2.22-.57,0,0-1.39-.65-3-1.07-1.34-.35-2.44-.38-3.12-.4-.29,0-.78-.01-2.69.17-3.54.33-4.5.59-5.29,1.45-.13.14-.61.68-.51.94.18.43,1.74-.5,3.79-.85,2.78-.47,3.31.67,7.06.34.84-.07.78-.13,2.37-.3,1.87-.2,3.4-.28,4.4-.32"/>
      </g>
      <path class="cls-1" d="M1255.26,826.1c-4.41,10.98-9.47,18.63-13.26,23.55-4.93,6.41-11.4,12.99-16.25,17.93-2.19,2.23-4.04,4.04-5.3,5.27"/>
      <path class="cls-1" d="M1257.91,871.79c-.27,4.94-1.04,11.23-2.98,18.28-1.91,6.93-4.4,12.59-6.63,16.87"/>
      <path class="cls-1" d="M1137.28,869.06c-2.48,1.19-5.16,2.66-7.93,4.5-6.41,4.25-11.17,9.04-14.57,13.1"/>
      <path class="cls-1" d="M1157.94,892.72c1.75,2.16,4.28,4.81,7.75,7.24,5.29,3.7,10.37,5.2,13.65,5.87"/>
      <path class="cls-6" d="M1161.09,771.31c-.92.02-2.73.19-4.56,1.35-.94.6-3.47,2.2-3.75,5.2-.02.21-.25,3.26,2.05,5.11,1.84,1.48,4.53,1.55,6.68.15"/>
      <path class="cls-6" d="M1161.56,803.39c.14-.13,2.01-1.79,3.96-.51,2.49,1.64,2.42,6.36,2.41,6.66-.02.73-.1,4.02-2.07,5-1.76.88-3.61-.79-3.79-.96"/>
      <path class="cls-6" d="M1120.34,736.18c-1,.28-2.32.77-3.74,1.63-1.53.93-2.65,1.99-3.4,2.81"/>
      <path class="cls-6" d="M1188.33,730.32c1.04,0,2.43.1,4.01.54,1.71.48,3.05,1.19,3.98,1.77"/>
      <path class="cls-5" d="M1121.03,769.66c-1.28-.01-2.44.76-2.92,1.94-.35.87-.38,2.05.24,2.96.65.95,1.69,1.12,2.11,1.19.15.02,1.94.29,3.17-.86.49-.45.77-1.01,1.48-1.17.36-.08.67-.02.81,0,.62.12.88.42,1.38.73.31.19,1.35.82,2.31.56.47-.13.84-.44,1.38-.89.36-.31.66-.63,1.19-.76.12-.03.31-.07.55-.05.46.05.73.3,1.23.67.17.12.69.51,1.06.7.79.41,1.87.49,2.82.05.24-.11.88-.42,1.34-1.17.74-1.2.39-2.54.27-2.94-.34-1.1-1.09-1.71-1.38-1.92"/>
      <path class="cls-5" d="M1184.51,765.95c-1.27.19-2.3,1.13-2.61,2.38-.23.92-.09,2.09.65,2.89.78.84,1.83.84,2.25.84.15,0,1.96-.02,3.01-1.35.42-.52.62-1.12,1.3-1.39.34-.13.66-.13.81-.12.63.02.93.28,1.47.5.34.14,1.45.59,2.36.19.44-.2.77-.57,1.23-1.1.32-.36.57-.73,1.07-.94.11-.05.29-.12.54-.14.46-.03.77.18,1.31.46.18.09.75.39,1.15.53.84.28,1.92.19,2.79-.4.22-.15.81-.56,1.16-1.37.56-1.3.03-2.58-.15-2.95-.49-1.03-1.31-1.52-1.63-1.68"/>
      <path class="cls-1" d="M1082.98,889.06c12.91,3.44,29.36,7.67,48.53,12.19,35.1,8.29,64.64,14.12,85.55,17.95,36.17,6.64,43.8,6.82,86.44,13.7,22.52,3.63,55.97,9.33,97.14,17.48"/>
    </g>
    <g>
      <path class="cls-2" d="M1202.78,755.2c.69-8.04-4.62-15.75-11.86-17.21-7.24-1.46-13.68,3.87-14.37,11.92-.69,8.04,4.62,15.75,11.86,17.21,7.24,1.46,13.68-3.87,14.37-11.92Z"/>
      <path class="cls-8" d="M1190.16,758.23c2.01-3.04,1.33-8.34-1.51-11.82-2.84-3.49-6.77-3.84-8.77-.8-2.01,3.04-1.33,8.34,1.51,11.82,2.84,3.49,6.77,3.84,8.77.8Z"/>
      <path class="cls-8" d="M1198.83,762.12c.91-2,.39-4.75-1.16-6.13-1.55-1.38-3.55-.88-4.46,1.13s-.39,4.75,1.16,6.13c1.55,1.38,3.55.88,4.46-1.13Z"/>
    </g>
  </g>
  <path class="cls-4" d="M1444.89,544.89c15.02,56.3,32.12,114.89,51.63,175.42,18.54,57.53,37.82,112.35,57.44,164.39"/>
</svg>