<?xml version="1.0" encoding="UTF-8"?>
<svg id="Layer_1" data-name="Layer 1" xmlns="http://www.w3.org/2000/svg" viewBox="0 0 2497.63 1233.82" preserveAspectRatio="none">
  <defs>
    <style>
      .cls-1 {
        fill: #2d476e;
        stroke: #1f3555;
      }

      .cls-1, .cls-2, .cls-3, .cls-4, .cls-5, .cls-6, .cls-7 {
        stroke-miterlimit: 10;
      }

      .cls-2 {
        opacity: .42;
      }

      .cls-2, .cls-3, .cls-5, .cls-6 {
        fill: none;
      }

      .cls-2, .cls-3, .cls-6 {
        stroke: #fff6ea;
      }

      .cls-2, .cls-6 {
        stroke-width: 2px;
      }

      .cls-4 {
        fill: #1f3555;
        stroke-width: 3px;
      }

      .cls-4, .cls-5, .cls-7 {
        stroke: #fff6ec;
      }

      .cls-7 {
        fill: #284063;
        stroke-width: 4px;
      }
    </style>
  </defs>
  <g>
    <path class="cls-7" d="M1076.43,954.21c5.14-1.65,10.32-3.35,15.52-5.12,25.56-8.7,49.76-18.25,72.6-28.33-30.14-8.08-60.28-16.17-90.42-24.25"/>
    <g>
      <g>
        <path class="cls-5" d="M1074.85,905.82c8.13,2.03,16.32,4.04,24.59,6.01,19.05,4.55,37.85,8.77,56.39,12.7"/>
        <path class="cls-5" d="M1075.02,914.67c7.37,2.05,14.82,4.06,22.35,6.04,14.48,3.8,28.75,7.33,42.79,10.61"/>
        <path class="cls-5" d="M1076.32,925.18c6.48,2.18,13.16,4.32,20.06,6.38,8.49,2.54,16.76,4.82,24.8,6.87"/>
        <path class="cls-5" d="M1076.51,934.45c4.42,1.84,8.9,3.67,13.47,5.49,4.74,1.89,9.44,3.71,14.08,5.47"/>
        <path class="cls-5" d="M1141.43,921.19c-7.49,2.47-15.27,5.25-23.3,8.38-9.16,3.58-17.79,7.29-25.9,11.04"/>
        <path class="cls-5" d="M1081.02,936.27c10.04-4.52,20.63-8.92,31.76-13.11,4.62-1.74,9.19-3.39,13.69-4.95"/>
        <path class="cls-5" d="M1113.08,915.26c-7.09,3.12-14.32,6.22-21.7,9.28-4.95,2.06-9.86,4.06-14.73,6.01"/>
      </g>
      <path class="cls-5" d="M1091.83,909.96c-5.32,2.67-10.63,5.34-15.95,8.01"/>
      <path class="cls-5" d="M1089.53,918.58c-4.51,1.88-9.02,3.77-13.53,5.65"/>
    </g>
    <path class="cls-4" d="M1075.58,954.37c-31.88-5.55-64.32-11.62-97.3-18.25-22.1-4.44-43.88-9.02-65.34-13.73-.7-20.19-1.78-51.71-2.47-71.9-.44-12.87-1.42-42.03-1.85-54.9,21.96.7,45.46,2.32,70.28,5.23,32.92,3.85,63.23,9.38,90.62,15.69,2.02,45.95,4.04,91.9,6.06,137.86Z"/>
    <g>
      <path class="cls-1" d="M979.08,860.13c1-.69,5.79-4,11.8-2.85,8.43,1.61,11.2,10.46,11.36,11,1.94,6.56-.19,16.5-8.96,19.56-8.24,2.87-17.56-2-20.54-9.37-2.89-7.16,1-14.64,6.34-18.33Z"/>
      <path class="cls-6" d="M983,869.89c-.28-.34-1.25-1.48-2.62-1.5-2.07-.03-3.85,2.51-3.66,4.76.02.26.23,2.31,2.01,3.17,1.27.61,2.85.38,4.01-.62"/>
      <path class="cls-6" d="M991.26,869.28l.96,8.1c-.47-3.19.21-5.93,1.77-6.86.28-.17,1.15-.69,2.17-.41.95.26,1.45,1.05,1.6,1.28.48.77.49,1.54.49,2.66,0,.81-.08,2-.45,3.41"/>
      <path class="cls-3" d="M988.69,875.46c-.44-.57-.85-.97-1.15-1.23-.83-.72-1.35-.89-1.6-1.62-.05-.16-.22-.64-.03-1.06.18-.39.63-.61,1.01-.48.04.01.25.08.42.32.19.26.29.67.19.99-.07.2-.19.3-.48.51-.78.58-1.16.82-1.54,1.27-.23.27-.29.43-.31.59-.04.36.17.7.36.87.36.33.82.23,1.04.19,1.11-.23,1.74-1.56,1.89-1.9"/>
    </g>
  </g>
  <path class="cls-2" d="M1444.89,544.89c15.02,56.3,32.12,114.89,51.63,175.42,18.54,57.53,37.82,112.35,57.44,164.39"/>
</svg>