<?xml version="1.0" encoding="UTF-8"?>
<svg id="Layer_1" data-name="Layer 1" xmlns="http://www.w3.org/2000/svg" viewBox="0 0 2497.63 1233.82" preserveAspectRatio="none">
  <defs>
    <style>
      .cls-1 {
        fill: none;
        opacity: .42;
        stroke: #fff6ea;
        stroke-miterlimit: 10;
        stroke-width: 2px;
      }

      .cls-2 {
        fill: #f7f197;
        opacity: .3;
      }
    </style>
  </defs>
  <path class="cls-2" d="M908.63,795.6c156.55-158.21,313.1-316.42,469.65-474.63,48.74-119.18,167.37-175.92,262.45-141.94,68.47,24.47,118.92,93.9,132.55,177.08,16.92-15.51,114.17-102.29,198.83-71.67,119.08,43.07,156.56,297.93,71.58,406.15-58.55,74.57-145.56,41.73-353.91,144.75-53.07,26.24-95.14,51.97-123.27,70.27-163.36,16.2-326.71,32.41-490.07,48.61-55.94-52.87-111.87-105.74-167.81-158.61Z"/>
  <path class="cls-1" d="M1444.89,544.89c15.02,56.3,32.12,114.89,51.63,175.42,18.54,57.53,37.82,112.35,57.44,164.39"/>
</svg>