<?xml version="1.0" encoding="UTF-8"?>
<svg id="Layer_1" data-name="Layer 1" xmlns="http://www.w3.org/2000/svg" viewBox="0 0 1192.02 828.18" preserveAspectRatio="none">
  <defs>
    <style>
      .cls-1, .cls-2, .cls-3, .cls-4, .cls-5, .cls-6, .cls-7, .cls-8, .cls-9, .cls-10, .cls-11, .cls-12, .cls-13, .cls-14, .cls-15, .cls-16, .cls-17, .cls-18, .cls-19, .cls-20, .cls-21, .cls-22, .cls-23, .cls-24 {
        stroke-miterlimit: 10;
      }

      .cls-1, .cls-2, .cls-3, .cls-5, .cls-8, .cls-12, .cls-13, .cls-14, .cls-17, .cls-18, .cls-19, .cls-21, .cls-22, .cls-23, .cls-24 {
        fill: none;
      }

      .cls-1, .cls-4, .cls-9, .cls-21, .cls-24 {
        stroke: #ce7787;
      }

      .cls-1, .cls-8, .cls-9, .cls-14, .cls-15, .cls-17, .cls-20 {
        stroke-width: 2px;
      }

      .cls-2, .cls-6, .cls-10, .cls-11, .cls-12, .cls-13, .cls-15, .cls-17, .cls-22 {
        stroke: #1f3555;
      }

      .cls-3, .cls-7, .cls-14, .cls-18, .cls-19, .cls-20 {
        stroke: #203555;
      }

      .cls-4, .cls-9, .cls-25 {
        fill: #fabdb6;
      }

      .cls-5, .cls-8, .cls-16 {
        stroke: #747369;
      }

      .cls-5, .cls-10, .cls-12, .cls-18 {
        stroke-width: .5px;
      }

      .cls-6, .cls-10, .cls-11, .cls-15 {
        fill: #1f3555;
      }

      .cls-7 {
        fill: #203555;
      }

      .cls-11, .cls-13, .cls-19 {
        stroke-width: .75px;
      }

      .cls-16 {
        fill: #747369;
        stroke-width: .25px;
      }

      .cls-20 {
        fill: #fff6eb;
      }

      .cls-21, .cls-22 {
        stroke-width: 3px;
      }

      .cls-23 {
        stroke: #1e3555;
      }
    </style>
  </defs>
  <path class="cls-17" d="M199.15,566c-13.43,14.11-19.63,28.21-22.55,36.54-3.58,10.23-6.81,19.85-4.03,31.45,2.89,12.03,10.6,19.31,14.09,22.52,10.2,9.37,21.02,11.59,33.82,14.02,18.3,3.48,38.81,7.39,54.36-4.67,7.96-6.17,14.77-16.65,16.11-18.7,3.83-5.89,6.39-11.29,8.05-15.3"/>
  <path class="cls-17" d="M182.54,652.77c-2.83,14.63-6.16,29.93-10.08,45.79-3.78,15.26-7.79,29.77-11.93,43.5,5.66,2.1,14.25,5.08,24.89,7.93,24.2,6.49,43.55,11.68,65.59,7.39,8.72-1.7,22.93-5.87,38.89-17.78-5.01-24.58-10.03-49.16-15.04-73.75"/>
  <path class="cls-17" d="M286.62,553.71c-5.95-3.48-15.55-8.2-28.09-10.55-26.69-4.99-47.02,4.46-50.81,6.29-8.9,4.3-21.49,10.39-28,24.9-3.36,7.49-3.91,14.58-3.89,19.15"/>
  <path class="cls-17" d="M305.86,572.03c2.94,5.58,6.56,14.12,8.12,25.09,2.62,18.38-2.04,33.12-4.73,40.04"/>
  <path class="cls-17" d="M303.34,654.29c1.29,9.64,2.14,17.33,2.66,22.46.94,9.22,1.28,14.3,4.11,20.67,1.89,4.26,4.16,7.42,5.8,9.44-3.39,1.25-7.27,2.96-11.37,5.36-2.73,1.59-5.15,3.25-7.26,4.85"/>
  <path class="cls-17" d="M297.79,635.03c3.19-1.12,6.53-.08,8.22,2.41,1.6,2.35,1.43,5.53.27,7.47-2.05,3.44-8.13,4.59-14.36,1.23"/>
  <path class="cls-17" d="M290.04,583.84c2.74,4.95,6.29,12.66,8.22,22.72,2.07,10.75,1.46,19.84.63,25.68"/>
  <path class="cls-17" d="M282.54,572.61c-7.43-3.71-16.94-7.46-28.3-9.7-26.45-5.22-48.51.58-60.46,4.85"/>
  <path class="cls-17" d="M313.67,621.28c-1.13,11.02-.47,20.19.41,26.66.32,2.33,1.3,8.98,3.77,17.33,2.03,6.86,4.4,12.6,6.53,17.1-1.98.64-3.96,1.28-5.94,1.92-1.26-1.26-2.52-2.52-3.78-3.78.11,1.7.22,3.4.33,5.1-1.32.4-2.65.79-3.97,1.19"/>
  <path class="cls-17" d="M286.04,553.93c1.57-.37,6.72-1.38,11.75,1.61,4.98,2.96,6.66,7.93,8.22,12.5.64,1.9,1.15,3.43.57,3.93-1.49,1.3-8.73-5.54-11.08-7.76-1.6-1.51-7.86-7.43-7.26-8.27.32-.44,2.09,1.07,10.99,6.76.38.24,2.73,1.74,4.39,4.64.29.5.73,1.27.57,1.41-.42.4-4.46-4.6-10.51-9.48-5.85-4.72-9.66-6.18-9.46-6.65.27-.62,7.29.66,12.71,5.75,4.69,4.4,6.38,9.95,7.03,12.88"/>
  <path class="cls-2" d="M133.16,659.91c-1.79.88-4.73,2.23-8.51,3.5-5.94,2-8.67,2.02-10.96,4.57-1.3,1.45-2.04,3.26-2.74,8.22-.62,4.45-1.14,10.98-.39,19.16-1.02-.34-2.05.08-2.45.9-.26.53-.29,1.29.06,1.75.54.69,2.04.72,3.37-.45,1.71,1.18,3.67,2.37,5.88,3.49,4.63,2.35,8.95,3.65,12.49,4.4-.07,1.35.95,2.5,2.2,2.52,1.23.02,2.27-1.06,2.27-2.39,1.56.19,3.47.28,5.63.06,3.24-.32,5.89-1.19,7.78-2,.45.82,1.24,1.19,1.84.97.71-.26.84-1.25.86-1.36.12-.95-.49-1.97-1.53-2.59,1.21-2.49,2.89-6.13,4.65-10.67,1.68-4.31,2.51-6.51,2.57-8.47.19-6.52-4.31-11.5-6.19-13.57-1.5-1.66-4.18-4.18-8.33-6.08"/>
  <path class="cls-2" d="M138.33,660.96c.77,1.77,1.74,4.49,2.08,7.9.44,4.46-.64,5.69-2.35,15.08-1.35,7.38-1.25,9.71-3.05,15.08-.74,2.22-1.49,3.99-2,5.15"/>
  <path class="cls-2" d="M138.06,669.14c-2.68-.7-6.87-1.39-11.85-.55-2.59.43-4.79,1.18-6.53,1.93"/>
  <path class="cls-2" d="M132.72,701.14c-.51.05-1.35.11-2.39.07-3.46-.11-5.75-1.15-11.28-3.32-1.17-.46-3.12-1.22-5.6-2.15-.31-2.06-.52-5.19.28-8.83.43-1.97,1.06-3.63,1.66-4.93-.44-.38-2.17-1.98-2.24-4.37-.09-3.29,3.05-5.29,3.83-5.79,2.24-1.42,4.42-1.36,6.79-1.29,1.92.06,4.81.14,7.84,2.02,1.79,1.11,4.9,3.04,5.23,6.53.31,3.28-2.06,5.78-2.53,6.25-.2,1.45-.45,2.97-.76,4.53-.84,4.15-1.98,7.82-3.18,10.99"/>
  <path class="cls-2" d="M142.33,670.5c.49-.04,5.07-.36,8.14,3.42,2.36,2.91,2.26,6.32,2.19,7.3-.3,4.25-2.99,6.74-3.5,7.2-.5,2.52-1.13,5.18-1.93,7.94-.34,1.18-.69,2.31-1.05,3.42-1.61.41-3.36.8-5.25,1.11-1.96.32-3.81.53-5.51.65"/>
  <path class="cls-2" d="M134.17,656.87c-.16-.77-.44-1.92-.94-3.27-.72-1.91-1.66-3.97-1.58-3.82.12.21.86,1.48,2.33,1.74.24.04,1.06.18,1.93-.3,1.07-.59,1.43-1.65,1.5-1.89.28.28.96.88,2,1.13,1.12.27,2.03-.01,2.4-.15-1.03,2.57-2.06,5.14-3.09,7.7"/>
  <path class="cls-2" d="M140.95,652.62c1.05.25,2.1.5,3.15.76-1.38,1.77-2.75,3.53-4.13,5.3"/>
  <path class="cls-12" d="M135.93,654.61c-.35-1.03-.7-2.06-1.05-3.09"/>
  <path class="cls-12" d="M138.88,653.58c.3-.98.59-1.95.89-2.93"/>
  <path class="cls-12" d="M137.08,652.97c-.13.64-.23,1.37-.3,2.17-.06.74-.07,1.43-.05,2.04"/>
  <path class="cls-12" d="M137.67,655.51c-.11.16-.24.41-.33.74-.11.4-.09.75-.07.96"/>
  <path class="cls-12" d="M135.25,660.13c-.09.35-.26.84-.59,1.34-.6.92-1.4,1.36-1.79,1.54"/>
  <path class="cls-12" d="M136.87,660.96c-.26.43-.53.92-.77,1.49-.46,1.07-.71,2.07-.84,2.87"/>
  <path class="cls-12" d="M139.47,660.94c.61.73,1.29,1.64,1.93,2.77.51.89.9,1.74,1.19,2.49"/>
  <path class="cls-11" d="M141.72,659.36c-.2-.22-.48-.17-1.02-.28-.81-.17-1.07-.49-1.91-.94-1.31-.7-2.46-.88-3.35-1.02-1.03-.16-1.56-.23-1.94.08-.8.64-.8,2.41-.16,2.86.38.27.69-.12,1.59-.11,1.24.01,1.32.76,2.67,1,1.22.21,1.65-.3,2.75.13.47.18.81.44,1.03.64.67-1.52.56-2.1.34-2.35Z"/>
  <path class="cls-10" d="M142.07,659.46c.38-.13.92-.32,1.58-.58.89-.35,1.44-.62,1.57-.44.11.15-.24.43-.25,1.09,0,.17,0,.54.21.84.23.32.54.32.55.47,0,.19-.54.41-1.05.51-.58.12-1.57.19-2.92-.33.11-.52.21-1.03.32-1.55Z"/>
  <path class="cls-17" d="M146.52,662.44c2.36,1.23,9,4.29,17.46,2.76,11.25-2.03,17.33-10.63,18.56-12.44"/>
  <path class="cls-17" d="M275.48,666.27c1.91,1.45,5.25,3.95,9.48,7.05,8.22,6.02,9.97,7.07,10.62,9.35,1.73,6.08-6.38,13.65-9.4,16.28"/>
  <path class="cls-17" d="M197.09,585.03c2.47-.39,5.79-.66,9.66-.19,4.58.55,8.25,1.91,10.75,3.08"/>
  <path class="cls-17" d="M195.63,594.84c.96,1.13,3.44,3.72,7.47,4.81,5.56,1.5,10.06-.93,11.12-1.54"/>
  <path class="cls-17" d="M220.97,646.59c2.27-.94,4.81-.49,6.56,1.15,1.96,1.84,2.76,5.03,1.46,7.69-1.32,2.69-4.41,4.04-7.29,3.08"/>
  <path class="cls-17" d="M231.54,608.5c-.36,1.8-.87,4.3-1.51,7.29-.77,3.58-1.02,4.6-1.95,5.21-1.53,1-2.83-.46-5,.57-1.89.9-2.68,2.85-2.84,3.28-.16.42-.85,2.39,0,4.62,1.03,2.7,3.49,3.55,3.83,3.65"/>
  <path class="cls-2" d="M240.53,642.2c1.82,1.71,3.78,3.73,5.77,6.09,1.91,2.27,3.52,4.47,4.87,6.51"/>
  <path class="cls-2" d="M204.71,635.27c-1.2,1.11-2.56,2.56-3.88,4.41-2.08,2.92-3.27,5.75-3.98,7.87"/>
  <path class="cls-17" d="M270.99,612.47c-1.36.51-4.7,1.53-8.74.46-5.56-1.48-8.42-5.88-9.07-6.96"/>
  <path class="cls-17" d="M277.17,605.64c-1.97-1.62-4.74-3.57-8.33-5.17-4.24-1.9-8.07-2.61-10.8-2.89"/>
  <path class="cls-20" d="M145.73,662.34c-.62,1.11-2.9.82-5.62.48-2.35-.3-4.02-.51-4.58-1.54-.65-1.19.55-2.79,1.67-3.53,1.51-1,3.9-1.15,5.85,0,1.88,1.11,3.34,3.41,2.68,4.58Z"/>
  <path class="cls-20" d="M287.95,698.37c-.08,1.29-2.24,2.12-4.81,3.1-2.22.85-3.81,1.46-4.75.81-1.09-.75-.7-2.75-.01-3.95.92-1.61,2.99-2.88,5.22-2.78,2.15.1,4.43,1.46,4.35,2.82Z"/>
  <path class="cls-14" d="M157.14,507.19c3.13,6.65,7.24,16.94,9.52,30.15,1.63,9.4,2.81,16.26,1.35,23.31-4.98,23.94-37.3,34.2-42.3,35.79-2.1.67-42.41,12.87-65.18-9.35-8.4-8.2-15.78-22.41-17.23-25.21-3.72-7.17-6.17-13.56-7.75-18.23"/>
  <path class="cls-14" d="M59.03,523.32c-4.14,1.34-12.17,4.62-19.05,12.62-3.53,4.1-5.72,8.24-7.09,11.45,2.58-6.7,5.17-13.4,7.75-20.1-1.31.25-4.03.97-6.64,3.27-2.1,1.85-3.22,3.92-3.77,5.14.03-.97.3-6.88,4.87-10.75,2.36-2,4.86-2.6,6.2-2.8"/>
  <path class="cls-14" d="M46.18,504.62c-2.84.11-9.91.81-16.83,6.08-5.47,4.17-8.27,9.23-9.52,11.92.91-.95,2.98-2.87,6.2-3.74,2.35-.63,4.35-.44,5.54-.23-1.71.8-4.73,2.55-6.87,6.08-.59.98-1.02,1.93-1.33,2.8"/>
  <path class="cls-14" d="M56.59,498.78c11.52-10.81,22.6-16.32,29.68-19.17,8.64-3.48,33.5-13.48,54.71-1.64,2.37,1.32,4.19,2.64,5.32,3.51,1.69-1.11,4.33-2.53,7.75-3.04,3.1-.46,5.08.09,10.85.93,2.29.33,5.63.78,9.75,1.17-6.5,1.87-12.99,3.74-19.49,5.61,4.78,1.84,8.57,3.81,11.3,5.38,2.35,1.35,6.31,3.66,5.98,4.67-.19.59-1.73.4-5.98.47-2.47.04-4.47.15-5.76.23"/>
  <path class="cls-14" d="M89.81,509.53c6.1-2.4,13.82-4.56,22.81-5.14,9.54-.62,14.44-.94,20.38,1.64,2.84,1.23,6.33,3.31,7.09,2.34.6-.78-.85-3.13-1.99-4.44-2.37-2.71-5.51-3.33-6.87-3.51,4.27-.11,7.68.19,9.97.47.82.1.38.06,10.63,1.87,2.73.48,5.56.52,8.19,1.4,1.32.44,2.47.95,2.88.47.6-.71-.81-3.1-2.21-5.14"/>
  <path class="cls-14" d="M83.36,599.2c-5.57,31.26-11.14,62.52-16.71,93.77,7.67,4.23,16.86,8.42,27.54,11.69,27.89,8.55,52.46,6.71,68.06,4.01"/>
  <path class="cls-14" d="M161.66,573.37c3.66,9.26,7.31,18.52,10.97,27.78"/>
  <path class="cls-14" d="M83.36,599.2c-2.15,1.31-5.32,3.39-8.88,6.34-7.51,6.22-12.29,10.18-12.37,15.36-.11,7.51,9.74,12.94,10.92,13.57"/>
  <path class="cls-14" d="M161.45,573.99c1.78.82,4.2,1.72,7.15,2.23,2.56.44,4.81.47,6.59.36"/>
  <path class="cls-14" d="M195.92,527.88c1.36,2.06,3.27,5.49,4.36,10.17.97,4.19.91,7.79.69,10.17"/>
  <path class="cls-14" d="M107.71,708.78c.99,7.91,1.99,15.83,2.98,23.74-2.65.81-5.29,1.63-7.94,2.44"/>
  <path class="cls-14" d="M76.86,541.82c-1.18-.24-6.08-1.08-10.85,2.08-3.41,2.26-5,5.4-5.59,6.77"/>
  <path class="cls-7" d="M104.85,566.88c-.54.88-.84,1.81-1.07,2.57-.82,2.61-1.09,5.92-.29,6.24.42.17.71-.66,2.41-1.86,1.32-.93,2.53-1.4,3.29-1.69,1.2-.46,2.09-.64,2.65-.76,3-.68,3.27-1.38,6.5-2.37,4.33-1.32,4.99-.4,7.71-1.86.85-.46,1.61-.99,2.97-1.36.97-.26,1.53-.24,3.45-.59,2.31-.42,2.44-.62,2.49-.76.33-1.04-2.98-3.09-3.59-3.46-.27-.16-1.69-1.01-3.07-1.45-3.69-1.18-6.58.7-16.13,3.39-3.08.86-5.77,1.51-7.3,3.98Z"/>
  <path class="cls-3" d="M59.98,555.89c-.28.57-.7,1.61-.76,2.99-.07,1.61.38,2.85.65,3.45"/>
  <path class="cls-3" d="M58,554.64c-.51.35-1.36,1.04-2.05,2.21-.81,1.37-.99,2.68-1.04,3.34"/>
  <path class="cls-14" d="M125.32,532.64c.76-.98,4-4.94,9.59-5.75,3.99-.58,7.12.76,8.4,1.4"/>
  <path class="cls-3" d="M147.02,529.95c.61.06,1.66.26,2.79.95,1.32.81,2.05,1.89,2.38,2.46"/>
  <path class="cls-3" d="M147.11,527.32c.57-.23,1.6-.56,2.9-.47,1.53.1,2.64.71,3.18,1.06"/>
  <path class="cls-17" d="M103.18,533.73c.48,1.77,1.15,4.22,1.98,7.17.99,3.52,1.31,4.52,2.28,5.06,1.59.89,2.79-.67,5.03.21,1.94.76,2.85,2.65,3.04,3.07.18.4,1,2.32.3,4.61-.86,2.77-3.26,3.79-3.58,3.92"/>
  <path class="cls-20" d="M83.17,635.8c-.62,1.11-2.9.82-5.62.48-2.35-.3-4.02-.51-4.58-1.54-.65-1.19.55-2.79,1.67-3.53,1.51-1,3.9-1.15,5.85,0,1.88,1.11,3.34,3.41,2.68,4.58Z"/>
  <path class="cls-20" d="M195.91,527.28c-1.37,1.04-3.22,1.55-4.73,1.24-4.83-.98-6.92-10.47-5.86-11.12.36-.22,1.33.43,3.76,3.54.42-.56,1.6-1.95,3.58-2.45.67-.17,1.85-.47,3.04.09,1.86.88,2.89,3.43,2.42,5.57-.38,1.75-1.66,2.71-2.2,3.13Z"/>
  <path class="cls-14" d="M137.98,710.7c-.99,7.91-1.99,15.83-2.98,23.74,2.65.81,5.29,1.63,7.94,2.44"/>
  <path class="cls-14" d="M216.3,757.26c.24,5.6.49,11.21.73,16.81-2.85.52-5.7,1.04-8.56,1.56"/>
  <path class="cls-14" d="M235.05,759.36c.24,5.6.49,11.21.73,16.81-2.85.52-5.7,1.04-8.56,1.56"/>
  <path class="cls-17" d="M70.6,571.69c.85-3.82,1.63-4.53,2.17-4.49.86.06,1.27,2.02,2.19,2.08,1.37.09,1.92-4.15,3-3.98.73.11.88,2.1,1.65,2.28.78.19,1.71-1.58,2.61-3.98"/>
  <path class="cls-17" d="M135.09,548.63c.85-3.82,1.63-4.53,2.17-4.49.86.06,1.27,2.02,2.19,2.08,1.37.09,1.92-4.15,3-3.98.73.11.88,2.1,1.65,2.28.78.19,1.71-1.58,2.61-3.98"/>
  <path class="cls-17" d="M188.97,615.87c2.86-2.51,3.89-2.58,4.3-2.21.65.6-.14,2.42.56,3.05,1.04.94,3.9-2.09,4.66-1.27.52.55-.5,2.23.01,2.87.52.65,2.27-.17,4.35-1.52"/>
  <path class="cls-17" d="M251.48,630.46c2.86-2.51,3.89-2.58,4.3-2.21.65.6-.14,2.42.56,3.05,1.04.94,3.9-2.09,4.66-1.27.52.55-.5,2.23.01,2.87.52.65,2.27-.17,4.35-1.52"/>
  <path class="cls-9" d="M46.18,607.64c1.91,5.22-1.32,12.35-8.08,17.99-9.28-.56-15.91-4.91-16.64-10.2-.36-2.59.45-7.17,3.89-8.66,2.45-1.06,5.55-.27,7.9,1.95.66-3.74,3.13-6.54,5.84-6.93,3.62-.51,6.25,3.52,7.11,5.85Z"/>
  <path class="cls-9" d="M408.22,643.62c-2.43,4.98-9.62,7.17-18.11,5.59-5.77-7.69-7.1-15.81-3.85-19.9,1.59-2,5.38-4.41,8.72-2.7,2.38,1.22,3.88,4.2,3.87,7.52,3.09-1.97,6.71-1.88,8.78,0,2.77,2.51,1.67,7.27.59,9.49Z"/>
  <path class="cls-4" d="M35.86,471.08c1.15,3.24-.74,7.59-4.73,10.99-5.52-.45-9.47-3.21-9.93-6.48-.22-1.6.24-4.41,2.28-5.29,1.45-.63,3.3-.1,4.7,1.29.38-2.3,1.84-4,3.44-4.2,2.15-.27,3.73,2.24,4.24,3.69Z"/>
  <path class="cls-24" d="M424.49,632.31c-.42,2.43-3.01,4.4-6.51,4.97-3.08-2.38-4.46-5.58-3.61-7.76.41-1.07,1.64-2.63,3.13-2.39,1.06.16,1.97,1.19,2.31,2.58,1-1.27,2.43-1.76,3.44-1.28,1.35.65,1.42,2.8,1.23,3.88Z"/>
  <path class="cls-1" d="M39.63,713.34c4.12,5.72,2.71,15.62-3.48,24.98-11.38,2.65-20.88-.3-23.6-6.53-1.33-3.05-1.95-8.96,1.67-12.02,2.58-2.18,6.6-2.32,10.19-.45-.51-4.83,1.5-9.15,4.62-10.59,4.18-1.93,8.76,2.07,10.6,4.62Z"/>
  <path class="cls-24" d="M56.11,598.28c-.42,2.43-3.01,4.4-6.51,4.97-3.08-2.38-4.46-5.58-3.61-7.76.41-1.07,1.64-2.63,3.13-2.39,1.06.16,1.97,1.19,2.31,2.58,1-1.27,2.43-1.76,3.44-1.28,1.35.65,1.42,2.8,1.23,3.88Z"/>
  <path class="cls-25" d="M44.39,732.15c-1.15,3.24.74,7.59,4.73,10.99,5.52-.45,9.47-3.21,9.93-6.48.22-1.6-.24-4.41-2.28-5.29-1.45-.63-3.3-.1-4.7,1.29-.38-2.3-1.84-4-3.44-4.2-2.15-.27-3.73,2.24-4.24,3.69Z"/>
  <path class="cls-24" d="M47.37,457.28c-.42,2.43-3.01,4.4-6.51,4.97-3.08-2.38-4.46-5.58-3.61-7.76.41-1.07,1.64-2.63,3.13-2.39,1.06.16,1.97,1.19,2.31,2.58,1-1.27,2.43-1.76,3.44-1.28,1.35.65,1.42,2.8,1.23,3.88Z"/>
  <path class="cls-14" d="M316.33,761.05c-3.24,4.33-3.48,7.28-3.06,9.2.54,2.5,2.27,3.59,2.36,6.71.05,1.96-.62,1.87-1.18,4.97-.71,3.9.21,4.84-.47,9.7-.36,2.55-.73,2.43-.71,3.73.06,3.71,2.69,6.49,4.15,7.99,4.76,4.9,10.56,6.25,13.25,6.84,6.56,1.44,11.94.42,15.97-.4,4.04-.81,7.3-2,9.58-2.97"/>
  <path class="cls-14" d="M361.84,746.15c.24-.11.6-.25,1.04-.35,2.49-.58,4.65.86,5.59,1.43,2.47,1.51,3.52,3.87,4.74,6.43,1.83,3.83,1.05,4.25,2.64,7.47,2.03,4.12,3.52,3.9,4.93,7.53.65,1.67,1.92,4.93.62,8-1.13,2.66-3.58,3.73-5.9,4.74-1.73.75-6.37,2.78-10.43.49-.92-.52-2.67-1.51-3.14-3.35-.49-1.92.81-3.19.82-6.24,0-1.56-.33-2.83-.61-3.66"/>
  <path class="cls-14" d="M322.37,751.71c1.21-.78,2.92-1.59,4.92-1.46,2.65.18,4.74,1.94,5.27,1.28.19-.24.04-.68-.26-1.55-.79-2.3-1.82-3.07-1.55-3.65.29-.63,1.85-.41,2.85-.27.84.12,2.59.46,4.75,1.73,1.39.82,1.28,1.04,1.9,1.18,1.47.35,2.57-.77,5.27-2.73,4.22-3.08,5.9-3.55,6.91-3.74.83-.15,2.92-.54,3.8.64.34.45.53,1.19.35,1.82-.28.96-1.34,1.37-1.3,1.46.05.1,1.22-.74,2.59-1,2.38-.46,4.44,1.01,5.01,1.46.96.75,2.19,1.71,2.25,3.28.07,1.79-1.43,3.02-1.64,3.19"/>
  <path class="cls-14" d="M373.78,782.02c.9,1.79.89,2.42.67,2.64-.44.43-1.58-.88-3.47-.69-1.06.1-1.9.63-2.49,1-1.02.63-1.64,1.35-1.8,1.54-1.54,1.82-1.06,3.15-2.32,4.44-.78.8-1.28.62-2.66,1.27-.41.19-3.94,1.9-5.5,5.71-.26.63-1.3,3.27-.52,6.25,1.08,4.12,4.88,6.08,6.27,6.8,9.77,5.04,22.71-2.01,24.14-3.81.09-.12.75-.98,1.2-.82.28.1.28.53.6,1.09,0,0,.37.66,1.2,1.18,1.94,1.22,12.53-10.8,13.4-10.06.11.1,0,.35.24.87.06.14.41.84,1.03,1.05.6.2,1.2-.15,1.47-.31,1.89-1.12,6.15-8.23,6.46-8.74"/>
  <path class="cls-14" d="M413.01,783.11c-.6,2.48-1.02,4.57-1.31,6.18-.16.89-.33,1.89.2,2.56.42.52.97.46,1.72,1.28.12.13.47.52.71,1.06.47,1.09.2,2.2.1,2.66-.47,2.09-1.06,4.73-.71,6.07.72,2.73,6.24,3.55,9.08,3.62,1.5.04,8.98.22,13.72-5.54,1.38-1.67,2.2-4.88,3.83-11.29,0,0,3-11.74,1.11-18.21-.38-1.3-1.01-2.34-1.01-2.34-.45-.74-.77-1.04-1.01-1.38-.73-1.05-.55-2.34-.1-5.22.8-5.12.99-5.97.4-6.92-.36-.58-.5-.37-1.92-1.92-1.1-1.2-1.64-1.79-1.92-2.56-.57-1.58.22-3.19.5-3.94,1.75-4.53-1.66-10.95-2.52-12.57-.52-.98-4.01-7.32-11.2-9.69-6.52-2.15-14.52-.52-19.48,3.94-1.6,1.44-8.84,8.53-11.22,9.76-1.1.57-2.23,1.06-2.23,1.06-1.03.45-1.79.71-1.99.79-1.53.57-3.73,2.1-7.67,6.18-1.98,2.05-2.14,2.98-3.94,4.37-1.17.91-2.26,1.48-3.02,1.83"/>
  <path class="cls-14" d="M401.17,799.19c-.09.18-1.29,2.81-.03,4.75,1.07,1.65,3.16,1.66,4.38,1.67,4.2.03,7.21-3.19,8.14-4.28"/>
  <path class="cls-14" d="M314.31,784.53c-2.32,1.61-5.3,4.31-7.16,8.52-.91,2.06-1.91,4.33-1.27,7.02.85,3.57,3.98,5.32,4.96,5.87,4.47,2.5,9.07.87,10.05.5"/>
  <path class="cls-14" d="M326.3,750.19c-.96-.7-2.7-1.78-5.1-2.18-1.18-.2-4.32-.73-7.25,1.16-3.03,1.96-4.07,5.38-4.41,6.49-.46,1.5-.3,1.97-1.02,4.32-.46,1.49-.83,2.32-1.65,4.3-1.45,3.53-2.18,5.29-2.37,6.02-.59,2.23-1.59,6.02.32,8.48,1.94,2.5,5.72,2.12,6.37,2.04"/>
  <path class="cls-14" d="M424.34,725.55c2.2-.44,5.12-1.25,8.34-2.81,3.37-1.63,5.21-2.56,6.5-4.78,1.39-2.39,2.03-6.16.29-8.86-1.02-1.58-3.12-3.21-4.6-2.7-.79.27-1.04,1.02-2.19,1.23-.28.05-1.26.23-1.97-.39-.89-.78-.7-2.28-.66-2.62.26-2.01,1.95-3.18,2.26-3.39,2.04-1.36,4.22-.77,4.29-1.23.07-.55-3.07-1.28-3.03-1.5.05-.22,3.62-.08,7.15,1.9,1.41.79,3.01,1.72,3.55,3.5.17.57.27,1.34.31,1.34.08-.01-.63-3.15-.07-3.39.45-.2,1.79,1.5,2.48,3.47.96,2.7.55,5.48.5,5.48-.02,0-.09-.59-.05-1.2.05-.75.29-2.13.71-2.2.58-.09,1.83,2.17,1.97,4.62.21,3.6-2,6.98-2.12,6.93-.06-.03.12-1.03.81-1.56.31-.24.83-.46,1.24-.29.89.37.82,2.43.8,2.85-.13,3.92-4.93,7.03-5.62,7.47-6.21,4.02-13.54,2.17-15.92,1.46"/>
  <g>
    <path class="cls-3" d="M308.83,742.01c.37-.78,1.34-2.55,3.35-3.79,2.77-1.71,5.54-1.17,6.23-1.01"/>
    <path class="cls-3" d="M302.14,739.7c.49-1.55,1.54-4.07,3.84-6.08,3.82-3.34,9.48-3.88,14.72-1.62"/>
  </g>
  <g>
    <path class="cls-3" d="M459.42,698.97c-.37-.78-1.34-2.55-3.35-3.79-2.77-1.71-5.54-1.17-6.23-1.01"/>
    <path class="cls-3" d="M466.11,696.67c-.49-1.55-1.54-4.07-3.84-6.08-3.82-3.34-9.48-3.88-14.72-1.62"/>
  </g>
  <path class="cls-10" d="M326.91,768.59c.29-.2,1.42-.89,2.72-.38,1.14.45,1.63,1.52,1.76,1.83.11.27.57,1.41.11,2.52-.58,1.39-2.2,1.76-3.26,1.64-.32-.04-1.41-.16-2.15-1.19-.11-.15-.83-1.19-.54-2.52.25-1.14,1.08-1.71,1.37-1.9Z"/>
  <path class="cls-6" d="M349.72,769.26c.29-.2,1.42-.89,2.72-.38,1.14.45,1.63,1.52,1.76,1.83.11.27.57,1.41.11,2.52-.58,1.39-2.2,1.76-3.26,1.64-.32-.04-1.41-.16-2.15-1.19-.11-.15-.83-1.19-.54-2.52.25-1.14,1.08-1.71,1.37-1.9Z"/>
  <path class="cls-15" d="M341.76,785.4c-.26-.31-.64-.59-3.36-.61-2.84-.03-3.37.27-3.76.65-.14.14-.89.89-1,2.02-.15,1.4.78,2.43,1.55,3.28.83.92,1.63,1.81,2.87,1.81,1.63,0,2.8-1.55,3.33-2.24.42-.56.85-1.13,1-2.02.17-.99-.02-2.16-.63-2.88Z"/>
  <g>
    <path class="cls-17" d="M633.57,776.1c-.64.32-1.52.89-2.05,1.94-.5,1-.29,1.62-.5,3.11-.15,1.09-.29.97-1.77,5.19-.77,2.18-.99,2.86-.88,3.87.11,1.07.47,1.23.59,2.32.17,1.56-.41,2.44-.79,3.87-.51,1.94-.45,4.11,0,5.64.79,2.69,3.09,4.51,5.1,5.19,3.58,1.22,6.74-.95,8.74-2.32,2.41-1.65,3.84-4.71,6.87-10.5.23-.44.62-1.21,1-2.24.5-1.34.71-2.39.76-2.62.29-1.32,1.42-3.71,4.91-8.4"/>
    <path class="cls-17" d="M650.09,791.79c1.85.63,6.23,1.94,10,1.07,1.79-.41,2.68-.62,3.37-1.03,0,0,2.06-1.24,3.92-1.71.06-.01.2-.05.25.02.08.12-.17.4-.44.9-.24.43-.39.72-.43,1.05-.06.63.34,1.16.39,1.22.86.97,2.88.68,4.32-.11,1.22-.67,1.61-1.48,2.65-1.44.68.03,1.17.4,1.37.55,1.8,1.33,3.86,2.16,5.69,3.43,1.41.98,4.48,3.1,8.05,2.98,4.09-.13,6.87-3.2,7.17-3.54,4.04-4.57,2.99-11,2.89-11.58"/>
    <path class="cls-17" d="M699.43,786.14c.73.8,2.41,2.44,5.02,3.15.66.18,3,.79,5.44-.11,5.2-1.93,6.51-9.17,6.57-9.5"/>
    <path class="cls-17" d="M695.05,734.29c.54-.5,1.54-1.31,2.97-1.74.69-.21,2.29-.66,4.06.05.81.32,1.59,1.08,3.15,2.58.26.25.66.64.96,1.3.25.52.34,1.01.39,1.35"/>
    <path class="cls-17" d="M670.98,751.25c-3.91-1.06-6.45-.37-8.06.47-1.77.92-1.81,1.75-3.58,2.33-2.87.95-4.19-.62-7.35,0-1.83.36-1.73.95-4.71,2.33-4.54,2.11-5.44,1.04-8.1,2.55-.44.25-5.39,3.16-6.41,9.34-.75,4.55,1.07,8.2,1.7,9.34"/>
    <path class="cls-17" d="M684.23,771.42c1.53,1.31,2.78,2.31,3.63,2.98,1.25.98,2.24,1.7,2.16,2.54-.06.65-.7.74-.79,1.44-.14,1.22,1.64,2.4,1.86,2.54.32.2.77.45,3.24.99,2.15.48,1.94.32,2.65.55,2.15.7,2.56,1.62,3.53,1.33.98-.3.87-1.33,1.87-1.66,1.04-.35,1.54.65,3.53,1.22.89.25,2.79.78,3.73-.22.8-.86.14-2.02.88-2.87.93-1.06,2.46.17,4.52-.22,2.24-.43,4.57-2.7,5.01-5.31.49-2.92-1.35-6.49-2.48-7.35-.17-.13-.94-.65-.99-1.45-.01-.18.01-.31.07-.56.21-.99.31-1.49.41-1.86.46-1.65-.49-3.74-.61-4-.36-.8-.68-1.52-1.4-2.01-.45-.31-.83-.37-.85-.63-.05-.46,1.09-.57,1.58-1.48.48-.89.09-2.06-.37-3.44-.32-.97-.78-1.71-1.7-3.19-.63-1.02-.98-1.42-1.5-1.64-.29-.12-.61-.18-.61-.3,0-.19.76-.13,1.32-.61.57-.48,1-1.56.75-2.33-.49-1.5-3.27-1.02-3.7-2.57-.16-.58.18-.79,0-1.4-.42-1.39-2.63-1.71-2.94-1.75-2.47-.36-3.22,1.09-5.36.81-.84-.11-1.66-.66-3.31-1.75-3.71-2.47-5.33-4.63-6.61-4.01-.11.05-.48.23-.6.62-.29.88,1.02,1.75.8,2.37-.11.32-.62.53-3.81.45-1.94-.05-2.51-.14-2.81.28-.26.38-.33,1.19.65,3.1"/>
    <path class="cls-17" d="M685.92,736.36c-.26-.34-1.92-2.45-4.37-2.33-1.9.1-3.16,1.48-3.77,2.15-1.59,1.74-.97,2.57-2.7,5.46-1.51,2.52-2.52,2.8-3.46,5.32-.37,1.01-.67,1.81-.66,2.86.02,2.91,2.36,6.54,5.79,6.89,2.61.26,5.2-1.46,6.43-4.31"/>
    <path class="cls-17" d="M637.69,759.97c-.74-.55-2.26-1.87-2.49-3.88-.33-2.9,2.21-5.83,4.57-6.8,1.7-.7,3.44-.43,3.61-1.26.11-.54-.47-1.11-.68-1.32-1.53-1.5-4.56-1.84-6.78-.38-3.04,1.99-3.59,6.68-4.44,6.43-.27-.08-.39-.61-.59-1.43-.37-1.61-.06-2.57-.24-2.64-.3-.1-1.75,2.09-1.27,4.07.26,1.09,1.05,1.88.88,2.09-.17.21-.97-.62-1.42-.33-.42.27-.28,1.36-.24,1.65.33,2.6,3.86,7.44,5.17,9.18"/>
    <path class="cls-15" d="M695.3,754.58c.14-.1.7-.46,1.33-.2.56.23.8.78.86.94.05.14.28.72.05,1.3-.29.72-1.08.91-1.6.85-.16-.02-.69-.08-1.06-.61-.05-.08-.41-.61-.27-1.3.12-.59.53-.88.67-.98Z"/>
    <path class="cls-15" d="M707.87,752.12c.13-.1.63-.45,1.2-.19.51.23.72.78.78.94.05.14.25.72.05,1.29-.26.71-.97.9-1.44.84-.14-.02-.62-.08-.95-.61-.05-.08-.37-.61-.24-1.29.11-.59.48-.87.6-.97Z"/>
    <path class="cls-15" d="M706.65,762.82c-.11-.13-.27-.25-1.5-.19-1.28.07-1.53.22-1.71.41-.07.07-.42.43-.51.96-.1.65.29,1.1.61,1.47.35.4.69.79,1.25.75.73-.05,1.3-.79,1.56-1.13.21-.27.41-.54.51-.96.1-.46.05-1-.21-1.31Z"/>
    <path class="cls-17" d="M723.04,749.02c.6.41,1.43,1.1,2.14,2.18,1.35,2.03,1.46,4.15,1.45,5.01"/>
    <path class="cls-17" d="M724.49,744.81c.95.25,2.63.86,4.06,2.42,3.3,3.6,2.17,8.84,2.07,9.29"/>
  </g>
  <path class="cls-17" d="M1075.59,643.23c-2.75,7.95-5.88,21.16-2.56,35.95,1.16,5.17,3.11,12.19,8.94,17.98,6.69,6.64,14.52,7.47,29.33,9.03,13.23,1.4,19.85,2.1,27.73-1.39,9.91-4.39,15.25-12.34,18.74-17.53,9.02-13.42,10.9-27.43,11.31-35.15"/>
  <path class="cls-17" d="M1158.37,686.54c3.26,2.1,7.31,4.34,12.15,6.25,6.78,2.68,12.92,3.86,17.69,4.38"/>
  <path class="cls-17" d="M1096.03,704.5c-.15,6.26.08,14.91,1.73,25.02,1.43,8.72,3.34,15.05,5.11,20.82,2.67,8.69,6.83,20.38,13.39,33.8"/>
  <path class="cls-17" d="M1105.72,586.59c-6.76-1.79-11.59-1.05-14.81,0-3.62,1.19-6.8,3.3-13.09,4.53-2.16.42-3.96.6-5.15.68,1.54.9,4.33,2.23,7.94,2.27,1.49.02,2.8-.19,3.86-.45-1.57,1.74-3.15,3.47-4.72,5.21,1.22-.33,2.51-.63,3.86-.91,2.13-.43,4.14-.72,6.01-.91-.98.79-2.07,1.78-3.17,3.01-.81.91-1.48,1.79-2.05,2.62,2.17-.82,4.1-1.3,5.61-1.59,1.6-.31,3.33-.64,5.6-.59,2.22.05,4.09.33,5.46.65"/>
  <path class="cls-17" d="M1110.87,586.37c3.88-3.39,9.89-7.65,18.03-10.19,4.02-1.26,17.1-4.77,31.98,1.13,7.63,3.02,12.98,7.43,16.1,10.42"/>
  <path class="cls-17" d="M1165.6,604.26c1.63.05,5.39.42,9.02,3.17,2.02,1.53,3.31,3.28,4.08,4.53.02-.81.06-5.66-3.43-8.84-1.3-1.18-2.67-1.75-3.65-2.04,1.27-.2,4.11-.46,7.3.91,2.64,1.13,4.32,2.86,5.15,3.85-.63-2.09-1.85-4.97-4.29-7.48-.5-.51-1.01-.96-1.5-1.36"/>
  <path class="cls-17" d="M1096.03,704.5c-3.42,9.03-7.05,15.38-9.91,19.7-1.64,2.48-3.84,5.51-3.02,8.64.87,3.31,4.67,4.97,6.46,5.76,3.46,1.51,6.49,1.38,9.48,1.21,2.46-.14,6.23-.63,10.62-2.42"/>
  <path class="cls-17" d="M1168.87,637.97c.65-.51,1.85-1.31,3.48-1.52,3.04-.4,6.25,1.39,7.68,4.3,1.86,3.78.11,8.27-2.52,10.63-3.7,3.34-8.51,1.89-8.88,1.77"/>
  <path class="cls-17" d="M1109.71,679.36c.46-.14,3.09-.89,5.5.74,1.85,1.25,3.68,4,2.83,6.41-.85,2.39-4.15,3.93-7.45,2.56"/>
  <path class="cls-17" d="M1159.19,686.73c3.43.05,10.83-.35,18.62-5.03,6.07-3.64,9.76-8.32,11.67-11.15"/>
  <path class="cls-20" d="M1118.61,733.36c-.08,1.29-2.24,2.12-4.81,3.1-2.22.85-3.81,1.46-4.75.81-1.09-.75-.7-2.75-.01-3.95.92-1.61,2.99-2.88,5.22-2.78,2.15.1,4.43,1.46,4.35,2.82Z"/>
  <path class="cls-17" d="M1118.22,645.13c-.11,1.3-.28,3.11-.5,5.28-.27,2.6-.37,3.35-1.11,3.91-1.21.93-2.49.11-4.24,1.15-1.53.91-1.99,2.38-2.08,2.7-.09.31-.47,1.79.51,3.2,1.19,1.72,3.4,1.93,3.7,1.95"/>
  <g>
    <path class="cls-17" d="M1169.56,632.57c.65-5.69.44-10.63.01-14.42-4.51-1.36-10.41-2.67-17.38-3-7.52-.36-13.93.52-18.75,1.57-1.01,3.29-1.96,7.1-2.66,11.38-1.05,6.5-1.22,12.29-1.04,17.02,4.55,1.69,10.6,3.42,17.85,4.18,7.04.74,13.13.34,17.82-.32,1.58-3.94,3.36-9.52,4.15-16.41Z"/>
    <path class="cls-17" d="M1113.75,629.67c2.05-.57,5.2-1.18,9.03-.85,3.62.31,6.51,1.34,8.41,2.2"/>
    <path class="cls-17" d="M1114.21,627c.32-5.36-.43-9.85-1.23-13.01-5.8-1.85-13.12-3.6-21.66-4.29-6.31-.51-11.98-.35-16.83.11-1.46,5.16-2.83,11.1-3.82,17.74-.78,5.21-1.21,10.07-1.42,14.49,4.34,1.85,10.04,3.78,16.89,4.83,8.9,1.35,16.49.72,21.89-.2,2.07-3.4,5.61-10.27,6.17-19.66Z"/>
  </g>
  <path class="cls-17" d="M1166.47,608.84c.44.77.92,1.75,1.29,2.94.65,2.06.74,3.9.71,5.15"/>
  <path class="cls-17" d="M1085.96,609.07c.16-1.21.46-2.7,1.02-4.33.51-1.5,1.11-2.74,1.67-3.73"/>
  <path class="cls-17" d="M1122.07,602.94c5.7-.66,13.64-.86,22.78,1.17,5.46,1.22,10.13,2.96,13.89,4.69-1.64-1.64-3.61-3.39-5.93-5.08-1.21-.88-2.39-1.66-3.52-2.35,2.94.67,6.5,1.74,10.37,3.52,4.3,1.97,7.76,4.25,10.37,6.26-1.6-2.51-3.21-5.03-4.81-7.54"/>
  <path class="cls-23" d="M1146.05,623.88c.59.18,2.05.56,4.07.49,2.1-.07,3.62-.57,4.21-.8"/>
  <path class="cls-23" d="M1087.2,617.1c.9-.18,3.09-.49,5.85.26,2.87.78,4.72,2.25,5.43,2.88"/>
  <path class="cls-15" d="M1089.54,633.67c-.86-.72-1.12-3.03-.59-5.16s1.67-3.27,2.53-2.55,1.12,3.03.59,5.16c-.54,2.13-1.67,3.27-2.53,2.55Z"/>
  <path class="cls-15" d="M1147.03,637.04c-.86-.72-1.12-3.03-.59-5.16s1.67-3.27,2.53-2.55c.86.72,1.12,3.03.59,5.16s-1.67,3.27-2.53,2.55Z"/>
  <path class="cls-17" d="M1079.33,661.59c2.15-3.21,3.12-3.56,3.61-3.31.78.4.46,2.37,1.3,2.79,1.24.63,3.25-3.09,4.19-2.5.63.39.07,2.29.72,2.77.66.48,2.15-.79,3.83-2.66"/>
  <path class="cls-17" d="M1136.29,664.05c2.15-3.21,3.12-3.56,3.61-3.31.78.4.46,2.37,1.3,2.79,1.24.63,3.25-3.09,4.19-2.5.63.39.07,2.29.72,2.77.66.48,2.15-.79,3.83-2.66"/>
  <g>
    <path class="cls-2" d="M1181.34,548.44c.99.62,2.11.74,2.86.14,1.18-.95.87-3.23.47-4.39-.27-.77-.71-1.3-1.6-2.35-1.32-1.56-1.98-2.34-2.89-2.67-1.81-.65-3.59.56-4.19,1.01-.89-.72-3.37-2.5-6.44-1.98-.71.12-1.34.34-1.88.6-.57-.48-1.57-1.15-2.82-1.12-1.61.04-2.7,1.3-4.89,3.83-2.44,2.83-2.5,3.94-2.47,4.45.01.19.1,1.53,1.02,2.23.84.63,2.06.51,3.07-.35"/>
    <path class="cls-2" d="M1163.18,546.79c0,.98-.11,2.47-.64,4.13-.63,1.99-1.23,2.24-1.47,3.46-.51,2.59,1.37,5.67,3.32,7.22,2.53,2.02,5.41,1.66,6.89,1.47,1.2-.15,2.48-.59,5.04-1.47,1.89-.65,2.83-.98,3.19-1.25,2.91-2.23,1.27-10.74.64-13.63"/>
    <path class="cls-2" d="M1163.82,565.94c-.18-.17-.46-.44-.8-.77-1.19-1.17-1.34-1.42-1.74-1.48-.78-.13-1.44.64-1.55.77-.47.55-.84,1.48-.62,2.38.05.19.24.98.86,1.21.37.13.92.09,1.2-.37.21-.33.17-.72.15-.84.52.49,1.04.98,1.56,1.47"/>
    <path class="cls-2" d="M1163.3,560.82c-.21.38-.47.94-.65,1.66-.21.86-.23,1.6-.2,2.1"/>
    <path class="cls-2" d="M1179.9,560.01c1.02,1,1.19,1.71,1.13,2.18-.05.37-.25.83-.17,1.57.03.3.1.51.13.61.36,1.16.47,3.66.48,3.89.12,3.06-.67,6.33-.79,6.82"/>
    <path class="cls-2" d="M1162.11,569.18c-.12.88-.21,1.87-.23,2.95-.04,1.94.15,3.63.4,4.98"/>
    <path class="cls-2" d="M1175.7,566.96c-.18-.17-.46-.44-.8-.77-1.19-1.17-1.34-1.42-1.74-1.48-.78-.13-1.44.64-1.55.77-.47.55-.84,1.48-.62,2.38.05.19.24.98.86,1.21.37.13.92.09,1.2-.37.21-.33.17-.72.15-.84.52.49,1.04.98,1.56,1.47"/>
    <path class="cls-15" d="M1166.93,548.54c-.06-.14-.04-.34.05-.45s.21-.08.27.06.04.34-.05.45-.21.08-.27-.06Z"/>
    <path class="cls-15" d="M1174.79,549.38c-.06-.14-.04-.34.05-.45s.21-.08.27.06.04.34-.05.45-.21.08-.27-.06Z"/>
    <path class="cls-15" d="M1168.6,553.21c.19-.35.95-.56,1.7-.47s1.22.45,1.03.8-.95.56-1.7.47-1.22-.45-1.03-.8Z"/>
    <path class="cls-13" d="M1170.28,555.85c-.04.18-.19.85-.74,1.28-.85.68-1.84.18-1.9.15"/>
    <path class="cls-13" d="M1170.25,555.53c0,.19.03.87.49,1.43.71.87,1.77.62,1.83.61"/>
  </g>
  <path class="cls-3" d="M1120.14,679.28c-.27.44-.95,1.62-1.09,3.29-.12,1.47.24,2.51.44,3.05.56,1.54,1.46,2.33,1.92,2.67"/>
  <path class="cls-2" d="M1150.21,544.66c2.23.2,4.21-.75,4.97-2.41.48-1.04.32-2.1.27-2.45-.02-.11-.37-2.43-2.18-3.5-1.25-.74-1.85-.1-3.14-.93-1.1-.71-.88-1.31-1.9-2.08-1.35-1.02-3.73-1.45-5.12-.15-.24.23-.88.9-1.05,2.29-1.26-.93-4.74-3.21-9.07-2.55-1,.15-1.89.44-2.64.77-.23-.31-1.25-1.63-3.03-1.9-1.64-.25-2.88.55-3.22.77-1.03.68-1.01,1.26-2.07,2.37-1.44,1.51-2.07,1.08-3.48,2.33-.27.24-2.87,2.62-2.54,5.64.05.45.23,2.03,1.44,2.86,1.17.81,2.89.64,4.32-.45"/>
  <path class="cls-2" d="M1124.04,543.91c-.01,1.26-.16,3.17-.9,5.31-.88,2.55-1.73,2.89-2.06,4.45-.72,3.33,1.93,7.29,4.67,9.28,3.56,2.59,7.61,2.13,9.69,1.89,1.69-.19,3.49-.76,7.09-1.89,2.65-.84,3.98-1.26,4.49-1.61,4.09-2.87,1.78-13.8.9-17.53"/>
  <path class="cls-15" d="M1131.68,552.17c.26-.45,1.34-.72,2.4-.6s1.72.58,1.46,1.03-1.34.72-2.4.6-1.72-.58-1.46-1.03Z"/>
  <path class="cls-13" d="M1130.55,568.38c-.03,1.2-.07,2.39-.1,3.59-.3-.06-.77-.11-1.32,0-.53.11-1.26.26-1.57.91-.27.56-.12,1.27.2,1.71.5.69,1.37.69,2.08.7.55,0,1.45,0,2.03-.64.37-.42.45-.92.51-1.39.13-1.01.28-2.38.36-4.07"/>
  <path class="cls-13" d="M1147.64,561.37c1.29,1.56,2.26,2.96,2.94,4.02,1.3,2.02,1.96,3.06,2.28,4.6.35,1.67.16,3.14-.05,4.07"/>
  <path class="cls-13" d="M1139.32,567.3c-.03,1.2-.07,2.39-.1,3.59-.3-.06-.77-.11-1.32,0-.53.11-1.26.26-1.57.91-.27.56-.12,1.27.2,1.71.5.69,1.37.69,2.08.7.55,0,1.45,0,2.03-.64.37-.42.45-.92.51-1.39.13-1.01.28-2.38.36-4.07"/>
  <path class="cls-13" d="M1129.29,564.68c-.35,1.07-.71,2.55-.77,4.34-.04,1.11.04,2.1.17,2.92"/>
  <g>
    <path class="cls-3" d="M1067.31,744.64c-.84,2.87-1.02,5.02-1.01,6.5,0,.75.05,1.48-.12,2.6-.3,1.95-.86,2.44-.86,3.67,0,1.33.68,2.62,1.43,3.32,2.15,2.05,6.82,1.1,9.26-1.71,2.19-2.52,2.29-6.23,1.48-8.61-.58-1.69-1.23-1.57-1.79-3.57-.58-2.09-.13-3.2-1.01-5.61-.17-.47-.34-.86-.62-1.71-.63-1.91-.45-2.12-.78-2.76-.72-1.4-2.69-2.53-4.51-2.03-1.18.32-1.88,1.2-2.18,1.62-.65-.52-1.69-1.27-3.11-1.87-.8-.34-2.35-.89-7.3-1.06-1.26-.04-3.01-.07-5.1,0-.37-.44-1.4-1.52-3.03-1.79-.21-.03-3.05-.46-4.22,1.52-.58.97-.47,2.03-.4,2.48-.67.09-1.71.33-2.64,1.1-.94.78-1.3,1.74-2.11,4.14-1.67,4.92-1.39,4.53-1.77,5.31-1.29,2.59-2.47,2.96-2.64,4.96-.04.5-.16,1.9.7,2.84.9.99,2.59,1.16,4.24.41"/>
    <path class="cls-3" d="M1046.1,743.91c-.96.79-2.78,2.51-3.89,5.36-.54,1.41-1.56,4.04-.62,6.99.94,2.96,3.28,4.44,4.35,5.12,2.26,1.43,4.46,1.66,7.15,1.95,1.26.13,2.64.28,4.35.08,1.58-.18,4.73-.81,8.21-3.49"/>
    <path class="cls-3" d="M1044.68,762.56c.11.44.2,1.07,0,1.74-.24.83-.78,1.26-1.09,1.59-.97,1.05-.56,2.13-1.01,4.92-.53,3.29-1.37,3.44-1.45,6.13-.04,1.46.21,1.36.14,2.95-.08,2.02-.5,2.69-.87,5-.4,2.5-.61,3.74-.22,4.62,1.19,2.67,5.57,2.84,6.52,2.88,1.62.06,3.55.14,5.07-1.21,1.84-1.63,2.37-4.7,1.49-7.75"/>
    <path class="cls-3" d="M1064.47,762.65c.02,1.5.23,2.66.4,3.42.53,2.3,1.23,2.91,1.44,4.98.16,1.55-.21,1.44-.06,2.94.25,2.44,1.24,2.87,1.55,4.98.27,1.82-.44,1.68-.52,4.5-.09,3.11.74,3.89.11,5.83-.12.37-.59,1.75-1.84,2.76-2.4,1.94-6.4,1.49-8.27-.72-.86-1.02-1.12-2.23-1.38-3.48-.38-1.81-.26-3.35-.11-4.32"/>
    <path class="cls-3" d="M1042.58,770.81c-2.38,1.95-3.95,3.77-4.93,5.05-.38.49-1.01,1.35-1.55,2.58-.58,1.3-1.36,3.08-.69,4.2.17.29.54.69.4,1.02-.09.21-.31.24-.52.36-.59.34-.72,1.21-.8,1.8-.08.53-.4,2.69,1.09,3.9,1.13.92,2.85.92,4.19-.06"/>
    <path class="cls-3" d="M1066.43,772.08c3.24,1.34,4.08,2.55,4.13,3.48.04.64-.27,1.55.23,2.04.31.3.59.11,1.09.36.8.4,1.38,1.53,1.32,2.52-.07,1.18-1.02,1.66-.75,2.34.16.42.57.39,1.03.78,0,0,1.07.9.92,2.94-.14,1.94-3.02,3.99-7.18,4.44"/>
    <path class="cls-3" d="M1051.49,791.39c.89-.05,1.87-.07,2.93-.02,1.11.05,2.13.16,3.05.3"/>
  </g>
  <path class="cls-10" d="M1049.6,746.36c-.2-.43-.11-1.05.21-1.39s.74-.25.94.18.11,1.05-.21,1.39-.74.25-.94-.18Z"/>
  <path class="cls-10" d="M1060.31,747.69c-.2-.43-.11-1.05.21-1.39s.74-.25.94.18.11,1.05-.21,1.39c-.32.33-.74.25-.94-.18Z"/>
  <path class="cls-15" d="M1053.39,751.36c.18-.23.92-.32,1.65-.2s1.18.41,1,.65-.92.32-1.65.2-1.18-.41-1-.65Z"/>
  <g>
    <path class="cls-13" d="M1054.43,752.43c-.06.81-.12,1.62-.18,2.43"/>
    <path class="cls-13" d="M1051.99,755.12c.56-.07,1.24-.1,1.99-.05.88.06,1.64.22,2.25.39"/>
  </g>
  <g>
    <path class="cls-3" d="M852.33,770.36c-.53-.85-.55-1.6-.55-1.9.04-1.59,1.29-3.03,2.46-3.18.69-.09,1.22.28,1.48-.06.24-.32-.1-.79.05-1.47.06-.28.24-.71.99-1.29,1.78-1.37,4.19-1.56,4.71-1.59.97-.06,1.73.02,3.23.18,2.16.24,3.26.37,4.16,1.04.49.36,1.28,1.11,1.86,2.63"/>
    <path class="cls-3" d="M874.62,766.08c2.06.54,2.67,1.28,2.79,1.9.22,1.09-1,2.04-.6,3.24.07.2.15.34,1.04,1.16,1.86,1.73,2.14,1.74,2.46,2.39.38.76.6,1.97.11,2.88-.42.78-1.23,1.09-1.61,1.24-.24.09-.66.25-1.18.23-1.27-.06-1.47-1.11-2.85-1.35-.72-.12-.94.12-1.55-.17-.16-.08-.77-.37-1.1-1.05-.4-.82-.28-1.92.29-2.82"/>
    <path class="cls-3" d="M852.25,765.11c-.51.64-.85,1.11-1.1,1.47-.15.21-.39.57-.81.93-.04.03-.15.12-.29.23-.77.54-1.42.6-2.19,1.04-.59.33-.96.56-1.19,1.04-.31.65.03.97-.31,1.72-.25.55-.51.52-.68,1.08-.05.17-.22.72.02,1.25.18.4.54.68.91.76.67.15,1.05-.43,1.51-.15.19.12.15.23.4.49.12.13.58.45,1.09.54.95.17,1.85-.55,1.96-.64"/>
    <path class="cls-3" d="M852.14,771.19c-.64,1.49-.54,2.33-.3,2.83.21.43.5.59.61,1.16.11.6-.14.86-.18,1.62-.01.26-.05,1.04.28,1.64.49.9,1.35.62,2.54,1.64.72.62.45.77,1.01,1.19,1.32.99,2.51,0,4.01.96.66.42.4.59,1.01.99,1.21.78,2.38.24,5.78-.28.73-.11,1.32-.19,1.65-.23"/>
    <path class="cls-3" d="M869.85,782.33c1.01-.04,1.55-.4,1.85-.74.24-.27.37-.56.81-.99.37-.36.68-.54.84-.65.45-.3,1.03-.89,1.6-2.15"/>
    <path class="cls-3" d="M855.2,780.3c-.2.73-.53,1.34-1.03,1.76-.31.25-.36.22-.75.49-.75.52-.59,1.02-1.27,1.49-.48.33-.73.19-.96.56-.2.3-.08.47-.25,1.01-.18.58-.41.65-.65,1.18-.25.56-.29,1.14-.28,1.46.06,1.34,1.28,2.22,1.43,2.32,1.26.88,3.15.57,4.75-.76"/>
    <path class="cls-3" d="M860.25,785.6c-.38.23-.59.51-.68.8-.17.54.15.85-.03,1.42-.07.2-.26.43-.65.87-.38.43-.57.59-.87.9-.52.55-.82.86-.99,1.21-.43.87-.15,2.08.16,2.64.75,1.38,3.21,1.79,5.93.56"/>
    <path class="cls-3" d="M866.62,792.36c.14-.43.41-1.02.93-1.42.3-.24.33-.14.62-.35.92-.67.78-1.81,1.61-2.15.17-.07.18-.02.34-.1.55-.28.79-1.02.9-1.63"/>
    <path class="cls-3" d="M870.44,788.18c1.06.91,1.71.95,2.11.79.62-.25.89-1.06,1.58-1.04.26,0,.25.13.65.24.93.27,1.77-.14,1.99-.24.49-.24.92-.45,1.18-.94.06-.12.12-.26.25-.31.29-.12.48.38.93.52.71.22,1.19-.75,1.89-.49.23.09.18.19.56.38.43.22.74.21,1.02.28.6.14.87.55,1.3.94,1.17,1.04,2.68,1.14,3.38,1.18.78.05,1.45.09,2.2-.31.14-.08,1.74-.96,1.93-2.81.08-.81-.14-1.46-.28-1.8"/>
    <path class="cls-3" d="M876.94,770.2c1.11-.11,2.06-.22,2.81-.32,1.73-.23,2.02-.33,2.36-.56.81-.53,1.26-1.44,1.68-2.26.42-.83.34-.99.68-1.39.5-.59,1.37-1.06,2.24-.83.6.16,1.27.66,1.25,1.13-.01.29-.29.5-.19.71.05.12.17.13.36.22,0,0,.32.15.65.54.4.47.37,1.22.35,1.6-.02.5-.06,1.2-.53,1.67-.62.62-1.76.59-2.05.07-.15-.28-.09-.76.16-.97.28-.24.75-.12.99.14.46.49.23,1.65-.19,2.32-.84,1.36-2.7,1.15-2.82,1.13"/>
    <path class="cls-3" d="M883.52,772.72c.4.1,1.28.38,2.05,1.25.39.44.94,1.05,1.04,1.95.08.78-.23,1.29.08,1.7.16.22.35.2.77.33.37.12,1.71.54,1.92,1.36.15.62-.44,1.14-.17,1.56.13.21.35.2.57.29.38.17.81.74.96,2.53"/>
    <path class="cls-3" d="M877.17,787.79c.91.67,1.62,1.28,2.14,1.76.89.81,1.11,1.12,1.71,1.39.38.17,1.6.72,2.6-.02.86-.63,1.01-1.81,1.03-2.05"/>
    <path class="cls-19" d="M881.73,789.8c.15.16.35.44.49.84.07.2.11.39.13.55"/>
    <path class="cls-19" d="M883.04,789.44c.14.12.31.28.47.5.17.23.29.45.37.62"/>
    <path class="cls-19" d="M851.65,788.45c-.11,0-.37.04-.62.25-.33.28-.41.66-.43.76"/>
    <path class="cls-19" d="M852.96,789.44c-.14.08-.32.21-.5.41-.26.28-.4.58-.47.78"/>
    <path class="cls-19" d="M858.27,791.91c-.16.06-.34.15-.52.26-.31.19-.55.4-.72.58"/>
    <path class="cls-19" d="M859.76,793.18c-.18.08-.41.2-.65.41-.3.25-.49.52-.61.72"/>
    <path class="cls-19" d="M864.06,793.28c-.02.14-.03.31-.03.5.01.3.07.56.12.74"/>
    <path class="cls-19" d="M865.01,792.97c0,.11,0,.34.12.58.18.36.49.49.57.52"/>
    <path class="cls-19" d="M872.06,764.14c.15-.06.34-.14.54-.27.34-.23.57-.52.7-.72"/>
    <path class="cls-3" d="M873.18,765.06c.18.03.41.05.69,0,.53-.09.9-.37,1.09-.53"/>
    <path class="cls-3" d="M858.41,784.71c.05.17.13.38.26.6.3.48.7.71.9.8"/>
    <g>
      <path class="cls-19" d="M859.92,776.03c.26.29.68.68,1.29.93.95.39,1.78.21,2.09.13.4-.1.72-.24.93-.36.1.04.22.11.36.23.1.09.61.53.59,1.19-.02.56-.4,1.1-.81,1.19-.59.14-1.44-.61-1.74-2.02"/>
      <path class="cls-18" d="M863.7,777.22c.06.13.12.26.2.4.1.17.2.32.3.45"/>
    </g>
    <path class="cls-10" d="M861.4,772.55c.07-.08.18-.15.9-.19.76-.04.89.03,1,.12.04.03.23.21.25.49.03.34-.22.61-.43.82-.23.23-.45.46-.78.47-.43.02-.74-.35-.87-.52-.11-.13-.22-.27-.25-.49-.04-.24.02-.53.19-.72Z"/>
    <path class="cls-10" d="M866.29,768.84c.09-.06.42-.27.81-.12.34.14.49.46.53.56.03.08.17.43.03.77-.17.42-.66.54-.97.5-.1-.01-.42-.05-.64-.36-.03-.05-.25-.36-.16-.77.07-.35.32-.52.41-.58Z"/>
    <path class="cls-10" d="M858.08,768.55c.09-.06.42-.27.81-.12.34.14.49.46.53.56.03.08.17.43.03.77-.17.42-.66.54-.97.5-.1-.01-.42-.05-.64-.36-.03-.05-.25-.36-.16-.77.07-.35.32-.52.41-.58Z"/>
  </g>
  <path class="cls-3" d="M1135.93,532.92c-.42.26-1.59,1.08-1.96,2.58-.11.45-.3,1.2.1,1.9.03.05.47.81,1.25.91.88.12,1.32-.71,1.84-.47.49.23.21,1.05.8,1.49.5.37,1.24.17,1.66-.06.57-.31.83-.84.97-1.14.71-1.52.09-3.21-.08-3.63"/>
  <path class="cls-10" d="M1128.17,544.45c.13-.09.63-.4,1.2-.17.51.2.72.69.78.83.05.12.25.64.05,1.14-.26.63-.98.79-1.44.74-.14-.02-.62-.07-.95-.54-.05-.07-.37-.54-.24-1.14.11-.52.48-.77.61-.86Z"/>
  <path class="cls-10" d="M1139.32,545.02c.13-.09.63-.4,1.2-.17.51.2.72.69.78.83.05.12.25.64.05,1.14-.26.63-.98.79-1.44.74-.14-.02-.62-.07-.95-.54-.05-.07-.37-.54-.24-1.14.11-.52.48-.77.61-.86Z"/>
  <g>
    <path class="cls-13" d="M1133.56,553.88c-.06.81-.12,1.62-.18,2.43"/>
    <path class="cls-13" d="M1131.11,556.56c.56-.07,1.24-.1,1.99-.05.88.06,1.64.22,2.25.39"/>
  </g>
  <path class="cls-4" d="M1047.4,543.03c-.59,3.4-4.33,6.12-9.41,6.87-4.51-3.38-6.57-7.89-5.37-10.94.59-1.49,2.35-3.66,4.53-3.31,1.55.25,2.88,1.7,3.4,3.65,1.44-1.77,3.52-2.43,5-1.74,1.98.93,2.11,3.94,1.85,5.46Z"/>
  <path class="cls-1" d="M1072.25,511.1c-4.12,5.72-2.71,15.62,3.48,24.98,11.38,2.65,20.88-.3,23.6-6.53,1.33-3.05,1.95-8.96-1.67-12.02-2.58-2.18-6.6-2.32-10.19-.45.51-4.83-1.5-9.15-4.62-10.59-4.18-1.93-8.76,2.07-10.6,4.62Z"/>
  <path class="cls-25" d="M1071.57,487.93c1.15,3.24-.74,7.59-4.73,10.99-5.52-.45-9.47-3.21-9.93-6.48-.22-1.6.24-4.41,2.28-5.29,1.45-.63,3.3-.1,4.7,1.29.38-2.3,1.84-4,3.44-4.2,2.15-.27,3.73,2.24,4.24,3.69Z"/>
  <path class="cls-1" d="M985.09,694.32c4.12,5.72,2.71,15.62-3.48,24.98-11.38,2.65-20.88-.3-23.6-6.53-1.33-3.05-1.95-8.96,1.67-12.02,2.58-2.18,6.6-2.32,10.19-.45-.51-4.83,1.5-9.15,4.62-10.59,4.18-1.93,8.76,2.07,10.6,4.62Z"/>
  <path class="cls-25" d="M989.85,713.14c-1.15,3.24.74,7.59,4.73,10.99,5.52-.45,9.47-3.21,9.93-6.48.22-1.6-.24-4.41-2.28-5.29-1.45-.63-3.3-.1-4.7,1.29-.38-2.3-1.84-4-3.44-4.2-2.15-.27-3.73,2.24-4.24,3.69Z"/>
  <path class="cls-22" d="M1.49,208.61c1.01-8.03,4.46-26.47,18.89-43.34,22.06-25.79,53.44-27.74,64.77-28.47,12.2-.79,39.52-2.55,59.85,16.19,7.69,7.09,12.05,14.96,14.53,20.58,1.56-3.43,4.47-8.47,9.77-12.74,13.16-10.59,29.63-7.24,32.23-6.67-6.04-5.39-20.14-19.46-25.56-42.23-7.61-31.98,7.56-57.39,11.11-63.35C213.84,3.76,270.64,1.97,274.88,1.9"/>
  <g>
    <path class="cls-22" d="M1021.5,80.14c.01-1.35.41-15.74,12.18-24.18,9.39-6.73,19.42-4.93,21.98-4.37,14.86,3.25,20.63,17.65,21.15,19.03,1.56-4.76,5.09-13.36,12.97-20.8,13.98-13.21,31.29-13.03,37.68-12.96,17.77.19,30.09,8.35,35.04,11.73,6.51,4.44,20.91,14.27,25.84,33.43,3.83,14.92-.09,27.67-1.47,31.96-3.4,10.58-8.93,17.89-12.44,21.87"/>
    <path class="cls-22" d="M1122.71,136.55c2.59-2.55,7.49-6.65,14.59-8.58,10.64-2.89,19.43.97,25.21,3.5,4.3,1.89,13.26,5.96,20.09,15.99,7.09,10.41,7.69,21.06,7.87,25.32.25,5.78-.51,10.63-1.27,14.01"/>
  </g>
  <g>
    <path class="cls-22" d="M572.25,554.37c-7.02,4.15-18.22,9.66-32.93,12.52-7.74,1.51-24.75,3.9-45.19-1.27-25.85-6.54-41.86-22.3-48.46-29.5"/>
    <path class="cls-22" d="M280.58,507.12c3.83,2.72,24.63,16.97,45.77,9.65,2.91-1.01,6.22-2.56,9.65-5.01-1.6,5.17-4.36,16.64-.65,30.09,1.04,3.76,6.76,24.52,26.53,32.41,16.34,6.52,35.53,2.26,48.53-10.83,1.22,3.08,5.71,13.31,16.9,18.84,12.58,6.22,28.11,3.77,38.17-5.1,6.78-5.98,9.32-13.32,10.28-16.8"/>
  </g>
  <g>
    <path class="cls-22" d="M824.41,541.16c1.45,5.52,6.32,21.07,21.32,32.97,15.95,12.64,33.19,13.1,40.51,13.18,6.8.08,28.06,0,45.62-15.79,9.03-8.12,13.56-17.24,15.75-22.64"/>
    <path class="cls-22" d="M939.69,540.35c.66,1.41,2.08,3.94,4.85,6.07,2.71,2.09,5.36,2.73,6.62,3.03,7.11,1.66,16.19-.8,21.75-7.33,1.27-1.49,3.19-4.17,4.34-8.24"/>
  </g>
  <g>
    <path class="cls-22" d="M1187.14,347.86c.74,1.55,3.97,8.82.91,17.18-2.69,7.36-8.55,10.89-10.26,11.84,1.43,1.58,3.81,4.64,4.94,9.04.55,2.13,2.15,8.38-1.57,13.75-4.98,7.17-15.14,6.54-15.66,6.5"/>
    <path class="cls-22" d="M1157.51,387.53c2.01,2.27,10.1,11.92,9.48,25.6-.07,1.47-1.26,20.34-18.45,28.63-10.21,4.93-23.13,4.7-33.1-1.15-4.8-2.82-7.87-6.33-9.64-8.72"/>
  </g>
  <g>
    <g>
      <path class="cls-22" d="M638.29,85.29c-2.91.05-18.5.01-30.16-12.13-8.58-8.93-15.24-24.64-8.94-39.07,7.05-16.12,26.25-21.39,40.34-19.33,15.15,2.22,24.16,12.89,26.54,15.9"/>
      <path class="cls-22" d="M793.28,56.05c1.4-15.68-8.62-30.05-23.24-33.99-13.48-3.63-28.15,2.35-35.58,14.74"/>
    </g>
    <path class="cls-22" d="M658.14,22.39c2.04-2.86,5.32-6.79,10.2-10.48,1.01-.76,6.77-5.03,14.99-7.63,5.07-1.6,27.7-7.83,45.52,6.01,3.26,2.53,9.62,8.27,13.81,18.85"/>
  </g>
  <path class="cls-22" d="M465.78,2.53c2.07.46,15.19,3.62,22.6,16.74,7.55,13.37,3.2,26.5,2.51,28.46,3.27-2.34,8.03-5.09,14.23-6.7,15.51-4.02,28.59,2.09,32.64,4.19"/>
  <path class="cls-22" d="M565.71,100.67c1.72-3.04,5.14-7.97,11.19-11.19,9.93-5.29,22.79-3.77,33.43,3.53.42-1.37,1.34-3.7,3.41-5.86,3.52-3.68,7.91-4.33,9.27-4.48"/>
  <path class="cls-9" d="M775.48,553.43c2.43,4.98,9.62,7.17,18.11,5.59,5.77-7.69,7.1-15.81,3.85-19.9-1.59-2-5.38-4.41-8.72-2.7-2.38,1.22-3.88,4.2-3.87,7.52-3.09-1.97-6.71-1.88-8.78,0-2.77,2.51-1.67,7.27-.59,9.49Z"/>
  <path class="cls-24" d="M759.21,542.12c.42,2.43,3.01,4.4,6.51,4.97,3.08-2.38,4.46-5.58,3.61-7.76-.41-1.07-1.64-2.63-3.13-2.39-1.06.16-1.97,1.19-2.31,2.58-1-1.27-2.43-1.76-3.44-1.28-1.35.65-1.42,2.8-1.23,3.88Z"/>
  <path class="cls-1" d="M940.58,36.02c4.12,5.72,2.71,15.62-3.48,24.98-11.38,2.65-20.88-.3-23.6-6.53-1.33-3.05-1.95-8.96,1.67-12.02,2.58-2.18,6.6-2.32,10.19-.45-.51-4.83,1.5-9.15,4.62-10.59,4.18-1.93,8.76,2.07,10.6,4.62Z"/>
  <path class="cls-25" d="M945.34,54.84c-1.15,3.24.74,7.59,4.73,10.99,5.52-.45,9.47-3.21,9.93-6.48.22-1.6-.24-4.41-2.28-5.29-1.45-.63-3.3-.1-4.7,1.29-.38-2.3-1.84-4-3.44-4.2-2.15-.27-3.73,2.24-4.24,3.69Z"/>
  <path class="cls-9" d="M520.18,108.36c1.91,5.22-1.32,12.35-8.08,17.99-9.28-.56-15.91-4.91-16.64-10.2-.36-2.59.45-7.17,3.89-8.66,2.45-1.06,5.55-.27,7.9,1.95.66-3.74,3.13-6.54,5.84-6.93,3.62-.51,6.25,3.52,7.11,5.85Z"/>
  <path class="cls-24" d="M530.11,98.99c-.42,2.43-3.01,4.4-6.51,4.97-3.08-2.38-4.46-5.58-3.61-7.76.41-1.07,1.64-2.63,3.13-2.39,1.06.16,1.97,1.19,2.31,2.58,1-1.27,2.43-1.76,3.44-1.28,1.35.65,1.42,2.8,1.23,3.88Z"/>
  <path class="cls-21" d="M238.45,35.84c-6.62,7.9-4.36,21.6,5.6,34.54,18.32,3.66,33.6-.41,37.98-9.02,2.14-4.21,3.13-12.39-2.68-16.63-4.15-3.02-10.62-3.21-16.4-.62.82-6.67-2.41-12.66-7.44-14.65-6.73-2.66-14.1,2.86-17.05,6.39Z"/>
  <path class="cls-25" d="M266.98,82.1c1.86,4.48-1.19,10.5-7.62,15.2-8.88-.63-15.24-4.44-15.97-8.96-.36-2.21.39-6.1,3.66-7.32,2.33-.87,5.31-.14,7.56,1.79.61-3.18,2.96-5.53,5.54-5.81,3.46-.38,6,3.1,6.83,5.1Z"/>
  <path class="cls-4" d="M797.05,717c1.15,3.24-.74,7.59-4.73,10.99-5.52-.45-9.47-3.21-9.93-6.48-.22-1.6.24-4.41,2.28-5.29,1.45-.63,3.3-.1,4.7,1.29.38-2.3,1.84-4,3.44-4.2,2.15-.27,3.73,2.24,4.24,3.69Z"/>
  <path class="cls-24" d="M808.56,703.2c-.42,2.43-3.01,4.4-6.51,4.97-3.08-2.38-4.46-5.58-3.61-7.76.41-1.07,1.64-2.63,3.13-2.39,1.06.16,1.97,1.19,2.31,2.58,1-1.27,2.43-1.76,3.44-1.28,1.35.65,1.42,2.8,1.23,3.88Z"/>
  <path class="cls-9" d="M1178.94,30.31c-2.43,4.98-9.62,7.17-18.11,5.59-5.77-7.69-7.1-15.81-3.85-19.9,1.59-2,5.38-4.41,8.72-2.7,2.38,1.22,3.88,4.2,3.87,7.52,3.09-1.97,6.71-1.88,8.78,0,2.77,2.51,1.67,7.27.59,9.49Z"/>
  <path class="cls-25" d="M268.57,452.74c2.1,5.86-1.59,13.83-9.25,20.12-10.45-.69-17.87-5.6-18.65-11.53-.38-2.9.57-8.04,4.45-9.69,2.76-1.18,6.25-.26,8.87,2.23.77-4.19,3.58-7.32,6.63-7.73,4.08-.55,7.01,3.98,7.95,6.6Z"/>
  <path class="cls-21" d="M1063.94,193.41c-6.62,7.9-4.36,21.6,5.6,34.54,18.32,3.66,33.6-.41,37.98-9.02,2.14-4.21,3.13-12.39-2.68-16.63-4.15-3.02-10.62-3.21-16.4-.62.82-6.67-2.41-12.66-7.44-14.65-6.73-2.66-14.1,2.86-17.05,6.39Z"/>
  <path class="cls-9" d="M34.12,247.75c1.91,5.22-1.32,12.35-8.08,17.99-9.28-.56-15.91-4.91-16.64-10.2-.36-2.59.45-7.17,3.89-8.66,2.45-1.06,5.55-.27,7.9,1.95.66-3.74,3.13-6.54,5.84-6.93,3.62-.51,6.25,3.52,7.11,5.85Z"/>
  <path class="cls-25" d="M624.27,707.82c1.15,3.24-.74,7.59-4.73,10.99-5.52-.45-9.47-3.21-9.93-6.48-.22-1.6.24-4.41,2.28-5.29,1.45-.63,3.3-.1,4.7,1.29.38-2.3,1.84-4,3.44-4.2,2.15-.27,3.73,2.24,4.24,3.69Z"/>
  <path class="cls-21" d="M633.64,588.37c3.04,9.85-4.35,21.6-18.54,29.67-18.31-3.72-30.82-13.39-31.52-23.03-.34-4.71,1.91-12.64,8.91-14.29,4.99-1.18,11.04,1.15,15.36,5.78,1.83-6.47,7.13-10.74,12.53-10.62,7.24.15,11.89,8.09,13.25,12.49Z"/>
  <path class="cls-4" d="M645.85,615.77c-1.15,3.24.74,7.59,4.73,10.99,5.52-.45,9.47-3.21,9.93-6.48.22-1.6-.24-4.41-2.28-5.29-1.45-.63-3.3-.1-4.7,1.29-.38-2.3-1.84-4-3.44-4.2-2.15-.27-3.73,2.24-4.24,3.69Z"/>
  <path class="cls-9" d="M136.84,821.08c-2.43,4.98-9.62,7.17-18.11,5.59-5.77-7.69-7.1-15.81-3.85-19.9,1.59-2,5.38-4.41,8.72-2.7,2.38,1.22,3.88,4.2,3.87,7.52,3.09-1.97,6.71-1.88,8.78,0,2.77,2.51,1.67,7.27.59,9.49Z"/>
  <path class="cls-9" d="M35.39,30.11c1.91,5.22-1.32,12.35-8.08,17.99-9.28-.56-15.91-4.91-16.64-10.2-.36-2.59.45-7.17,3.89-8.66,2.45-1.06,5.55-.27,7.9,1.95.66-3.74,3.13-6.54,5.84-6.93,3.62-.51,6.25,3.52,7.11,5.85Z"/>
  <path class="cls-24" d="M45.31,20.74c-.42,2.43-3.01,4.4-6.51,4.97-3.08-2.38-4.46-5.58-3.61-7.76.41-1.07,1.64-2.63,3.13-2.39,1.06.16,1.97,1.19,2.31,2.58,1-1.27,2.43-1.76,3.44-1.28,1.35.65,1.42,2.8,1.23,3.88Z"/>
  <path class="cls-9" d="M818.82,24.82c-1.91,5.22,1.32,12.35,8.08,17.99,9.28-.56,15.91-4.91,16.64-10.2.36-2.59-.45-7.17-3.89-8.66-2.45-1.06-5.55-.27-7.9,1.95-.66-3.74-3.13-6.54-5.84-6.93-3.62-.51-6.25,3.52-7.11,5.85Z"/>
  <path class="cls-24" d="M808.9,15.45c.42,2.43,3.01,4.4,6.51,4.97,3.08-2.38,4.46-5.58,3.61-7.76-.41-1.07-1.64-2.63-3.13-2.39-1.06.16-1.97,1.19-2.31,2.58-1-1.27-2.43-1.76-3.44-1.28-1.35.65-1.42,2.8-1.23,3.88Z"/>
  <path class="cls-5" d="M105.59,94.63c-.74-3.32,1.1-6.73,4.13-7.63,3.02-.9,6.08,1.06,6.82,4.37s-1.1,6.73-4.13,7.63-6.08-1.06-6.82-4.37Z"/>
  <path class="cls-11" d="M106.88,93.38c.14-2.22,2.21-3.85,4.2-3.61,1.31.16,2.58,1.12,3.04,2.52.73,2.17-.6,5.02-2.87,5.4-2.26.38-4.53-1.84-4.38-4.31Z"/>
  <g>
    <path class="cls-8" d="M92.53,81.43c-1.47-3.37-4.65-9.44-11.05-14.61-1.2-.97-11.38-8.95-25.79-8.46-14.79.51-27.66,9.39-33.81,20.5-3.26,5.88-4.03,11.28-4.81,16.78-1.22,8.58-.12,13.04,1.28,27.67,0,0,1.43,13.2,1.93,27.84.93,27.1-2.79,38.18,4.99,47.28,1.36,1.59,4.52,5.18,9.6,5.95,6.8,1.04,12.05-3.59,12.33-3.85,5.82-5.34,5.14-14.26,4.49-21.46-1.38-15.22-7.88-27.71-14.43-36.75"/>
    <path class="cls-8" d="M55.34,89.09c1.85.88,7,3.62,9.5,9.47,3.41,7.98-.73,15.7-2.39,18.81-4.37,8.16-11.63,11.72-14.37,12.89"/>
    <path class="cls-8" d="M44.75,141.93c3.6-.49,6.73-.83,9.25-1.06,4.42-.41,8.86-.65,13.3-.78,2-.06,3.42-.07,4.45-1.12,1.61-1.64,1.38-4.89.17-7.03-1.38-2.44-3.92-3.25-6.5-4.02-2.31-.7-6.57-1.58-12.19-.44"/>
    <path class="cls-8" d="M96.87,119.06c-4.43-4.28-6.13-8.42-6.86-10.79-2.84-9.19.86-17.86,4.21-25.71,2.13-5,4.46-8.82,6.05-11.21,1.19,1.31,2.57,3.05,3.84,5.25,1.11,1.91,1.87,3.71,2.4,5.23,2.73-.63,5.91-1.16,9.49-1.38,5.91-.37,11.01.23,14.93,1,.02-.84.1-1.77.29-2.78.57-3.02,1.86-5.32,2.88-6.79,1.8.99,4.36,2.68,6.73,5.41,1.53,1.76,3.22,4.23,5.25,9.94,2.48,7,4.39,12.4,3.89,19.75-.21,3.04-.6,8.8-4.25,14.68-4.99,8.03-12.86,11.14-17.33,12.83-5.99,2.27-11,2.78-23.17,2.93-8.32.1-19.27.03-32.23-.61"/>
  </g>
  <path class="cls-16" d="M124.66,101.53c-.7-.47-1.4-.06-2.76.13-2.02.28-2.86-.28-3.52.43-.04.04-.39.43-.4.96-.02.87.86,1.48,1.9,2.2.91.63,1.43.98,2.09.88.47-.07.76-.34,1.34-.87.79-.74,2.27-2.1,1.87-3.15-.13-.33-.4-.51-.51-.59Z"/>
  <path class="cls-5" d="M109.01,103.24c-.81-.4-1.79-.78-2.94-1.04-3.67-.82-6.79.16-8.31.77"/>
  <path class="cls-5" d="M108.48,105.39c-.89-.13-1.94-.2-3.12-.1-3.75.33-6.42,2.21-7.68,3.26"/>
  <path class="cls-5" d="M109.2,107.17c-.88.2-1.88.53-2.93,1.05-3.36,1.69-5.16,4.41-5.95,5.85"/>
  <path class="cls-5" d="M132.42,101.81c.75-.51,1.67-1.02,2.77-1.43,3.52-1.32,6.74-.78,8.33-.39"/>
  <path class="cls-5" d="M133.24,103.87c.86-.26,1.9-.47,3.07-.53,3.76-.19,6.66,1.31,8.06,2.16"/>
  <path class="cls-5" d="M132.77,105.73c.9.08,1.94.26,3.05.64,3.56,1.2,5.72,3.66,6.7,4.97"/>
  <path class="cls-5" d="M125.98,93.66c-.74-3.32,1.1-6.73,4.13-7.63,3.02-.9,6.08,1.06,6.82,4.37s-1.1,6.73-4.13,7.63c-3.02.9-6.08-1.06-6.82-4.37Z"/>
  <path class="cls-11" d="M127.26,92.41c.14-2.22,2.21-3.85,4.2-3.61,1.31.16,2.58,1.12,3.04,2.52.73,2.17-.6,5.02-2.87,5.4-2.26.38-4.53-1.84-4.38-4.31Z"/>
</svg>