<?xml version="1.0" encoding="UTF-8"?>
<svg id="Layer_1" data-name="Layer 1" xmlns="http://www.w3.org/2000/svg" viewBox="0 0 1229.67 872.64">
  <defs>
    <style>
      .cls-1, .cls-2, .cls-3, .cls-4, .cls-5, .cls-6, .cls-7, .cls-8, .cls-9, .cls-10, .cls-11, .cls-12, .cls-13 {
        stroke-miterlimit: 10;
      }

      .cls-1, .cls-2, .cls-3, .cls-4, .cls-5, .cls-7, .cls-8, .cls-9, .cls-11 {
        fill: none;
      }

      .cls-1, .cls-6, .cls-8 {
        stroke: #1f3555;
      }

      .cls-2, .cls-3, .cls-4, .cls-13 {
        stroke: #aa4a4b;
      }

      .cls-2, .cls-5, .cls-6, .cls-7, .cls-8, .cls-9, .cls-10, .cls-12 {
        stroke-width: 2px;
      }

      .cls-14 {
        fill: #db9ec7;
      }

      .cls-3, .cls-13 {
        stroke-width: 6px;
      }

      .cls-4 {
        stroke-width: 3px;
      }

      .cls-5, .cls-10 {
        stroke: #203555;
      }

      .cls-6 {
        fill: #1f3555;
      }

      .cls-7, .cls-12 {
        stroke: #231f20;
      }

      .cls-9, .cls-11 {
        stroke: #1e3555;
      }

      .cls-10 {
        fill: #fff6eb;
      }

      .cls-11 {
        stroke-width: 1.5px;
      }

      .cls-12 {
        fill: #231f20;
      }

      .cls-13 {
        fill: #aa4a4b;
      }
    </style>
  </defs>
  <path class="cls-3" d="M884.36,393.08c-.02-2.67-.63-28.14-19.66-41.72-19.23-13.72-42.84-4.98-55.4,4.27-20.2,14.87-23.15,39.35-23.68,45.99-1.65,20.69,6.79,35.8,9.38,40.3,2.31,4.01,15.15,26.27,37.11,30.22,20.89,3.76,29.81-12.69,53.58-7.47,2.76.61,12.19,2.79,21,9.96,23.83,19.4,31.89,66.24,11.06,93.56-3.48,4.57-12.23,14.45-29.56,19.43"/>
  <g>
    <path class="cls-5" d="M714.66,320.11c48.85-9.28,105.84-16.73,169.56-18.94,62.33-2.16,118.51,1.14,167.01,6.76,25.77-6.9,51.54-13.8,77.31-20.7-31.83-7.86-67.76-14.53-107.28-18.33-80.47-7.73-150.63-1.16-205.66,8.89-33.64,14.11-67.29,28.21-100.93,42.32Z"/>
    <path class="cls-5" d="M719.83,326.66c10.5,14.32,21.13,30.39,31.4,48.32,27.86,48.64,44.11,95.4,53.9,133.84"/>
    <path class="cls-5" d="M1055.27,317.22c-1.25,24.41-2.31,49.22-3.14,74.42-1.14,34.57-1.82,68.46-2.09,101.63"/>
    <path class="cls-5" d="M1129.06,293.34c-5.75,35-11.04,71.49-15.7,109.4-4.51,36.71-8.13,72.29-10.99,106.63"/>
  </g>
  <path class="cls-5" d="M956.73,528.51c-.58,25.28,4.56,44.28,8.23,54.95,4.48,13.02,9.42,27.37,22.12,39.07,14.23,13.11,29.42,14.79,34.47,15.26,6.07.57,20.52.95,36.01-8.55,18.01-11.04,26.21-28.54,29.32-35.41,9.66-21.32,9.32-41.49,8.75-50.06"/>
  <path class="cls-5" d="M987.2,624.27c-2.48,37.74-5.62,76.46-9.53,116.1-1.79,18.15-3.7,36.06-5.72,53.73,12.39,5.84,31.81,12.89,56.12,13.43,33.57.75,59.35-11.29,72.75-18.93-7.5-59.7-15-119.4-22.51-179.11"/>
  <path class="cls-5" d="M1044.12,491.42c-13.42-10.53-25.36-14.2-32.71-15.67-25.95-5.19-46.76,6.59-58.07,13.22-10.97,6.43-19.26,13.78-24.62,19.1,3.77-1.87,8.34-3.68,13.6-4.9,8.27-1.91,15.49-1.72,20.95-.98-3.98.42-9.85,1.73-16.17,5.88-3.3,2.16-5.99,4.62-8.09,6.86,4.95-1.41,10.1-2.72,15.44-3.92,3.24-.72,6.43-1.38,9.56-1.96-3.48,1.25-7.94,3.34-12.75,6.94-5.26,3.93-9.18,8.35-11.89,11.9,2.31-.96,4.67-1.89,7.08-2.79,11.16-4.18,21.88-7.1,32.01-9.09-2.14,1.29-5.67,3.88-8.82,8.82-2.06,3.23-3.3,6.43-4.04,8.82,5.36-4.3,12.44-8.85,21.14-11.76,23.61-7.89,43.68,1.44,52.03,6.12"/>
  <path class="cls-5" d="M1064.98,496.57c8.11,1.17,14.32,3.73,18.3,5.71,5.98,2.99,18.34,9.15,25.05,23.51,2.53,5.4,3.5,10.35,3.94,13.55-1.53-2.44-3.95-5.71-7.54-8.78-4.53-3.86-8.96-5.73-11.83-6.66,2.08,1.63,5.31,4.58,8.07,9.28,3.08,5.27,4.12,10.27,4.52,13.14-1.83-2.48-4.71-5.74-8.89-8.48-2.07-1.36-4.04-2.31-5.76-3,4.98,5.51,5.81,7.01,5.58,7.31-.49.64-5.72-4.09-13.55-8.51-5.56-3.14-10.44-5.01-13.81-6.12"/>
  <path class="cls-5" d="M958.66,558.61c-3.53-2.51-7.97-1.65-10.42,1.77-2.87,4.01-1.81,9.92.74,12.95,3.26,3.87,9.57,3.81,13.64-1.32"/>
  <path class="cls-5" d="M1094.94,567.19c3.56-2.51,8.05-1.65,10.52,1.77,2.9,4.01,1.82,9.92-.75,12.95-3.29,3.87-9.67,3.81-13.78-1.32"/>
  <path class="cls-5" d="M987.2,624.27c-1.89,5.4-4.85,13.77-8.59,24.19-2.19,6.11-2.58,7.14-2.96,8.58-1.76,6.73-2.11,18,7.13,35.95"/>
  <path class="cls-5" d="M1078.26,610.48c2.25,5.2,5.76,13.28,10.19,23.32,2.6,5.89,3.05,6.88,3.52,8.28,2.2,6.55,3.31,17.75-4.7,36.5"/>
  <path class="cls-5" d="M1021.85,806.91c.39,8.1.78,16.19,1.18,24.29-4.26.66-8.51,1.32-12.77,1.97"/>
  <path class="cls-5" d="M1046.73,806.7c-.39,8.1-.78,16.19-1.18,24.29,4.26.66,8.51,1.32,12.77,1.97"/>
  <g>
    <path class="cls-5" d="M729.05,654.14c-3.56-2.27-8.05-1.49-10.52,1.59-2.9,3.62-1.82,8.96.75,11.7,3.29,3.5,9.67,3.44,13.78-1.2"/>
    <g>
      <path class="cls-5" d="M826.41,531.35c6.07-4.09,11.48-6.38,15.27-7.7,7.19-2.5,11.56-3.95,15.12-1.53,4.79,3.26,4.6,11.17,4.57,12.27-.25,10.18-8.84,16.27-9.95,17.03"/>
      <g>
        <path class="cls-5" d="M872.72,619.52c1.17-5.71,5.46-9.29,9.16-8.9,4.76.5,7.63,7.51,6.53,12.73-1.15,5.4-6.71,9.53-13.21,8.86"/>
        <g>
          <path class="cls-5" d="M757.56,555.48c2.86-2.77,7.36-6.59,13.58-9.7,6.12-3.06,12.86-4.93,21.93-5.54,20.83-1.4,40.76-2.73,58.35,11.19,23.34,18.47,25.02,49.94,25.21,55.04"/>
          <path class="cls-5" d="M809.39,529.61c-4.24-2.67-10.32-6.69-17.39-12.01-11.34-8.54-13.78-11.83-18.12-11.21-7.25,1.05-13.2,12.07-13.39,21.98-.2,10.05,5.55,17.03,7.13,18.83"/>
          <path class="cls-5" d="M808.5,540.24c-.25-.48-2.22-4.48-.44-8.47,2.17-4.87,7.83-5.07,8.6-5.08,3.87-.07,7.95,2.2,9.75,6.31,1.66,3.79.62,7.4.34,8.28"/>
          <path class="cls-5" d="M790.66,516.03c-.45-2.3-3.36-18.38,5.81-28.75,12.78-14.45,41.83-9.69,48.37,6.49,4.5,11.11-3.08,24.01-4.5,26.34"/>
          <path class="cls-5" d="M797.74,517.35c-.77-1.88-3.67-9.5-.5-16.99,4.38-10.32,16.58-11.61,20.1-11.98.89-.09,14.36-1.28,24.2,9.09,2.91,3.07,7.7,8.13,7.07,14.75-.65,6.79-6.77,12.88-15.39,15.01"/>
          <path class="cls-5" d="M836.45,521.56c5.96-14.46,2.25-29.51-6.7-35.42-8.55-5.65-19.28-1.24-21.71-.13-3,1.36-12.32,5.59-14.39,15.8-1.79,8.82,2.52,18.6,9.93,22.65,3.9,2.13,7.72,2.16,9.93,1.98"/>
          <path class="cls-5" d="M821.31,527.09c9.15-4.33,13.97-13.42,12.28-20.15-2.54-10.16-19.71-14.21-26.06-7.51-3.91,4.13-3.17,11.76-1.86,16.07,2.03,6.68,6.84,10.09,8.31,11.06"/>
          <g>
            <path class="cls-5" d="M720.91,652.28c-1.44-2.31-16.89-28.08-5.8-57.39,9.57-25.28,31.59-33.93,34.99-35.19"/>
            <path class="cls-5" d="M781.46,578.96c5.94,4.87,14.44,10.79,25.52,15.48,11.78,4.98,21.44,6.44,27.67,7.34,7.68,1.11,18.01,1.86,30.18.67"/>
            <g>
              <path class="cls-5" d="M728.3,653.22c2.42,7.56,9.63,26.81,28.31,41.6,3.93,3.11,27.03,20.79,58.8,16.18,7.6-1.1,40.05-5.82,54.99-36.4,12.6-25.8,3.87-51.84,2.18-56.62"/>
              <path class="cls-5" d="M780.09,707.97c.14,15.34-.19,31.59-1.16,48.67-1.48,25.83-4.23,49.72-7.64,71.45,13.63,4.19,36.72,9.18,64.69,4.81,44.33-6.93,73.15-33,83.95-43.9-6.04-8.91-12.1-18.72-17.97-29.47-16.38-30.04-26.51-58.82-32.93-83.24"/>
              <path class="cls-5" d="M729.22,647.77c8.71-6.42,21.22-17.37,32.12-34.41,7.69-12.03,12.27-23.36,15.01-32.18"/>
              <path class="cls-5" d="M869.59,679.06c0,28.51-1.09,42.87-3.28,43.06-1.74.15-4.18-8.67-7.31-26.48"/>
              <path class="cls-5" d="M780.02,709.6c-.4,3.89-1.2,9.5-2.95,16.08-1.73,6.51-2.64,9.8-4.84,11.39-6.76,4.89-20.57-6.35-21.26-6.93"/>
              <path class="cls-10" d="M858.84,696.63c1.71-.42,2.71-4.74,3.59-8.57.83-3.62,2.17-9.41.28-10.43-1.47-.8-4.39,1.59-5.91,3.7-2.03,2.8-2.13,5.8-2.15,6.8-.09,4.44,2.28,8.97,4.2,8.5Z"/>
              <path class="cls-10" d="M755.23,729.33c-.56,1.91-1.84,3.19-1.84,3.19-1.94,1.94-4.42,2.1-4.78,2.11-2.25.11-4.54-.92-5.57-2.83-.25-.47-1.06-1.97-.41-3.3.62-1.29,2.1-1.4,2.25-2.32.13-.79-.85-1.26-2.04-2.28-2.03-1.74-3.84-4.36-3.32-5.05.54-.72,3.74.54,4.37.79,2.23.88,3.21,1.82,3.6,1.49.4-.34-.41-1.54-1.05-4.05-.51-1.98-.92-3.58-.5-3.85,1.28-.84,11.2,9.65,9.3,16.12Z"/>
              <path class="cls-5" d="M838.4,832.89c1.62,9.18,3.24,18.36,4.87,27.54-3.99,1.54-7.99,3.09-11.98,4.63"/>
              <path class="cls-5" d="M851.51,829.1c-1.04,5.81-2.09,11.62-3.13,17.43,4.63.77,9.26,1.54,13.89,2.32-1.1,2.8-2.21,5.59-3.31,8.39"/>
              <path class="cls-8" d="M813.05,689.69c-.33,2.38-2.23,3.77-3.84,3.47-1.3-.25-2.42-1.61-2.56-2.91-.21-1.94,1.84-3.12,1.38-3.88-.51-.85-3.06.65-4.56-.6-1-.83-1.25-2.62-.69-3.89.57-1.29,1.81-1.72,2.48-1.95,1.59-.55,3.03-.16,3.57.02"/>
              <path class="cls-9" d="M818.82,633.84c1.89,1.13,6.37,3.43,11.13,1.98,4.95-1.51,7.37-6.22,8.27-8.25"/>
              <path class="cls-9" d="M755.07,653.51c1.89,1.13,6.37,3.43,11.13,1.98,4.95-1.51,7.37-6.22,8.27-8.25"/>
              <path class="cls-9" d="M802.45,652.96c1,2.11.86,3.08.52,3.58-.55.8-1.56.21-3.45,1.01-.77.33-2.22.93-2.85,2.46-.45,1.1-.39,2.45.15,3.5,1.07,2.08,3.56,2.18,4.14,2.2,1.94.08,3.35-.92,3.86-1.32"/>
              <g>
                <path class="cls-14" d="M777.19,667.85c.99,1.97-3.01,5.45-8.93,7.79s-11.51,2.63-12.49.66,3.01-5.45,8.93-7.79c5.92-2.33,11.51-2.63,12.49-.66Z"/>
                <path class="cls-1" d="M758.13,677.14c1.85-4.2,3.08-5.02,3.86-5.02,1.23,0,1.49,2.1,2.81,2.1,1.96,0,3.44-4.62,4.96-4.51,1.03.07.92,2.21,2,2.36,1.09.15,2.72-1.83,4.4-4.49"/>
              </g>
              <g>
                <path class="cls-14" d="M851.32,646.37c.99,1.97-3.01,5.45-8.93,7.79-5.92,2.33-11.51,2.63-12.49.66-.99-1.97,3.01-5.45,8.93-7.79s11.51-2.63,12.49-.66Z"/>
                <path class="cls-1" d="M832.26,655.66c1.85-4.2,3.08-5.02,3.86-5.02,1.23,0,1.49,2.1,2.81,2.1,1.96,0,3.44-4.62,4.96-4.51,1.03.07.92,2.21,2,2.36,1.09.15,2.72-1.83,4.4-4.49"/>
              </g>
            </g>
          </g>
        </g>
      </g>
    </g>
  </g>
  <g>
    <path class="cls-8" d="M1014.19,571.96c-7.36,14.24-47.53,13.01-54.47-3.07-2-4.62-1.7-11.53-1.59-14.13.27-6.33,1.78-11.38,3.02-14.65,18.16,1.02,36.31,2.04,54.47,3.07.75,4.07,1.48,10.25.77,17.68-.47,4.87-.8,8.38-2.21,11.09Z"/>
    <path class="cls-8" d="M1015.52,557.87c2.24-.93,6.66-2.39,12.26-1.78,4.5.49,7.91,2.12,9.9,3.28"/>
    <path class="cls-8" d="M1093.27,576.17c-7.36,14.24-47.53,13.01-54.47-3.07-2-4.62-1.7-11.53-1.59-14.13.27-6.33,1.78-11.38,3.02-14.65,18.16,1.02,36.31,2.04,54.47,3.07.75,4.07,1.48,10.25.77,17.68-.47,4.87-.8,8.38-2.21,11.09Z"/>
  </g>
  <path class="cls-6" d="M988.9,568.22c-1.34-.86-2.07-3.9-1.65-6.77.43-2.87,1.86-4.5,3.19-3.64s2.07,3.9,1.65,6.77c-.43,2.87-1.86,4.5-3.19,3.64Z"/>
  <path class="cls-6" d="M1062.17,569.84c-1.34-.86-2.07-3.9-1.65-6.77.43-2.87,1.86-4.5,3.19-3.64s2.07,3.9,1.65,6.77-1.86,4.5-3.19,3.64Z"/>
  <path class="cls-9" d="M1025.27,578.63c.46,2.32.1,3.21-.35,3.6-.73.63-1.56-.22-3.57.05-.82.11-2.37.31-3.34,1.62-.7.95-.97,2.26-.69,3.43.54,2.3,2.92,3.06,3.48,3.25,1.85.6,3.46.01,4.05-.24"/>
  <path class="cls-9" d="M1011.82,618.93c2.49,1.91,5.79,3.73,9.69,4.04,6.02.48,10.89-2.83,13.99-5.65"/>
  <path class="cls-1" d="M978.03,593.72c2.41-3.26,3.47-3.64,4-3.4.83.37.44,2.35,1.33,2.75,1.33.59,3.61-3.17,4.61-2.61.68.37.02,2.28.71,2.74.7.46,2.35-.85,4.22-2.76"/>
  <path class="cls-1" d="M1051.96,596.31c2.41-3.26,3.47-3.64,4-3.4.83.37.44,2.35,1.33,2.75,1.33.59,3.61-3.17,4.61-2.61.68.37.02,2.28.71,2.74.7.46,2.35-.85,4.22-2.76"/>
  <path class="cls-3" d="M902.78,342.3c5.18,22.19,10.73,44.79,16.66,67.77,6.1,23.66,12.36,46.74,18.74,69.24"/>
  <path class="cls-3" d="M968.72,467.53c2.98-10.04,5.61-18.23,7.64-24.31.98-2.95,2.18-6.45,4.16-6.63,2.08-.19,3.99,3.35,6.25,8.1,2.52,5.31,5.77,12.72,9.02,22.1"/>
  <path class="cls-3" d="M1031.19,336.41c-.58,18.73-1.28,37.64-2.08,56.72-1.01,23.86-2.17,47.43-3.47,70.72"/>
  <path class="cls-13" d="M1135.28,860.86c-1.89-1.14-7-4.23-8.19-10.26-1.46-7.41,3.74-15.51,10.6-17.95,6.1-2.18,11.58.82,13.49,2.05,1.14.74,7.77,5.02,8.19,13.34.25,5.03-1.83,10.26-5.78,13.34-7.45,5.8-16.89.34-18.3-.51Z"/>
  <path class="cls-13" d="M1172.77,383.48c-3.72-1.96-9.42-1.57-12.54,2.57-3.33,4.42-1.96,10.77.96,14.38,3.99,4.94,11.74,5.81,15.44,2.05,4.52-4.59,2.54-15.64-3.86-19.01Z"/>
  <path class="cls-3" d="M947.48,540.52c.79,4.91,1.58,9.83,2.37,14.74"/>
  <path class="cls-2" d="M1139.39,814.83c-1.29-4.26,1.25-9.23,5.22-11.12,3.75-1.79,8.87-.86,11.18,3.18,2.52,4.38.51,10.28-3.36,12.7-4.65,2.92-11.47.44-13.05-4.76Z"/>
  <path class="cls-4" d="M641.88,307.18c.23-.07,3.33-.9,5.91,1.04,2.57,1.93,3.77,5.95,1.77,8.88-1.74,2.55-5.18,3.21-7.83,2.29-2.86-1-5.11-3.95-4.61-7.1.4-2.57,2.51-4.46,4.77-5.1Z"/>
  <path class="cls-4" d="M656.98,302.93c-1.2-4.33,1.06-9.67,5.63-11.46,5.59-2.19,11.48,2.19,13.32,6.73.22.53,1.87,4.81-.53,8.28-2.83,4.09-9.54,4.52-13.85,2.07-.82-.47-3.62-2.21-4.56-5.62Z"/>
  <path class="cls-2" d="M1159.42,820.62c1.97-1.04,4.59-.3,5.9,1.79,1.22,1.97.99,4.67-.56,6.28-1.91,1.98-5.23,1.72-6.88-.45-1.82-2.39-.98-6.3,1.54-7.62Z"/>
  <path class="cls-7" d="M1149.76,378.58c4.74-8.08,13.89-11.39,21.49-10.51,13.4,1.54,24.71,16.42,22.07,29.07-3.01,14.45-23.69,23.44-36.49,14.42-9.34-6.58-13.48-22.05-7.08-32.98Z"/>
  <path class="cls-12" d="M26.82,865.7c1.05,4.6,5.88,7.29,9.7,5.24,3.89-2.08,5.21-8.26,2.84-12.14-1.83-2.99-5.52-4.05-8.52-2.48-3.09,1.62-4.86,5.7-4.02,9.38Z"/>
  <g>
    <path class="cls-7" d="M630.43,827.26c.51-7.22,5.82-14.42,13.31-16.25,8.67-2.12,17.5,3.59,20.46,12.1,3.61,10.4-2.5,22.27-11.04,24.9-10.75,3.3-23.58-8.57-22.73-20.75Z"/>
    <path class="cls-13" d="M640.45,825.03c.63-3.67,6.38-5.82,9.52-3.36.12.09,2.06,1.67,2.11,4.21.07,3.28-3.05,6.67-6.34,6.31-3.28-.36-5.77-4.34-5.29-7.15Z"/>
  </g>
  <g>
    <path class="cls-12" d="M1050.67,230.59c1.21-3.04,4.23-5.25,7.58-4.86,2.96.34,5.56,2.65,6.27,5.79.89,3.95-1.74,6.91-1.89,7.08-2.65,2.9-7.7,3.55-10.59.51-2.12-2.22-2.47-5.76-1.37-8.51Z"/>
    <path class="cls-3" d="M1067.49,221.44c.25-1.56,2.94-2.55,4.45-1.56.06.04.99.67,1.05,1.74.07,1.38-1.36,2.85-2.92,2.75-1.55-.1-2.77-1.74-2.58-2.93Z"/>
  </g>
  <path class="cls-2" d="M43.58,852.75c.1.04,1.45.6,2.57-.69,1.12-1.28,1.64-3.96.77-5.91-.76-1.7-2.25-2.14-3.41-1.52-1.24.67-2.22,2.63-2.01,4.73.18,1.71,1.09,2.97,2.08,3.4Z"/>
  <path class="cls-2" d="M50.15,855.59c-.52,2.88.46,6.44,2.45,7.63,2.43,1.46,4.99-1.46,5.79-4.48.09-.36.81-3.2-.23-5.52-1.23-2.72-4.15-3.01-6.02-1.38-.36.31-1.57,1.47-1.98,3.74Z"/>
  <path class="cls-13" d="M1200.69,646.26c-2.18-1.13-8.81-4.17-15.95-1.65-10.45,3.68-15.34,16.91-14.18,27.37.23,2.08,1.3,11.67,9.31,17.23,9.78,6.78,20.86,1.27,21.49.94-.22-14.63-.44-29.26-.66-43.89Z"/>
  <path class="cls-7" d="M1203.98,681.44c-2.11-.65-5.32-1.35-9.17-1.02-7,.6-16.93,4.68-20.26,14.04-1.8,5.06-.98,9.7-.57,11.81.35,1.83,1.74,9.12,7.07,13.03,5.99,4.39,15.35,3.35,22.94-2.85v-35.01Z"/>
  <path class="cls-12" d="M1186.62,623.94c-1.14-4.59-6.42-7.27-10.6-5.23-4.25,2.08-5.69,8.24-3.1,12.11,2,2.99,6.02,4.04,9.3,2.48,3.37-1.61,5.31-5.69,4.39-9.36Z"/>
  <path class="cls-13" d="M864.9,106.01c-1.89,1.14-7,4.23-8.19,10.26-1.46,7.41,3.74,15.51,10.6,17.95,6.1,2.18,11.58-.82,13.49-2.05,1.14-.74,7.77-5.02,8.19-13.34.25-5.03-1.83-10.26-5.78-13.34-7.45-5.8-16.89-.34-18.3.51Z"/>
  <path class="cls-2" d="M869.01,152.05c-1.29,4.26,1.25,9.23,5.22,11.12,3.75,1.79,8.87.86,11.18-3.18,2.52-4.38.51-10.28-3.36-12.7-4.65-2.92-11.47-.44-13.05,4.76Z"/>
  <path class="cls-2" d="M889.04,146.26c1.97,1.04,4.59.3,5.9-1.79,1.22-1.97.99-4.67-.56-6.28-1.91-1.98-5.23-1.72-6.88.45-1.82,2.39-.98,6.3,1.54,7.62Z"/>
  <path class="cls-13" d="M15.16,376.25c2.18-1.13,8.81-4.17,15.95-1.65,10.45,3.68,15.34,16.91,14.18,27.37-.23,2.08-1.3,11.67-9.31,17.23-9.78,6.78-20.86,1.27-21.49.94.22-14.63.44-29.26.66-43.89Z"/>
  <path class="cls-7" d="M11.87,411.43c2.11-.65,5.32-1.35,9.17-1.02,7,.6,16.93,4.68,20.26,14.04,1.8,5.06.98,9.7.57,11.81-.35,1.83-1.74,9.12-7.07,13.03-5.99,4.39-15.35,3.35-22.94-2.85v-35.01Z"/>
  <path class="cls-12" d="M29.23,353.93c1.14-4.59,6.42-7.27,10.6-5.23,4.25,2.08,5.69,8.24,3.1,12.11-2,2.99-6.02,4.04-9.3,2.48-3.37-1.61-5.31-5.69-4.39-9.36Z"/>
  <path class="cls-13" d="M368.28,855.71c1.89-1.14,7-4.23,8.19-10.26,1.46-7.41-3.74-15.51-10.6-17.95-6.1-2.18-11.58.82-13.49,2.05-1.14.74-7.77,5.02-8.19,13.34-.25,5.03,1.83,10.26,5.78,13.34,7.45,5.8,16.89.34,18.3-.51Z"/>
  <path class="cls-2" d="M364.17,809.67c1.29-4.26-1.25-9.23-5.22-11.12-3.75-1.79-8.87-.86-11.18,3.18-2.52,4.38-.51,10.28,3.36,12.7,4.65,2.92,11.47.44,13.05-4.76Z"/>
  <path class="cls-2" d="M344.14,815.46c-1.97-1.04-4.59-.3-5.9,1.79-1.22,1.97-.99,4.67.56,6.28,1.91,1.98,5.23,1.72,6.88-.45,1.82-2.39.98-6.3-1.54-7.62Z"/>
  <path class="cls-12" d="M241.86,99.96c1.21-3.04,4.23-5.25,7.58-4.86,2.96.34,5.56,2.65,6.27,5.79.89,3.95-1.74,6.91-1.89,7.08-2.65,2.9-7.7,3.55-10.59.51-2.12-2.22-2.47-5.76-1.37-8.51Z"/>
  <path class="cls-3" d="M258.68,90.81c.25-1.56,2.94-2.55,4.45-1.56.06.04.99.67,1.05,1.74.07,1.38-1.36,2.85-2.92,2.75-1.55-.1-2.77-1.74-2.58-2.93Z"/>
  <path class="cls-13" d="M1178.12,36.66c-8.99-4.5-22.75-3.61-30.28,5.89-8.04,10.14-4.72,24.7,2.33,32.98,9.64,11.32,28.34,13.31,37.27,4.71,10.92-10.52,6.14-35.85-9.32-43.58Z"/>
  <path class="cls-7" d="M1122.57,25.42c11.43-18.52,33.54-26.11,51.88-24.11,32.36,3.53,59.65,37.65,53.29,66.65-7.27,33.12-57.19,53.74-88.09,33.07-22.55-15.09-32.55-50.55-17.08-75.61Z"/>
  <path class="cls-13" d="M8.14,43.22c-2.32,7.81-8.54,31.5-2.71,56.86,8.53,37.1,37.38,54.08,59.95,49.6,4.49-.89,25.16-4.99,36.75-33.7,14.14-35.04,1.63-74.31.89-76.57-31.62,1.27-63.24,2.53-94.86,3.8Z"/>
  <path class="cls-7" d="M84.03,30.37c-1.3,7.54-2.63,18.99-1.71,32.7,1.68,24.91,11.02,60.12,31.46,71.69,11.04,6.25,21.02,3.16,25.56,1.66,3.93-1.3,19.62-6.49,27.79-25.61,9.17-21.46,6.42-54.77-7.39-81.58-25.23.38-50.47.76-75.7,1.14Z"/>
  <path class="cls-3" d="M26.65,586.41c.78-3.97,7.92-6.3,11.81-3.64.15.1,2.56,1.81,2.62,4.55.08,3.55-3.79,7.22-7.87,6.83-4.07-.39-7.16-4.7-6.56-7.74Z"/>
  <path class="cls-12" d="M36.77,569.26c.46-2.25,2.58-3.57,4.25-2.57,1.71,1.02,2.29,4.05,1.24,5.95-.8,1.47-2.42,1.99-3.73,1.22-1.35-.79-2.13-2.79-1.76-4.6Z"/>
  <path class="cls-3" d="M543.56,96.06c-5.19-19.76,4.62-44.14,24.44-52.31,24.28-10.01,49.86,9.98,57.84,30.72.94,2.44,8.11,21.97-2.31,37.81-12.3,18.68-41.45,20.63-60.16,9.45-3.57-2.14-15.72-10.1-19.81-25.66Z"/>
  <path class="cls-12" d="M551.04,91.58c3.04-9.79,17.11-15.51,28.23-11.16,11.33,4.43,15.17,17.58,8.26,25.84-5.33,6.37-16.05,8.63-24.78,5.29-8.98-3.44-14.14-12.14-11.7-19.97Z"/>
  <path class="cls-7" d="M111.57,161.63c-.23,9.83-.54,25.69-.64,45.39-.11,24.28.2,34.36,0,55.11-.11,11.53-.4,28.85-1.27,50.25"/>
  <path class="cls-7" d="M117.12,162.34c-.23,12.56-.54,32.85-.64,58.02-.11,31.04.2,43.92,0,70.46-.11,14.74-.4,36.88-1.27,64.24"/>
  <path class="cls-7" d="M395.55,557.26c14.04-.11,36.73-.21,64.87-.06,34.7.2,49.1.64,78.76.71,16.48.04,41.23-.03,71.82-.63"/>
  <path class="cls-7" d="M429.05,564.56c14.04-.11,36.73-.21,64.87-.06,34.7.2,49.1.64,78.76.71,16.48.04,41.23-.03,71.82-.63"/>
  <path class="cls-7" d="M93.27,180.73c14.67.17,38.36.38,67.75.36,36.24-.04,51.29-.41,82.27-.34,17.21.04,43.07.22,75.02.96"/>
  <path class="cls-7" d="M94.3,175.17c18.75.15,49.04.34,86.62.28,46.33-.08,65.57-.47,105.18-.44,22,.02,55.06.17,95.9.88"/>
  <path class="cls-13" d="M562.52,621.13c-1.89,1.14-7,4.23-8.19,10.26-1.46,7.41,3.74,15.51,10.6,17.95,6.1,2.18,11.58-.82,13.49-2.05,1.14-.74,7.77-5.02,8.19-13.34.25-5.03-1.83-10.26-5.78-13.34-7.45-5.8-16.89-.34-18.3.51Z"/>
  <path class="cls-7" d="M502.13,632.9c9.03-14.33,26.5-20.2,40.99-18.65,25.57,2.73,47.13,29.13,42.1,51.55-5.74,25.62-45.18,41.57-69.59,25.58-17.82-11.67-25.72-39.1-13.5-58.49Z"/>
  <path class="cls-7" d="M618.25,585.81c-.29-12.13-.68-31.71-.8-56.01-.14-29.96.25-42.4,0-68.01-.14-14.23-.5-35.6-1.59-62.01"/>
  <path class="cls-7" d="M625.2,584.93c-.29-15.5-.68-40.54-.8-71.61-.14-38.3.25-54.21,0-86.95-.14-18.19-.5-45.51-1.59-79.28"/>
  <g>
    <path class="cls-5" d="M87.25,662.94c1.34,6.88,4.33,16.43,11.66,24.63,17.17,19.22,45.32,16.68,66.86,14.74,24.8-2.23,47.29-4.26,59.07-22.73,10.31-16.16,6.54-35.66,4.82-42.74"/>
    <path class="cls-5" d="M110.98,697.16c-1.25,17.28-3.33,35.91-6.56,55.66-4.63,28.31-10.82,53.83-17.46,76.26,11.09,4.23,26.92,9.04,46.37,11,22.88,2.3,40.38-.4,51.79-2.23,13.42-2.16,31.29-6.28,51.43-14.62-4.8-16.55-9.28-35.02-12.85-55.24-5.1-28.87-7.28-55.3-7.88-78.34"/>
    <path class="cls-5" d="M84.05,588.83c6.72-3.23,16.6-8.41,27.8-16,23.73-16.07,26.58-24.81,43.14-35.3,11.26-7.14,38.78-24.57,61.89-12.89,17.08,8.63,29.88,32.21,27.03,49.72-.92,5.67-3.67,11.87-3.31,23.07.12,3.76.61,8.75,3.17,18.28,4.83,17.99,8.41,20.05,12.46,34.08,2.65,9.2,5.67,20.87,2.31,34.39-2.44,9.81-7.38,16.86-10.92,21.06-1.69-1.01-4.52-2.38-8.2-2.76-3.9-.4-6.98.49-9.53,1.23-2.41.7-4.36,1.56-5.74,2.25"/>
    <path class="cls-5" d="M76.64,590.45c-2.54,2.07-5.89,5.19-9.15,9.54-8.66,11.56-10.5,23.58-11.15,28.25-.54,3.81-2.6,20.91,5.22,38.66,4.62,10.49,9.16,13.19,8.83,21.44-.31,7.8-4.61,11.25-3.58,18.53.87,6.1,4.87,10.62,8.29,13.57,2.03-2.22,4.03-3.1,5.18-3.48,2.48-.82,4.61-.53,8.27,0,2.53.37,4.58.89,5.94,1.3"/>
    <path class="cls-10" d="M128.01,753.13c1.4.4,4.47-2.05,7.19-4.22,2.57-2.05,6.69-5.33,5.97-6.75-.56-1.11-3.87-.68-6.08.1-2.93,1.04-4.66,2.97-5.23,3.62-2.52,2.89-3.41,6.79-1.85,7.24Z"/>
    <path class="cls-5" d="M110.72,697.35c-3.04,6.45-6.86,16.36-8.51,28.98-1.34,10.19-2.12,16.18.07,19.88,9.08,15.34,70.18-7.07,87.05-13.48"/>
    <path class="cls-5" d="M215.81,689.65c1.7,5.25,4.87,15.03,9.12,27.84,2.83,8.54,3.01,9.7,2.77,11.01-1.24,6.92-16.23,14.94-87.71,14.42"/>
    <path class="cls-5" d="M105.18,586.91c3.91-.87,9.77-2.46,16.44-5.47,20.24-9.14,23.17-20.19,42.5-33.58,11.32-7.84,27.19-18.84,43.73-14.23,2.1.58,14.55,4.05,19.71,16.45,5.58,13.4-1.96,26.19-2.77,27.52"/>
    <path class="cls-5" d="M129.62,589.29c3.07-.71,7.57-1.99,12.63-4.43,10.63-5.11,13.88-10.55,25.25-20.56,13.13-11.55,20.79-18.1,31.41-18.34,2.37-.05,11.54-.26,16.03,6.13,4.54,6.45,1.49,15.64.79,17.76-1.46,4.41-3.8,7.47-5.34,9.2"/>
    <path class="cls-5" d="M176.16,838.34c-.42,8.86-.84,17.71-1.25,26.57,4.53.72,9.07,1.44,13.6,2.16"/>
    <path class="cls-5" d="M148.7,840.96c-.42,8.86-.84,17.71-1.25,26.57,4.53.72,9.07,1.44,13.6,2.16"/>
    <path class="cls-10" d="M187.46,733.87c.9,1.17,4.79,1.03,8.23.91,3.25-.11,8.46-.29,8.69-1.87.18-1.23-2.74-2.88-4.98-3.58-2.97-.92-5.47-.4-6.3-.21-3.69.82-6.64,3.45-5.63,4.75Z"/>
    <g>
      <path class="cls-8" d="M171.7,642.35c8.99,17.9,52.44,14.45,58.82-6.47,1.84-6.02,1.02-14.85.71-18.17-.75-8.09-2.74-14.5-4.32-18.63-19.61,2.16-39.21,4.31-58.82,6.47-.52,5.25-.88,13.2.43,22.7.85,6.21,1.47,10.7,3.18,14.11Z"/>
      <path class="cls-8" d="M168.4,623.3c-2.3-.7-6.91-1.76-12.56-.64-5.02.99-8.6,3.26-10.5,4.66"/>
      <path class="cls-8" d="M86.29,651.44c8.99,17.9,52.44,14.45,58.82-6.47,1.84-6.02,1.02-14.85.71-18.17-.75-8.09-2.74-14.5-4.32-18.63-19.61,2.16-39.21,4.31-58.82,6.47-.52,5.25-.88,13.2.43,22.7.85,6.21,1.47,10.7,3.18,14.11Z"/>
    </g>
    <path class="cls-5" d="M84.7,647.43c-.57-.17-4.12-1.16-7.33,1-3.34,2.24-4.55,6.71-3.46,10.13,1.45,4.55,7.05,7.49,12.68,5.63"/>
    <path class="cls-9" d="M161.09,648.22c-.49,2.53-.11,3.51.38,3.94.77.69,1.67-.24,3.81.05.88.12,2.52.34,3.56,1.77.75,1.03,1.03,2.47.74,3.75-.58,2.51-3.11,3.35-3.71,3.55-1.98.65-3.69.01-4.32-.26"/>
    <g>
      <path class="cls-6" d="M114.2,640.7c-1.65-.08-3.1-2.84-2.42-4.9.36-1.08,1.41-2.3,2.69-2.25,1.54.06,2.64,1.95,2.63,3.54,0,1.85-1.5,3.67-2.89,3.6Z"/>
      <path class="cls-6" d="M106.81,634.27c1.54-.47,3.21-.91,5-1.28,2.89-.61,5.56-.94,7.96-1.11"/>
    </g>
    <g>
      <path class="cls-6" d="M200.45,629.99c1.61-.39,2.55-3.37,1.51-5.27-.54-1-1.8-1.99-3.04-1.7-1.51.35-2.25,2.41-1.96,3.98.34,1.81,2.13,3.33,3.49,3Z"/>
      <path class="cls-6" d="M206.56,622.27c-1.6-.17-3.32-.29-5.15-.32-2.94-.05-5.64.12-8.02.41"/>
    </g>
    <g>
      <path class="cls-11" d="M153.71,686.41c2.74.85,5.11,1.19,6.86,1.33,1.59.13,3.44.26,5.82-.13,2.24-.37,4.04-1.04,5.29-1.61"/>
      <path class="cls-11" d="M171.73,685.88c.18.2,1.26,1.38,1.03,2.88-.22,1.48-1.56,2.24-2.18,2.6-1.88,1.08-3.77.82-6.09.47-1.62-.24-4.87-.77-8.24-3.21-1.37-1-2.37-2.03-3.04-2.8,2.5-.04,4.62-.45,6.39-1,1.39-.43,2.8-1,3.89-1.45,3.55-1.47,4.52-2.25,6.14-1.92.38.08,2.02.42,2.52,1.79.45,1.22-.3,2.44-.43,2.64Z"/>
    </g>
  </g>
  <path class="cls-1" d="M109.31,672.62c2-3.53,3.01-4.03,3.56-3.86.87.27.72,2.28,1.66,2.56,1.39.42,3.19-3.58,4.26-3.15.72.29.29,2.26,1.04,2.63.75.37,2.23-1.13,3.86-3.25"/>
  <path class="cls-1" d="M197.04,662.05c2-3.53,3.01-4.03,3.56-3.86.87.27.72,2.28,1.66,2.56,1.39.42,3.19-3.58,4.26-3.15.72.29.29,2.26,1.04,2.63.75.37,2.23-1.13,3.86-3.25"/>
</svg>