<?xml version="1.0" encoding="UTF-8"?>
<svg id="Layer_1" data-name="Layer 1" xmlns="http://www.w3.org/2000/svg" viewBox="0 0 1179.18 822.31">
  <defs>
    <style>
      .cls-1 {
        fill: #5a749e;
      }

      .cls-1, .cls-2, .cls-3, .cls-4, .cls-5, .cls-6, .cls-7, .cls-8, .cls-9, .cls-10, .cls-11, .cls-12, .cls-13, .cls-14, .cls-15, .cls-16 {
        stroke-miterlimit: 10;
      }

      .cls-1, .cls-4, .cls-5, .cls-6, .cls-9, .cls-15 {
        stroke-width: 3px;
      }

      .cls-1, .cls-4, .cls-6, .cls-9, .cls-11 {
        stroke: #1e3555;
      }

      .cls-2 {
        stroke: #5a5b5d;
      }

      .cls-2, .cls-6, .cls-7, .cls-10, .cls-11, .cls-12, .cls-14, .cls-15, .cls-16 {
        fill: none;
      }

      .cls-2, .cls-7, .cls-8, .cls-10, .cls-11, .cls-12, .cls-13 {
        stroke-width: 2px;
      }

      .cls-3 {
        fill: #2d486e;
      }

      .cls-3, .cls-8, .cls-10 {
        stroke: #1f3555;
      }

      .cls-4 {
        fill: #263f62;
      }

      .cls-5 {
        fill: #203555;
      }

      .cls-5, .cls-7, .cls-13, .cls-14, .cls-15 {
        stroke: #203555;
      }

      .cls-8 {
        fill: #1f3555;
      }

      .cls-9 {
        fill: #263e61;
      }

      .cls-12, .cls-16 {
        stroke: #fff6eb;
      }

      .cls-13 {
        fill: #fff6eb;
      }

      .cls-14 {
        stroke-width: 6px;
      }
    </style>
  </defs>
  <path class="cls-6" d="M206.22,472.17c2.82,10.89,6.38,26.16,9.41,44.64,4.11,25.13,8.68,48.76,5.37,77.91-3.41,30.08-4.27,47.33-17.91,61.79-20.62,21.86-52.79,20.45-64.05,19.95-31.89-1.4-53.79-17.59-61.27-23.72-17.99-14.75-25.07-30.83-38.05-60.28-5.72-12.99-16.12-39.52-20.26-74.61-.85-7.23-1.27-13.35-1.48-17.79"/>
  <path class="cls-6" d="M28.05,559.94c-1.48-.62-5.39-2.03-9.9-.78-6.31,1.75-10.15,7.69-10.99,13.19-1.29,8.45,4.76,14.41,5.49,15.11,5.96,5.68,15.74,6.73,24.45,2.47"/>
  <path class="cls-6" d="M86.87,659.22c-1.92,8.59-4.74,22.44-6.96,39.74-2.7,20.99-2.65,32.42-4.54,55.82-.98,12.11-2.71,30.25-5.9,52.64"/>
  <path class="cls-6" d="M208.35,650.81c5.49,18.22,9.95,35.4,13.6,51.33,6.17,26.93,7.53,39.28,13.61,65.8,4.25,18.52,8.89,35.65,13.61,51.28"/>
  <path class="cls-6" d="M318.64,540.84c-1.27-10.33-2.54-19.42-3.66-27-2.18-14.69-3.76-23.17-8.39-24.41-.83-.22-1.08-.03-5.49.76-4.05.73-8.14,1.21-12.2,1.83-8.04,1.23-13.22,2.03-19.68,2.44-8.06.51-12.09.77-16.32.61-4.76-.18-9.38-.68-12.66,2.29-1.31,1.18-1.96,2.52-2.44,3.51-2.32,4.75-1.56,9.59-1.37,10.83,2.59,17.36,2.09,35.08,4.6,52.45,3.2,22.15,6.05,55.06,8.66,69.68.27,1.49,1.21,6.59,3.44,13.01,1.49,4.28,2.24,6.42,3.14,7.5,1.78,2.12,5.79,4.74,33.29.45,8.71-1.36,2.77-.76,21.58-4.36,11.45-2.19,17.08-3.07,19.04-7.34.89-1.94.81-4.11.66-8.17-.15-3.97-.84-7.21-1.45-9.41"/>
  <path class="cls-6" d="M214.81,509.33c4.54-1.71,9.32-3.68,14.26-5.95,3.79-1.74,7.38-3.52,10.75-5.3"/>
  <path class="cls-6" d="M256.61,655.28c-7.22.25-15.42.12-24.38-.72-8.87-.83-16.88-2.2-23.87-3.75"/>
  <path class="cls-6" d="M86.23,660.07c-5.54,4.4-13.28,11.42-20.6,21.69-2.35,3.29-4.33,6.07-5.64,9.14-6.81,15.94,6.01,35.98,10.87,42.91"/>
  <path class="cls-6" d="M29.2,584.34c1.96,3.52,4.41,8.87,5.37,15.69.96,6.81-.44,8.83-1.07,20.63-.64,11.85-.9,17.91,1.93,24.93,1.36,3.38,3.66,9.07,9.67,12.9.54.34,8.86,5.47,17.59,2.93,3.56-1.03,4.26-2.49,8.85-3.79,4.38-1.24,8.24-1.2,10.79-.97"/>
  <path class="cls-6" d="M208.33,652.05c4.9,4.1,12.77,9.79,23.6,14.02,23.46,9.18,44.17,5.08,50.55,3.58,19.93-4.69,33-15.39,38.85-20.86"/>
  <path class="cls-6" d="M48.41,440.47c4.16-5.34,10.5-12.44,19.52-19.24,15.67-11.81,30.59-16.04,38.2-18.12,9.72-2.66,22.42-6.13,38.76-4.18,15.32,1.83,26.01,7.2,43.5,16.17,12.17,6.24,21.75,12.41,28.34,16.96-4.77-.8-10.49-1.35-16.94-1.12-12.56.45-22.72,3.65-29.55,6.49"/>
  <path class="cls-6" d="M140.41,466.96c11.33-1.43,20.86-1.45,27.88-1.12,11.76.56,20.87,2.3,29.28,3.9,8.03,1.54,14.7,3.17,19.52,4.46-2.56-3.63-6.39-7.99-11.99-11.43-13.29-8.17-27.61-5.67-27.6-6.13.01-.49,15.82-3.46,32.9,3.62,5.66,2.35,10.04,5.21,13.1,7.53-.48-4.94-2.03-11.7-6.69-17.84-9.44-12.43-27.79-17.25-46.6-12.51"/>
  <path class="cls-6" d="M34.63,445.05c-1.37-.51-13.64-4.89-23.42,2.13-8.56,6.14-10.68,17.75-9.34,18.58.7.43,2.31-2.07,7.18-4.29,1.52-.69,5.32-2.42,6.06-1.51,1.61,1.98-12.66,14.75-11.19,16.63,1.49,1.89,17.68-8.95,18.66-7.56.48.68-3.26,3.46-7.48,9.12-3.77,5.06-8.19,12.8-6.76,14.08,1.85,1.66,13.13-7.75,14.65-9.01,6.06-5.06,6.74-6.93,10.42-8.73,5.65-2.77,11.71-2.12,16.11-1.05"/>
  <path class="cls-6" d="M318.64,540.84c-2.72-2.49-9.14-7.67-18.5-8.78-17.13-2.02-29,11.37-30.7,13.33-10.02,11.56-9.43,25.71-8.89,38.78.9,21.59,10.02,35.56,11.92,38.38,4,5.93,8.27,12.08,16.56,15.75,3.43,1.52,14.15,5.55,25.65.4,9.68-4.33,13.97-12.49,15.15-14.95"/>
  <path class="cls-6" d="M326.25,549.39c-1.46-2.1-5.54-7.35-12.7-9.44-9.01-2.63-16.73,1.57-19.53,3.09-15.67,8.52-18.99,28.06-20.14,34.86-.88,5.2-2.43,14.97,1.62,26.26,1.58,4.41,4.33,12.09,11.92,17.98,13.05,10.13,29.22,6.29,31.71,5.66,4.86-1.24,8.56-3.22,10.88-4.67"/>
  <path class="cls-1" d="M315.84,548.91c-16.73,1.42-24.9,18.37-26.04,20.83-7.34,15.86-.55,30.71.49,32.88,1.91,4,6.61,12.05,16.11,17.09,2.91,1.54,14.32,7.59,25.23,2.77,4.25-1.88,6.74-4.66,8.79-7,11.15-12.72,9.95-29.55,9.77-31.74-.41-4.75-1.58-18.35-12.86-27.51-1.96-1.59-10.2-8.28-21.49-7.32Z"/>
  <path class="cls-4" d="M286.98,457.31c.4-5.12,4.6-8.42,8.79-11.73,9.08-7.15,18.87-8.51,26.87-9.53,8.5-1.08,12.83-1.56,16.61.98,5.94,4,7.66,12.63,6.35,19.05-2.11,10.39-12.18,15.21-16.12,17.1-9.69,4.64-23.49,5.74-33.47-1.47-1.73-1.25-9.63-6.95-9.04-14.41Z"/>
  <path class="cls-9" d="M285.43,457.83c-10.64,3.61-21.97,8.07-33.74,13.61-4.73,2.23-9.26,4.5-13.61,6.8.42,1.36.84,2.75,1.25,4.17.39,1.36.76,2.71,1.11,4.03,4.01-1.64,8.09-3.26,12.22-4.86,13.06-5.06,25.85-9.57,38.32-13.61-1.03-.74-2.99-2.36-4.3-5.14-.95-2.01-1.19-3.84-1.25-5Z"/>
  <path class="cls-9" d="M261.81,494.21l-3.21-13.92c3.51-1.6,7.01-3.19,10.52-4.79-.15,1.91-.17,4.17.13,6.68.55,4.77,2,8.58,3.28,11.21-3.57.27-7.14.55-10.71.82Z"/>
  <path class="cls-11" d="M143.45,603.87c.8,1.9,1.56,4,2.19,6.31.18.66.34,1.31.49,1.94"/>
  <path class="cls-11" d="M149.03,603.02c.62,1.52,1.27,3.06,1.94,4.61.64,1.49,1.29,2.94,1.94,4.37"/>
  <path class="cls-11" d="M135.15,540.32c.02,4.71.31,8.68.62,11.69.64,6.25,1.31,7.98,2.61,9.38,1.38,1.49,3.16,2.27,5.69,3.38,3.48,1.53,4.33,1.12,6.15,2.46.58.43,3.31,2.44,3.69,5.69.43,3.71-2.4,7.36-5.84,8.76-4.39,1.79-8.45-.63-8.92-.92"/>
  <path class="cls-11" d="M137.94,637.31c.11-.83.76-4.91,4.37-7.48.64-.45,2.43-1.69,4.94-1.83.77-.04,2.14-.01,7.97,2.75,3.69,1.75,4.4,2.34,6.42,2.68,1.58.27,3.4.58,5.08-.35,3.04-1.68,3.17-6.05,3.17-6.49"/>
  <path class="cls-6" d="M37.41,533.98c8.93-.76,18.7-2,29.13-3.97,8.57-1.62,16.53-3.53,23.83-5.56"/>
  <path class="cls-9" d="M39.93,510.94c3.81-.56,7.46-1.9,11.23-2.66,7.39-1.47,11.08-2.21,14.08-2.96,6.44-1.61,11-3.28,18.83-4.32,2.77-.37,6.32-.71,7.72,1.23.6.84.76,2.04.43,3.01-.73,2.12-3.72,2.85-5.06,3.16-14.67,3.4-22,5.1-26.85,6.17-20.95,4.62-20.99,4.63-20.99,4.63-1.52.41-7,1.91-8.49-.15-.41-.57-.57-1.48-.49-2.26.06-.54.31-1.66,1.85-2.97,2.58-2.2,6.09-2.64,7.74-2.88Z"/>
  <path class="cls-9" d="M150.8,489.27c3.82-.43,7.52-1.65,11.31-2.28,7.43-1.23,11.15-1.84,14.17-2.49,6.49-1.4,11.1-2.91,18.96-3.69,2.78-.28,6.34-.5,7.67,1.49.57.86.69,2.06.33,3.02-.8,2.09-3.82,2.73-5.16,2.99-14.77,2.91-22.16,4.37-27.04,5.28-21.09,3.92-21.13,3.93-21.13,3.93-1.54.36-7.06,1.68-8.48-.44-.39-.58-.52-1.5-.41-2.28.08-.54.37-1.65,1.95-2.91,2.65-2.11,6.17-2.44,7.83-2.62Z"/>
  <path class="cls-6" d="M151.11,513.34c8.93-.76,18.7-2,29.13-3.97,8.57-1.62,16.53-3.53,23.83-5.56"/>
  <path class="cls-8" d="M70.17,536.68c-1.39-.75-2.28-2.81-1.99-4.59s1.65-2.61,3.04-1.86,2.28,2.81,1.99,4.59c-.29,1.78-1.65,2.61-3.04,1.86Z"/>
  <path class="cls-8" d="M181.91,516.01c-1.39-.75-2.28-2.81-1.99-4.59s1.65-2.61,3.04-1.86,2.28,2.81,1.99,4.59c-.29,1.78-1.65,2.61-3.04,1.86Z"/>
  <path class="cls-13" d="M70.54,734.23c.11-2.2,4.01-3.87,8.64-5.85,4.01-1.71,6.86-2.94,8.58-1.94,1.98,1.15,1.32,4.59.11,6.72-1.63,2.85-5.35,5.25-9.4,5.34-3.9.09-8.06-1.95-7.94-4.28Z"/>
  <path class="cls-8" d="M25.52,586.08c-2.45-1.18-4.23-4.02-3.96-6.36.27-2.33,2.47-3.27,4.93-2.09s4.23,4.02,3.96,6.36c-.27,2.33-2.47,3.27-4.93,2.09Z"/>
  <path class="cls-11" d="M322.8,580.56c-1.25,2.38-2.5,4.81-3.76,7.28-1.2,2.36-2.36,4.68-3.48,6.97"/>
  <path class="cls-11" d="M330.1,579.04c-2.19,3.67-4.4,7.41-6.62,11.2-2.12,3.62-4.18,7.18-6.19,10.68"/>
  <path class="cls-2" d="M305.72,442.35c-2.49,2.54-5.22,5.69-7.91,9.49-3.05,4.32-5.3,8.43-6.96,11.98"/>
  <path class="cls-2" d="M322.49,438.28c-5.23,5.35-10.67,11.39-16.12,18.17-3.74,4.65-7.13,9.2-10.19,13.6"/>
  <path class="cls-2" d="M305.13,473.26c2.48-4.78,5.59-10.03,9.49-15.47,6.19-8.63,12.66-15.35,18.32-20.43"/>
  <path class="cls-2" d="M339.51,440.49c-3.35,4.07-6.73,8.35-10.11,12.84-5.49,7.29-10.47,14.44-14.97,21.34"/>
  <path class="cls-2" d="M343.66,449.9c-2.64,2.23-5.46,4.91-8.29,8.09-4.92,5.52-8.43,10.97-10.92,15.57"/>
  <path class="cls-2" d="M290.57,453.94c7.82,3.03,15.97,6.48,24.37,10.42,4.76,2.23,9.35,4.5,13.75,6.78"/>
  <path class="cls-2" d="M300.88,444.54c4.21.39,9.5,1.34,15.27,3.54,11.77,4.48,19.38,11.79,23.36,16.28"/>
  <path class="cls-15" d="M877.03,716.6c-5.39,3.7-13.49,9.8-22.02,18.69-9,9.37-25.73,27.2-32.03,54.72-2.62,11.46-2.67,21.23-2.31,27.58"/>
  <path class="cls-15" d="M1098.7,812.48c14.54-32.98,29.08-65.96,43.62-98.94-26.08-6.75-59.51-12.46-98.37-11.94-17.55.23-33.7,1.71-48.23,3.82-4.3,36.93-8.6,73.86-12.89,110.79,38.63-1.24,77.25-2.49,115.88-3.73Z"/>
  <path class="cls-15" d="M1120.34,623.28c8.31,17.56,16.51,38.48,22.92,62.56,13.86,52.05,13.73,97.93,10.71,130.42"/>
  <path class="cls-5" d="M982.93,810.73c-13.68.15-28.13-.09-43.26-.84-13.82-.68-27.03-1.74-39.56-3.05-.82.85-1.71,1.88-2.58,3.12-.56.8-1.03,1.58-1.43,2.31,10.68,1.06,21.74,1.94,33.15,2.6,18.44,1.06,36.07,1.43,52.79,1.29.3-1.81.6-3.61.9-5.42Z"/>
  <path class="cls-15" d="M880.08,739.87c-3.35,9.53-6.62,20.72-9.13,33.4-2.57,12.98-3.82,24.83-4.33,35.1"/>
  <path class="cls-15" d="M842.29,822.12c.47-3.61.93-7.21,1.4-10.82,9.01.3,29.66,1,38.81,1.31,108.75,3.71,103.74,3.8,114.91,3.91,49.88.51,54.35-2.16,123.88-2.21,24.64-.02,44.8.3,57.86.57"/>
  <path class="cls-15" d="M899.7,801.07c-2.21.85-4.91,2.12-7.77,4.02-3.45,2.3-6,4.79-7.77,6.8"/>
  <path class="cls-15" d="M809.42,748.3c-2.6,4.38-5.25,9.57-7.55,15.57-4.93,12.85-6.43,24.54-6.76,33.19"/>
  <path class="cls-15" d="M817.76,765.6c-1.74,1.67-4.14,4.41-5.98,8.34-2.86,6.11-2.76,11.73-2.52,14.47"/>
  <path class="cls-15" d="M835.17,604.53c-1.51,2.03-3.18,4.7-4.56,8.02-2.69,6.5-2.97,12.39-2.83,16.04"/>
  <path class="cls-15" d="M833.44,594.15c-2.69,1.11-10.32,4.69-15.1,13.21-7.35,13.08-1.65,26.55-.94,28.16"/>
  <path class="cls-13" d="M899.35,801.02c-.1-1.9,3.06-3,6.81-4.31,3.25-1.13,5.56-1.94,7.1-.92,1.78,1.18,1.53,4.11.69,5.85-1.13,2.33-4.07,4.08-7.49,3.81-3.3-.27-7-2.41-7.11-4.42Z"/>
  <g>
    <path class="cls-15" d="M1082.57,683.3c5.5,3.39,12.96,7.8,22.1,12.63,5.16,2.73,6.54,3.31,7.89,2.84,4.06-1.41,6.83-11.94.32-53.35"/>
    <path class="cls-13" d="M1063.87,686.46c-.65-.81,2.98-6.47,9.04-8.47,1.48-.49,6.27-2.07,8.71.52,1.48,1.58,1.5,4.08.95,5.81-.64,1.98-2.29,3.79-4.47,4.26-.4.09-2.42.53-3.75-.61-1.3-1.11-.62-2.59-1.56-3.44-2.08-1.89-8.19,2.81-8.91,1.93Z"/>
  </g>
  <g>
    <path class="cls-10" d="M806.62,539.73c-.02.16-.38,2.75,1.28,4.73,1.98,2.36,4.87,1.51,5.12,1.43.46-.14,2.62-.91,3.37-3.47.49-1.68.29-3.86-.98-5.44-1.68-2.08-4.08-1.7-4.46-1.64-1.83.29-3.94,1.78-4.34,4.39Z"/>
    <g>
      <path class="cls-10" d="M820.16,533.54c.45-.28,4.88-3.12,4.72-6.61-.06-1.36-.76-2.43-.76-2.43-.75-1.15-2.2-2.29-2.88-2.2-1.3.16-2.09,5.09-.53,23.78"/>
      <path class="cls-10" d="M820.15,539.01c.06-.25.63-2.35,2.85-3.09.44-.15,2.47-.75,3.67.28,1.04.89.95,2.57.06,3.23-.48.36-1.33.49-1.62.22-.24-.23-.06-.88.26-1.01.52-.22,1.34.94,2.53,2.19.86.9,2.14,2.08,3.93,3.25"/>
    </g>
  </g>
  <path class="cls-10" d="M836.25,543.95c8.36-.59,12.98.52,15.65,1.67.11.05.21.09.21.09.8.36,7.68,3.52,7.5,7.27-.06,1.21-.86,2.56-1.89,2.75-.85.15-1.97-.48-2.11-1.3-.11-.61.33-1.23.68-1.52,1.68-1.37,6.47.91,9.17,3.34,4.63,4.17,5.01,10.49,5.02,12.85"/>
  <path class="cls-3" d="M1054.3,747.04c.98-.64,5.69-3.71,11.59-2.64,8.28,1.5,11.01,9.69,11.16,10.19,1.9,6.07-.18,15.28-8.8,18.12-8.1,2.66-17.25-1.85-20.18-8.68-2.84-6.63.98-13.57,6.23-16.98Z"/>
  <path class="cls-12" d="M1058.15,756.08c-.27-.32-1.23-1.37-2.57-1.39-2.03-.03-3.78,2.33-3.6,4.41.02.24.22,2.14,1.97,2.94,1.25.57,2.8.35,3.94-.57"/>
  <path class="cls-12" d="M1066.25,755.52l.94,7.5c-.46-2.95.2-5.49,1.74-6.36.28-.16,1.13-.64,2.13-.38.93.24,1.43.97,1.57,1.19.47.72.48,1.43.48,2.47,0,.76-.07,1.86-.44,3.16"/>
  <path class="cls-14" d="M244.82,11.62c-69.9,10.77-96.71,28.97-107.41,44.95-1.89,2.82-6.8,10.83-15.08,12.2-14.84,2.46-32.45-17.72-39.5-36.28-3.92-10.32-4.34-19.51-4.25-24.83-4.34,4.56-14.13,16.08-17.76,34.04-4.03,19.95,1.98,35.79,4.44,41.44-21.3,24.86-32.49,48.31-38.48,63.64-2.4,6.13-40.77,109.1,16.28,195.37,12.14,18.36,25.33,31.01,34.04,38.48"/>
  <path class="cls-14" d="M967.47,14.05c8.06,2.36,133.05,41.29,169.73,169.73,34.16,119.6-37.78,213.43-44.98,222.5"/>
  <path class="cls-14" d="M379.49,640.43c26.13,13.23,57.17,25.69,92.95,34.35,136.64,33.09,254.39-10.5,307.13-34.35"/>
  <path class="cls-16" d="M1063.73,761.24c-.43-.53-.83-.89-1.13-1.14-.81-.67-1.33-.82-1.58-1.5-.05-.14-.22-.59-.02-.98.18-.37.62-.56.99-.45.04.01.24.08.41.29.19.24.29.62.18.91-.07.19-.19.28-.47.48-.77.54-1.14.76-1.51,1.18-.22.25-.29.4-.3.55-.04.33.16.65.35.81.35.31.8.22,1.02.17,1.09-.22,1.71-1.45,1.86-1.76"/>
  <g>
    <path class="cls-15" d="M867.17,673.84c-.36,3.82-.52,9.15.39,15.37.94,6.4,3.55,17.46,11.43,28.38,12.71,17.61,30.58,23.03,35.48,24.44,10.29,2.96,18.64,2.66,25.23,2.37,17.33-.77,30.85-5.95,39.03-9.86"/>
    <path class="cls-15" d="M921.8,590.54c-1.1-1.38-3.36-3.81-6.96-4.97-5.14-1.65-9.73.36-12.59,1.66-4.35,1.98-9.04,5.49-15.24,14.91-2.17,3.3-4.48,7.25-9.94,19.55-7.78,17.51-8.92,22.61-14.91,29.82-3.42,4.11-6.78,6.95-8.95,8.61"/>
    <path class="cls-15" d="M935.05,588.55c1.4-1.66,4.09-4.38,8.28-5.96,5.56-2.1,10.48-.96,14.58,0,9.04,2.11,14.78,7.07,15.87,8.04,1.96,1.73,4.51,4.39,11.25,17.55,6.51,12.71,6.35,14.56,9.9,20.48,2.91,4.85,7.83,11.63,16.32,18.54"/>
    <path class="cls-15" d="M915.41,570.33c-1.48-1.46-4.47-3.95-8.74-4.54-1.04-.15-4.82-.55-12.23,3.5-3.13,1.71-8.33,4.98-13.98,11.19-5.95,6.53-9.11,12.68-11.88,18.18-2.2,4.36-3.45,7.53-6.29,15.03-7.05,18.58-8.03,21.84-9.79,26.22-3.07,7.61-8.39,18.31-18.18,30.41"/>
    <path class="cls-15" d="M930.33,569.16c2.08-1.96,5.51-4.75,10.36-6.91,2.83-1.26,10.19-4.43,19.4-2.92,7.71,1.26,12.7,5.15,17.01,8.5,6.63,5.16,10.3,10.62,13.82,15.94,4.89,7.4,7.59,13.84,10.36,20.46,2.21,5.27,6.17,15.47,7.17,18.07,2.24,5.79,3.15,8.28,5.31,11.43,3.4,4.94,7.49,8.02,10.36,9.83"/>
    <path class="cls-15" d="M975.44,689.22c-14.47-.88-20.81-5.55-23.88-9.95-3.86-5.54-3.21-14.66-6.77-33.43-.34-1.77-1.03-5.34-2.09-5.37-.82-.02-1.65,2.1-2.69,6.61-2.36,10.19-1.41,15.26-2.85,21.22-1.78,7.39-3.06,12.46-6.96,16.43-8.27,8.42-26.32,8.5-37.14-.28-9.25-7.5-10.55-19.3-11.14-24.67-.84-7.63.44-13.95,1.59-17.91,9.11-2.15,19.08-3.97,29.85-5.17,31.15-3.49,58.32-.66,79.29,3.53.86,3.74,1.61,7.87,2.14,12.35.94,8.07.92,15.34.47,21.49"/>
    <path class="cls-7" d="M942.56,675.38c-1.49,5.61-.49,8.55.7,10.21,1.04,1.45,1.82,1.34,4.19,4.01,1.79,2.03,3.27,3.74,3.66,6.28.14.93.48,3.14-.79,4.62-.76.89-1.59.93-4.45,2.01-1.56.58-2.79,1.13-3.58,1.48"/>
    <path class="cls-8" d="M915.09,673.95c-.83-1.34-.59-3.57.55-4.97s2.73-1.45,3.57-.11.59,3.57-.55,4.97c-1.14,1.4-2.73,1.45-3.57.11Z"/>
    <path class="cls-8" d="M970.4,674.11c-.83-1.34-.59-3.57.55-4.97s2.73-1.45,3.57-.11.59,3.57-.55,4.97c-1.14,1.4-2.73,1.45-3.57.11Z"/>
  </g>
  <g>
    <path class="cls-15" d="M1009.55,547.88c.34,8.48,1.13,20.82,3.15,35.6,3.04,22.26,4.56,33.39,9.83,42.27,13.85,23.33,42.12,25.23,44.82,25.36,20.27,1.03,48.3-9.08,55.44-33.37,2.92-9.93,1.5-19.35,0-25.36"/>
    <path class="cls-15" d="M1096.71,523.99c1.42-.25,4.88-.64,8.39,1.48.69.42,2.43,1.57,4.24,4.18,3.53,5.1,4,11.01,4.15,12.73.65,7.1,2.86,18.03,7.33,34.82"/>
    <path class="cls-15" d="M1120.56,576.26c-.1-.31-1.65-5.1.89-8.71,1.77-2.52,4.4-2.86,5.58-3.02.35-.05,5.13-.59,8.54,3.4,2.84,3.33,2.8,7.58,2.77,10.21-.03,2.31-.09,8.23-4.3,12.29-4.17,4.03-9.35,3.28-10.25,3.13"/>
    <path class="cls-15" d="M1095.82,490.91c-3.52-3.43-9.25-8.21-17.23-11.7-12.94-5.65-24.44-4.68-30.25-3.68-9.59,1.65-16.16,5.53-22.21,9.1-8.37,4.94-16.62,9.82-23.36,20.15-7.09,10.87-9.04,22.48-9.57,29.9,1.39-2.78,3.36-6.06,6.13-9.32,6.06-7.11,12.81-10.39,16.85-11.92-2.03,2.03-4.34,4.74-6.51,8.23-4.4,7.1-6.14,14.12-6.89,18.63,1.16-1.24,2.44-2.47,3.83-3.68,6.63-5.76,13.47-8.77,18.95-10.4-2.99,2.03-6.74,5.02-10.53,9.32-3.93,4.45-6.62,8.87-8.42,12.35,2.7-1.49,7.07-3.91,12.44-6.93,23.06-12.97,26.91-15.83,34.27-17.98,5.72-1.67,14.58-3.21,26.42-1.08"/>
    <path class="cls-15" d="M1104.44,491.77c2.17-.28,5.29-.48,8.98,0,3.73.48,9.19,1.19,14.51,5.42,5.08,4.04,7.63,9.37,8.83,12.53-1.2-.47-2.45-.92-3.74-1.35-2.45-.82-4.8-1.49-7.03-2.03,1.49.9,3.26,2.16,5.09,3.89,2.3,2.19,3.95,4.45,5.09,6.27-2.94-.73-5.89-1.47-8.83-2.2.13.95.47,3.44.6,4.4,2,14.65,2.33,16.87,2.54,18.63.62,5.1.96,12.56-.45,22.52"/>
    <path class="cls-7" d="M1063.1,574c-1.18,5.8-1.77,10.71-2.08,14.32-.83,9.66.17,11.32,1.09,11.97,1.42.99,3.7.3,6.52-.56,1.51-.46,2.72-1.02,3.56-1.45"/>
    <g>
      <path class="cls-10" d="M1055.66,583.22c-3.64,12.75-30.08,15.66-35.97,2.76-1.7-3.71-2.08-9.57-2.22-11.78-.35-5.37.22-9.79.76-12.67,11.99-.92,23.98-1.84,35.97-2.76.83,3.37,1.83,8.51,1.98,14.87.1,4.16.17,7.16-.52,9.59Z"/>
      <path class="cls-10" d="M1055.35,571.19c1.39-1.01,4.17-2.68,7.89-2.71,2.99-.03,5.37,1.02,6.77,1.8"/>
      <path class="cls-10" d="M1107.86,579.01c-3.64,12.75-30.08,15.66-35.97,2.76-1.7-3.71-2.08-9.57-2.22-11.78-.35-5.37.22-9.79.76-12.67,11.99-.92,23.98-1.84,35.97-2.76.83,3.37,1.83,8.51,1.98,14.87.1,4.16.17,7.16-.52,9.59Z"/>
    </g>
    <g>
      <path class="cls-11" d="M1027.37,574.9c2.77-.2,5.8-.47,9.03-.81,2.65-.28,5.12-.57,7.38-.87"/>
      <path class="cls-8" d="M1034.84,580.08c.22-.73,1.15-1.33,2.07-1.35s1.48.56,1.26,1.29-1.15,1.33-2.07,1.35-1.48-.56-1.26-1.29Z"/>
    </g>
    <g>
      <path class="cls-11" d="M1082.2,569.27c2.77-.2,5.8-.47,9.03-.81,2.65-.28,5.12-.57,7.38-.87"/>
      <path class="cls-8" d="M1089.66,574.45c.22-.73,1.15-1.33,2.07-1.35s1.48.56,1.26,1.29-1.15,1.33-2.07,1.35-1.48-.56-1.26-1.29Z"/>
    </g>
    <path class="cls-11" d="M1069.74,631.91c1.93.52,3.77-.13,4.66-1.67,1.42-2.47.2-6.83-2.09-7.75-1.36-.55-2.95.18-4.06,1.66"/>
  </g>
  <path class="cls-15" d="M1038.56,642.18c1.26,5.69,2.34,12.18,2.94,19.37.86,10.37.51,19.6-.3,27.29"/>
</svg>