<?xml version="1.0" encoding="UTF-8"?>
<svg id="Layer_1" data-name="Layer 1" xmlns="http://www.w3.org/2000/svg" viewBox="0 0 1195.56 841.84">
  <defs>
    <style>
      .cls-1 {
        fill: none;
        stroke: #203555;
        stroke-miterlimit: 10;
        stroke-width: 3px;
      }
    </style>
  </defs>
  <path class="cls-1" d="M227.74,780.22c148.88-1.24,297.75-2.27,446.61-3.11,110.49-.62,220.99-1.13,331.51-1.52"/>
  <path class="cls-1" d="M228.73,682.2c33-.56,82.81-1.18,143.56-.99,81.7.25,104.69,1.71,202.96,2.97,29.92.38,82.38,1.47,145.65,1.36,49.86-.09,113.19-.83,187-3.28"/>
  <path class="cls-1" d="M228.44,756.35c22.24-11.42,45.32-22.83,69.22-34.13,23.03-10.89,45.65-21.13,67.78-30.77"/>
  <path class="cls-1" d="M312.08,766.45c16.8-12.94,35.21-26.19,55.28-39.42,18.74-12.35,36.94-23.36,54.32-33.17"/>
  <path class="cls-1" d="M404.86,763.57c12.77-14.55,28.19-30.16,46.63-45.67,10.03-8.43,19.87-15.93,29.32-22.59"/>
  <path class="cls-1" d="M512.85,764.06c5.29-8.04,10.66-17,15.87-26.9,8.03-15.28,14.06-29.76,18.62-42.77"/>
  <path class="cls-1" d="M657.71,766.77c-4.05-3.44-10.02-8.95-16.26-16.59-4.09-5.01-7.55-10.03-18.58-28.86-3.71-6.33-8.6-14.79-14.27-24.88"/>
  <path class="cls-1" d="M748.94,759.47c-9.61-9.41-19.23-18.81-28.86-28.2-12.15-11.85-24.31-23.68-36.49-35.5"/>
  <path class="cls-1" d="M853.11,765.78c-6.87-2.34-17.48-6.42-29.53-13.27-14.14-8.04-21.42-14.86-44.12-32.84-6.97-5.52-17.44-13.71-30.52-23.55"/>
  <path class="cls-1" d="M968.23,762.79c-24.64-10.66-44.84-18.78-58.72-24.22-24.53-9.61-37.52-14.08-56.4-23.89-15.76-8.19-27.98-16.14-35.83-21.56"/>
  <path class="cls-1" d="M1006.71,733.6c-15.92-5.11-32.43-10.83-49.43-17.25-19.69-7.43-38.27-15.12-55.73-22.89"/>
  <path class="cls-1" d="M97.41,838.63c111.66-4.53,203.5-4.98,267.76-4.51,151.4,1.1,168.33,7.46,302.36,6.02,107.43-1.15,136.14-5.66,257.23-6.02,80.2-.23,145.65,1.52,188.03,3.01"/>
  <path class="cls-1" d="M370.86,89.2c5.17,34.04,11.46,108.89-26.43,183.76-37.51,74.12-99.34,110.68-139.06,134.19-31.19,18.46-59.42,29.74-80.09,36.7"/>
  <path class="cls-1" d="M47.17,417.88c4.61,5.42,11.21,11.9,20.2,17.47,20.74,12.85,41.32,12.91,50.73,12.28,0,4.31.31,10.58,1.8,17.94,2.07,10.26,5.25,16.8,3.59,17.94-1.29.89-4.22-2.36-8.53-5.67-5.56-4.26-8.96-5.18-22-10.39-8.75-3.49-19.12-7.64-27.83-11.81-6.04-2.89-14.67-7.42-24.69-14.17-.18-2.42-.17-5.5.45-8.97,1.24-6.94,4.29-11.91,6.28-14.64Z"/>
  <path class="cls-1" d="M36.5,583.51c-.54-16.46-.75-33.51-.57-51.11.34-32.12,1.99-62.48,4.5-90.9"/>
  <path class="cls-1" d="M128.74,491.66c7.59,17.3,17.86,42.65,27.7,74.37,3.74,12.06,7.32,25.63,14.33,52.26,11.2,42.56,16.88,64.3,21.02,86.42,13.38,71.62,3.29,81.74,0,84.42-7.77,6.3-19.81,5.31-31.59,4.33-9.24-.76-18.52-3.26-40.18-5.78-5.29-.62-13.35-1.47-15.11,2.17-1.71,3.53,3.91,8.41,2.1,15.41-.19.72-1.01,3.91-3.48,5.9-7.37,5.94-23.64-3.6-32.28-8.67-9.26-5.43-8.06-6.47-11.68-7.22-11.15-2.32-17.43,8.66-34,14.09-5.23,1.72-12.66,3.26-22.32,2.53"/>
  <path class="cls-1" d="M162.81,246.44c2.89,44.74-5.05,78.82-11.98,100.07-15.32,46.98-39.82,74.39-51.19,76.16-.85.13-2.65.38-4.18-.68-4.74-3.28-2.02-15.73,3.86-40.9,3.61-15.45,5.41-23.18,6.42-27.17,6.91-27.41,7-50.7,7.05-62.26.07-18.05-1.97-48.62-15.5-85.98"/>
  <path class="cls-1" d="M233.36,185.39c2.58,25.89,3.38,67.3-10.74,114.56-23.32,78.07-72.85,123.52-93.98,140.8"/>
  <path class="cls-1" d="M306.78,147.87c2.95,18.42,5.39,46.96-.8,80.43-9.83,53.09-35.67,87.69-54.73,112.61-41.11,53.74-89.66,83.81-123.24,100.13"/>
  <path class="cls-1" d="M839.81,95.01c-2.99,33.14-2,78.06,15.07,126.57,53.04,150.76,213.86,201.2,236.56,207.93"/>
  <path class="cls-1" d="M1181.62,405.35c-5.02,5.47-12.78,12.53-23.75,18.12-22.46,11.44-43.96,9.4-52.74,8.05,2.21,5.68,2.52,10.24,2.42,13.29-.16,4.67-1.48,11.77-2.82,18.92-.69,3.72-1.16,5.95,0,6.84,1.81,1.4,6.16-1.5,8.86-3.22,7.44-4.75,15.64-8.19,23.35-12.48,13.09-7.28,15.23-4.59,30.2-11.68,6.27-2.97,14.25-7.4,22.95-14.09.15-2.72.05-7.08-1.61-12.08-1.89-5.69-4.93-9.57-6.84-11.68Z"/>
  <path class="cls-1" d="M1099.12,480.88c-4.23,7.24-10.47,18.79-16.28,33.72-7.11,18.26-8.62,28.82-15.11,54.65-4.93,19.58-3.84,12.63-16.28,57.55-13.05,47.14-15.25,58.4-16.28,63.95-2.26,12.16-3.18,27.39-5.02,57.86-.06.99-.52,9.52,1.72,20.27,1.32,6.32,2.02,9.53,4.4,11.85,3.79,3.71,9.26,3.29,26.39.96,12.41-1.69,24.92-2.6,37.29-4.59,10.21-1.65,16.71-2.96,19.5.57,2.41,3.04-.17,6.83,2.49,13.77.82,2.14,2.7,7.07,6.31,8.99,7.82,4.16,17.39-9.16,33.65-13.19,6.99-1.73,17.25-2.25,31.19,3.48"/>
  <path class="cls-1" d="M1126.65,482.52c-2.22,25.7-5.2,47.3-7.82,63.65-4.26,26.63-6.39,39.94-10.61,53.04-6.29,19.56-11.81,27.6-16.19,48.01-2.97,13.85-3.72,25.47-3.91,32.94"/>
  <path class="cls-1" d="M1136.7,574.08c-1.5,13.07-3.53,31.69-5.58,54.16-2.69,29.39-4.04,44.47-4.47,63.65-.31,14.16-.22,34.05,1.67,58.06"/>
  <path class="cls-1" d="M988.19,169.87c-1.46,18.39-1.73,42.99,2.79,71.46,3.33,20.96,10.25,50.25,25.12,81.51,26.29,55.24,64.82,90.17,89.02,108.68"/>
  <path class="cls-1" d="M913.17,134.75c-2.42,14.23-4.46,34.84-1.62,59.25,4.19,36.03,16.79,61.15,29.09,85.1,13.39,26.1,33.29,63.96,74.33,99.64,30.58,26.59,62.19,42.65,88.11,52.46"/>
  <path class="cls-1" d="M1062.51,234.26c-.09,11.74.37,28.46,3.02,48.34,1.23,9.24,6.48,45.75,26.33,88.05,9.1,19.4,19.38,35.97,33.67,38.84,2.02.41,6.7,1.28,9.93-1.29,5.17-4.13,3.28-14.49,0-28.49-5.05-21.55-9.95-36.95-11.65-42.73-5.4-18.28-6.06-32.4-6.91-50.5-.89-18.9.04-52.14,14.67-94.09"/>
  <path class="cls-1" d="M1192.57,6.22c-45.73,12.57-85.96,18.01-117.24,20.36-45.18,3.4-81.11,1.07-99.27-.54-33.15-2.94-57.14-10.89-105.78-17.36-4.92-.65-25.27-3.3-51.77-3.88-8.14-.18-14.82-.31-23.4.29-23.88,1.66-41.52,7.49-46.34,9.01-40.86,12.87-110.45,14.98-118.25,15.19-42.39,1.14-99.43-3.04-137.24-13.56-4.01-1.12-23.7-6.73-49.7-9.97-13.94-1.74-23.99-2.08-31.93-2.02-7.58.06-18.62.52-31.7,2.47-17,2.54-29.37,6.39-32.59,7.35-21.4,6.42-83.57,19.19-144.83,17.36-36.91-1.1-97.86-7.9-130.73-18.99-5.16-1.74-24-8.43-49.36-8.68-8.37-.08-15.21.56-19.53,1.08,3.04,3.64,7.78,9.32,13.56,16.27,14.85,17.87,24.41,29.53,26.42,31.95,31.03,37.45,68.02,60.55,68.02,60.55,14.11,8.81,41.4,25.85,78.49,30.65,66.5,8.6,119.73-27.69,133.8-38.12,32.26-23.92,75.66-72.77,82.15-92.91.51-1.58,2.62-8.67,6.3-8.99,4.91-.43,9.64,11.49,10.76,14.2,8.52,20.49,32.82,41.45,60.53,71.41,25.88,27.98,70.12,50.92,116.84,54.42,7.39.55,75.97,4.75,124.09-37.38,29.57-25.89,57.16-44.39,74-77.74,3.19-6.32,12.02-24.94,20.63-23.84,5.23.66,7.21,8.21,13.76,19.36,4.18,7.12,10.52,15.17,24.67,29.9,35.32,36.77,52.97,55.16,68.02,65.03,32.87,21.57,82.98,34.98,133.8,22.43,68.83-17,105.72-73.4,111.8-88.38.8-1.98,6.44-16.46,15.86-35.16,2.67-5.3,4.91-9.48,6.15-11.76Z"/>
  <path class="cls-1" d="M15.06,8.63c15.47,5.09,38.15,12.37,65.77,20.55,45.55,13.5,68.33,20.24,80.85,22.27,64.16,10.37,126.06-4.37,156.9-15.76,17.78-6.57,36.75-10.18,53.78-18.5,9.72-4.74,21.56-11.43,37.81-10.63,7.71.38,13.01,2.28,19.69,4.53,16.83,5.68,34.27,9.5,51.05,15.33,5.74,1.99,50.19,17.3,88.47,23.54,16.7,2.72,63.25,8.78,116.8-3.73,36.61-8.55,65.96-15.41,92.36-28.52,3.68-1.83,12.97-6.59,26.14-8.49,19.42-2.8,34.96,2.41,44.14,5.43,24.31,8.02,49,14.83,73.34,22.75,12.71,4.14,49.74,15.33,95.75,16.64,49.92,1.42,88.05-9.42,103.22-14.26,30.06-9.59,53.56-22.25,69.9-32.55"/>
  <path class="cls-1" d="M18.13,15.81c4.81,4.05,11.7,9.67,20.26,15.98,15.87,11.72,40.54,29.92,73.87,43.15,9.05,3.59,45.19,17.32,94.7,17.97,16.93.22,49.87.36,89.09-13.48,38.87-13.71,70.68-36.49,80.85-46.41.14-.13,6.2-5.2,18.34-15.35,6.49-5.43,9.82-8.15,13.77-8.65,8.75-1.11,16.4,6.81,19.22,9.61,16.06,15.96,38.26,24.21,57.34,36.41,26.43,16.9,50.45,24.13,62.31,27.69,52.7,15.85,99.79,7.85,115.49,4.53,70.76-15,137.68-65.2,145.43-75.72.81-1.1,5.05-7.31,9.72-6.74,2.66.32,4.37,2.73,4.76,3.24,6.76,8.9,78.8,57.14,121.6,73.99,55.3,21.77,109.64,9.94,126.39,5.62,66.85-17.27,105.64-62.63,118.94-79.84"/>
</svg>