<?xml version="1.0" encoding="UTF-8"?>
<svg id="Layer_1" data-name="Layer 1" xmlns="http://www.w3.org/2000/svg" viewBox="0 0 494.58 727.58">
  <defs>
    <style>
      .cls-1, .cls-2, .cls-3, .cls-4, .cls-5, .cls-6, .cls-7, .cls-8, .cls-9, .cls-10 {
        stroke-miterlimit: 10;
      }

      .cls-1, .cls-2, .cls-4, .cls-6, .cls-7, .cls-9, .cls-10 {
        fill: none;
      }

      .cls-1, .cls-3, .cls-4, .cls-10 {
        stroke: #1f3555;
      }

      .cls-11, .cls-8 {
        fill: #fff6eb;
      }

      .cls-12 {
        fill: #db9ec7;
      }

      .cls-2, .cls-6 {
        stroke: #1e3555;
      }

      .cls-2, .cls-9, .cls-10 {
        stroke-width: 3px;
      }

      .cls-3 {
        fill: #1f3555;
      }

      .cls-3, .cls-4, .cls-6, .cls-8 {
        stroke-width: 2px;
      }

      .cls-5 {
        fill: #2c466c;
      }

      .cls-5, .cls-7, .cls-8, .cls-9 {
        stroke: #203555;
      }

      .cls-7 {
        stroke-width: .25px;
      }
    </style>
  </defs>
  <path class="cls-2" d="M204.53,669.3c.72,16.97,1.45,33.95,2.17,50.92-8.31,1.97-16.62,3.93-24.94,5.9"/>
  <path class="cls-2" d="M275.73,666.79c.72,16.97,1.45,33.95,2.17,50.92-8.31,1.97-16.62,3.93-24.94,5.9"/>
  <g>
    <path class="cls-2" d="M426.15,473.51c8.24-3.74,17.52-7.34,27.83-10.42,3.9-1.16,7.7-2.18,11.39-3.07"/>
    <g>
      <path class="cls-9" d="M44.95,208.99c-2.25,14.84-3.94,39.06,3.55,67.14,2.95,11.04,8.14,31.45,22.31,48.65,26.68,32.39,68.2,37.41,109.2,42.37,29.48,3.57,71.76,8.2,121.65-9.57,32.18-11.46,73.83-25.83,94-66.98,16.93-34.55,9.73-69.41,5.85-83.73"/>
      <path class="cls-9" d="M104.46,351.03c-.92,34.11-4.8,75.04-14.97,120.4-13.78,61.44-34.76,111.61-53.9,149.02,24.59,13.73,54.92,27.22,90.82,36.51,122.18,31.63,227.88-6.35,272.47-25.66"/>
      <path class="cls-9" d="M375.03,319.5c9.03,41.58,19.54,84.76,31.77,129.33,8.02,29.21,16.37,57.51,24.95,84.87"/>
      <g>
        <path class="cls-3" d="M151.27,215.86c12.52-17.75,9.97-42.3-5.69-54.84-15.66-12.54-38.51-8.31-51.03,9.44-12.52,17.75-9.97,42.3,5.69,54.84,15.66,12.54,38.51,8.31,51.03-9.44Z"/>
        <path class="cls-11" d="M116.47,206.95c8.98-4.52,14.46-17.63,12.24-29.29-2.22-11.66-11.3-17.45-20.28-12.93-8.98,4.52-14.46,17.63-12.24,29.29,2.22,11.66,11.3,17.45,20.28,12.93Z"/>
        <path class="cls-11" d="M132.35,226.91c4.92-3.49,7.35-10.51,5.44-15.67-1.91-5.16-7.45-6.51-12.37-3.02-4.92,3.49-7.35,10.51-5.44,15.67,1.91,5.16,7.45,6.51,12.37,3.02Z"/>
      </g>
      <g>
        <path class="cls-3" d="M332.6,211.34c12.52-17.75,9.97-42.3-5.69-54.84-15.66-12.54-38.51-8.31-51.03,9.44-12.52,17.75-9.97,42.3,5.69,54.84,15.66,12.54,38.51,8.31,51.03-9.44Z"/>
        <path class="cls-11" d="M297.8,202.42c8.98-4.52,14.46-17.63,12.24-29.29-2.22-11.66-11.3-17.45-20.28-12.93-8.98,4.52-14.46,17.63-12.24,29.29,2.22,11.66,11.3,17.45,20.28,12.93Z"/>
        <path class="cls-11" d="M313.68,222.39c4.92-3.49,7.35-10.51,5.44-15.67-1.91-5.16-7.45-6.51-12.37-3.02-4.92,3.49-7.35,10.51-5.44,15.67,1.91,5.16,7.45,6.51,12.37,3.02Z"/>
      </g>
      <path class="cls-4" d="M218.92,248.62c-1.26.42-8.83,2.79-16.04-1.32-5.01-2.86-9.62-8.72-8.97-15.02.87-8.4,11.02-16.81,24.16-16.2"/>
      <path class="cls-10" d="M200.04,14c14.78-5.45,38.33-12.22,67.77-12.48,15.66-.14,74.2.16,122.07,40.38,35.75,30.03,46.93,66.66,54.94,92.91,3.88,12.7,6.27,23.95,7.73,34.31,5.16,36.57,2.75,63.95,2.07,73.3-1.9,26.33,3.79,66.63,38.66,126.69"/>
      <path class="cls-2" d="M132.51,32.98c-11.99,2.71-29.52,8.05-48.07,19.37-39.8,24.28-57.22,59.55-64.1,73.94C-3.09,175.33.43,221.41,4.31,263.61c6.17,67.1,24.04,80.69,23.2,138.07-.55,37.58-8.75,68.17-15.53,88.02,9.32,2.73,18.63,5.46,27.95,8.19,2.07-5.12,4.14-10.23,6.21-15.35,1.38,6.48,2.76,12.96,4.14,19.45,5.18,1.02,10.35,2.05,15.53,3.07"/>
      <path class="cls-2" d="M145.17,85.33c-9.91,10.3-21.08,21.01-33.59,31.81-18.6,16.04-36.74,29.29-53.46,40.2"/>
      <path class="cls-2" d="M185.29,61.71c30.64,28.47,58.91,41.35,79.34,47.84,23.95,7.6,39.7,7.23,70.15,18.25,25.32,9.16,44.63,20.35,57.02,28.39"/>
      <path class="cls-10" d="M60.43,161c-1.37-.86-12.85-7.79-23.72-1.94-12.53,6.75-17.36,26.79-10.41,40.51,6.62,13.07,20.91,14.48,22.27,14.59"/>
      <path class="cls-10" d="M386.24,157.11c1.37-.86,12.85-7.79,23.72-1.94,13.17,7.09,17.34,26.76,10.41,40.51-5.91,11.72-18.11,15.64-20.99,16.49"/>
      <path class="cls-2" d="M103.6,353.43c-11.34,19.55-36.36,65.72-23.26,78.14,17.97,17.04,96.94-39.61,107.43-47.21"/>
      <path class="cls-2" d="M375.03,319.5c8.82,41.67,3.15,79.86-19.37,93.97-18.3,11.46-43.02,5.28-64.46,0-26.74-6.59-46.14-18.65-57.29-26.75"/>
      <g>
        <g>
          <path class="cls-5" d="M199.87,345.71c1.14,22.03,2.28,44.06,3.42,66.1,1.63-.56,4.38-1.25,7.76-.75,2.71.4,4.83,1.42,6.21,2.24,2.48-21.91,4.97-43.82,7.45-65.72-8.28-.62-16.56-1.24-24.84-1.87Z"/>
          <path class="cls-5" d="M236.11,342.39c-4.07,6.4-11.29,6.18-22.95,5.84-10.54-.31-16.48-.49-20.15-6.09-5.32-8.12-3.02-23.32,3.08-31.95,8.83-12.48,26.81-12.88,36.1-.62,6.61,8.72,9.26,24.43,3.92,32.82Z"/>
        </g>
        <path class="cls-7" d="M199.13,315.05c3.16,2.19,7.16,5.5,11.15,10.37,5.34,6.52,8.51,13.23,10.34,17.94"/>
        <path class="cls-7" d="M207.93,307.5c3.58,2.52,8.12,6.33,12.65,11.93,6.06,7.51,9.66,15.22,11.73,20.64"/>
        <path class="cls-7" d="M221.46,307.17c-3.58,2.52-8.12,6.33-12.65,11.93-6.06,7.51-9.66,15.22-11.73,20.64"/>
        <path class="cls-7" d="M229.62,316.7c-2.93,1.89-6.65,4.77-10.41,9.12-5.04,5.82-8.13,11.91-9.94,16.22"/>
      </g>
      <path class="cls-8" d="M187.47,385.39c-3.13-2.23-.93-8.62,1.68-16.21,2.26-6.57,3.87-11.24,7.42-12.41,4.09-1.35,8.41,2.74,10.11,6.25,2.28,4.72,1.38,11.58-3.34,16.66-4.54,4.89-12.56,8.07-15.87,5.71Z"/>
      <path class="cls-8" d="M232.45,387.24c3.17-1.79,1.74-8,.05-15.4-1.46-6.39-2.51-10.95-5.72-12.39-3.71-1.67-8.18,1.74-10.13,4.88-2.62,4.21-2.46,10.74,1.46,15.98,3.77,5.04,10.99,8.82,14.34,6.93Z"/>
      <path class="cls-6" d="M96.26,148.38c1.95-1.64,6.83-5.35,14.47-7.44,7.95-2.18,14.37-1.37,16.91-.94"/>
      <path class="cls-6" d="M331.84,143.39c-1.95-1.64-6.83-5.35-14.47-7.44-7.95-2.18-14.37-1.37-16.91-.94"/>
      <path class="cls-6" d="M219,292.99c11.56.63,20.42-.84,26.42-2.33,7.46-1.85,13.6-4.49,22.17-2.8,3.22.64,7.56,1.56,10.38,5.13,5.34,6.79.6,17.36,0,18.66-5.92,12.74-21.76,15.14-23.59,15.39"/>
      <g>
        <ellipse class="cls-12" cx="118.75" cy="261.38" rx="27.79" ry="8.16" transform="translate(-19.88 9.98) rotate(-4.44)"/>
        <path class="cls-1" d="M95.7,266.69c7.64-7.29,11.1-8.22,12.85-7.77,2.77.71,1.65,5.02,4.63,5.77,4.42,1.12,11.57-7.23,14.93-6.15,2.26.73.25,4.92,2.57,5.83,2.35.92,7.66-2.09,13.64-6.41"/>
      </g>
      <g>
        <ellipse class="cls-12" cx="316.91" cy="247.68" rx="27.79" ry="8.16" transform="translate(-18.22 25.27) rotate(-4.44)"/>
        <path class="cls-1" d="M293.86,252.98c7.64-7.29,11.1-8.22,12.85-7.77,2.77.71,1.65,5.02,4.63,5.77,4.42,1.12,11.57-7.23,14.93-6.15,2.26.73.25,4.92,2.57,5.83,2.35.92,7.66-2.09,13.64-6.41"/>
      </g>
    </g>
  </g>
</svg>