<?xml version="1.0" encoding="UTF-8"?>
<svg id="Layer_1" data-name="Layer 1" xmlns="http://www.w3.org/2000/svg" viewBox="0 0 1233.17 105.58">
  <defs>
    <style>
      .cls-1 {
        fill: #a24646;
        stroke: #793132;
        stroke-miterlimit: 10;
        stroke-width: 5px;
      }
    </style>
  </defs>
  <g>
    <path class="cls-1" d="M612.79,6.75c-23.4,8.64-43.98,12.38-59.99,13.99-23.12,2.34-41.5.73-50.79-.37-16.96-2.02-29.24-7.49-54.12-11.93-2.52-.45-12.93-2.27-26.49-2.66-4.17-.12-7.58-.21-11.97.2-12.22,1.14-21.24,5.15-23.71,6.19-20.91,8.85-56.51,10.3-60.51,10.44-21.69.78-50.87-2.09-70.22-9.32-2.05-.77-12.13-4.63-25.43-6.85-7.14-1.2-12.27-1.43-16.34-1.39-3.88.04-9.53.36-16.22,1.7-8.69,1.75-15.03,4.39-16.68,5.05-10.95,4.41-42.75,13.19-74.1,11.93-18.89-.76-50.07-5.43-66.89-13.05-2.64-1.2-12.28-5.8-25.26-5.96-4.29-.06-7.78.39-9.99.74,1.56,2.51,3.98,6.41,6.94,11.19,7.6,12.28,12.49,20.3,13.52,21.96,15.88,25.74,34.8,41.62,34.8,41.62,7.22,6.05,21.18,17.77,40.16,21.07,34.02,5.91,61.26-19.03,68.46-26.2,16.51-16.45,38.71-50.02,42.03-63.87.26-1.09,1.34-5.96,3.22-6.18,2.51-.3,4.93,7.9,5.51,9.76,4.36,14.08,16.79,28.49,30.97,49.08,13.24,19.24,35.88,35,59.78,37.41,3.78.38,38.87,3.27,63.49-25.69,15.13-17.8,29.24-30.51,37.87-53.44,1.64-4.35,6.15-17.14,10.55-16.39,2.67.46,3.69,5.65,7.04,13.31,2.14,4.9,5.39,10.43,12.62,20.55,18.07,25.27,27.11,37.91,34.8,44.7,16.82,14.83,42.46,24.04,68.46,15.42,35.22-11.69,54.09-50.45,57.21-60.75.41-1.36,3.29-11.31,8.11-24.17,1.36-3.64,2.51-6.52,3.14-8.09h0Z"/>
    <path class="cls-1" d="M11.88,11.25c2.46,2.79,5.98,6.64,10.36,10.98,8.12,8.05,20.74,20.57,37.79,29.66,4.63,2.47,23.12,11.9,48.45,12.35,8.66.15,25.52.25,45.58-9.26,19.89-9.43,36.16-25.08,41.37-31.91.07-.09,3.18-3.58,9.39-10.55,3.32-3.73,5.02-5.6,7.05-5.95,4.48-.76,8.39,4.68,9.84,6.61,8.21,10.97,19.58,16.64,29.34,25.03,13.53,11.62,25.81,16.58,31.88,19.04,26.97,10.89,51.06,5.4,59.09,3.11,36.2-10.31,70.44-44.81,74.41-52.05.41-.76,2.59-5.02,4.97-4.63,1.36.22,2.24,1.87,2.44,2.23,3.46,6.12,40.32,39.28,62.22,50.86,28.3,14.96,56.1,6.84,64.67,3.86,34.2-11.87,54.05-43.05,60.86-54.89"/>
    <path class="cls-1" d="M14.47,4.92c7.91,3.5,19.52,8.51,33.65,14.13,23.31,9.28,34.96,13.92,41.37,15.3,32.83,7.13,64.5-3,80.27-10.83,9.1-4.52,18.8-7,27.52-12.72,4.97-3.26,11.03-7.86,19.35-7.31,3.94.26,6.66,1.57,10.07,3.11,8.61,3.91,17.53,6.53,26.12,10.54,2.93,1.37,25.68,11.89,45.26,16.18,8.54,1.87,32.36,6.03,59.76-2.57,18.73-5.88,33.75-10.59,47.25-19.61,1.88-1.26,6.63-4.53,13.38-5.84,9.93-1.92,17.89,1.66,22.58,3.73,12.44,5.51,25.07,10.19,37.52,15.64,6.5,2.84,25.45,10.54,48.99,11.44,25.54.98,45.05-6.47,52.81-9.8,15.38-6.59,27.41-15.29,35.76-22.37"/>
  </g>
  <g>
    <path class="cls-1" d="M1228.19,5.81c-23.4,8.64-43.98,12.38-59.99,13.99-23.12,2.34-41.5.73-50.79-.37-16.96-2.02-29.24-7.49-54.12-11.93-2.52-.45-12.93-2.27-26.49-2.66-4.17-.12-7.58-.21-11.97.2-12.22,1.14-21.24,5.15-23.71,6.19-20.91,8.85-56.51,10.3-60.51,10.44-21.69.78-50.87-2.09-70.22-9.32-2.05-.77-12.13-4.63-25.43-6.85-7.14-1.2-12.27-1.43-16.34-1.39-3.88.04-9.53.36-16.22,1.7-8.69,1.75-15.03,4.39-16.68,5.05-10.95,4.41-42.75,13.19-74.1,11.93-18.89-.76-50.07-5.43-66.89-13.05-2.64-1.2-12.28-5.8-25.26-5.96-4.29-.06-7.78.39-9.99.74,1.56,2.51,3.98,6.41,6.94,11.19,7.6,12.28,12.49,20.3,13.52,21.96,15.88,25.74,34.8,41.62,34.8,41.62,7.22,6.05,21.18,17.77,40.16,21.07,34.02,5.91,61.26-19.03,68.46-26.2,16.51-16.45,38.71-50.02,42.03-63.87.26-1.09,1.34-5.96,3.22-6.18,2.51-.3,4.93,7.9,5.51,9.76,4.36,14.08,16.79,28.49,30.97,49.08,13.24,19.24,35.88,35,59.78,37.41,3.78.38,38.87,3.27,63.49-25.69,15.13-17.8,29.24-30.51,37.87-53.44,1.64-4.35,6.15-17.14,10.55-16.39,2.67.46,3.69,5.65,7.04,13.31,2.14,4.9,5.39,10.43,12.62,20.55,18.07,25.27,27.11,37.91,34.8,44.7,16.82,14.83,42.46,24.04,68.46,15.42,35.22-11.69,54.09-50.45,57.21-60.75.41-1.36,3.29-11.31,8.11-24.17,1.36-3.64,2.51-6.52,3.14-8.09h0Z"/>
    <path class="cls-1" d="M627.28,10.3c2.46,2.79,5.98,6.64,10.36,10.98,8.12,8.05,20.74,20.57,37.79,29.66,4.63,2.47,23.12,11.9,48.45,12.35,8.66.15,25.52.25,45.58-9.26,19.89-9.43,36.16-25.08,41.37-31.91.07-.09,3.18-3.58,9.39-10.55,3.32-3.73,5.02-5.6,7.05-5.95,4.48-.76,8.39,4.68,9.84,6.61,8.21,10.97,19.58,16.64,29.34,25.03,13.53,11.62,25.81,16.58,31.88,19.04,26.97,10.89,51.06,5.4,59.09,3.11,36.2-10.31,70.44-44.81,74.41-52.05.41-.76,2.59-5.02,4.97-4.63,1.36.22,2.24,1.87,2.44,2.23,3.46,6.12,40.32,39.28,62.22,50.86,28.3,14.96,56.1,6.84,64.67,3.86,34.2-11.87,54.05-43.05,60.86-54.89"/>
    <path class="cls-1" d="M629.88,3.97c7.91,3.5,19.52,8.51,33.65,14.13,23.31,9.28,34.96,13.92,41.37,15.3,32.83,7.13,64.5-3,80.27-10.83,9.1-4.52,18.8-7,27.52-12.72,4.97-3.26,11.03-7.86,19.35-7.31,3.94.26,6.66,1.57,10.07,3.11,8.61,3.91,17.53,6.53,26.12,10.54,2.93,1.37,25.68,11.89,45.26,16.18,8.54,1.87,32.36,6.03,59.76-2.57,18.73-5.88,33.75-10.59,47.25-19.61,1.88-1.26,6.63-4.53,13.38-5.84,9.93-1.92,17.89,1.66,22.58,3.73,12.44,5.51,25.07,10.19,37.52,15.64,6.5,2.84,25.45,10.54,48.99,11.44,25.54.98,45.05-6.47,52.81-9.8,15.38-6.59,27.41-15.29,35.76-22.37"/>
  </g>
</svg>