<?xml version="1.0" encoding="UTF-8"?>
<svg id="Layer_1" data-name="Layer 1" xmlns="http://www.w3.org/2000/svg" viewBox="0 0 835.94 827.32">
  <defs>
    <style>
      .cls-1 {
        fill: #fff6eb;
      }

      .cls-1, .cls-2, .cls-3, .cls-4, .cls-5, .cls-6 {
        stroke-miterlimit: 10;
      }

      .cls-1, .cls-2, .cls-3, .cls-5 {
        stroke-width: 4px;
      }

      .cls-1, .cls-3, .cls-4, .cls-5, .cls-6 {
        stroke: #1f3555;
      }

      .cls-2 {
        stroke: #1e3555;
      }

      .cls-2, .cls-5, .cls-6 {
        fill: none;
      }

      .cls-3, .cls-4 {
        fill: #1f3555;
      }

      .cls-4, .cls-6 {
        stroke-width: 3px;
      }
    </style>
  </defs>
  <path class="cls-6" d="M252.35,376.74c10.7-11.77,15.21-12.99,17.37-11.99,3.42,1.57,1.41,8.93,5.08,10.6,5.46,2.48,15.68-11.2,19.79-8.91,2.77,1.54-.36,8.59,2.47,10.45,2.86,1.88,10.01-2.72,18.19-9.53"/>
  <path class="cls-5" d="M305.83,472.53c-10.23,84.91-20.46,169.81-30.68,254.72,27.17,13.32,70.88,30.87,127.33,37.31,24.82,2.83,77.79,8.35,141.79-10.09,74.89-21.58,124.12-64.23,148.48-88.87-35.66-76.71-71.31-153.42-106.97-230.13"/>
  <path class="cls-6" d="M396.14,342.32c-1.63.23-11.36,1.77-17.01,10.17-3.92,5.84-5.71,14.74-1.42,21.24,5.72,8.68,21.74,12.31,35.95,4.5"/>
  <path class="cls-6" d="M423.98,444.22c-.56,6.48-5.86,10.58-10.57,10.06-3.82-.42-7.29-3.89-7.9-7.37-.92-5.2,4.82-8.75,3.36-10.71-1.63-2.19-8.76,2.31-13.34-.77-3.03-2.04-4.06-6.83-2.64-10.37,1.43-3.57,4.97-4.96,6.86-5.7,4.53-1.78,8.76-.99,10.36-.61"/>
  <path class="cls-5" d="M204.45,316.25c-.56,15.98-.78,78.22,47.69,124.89,37.38,35.99,80.64,43.56,121.49,49.9,22.99,3.57,88.88,12.91,157.35-19.76,18.04-8.61,38.04-18.12,56.17-38.7,43.88-49.82,35.03-116.96,32.42-133.3"/>
  <path class="cls-5" d="M371.98,17c16.04-7.06,41.06-15.43,72.13-14.98,77.99,1.13,132.59,56.95,149.73,74.47,17.37,17.76,20.84,26.1,89.84,165.18,37.56,75.7,47.96,96.26,67.97,125.12,29.87,43.08,60.38,74.69,81.51,94.68-7.62,8.39-19.31,19.37-35.93,29.25-17.27,10.27-33.59,15.6-45.31,18.5-11.89-8.72-23.78-17.44-35.67-26.16,4.14,11.27,8.28,22.54,12.41,33.8-5.93,6.22-13.47,13.11-22.88,19.79-15.92,11.3-31.53,18-43.56,22.04"/>
  <path class="cls-5" d="M320.68,77.84c-2.59,11.6-7.49,26.4-17.18,41.75-23.35,36.99-59.31,53.05-74.9,58.93"/>
  <path class="cls-5" d="M354.53,69.19c21.47,15.15,48.25,31.58,80.46,46.52,51.46,23.88,98.75,35.61,134.62,41.67"/>
  <path class="cls-5" d="M319.12,23.6c-42.81,15.59-101.34,44.78-137.74,101.62-13.33,20.82-15.06,31.87-42.7,138.88-25.4,98.37-28.52,129.03-50.51,182.38-15.29,37.11-31.46,66.04-42.65,84.56,6.53,7.17,17.46,17.45,33.63,26.01,20.49,10.85,39.48,13.69,50.26,14.55,7.02-10.94,14.05-21.89,21.07-32.83-1.79,12.87-3.58,25.74-5.37,38.61,22.65,8.59,50.47,16.92,82.8,22.04,17.08,2.71,33.07,4.15,47.69,4.77"/>
  <g>
    <path class="cls-6" d="M171.94,262.07c-6.02-45.68,30.88-85.31,82.42-88.52,51.55-3.21,98.22,31.21,104.24,76.89,6.02,45.68-30.88,85.31-82.42,88.52-51.55,3.21-98.22-31.21-104.24-76.89"/>
    <path class="cls-6" d="M437.87,255.41c-6.74-2.44-20.62-6.64-38.74-6.22-18.74.43-32.38,5.58-38.77,8.4"/>
    <path class="cls-6" d="M438.77,242.37c4.71-46.66,50.64-77.61,102.59-69.11,51.95,8.5,90.23,53.21,85.52,99.87-4.71,46.66-50.64,77.61-102.59,69.11-51.95-8.5-90.23-53.21-85.52-99.87"/>
  </g>
  <g>
    <path class="cls-6" d="M284.19,281.9c5.32-11.93.18-26.63-11.47-32.84-11.65-6.21-25.41-1.57-30.73,10.36-5.32,11.93-.18,26.63,11.47,32.84,11.65,6.21,25.41,1.57,30.73-10.36Z"/>
    <path class="cls-4" d="M277.24,287.04c4.26-8.48.19-21.26-9.1-28.54-9.29-7.28-20.27-6.31-24.54,2.18-4.26,8.48-.19,21.26,9.1,28.54,9.29,7.28,20.27,6.31,24.54-2.18Z"/>
  </g>
  <path class="cls-6" d="M500.9,373.63c9.49-12.66,13.85-14.25,16.09-13.44,3.54,1.29,2.26,8.81,6.07,10.16,5.66,2.01,14.49-12.5,18.79-10.56,2.9,1.31.47,8.61,3.46,10.23,3.02,1.64,9.67-3.56,17.14-11.05"/>
  <g>
    <path class="cls-5" d="M586.54,435.1c22.26,20.67,44.51,41.34,66.77,62.01,3.07,15.69,6.14,31.37,9.21,47.06"/>
    <path class="cls-1" d="M660.91,541.2c-3.75,1.06-4.78,9.92-5.85,19.19-.84,7.28-1.36,12.29,1.54,15.01,2.1,1.98,5.43,2.21,7.93,1.03,3.68-1.74,4.94-6.25,6.08-10.34.66-2.36,1.81-6.46.93-11.32-1.3-7.21-6.79-14.66-10.63-13.57Z"/>
  </g>
  <g>
    <path class="cls-5" d="M305.58,474.7c-15.41,25.66-30.83,51.33-46.24,76.99-17.34,12.94-34.68,25.89-52.03,38.83"/>
    <path class="cls-3" d="M180.23,637.21c-2.61,3.69-5.23,7.38-7.84,11.07.17-4.55.34-9.1.51-13.65,7.54-20.21,15.08-40.42,22.63-60.63,1.97.84,3.93,1.68,5.9,2.52-7.06,20.23-14.13,40.46-21.19,60.69Z"/>
    <path class="cls-1" d="M211.64,590.04c-2.51-4.16-12.94-2.55-23.84-.86-8.56,1.32-14.43,2.31-16.52,6.66-1.52,3.16-.62,7.23,1.59,9.84,3.25,3.85,8.82,3.92,13.86,3.98,2.92.03,7.97.09,13.19-2.52,7.74-3.87,14.3-12.85,11.73-17.11Z"/>
  </g>
  <g>
    <path class="cls-6" d="M544.09,280.71c5.32-11.93.18-26.63-11.47-32.84-11.65-6.21-25.41-1.57-30.73,10.36-5.32,11.93-.18,26.63,11.47,32.84,11.65,6.21,25.41,1.57,30.73-10.36Z"/>
    <path class="cls-4" d="M537.14,285.85c4.26-8.48.19-21.26-9.1-28.54-9.29-7.28-20.27-6.31-24.54,2.18-4.26,8.48-.19,21.26,9.1,28.54,9.29,7.28,20.27,6.31,24.54-2.18Z"/>
  </g>
  <path class="cls-2" d="M434.98,766.88l2.37,55.81c-7.58.88-15.17,1.76-22.75,2.64"/>
  <path class="cls-5" d="M511.66,765.06c6.48,14.29,12.95,28.58,19.43,42.87-5.18,4.76-10.36,9.53-15.54,14.29"/>
</svg>