<?xml version="1.0" encoding="UTF-8"?>
<svg id="Layer_1" data-name="Layer 1" xmlns="http://www.w3.org/2000/svg" viewBox="0 0 666.24 730.91">
  <defs>
    <style>
      .cls-1 {
        fill: #fff6eb;
      }

      .cls-1, .cls-2, .cls-3, .cls-4, .cls-5, .cls-6 {
        stroke-miterlimit: 10;
      }

      .cls-1, .cls-2, .cls-3, .cls-5 {
        stroke-width: 4px;
      }

      .cls-1, .cls-3, .cls-4, .cls-5, .cls-6 {
        stroke: #1f3555;
      }

      .cls-2 {
        stroke: #1e3555;
      }

      .cls-2, .cls-5, .cls-6 {
        fill: none;
      }

      .cls-3, .cls-4 {
        fill: #1f3555;
      }

      .cls-4, .cls-6 {
        stroke-width: 3px;
      }
    </style>
  </defs>
  <path class="cls-6" d="M154.07,396.14c4.49-13.7,7.77-16.35,9.91-16.3,3.39.07,4.44,6.94,8.08,7,5.41.09,8.81-15.02,13.04-14.61,2.85.28,2.86,7.3,5.87,7.82,3.04.54,7.25-5.9,11.49-14.55"/>
  <path class="cls-5" d="M233.3,456.68c22.74,74.55,45.47,149.09,68.21,223.64,28.47.62,70.36-1.47,118.61-15.03,23.04-6.48,70.24-21.96,120.24-56.74,66.45-46.22,102.03-101.63,119.18-133.64-63.61-46.28-127.21-92.56-190.82-138.84"/>
  <path class="cls-6" d="M259.92,315.31c-1.26.79-8.71,5.59-10.28,14.65-1.09,6.29.71,14.36,6.63,18.24,7.9,5.16,22.43,2.39,31.27-9.28"/>
  <path class="cls-6" d="M320.26,390.23c1.92,5.61-.94,10.95-5.02,12.23-3.3,1.03-7.43-.6-9.22-3.28-2.66-4,.76-9.04-1.16-10.15-2.15-1.24-6.37,5.11-11.27,4.19-3.25-.61-5.85-4.22-5.98-7.7-.13-3.5,2.28-5.94,3.56-7.25,3.08-3.12,6.85-4,8.31-4.27"/>
  <path class="cls-5" d="M92.4,363.04c5.4,13.54,28.07,65.55,85.14,86.92,40.5,15.17,77.07,6.99,118.42-2.4,68.95-15.67,111.97-49.2,126.02-60.94,22.36-18.68,40.07-34.21,48.78-58.97,22.22-63.17-37.39-125.73-44.35-132.82"/>
  <path class="cls-5" d="M120.6,52.64c10.62-11.71,28.17-27.76,53.93-38.65,64.68-27.33,130.15-.55,150.71,7.85,20.83,8.52,26.75,14.23,134.66,105.24,58.74,49.54,74.85,62.93,101.93,79.75,40.42,25.11,77.17,40.43,101.91,49.45-3.2,9.76-8.8,23.16-18.87,37.43-10.47,14.83-21.95,25.2-30.54,31.86-13-2.96-26-5.93-39-8.89,7.55,7.9,15.09,15.8,22.64,23.7-2.6,7.34-6.29,15.82-11.59,24.8-8.97,15.2-19.37,26.44-27.8,34.18"/>
  <path class="cls-5" d="M100.66,122c2.12,10.62,3.52,24.74,1.16,41.06-5.67,39.33-29.4,65.76-40.08,76.32"/>
  <path class="cls-5" d="M125.38,102.5c23.25,4.86,51.35,8.85,83.38,9.65,51.17,1.27,94.44-6.09,126.22-14.04"/>
  <path class="cls-5" d="M79.46,77.3C49.91,105.83,12.39,151.4,3.27,212.02c-3.34,22.21-.71,32.05,15.8,131.35,15.18,91.28,23.86,117.99,25.33,170.48,1.02,36.5-1.69,66.5-4.11,86.01,8.01,3.61,20.8,8.23,37.26,9.51,20.86,1.62,37.56-2.89,46.75-6.08,1.77-11.68,3.54-23.35,5.31-35.03,3.25,11.39,6.5,22.77,9.75,34.16,22.88-2.05,48.56-5.63,76.32-11.63,21.1-4.56,40.42-9.88,57.83-15.43"/>
  <g>
    <path class="cls-6" d="M45.71,329.62c-21.73-35.92-5.87-82.37,35.43-103.74,41.3-21.37,92.39-9.56,114.12,26.36,21.73,35.92,5.87,82.37-35.43,103.74-41.3,21.37-92.39,9.56-114.12-26.36"/>
    <path class="cls-6" d="M262.4,227.67c-6.45.41-19.43,1.94-34.21,8.86-15.28,7.15-24.64,16.39-28.86,21.06"/>
    <path class="cls-6" d="M258.36,216.46c-13.24-40.64,13.24-83.11,59.17-94.85,45.92-11.74,93.88,11.68,107.13,52.33,13.24,40.64-13.24,83.11-59.17,94.85-45.92,11.74-93.88-11.68-107.13-52.33"/>
  </g>
  <g>
    <path class="cls-6" d="M145.49,305.48c0-11.88-9.62-22.29-21.51-23.24-11.88-.96-21.51,7.9-21.52,19.78,0,11.88,9.62,22.29,21.51,23.24,11.88.96,21.51-7.9,21.52-19.78Z"/>
    <path class="cls-4" d="M141.65,312.29c.4-8.62-7.65-17.81-17.97-20.51-10.33-2.71-19.02,2.09-19.42,10.71-.4,8.62,7.65,17.81,17.97,20.51,10.33,2.71,19.02-2.09,19.42-10.71Z"/>
  </g>
  <path class="cls-6" d="M357.73,303.45c3.17-14,6.18-16.91,8.32-17.05,3.39-.21,5.1,6.53,8.73,6.28,5.4-.37,7.35-15.68,11.61-15.63,2.87.04,3.55,7.01,6.61,7.28,3.09.27,6.67-6.47,10.07-15.44"/>
  <g>
    <path class="cls-5" d="M468.73,336.08c31.72,3.64,63.45,7.28,95.17,10.93,11.3,11.11,22.6,22.21,33.9,33.32"/>
    <path class="cls-1" d="M594.72,378.85c-2.89,3.14.94,11.08,4.95,19.39,3.15,6.52,5.37,10.97,9.52,11.47,3.01.36,6.21-1.45,7.88-3.93,2.46-3.66,1.19-8.14.04-12.21-.66-2.35-1.82-6.43-5.25-9.92-5.09-5.17-14.18-8.01-17.15-4.8Z"/>
  </g>
  <g>
    <path class="cls-5" d="M233.89,458.59c-3.28,27-6.56,54-9.84,81-9.54,17.09-19.08,34.17-28.62,51.26"/>
    <path class="cls-3" d="M190.24,639.61c-.8,4.03-1.6,8.05-2.4,12.08-1.53-3.86-3.06-7.72-4.59-11.57-1.2-19.6-2.41-39.19-3.61-58.79,1.93-.01,3.86-.02,5.79-.04,1.61,19.44,3.21,38.88,4.82,58.32Z"/>
    <path class="cls-1" d="M198.81,588.87c-3.59-2.56-11.6,2.56-19.96,7.92-6.57,4.21-11.05,7.16-11.17,11.55-.09,3.19,2.14,6.26,4.92,7.64,4.1,2.04,8.7.07,12.89-1.71,2.41-1.03,6.6-2.81,9.95-6.88,4.96-6.04,7.07-15.9,3.38-18.52Z"/>
  </g>
  <path class="cls-2" d="M438.41,659.22c4.74,22.43,9.47,44.86,14.21,67.28-8.5.8-16.99,1.61-25.49,2.41"/>
  <path class="cls-2" d="M528.04,614.46c16.39,20.76,32.79,41.51,49.18,62.27-3.62,8.08-7.23,16.17-10.85,24.25"/>
  <g>
    <path class="cls-6" d="M359.21,210.26c0-11.88-9.62-22.29-21.51-23.24-11.88-.96-21.51,7.9-21.52,19.78s9.62,22.29,21.51,23.24c11.88.96,21.51-7.9,21.52-19.78Z"/>
    <path class="cls-4" d="M355.37,217.08c.4-8.62-7.65-17.81-17.97-20.51-10.33-2.71-19.02,2.09-19.42,10.71-.4,8.62,7.65,17.81,17.97,20.51,10.33,2.71,19.02-2.09,19.42-10.71Z"/>
  </g>
</svg>