<?xml version="1.0" encoding="UTF-8"?>
<svg id="Layer_1" data-name="Layer 1" xmlns="http://www.w3.org/2000/svg" viewBox="0 0 1007.65 792.87">
  <defs>
    <style>
      .cls-1, .cls-2 {
        fill: #1f3555;
      }

      .cls-3 {
        fill: #fff6eb;
      }

      .cls-3, .cls-4, .cls-2, .cls-5, .cls-6 {
        stroke-miterlimit: 10;
      }

      .cls-3, .cls-4, .cls-2, .cls-6 {
        stroke-width: 4px;
      }

      .cls-3, .cls-2, .cls-5, .cls-6 {
        stroke: #1f3555;
      }

      .cls-4 {
        stroke: #1e3555;
      }

      .cls-4, .cls-5, .cls-6 {
        fill: none;
      }

      .cls-5 {
        stroke-width: 2px;
      }
    </style>
  </defs>
  <path class="cls-5" d="M.04,593.23c30.41,1.33,61.73,2.21,93.91,2.54,55.4.58,65.02-2.21,124.77-1.44,47.61.61,71.42.92,82.69,2.24-1.59-.19,13.91.55,44.98,2.04,10.7.51,18.81.92,28.38-2.55,10.49-3.81,17.48-10.37,21.5-14.92"/>
  <path class="cls-6" d="M521.58,180.88c-1.65-.49-14.78-4.11-25.93,4.11-10.06,7.42-11.1,19.05-11.55,23.55-1.44,14.55,6.35,24.85,8.55,27.67,3.73,4.77,11.25,14.4,22.46,14.01,6.9-.24,11.97-4.16,14.17-6.13-.03,15.93,2,42.39,15.02,71.41,0,0,8.75,19.51,21.67,35.73,42.19,52.96,214.78,96.77,298.73,4.1,11.3-12.47,37.78-45.95,42.73-107.11,1.77.95,4.52,2.18,8.08,2.73,2.51.39,6,.53,13.21-1.36,8.16-2.14,13.18-3.46,18.47-7.48,3.03-2.3,8.67-6.59,10.56-13.76,2.48-9.38-2.23-20.78-11.75-26.34-10.26-6-24.33-4.36-34.07,5.14"/>
  <path class="cls-6" d="M564.45,349.43c-30.5,97.4-61.01,194.8-91.51,292.2,31.05,15.67,69.08,30.89,113.75,41.17,150.26,34.58,278.82-9.06,335.9-32.76-24.5-93.23-49-186.46-73.49-279.69"/>
  <path class="cls-6" d="M640.36,68.07c-9.12,8.89-20.67,18.83-34.86,28.5-15.26,10.4-29.73,17.86-42.02,23.24"/>
  <path class="cls-6" d="M668.47,55.13c22.87,8.95,48.69,17.8,77.3,25.67,27.07,7.45,52.51,12.88,75.75,16.86"/>
  <path class="cls-6" d="M621.13,27.09c-14.11,1.22-31.74,4.87-49.35,14.52-61.57,33.76-66.22,109.88-66.59,118.06"/>
  <path class="cls-6" d="M498.72,259.68c-1.48,27.61-6.54,65.12-21.66,107.26-13.08,36.44-29.78,65.47-44.25,86.73,5.8,5.79,12.66,11.85,20.7,17.75,22.34,16.39,44.79,24.96,61.57,29.63"/>
  <path class="cls-6" d="M663.56,5.92c28.58-4.8,72.65-7.78,121.82,6.98,24.11,7.24,96.74,29.04,130.11,95.34,12.95,25.74,15.8,49.87,16.29,65.24"/>
  <path class="cls-6" d="M933.82,267.44c-1.15,14.5-1.34,34.66,2.99,58.16,2.6,14.09,6.36,33.64,18.23,55.73,14.41,26.8,34.13,44.98,49.71,56.45-4.09,4.93-10.39,11.41-19.42,17.39-8.21,5.44-16.01,8.68-21.91,10.65-4.82-11.97-9.64-23.93-14.45-35.9.28,15.8.56,31.59.84,47.39-5.52,1.13-12.58,3.24-20.07,7.34-3.42,1.88-6.39,3.87-8.92,5.8"/>
  <path class="cls-6" d="M711.15,346.09c6.94,1.89,19.84,4.41,35.33,1.4,24.75-4.82,39.19-20.47,43.52-25.56"/>
  <path class="cls-6" d="M748.58,345.61c5.41-6.67,8.92-12.53,11.17-16.76,2.94-5.52,4.43-9.59,7.75-10.03,2.89-.38,5.9,2.2,7.15,4.63,2.34,4.54-.07,11.34-6.51,16.39"/>
  <path class="cls-6" d="M722.64,238.45c-3.2.9-11.96,3.81-17.74,12.1-2,2.87-7.03,10.09-4.44,18.04,1.68,5.14,5.7,8,7.07,8.95,7.26,5.02,15.48,3.62,17.07,3.32"/>
  <g>
    <path class="cls-6" d="M522.33,183.79c-1.21-39.55,33.49-71.9,77.49-72.25,44-.36,80.65,31.41,81.86,70.95,1.21,39.55-33.49,71.9-77.49,72.25-44,.36-80.65-31.41-81.86-70.95"/>
    <path class="cls-6" d="M748.5,190.47c-5.51-2.41-16.92-6.67-32.34-7.15-15.93-.5-27.95,3.29-33.61,5.41"/>
    <path class="cls-6" d="M750.38,179.3c7.99-39.89,49.59-64.35,92.93-54.63,43.34,9.72,72,49.95,64.01,89.84-7.99,39.89-49.59,64.35-92.93,54.63-43.34-9.72-72-49.95-64.01-89.84"/>
  </g>
  <g>
    <path class="cls-6" d="M615.87,206.07c5.53-10.01,2.43-22.89-6.92-28.77-9.35-5.88-21.42-2.54-26.95,7.47-5.53,10.01-2.43,22.89,6.92,28.77,9.35,5.88,21.42,2.54,26.95-7.47Z"/>
    <path class="cls-2" d="M609.74,211.25c6.15-6.64,2.91-18.7-3.98-24.49-5.58-4.69-15.14-6.6-20.74-1.98-7.08,5.84-5.66,20.36,2.62,26.78,6.13,4.75,16.66,5.57,22.1-.31Z"/>
  </g>
  <g>
    <path class="cls-6" d="M563.92,350.83c-12.11,27.9-24.46,48.04-33.27,60.95-10.41,15.26-17.57,22.88-23.96,28.64-6.43,5.8-10.48,8.27-22.47,16.88-7.83,5.62-19.17,13.95-32.84,24.67"/>
    <g>
      <path class="cls-2" d="M424.2,519.9c-2.51,3.18-5.02,6.35-7.52,9.53.5-4.09,1-8.18,1.5-12.27,7.98-17.78,15.97-35.56,23.95-53.34,1.6.87,3.21,1.74,4.81,2.6-7.58,17.82-15.16,35.65-22.74,53.47Z"/>
      <path class="cls-3" d="M454.56,479.18c-1.81-3.89-10.79-3.03-20.18-2.12-7.37.71-12.44,1.27-14.55,5.07-1.54,2.76-1.1,6.47.58,8.96,2.46,3.66,7.18,4.03,11.46,4.37,2.47.2,6.76.53,11.4-1.52,6.88-3.05,13.14-10.76,11.29-14.75Z"/>
    </g>
  </g>
  <g>
    <path class="cls-6" d="M849.89,369.58c14.72,13.53,30.37,28.16,47.15,44.17,4.95,4.72,9.83,9.47,13.08,16.86,3.83,8.71,3.06,15.8.14,35.1-2.07,13.66-3.94,25.04-5.34,33.26"/>
    <path class="cls-3" d="M904.01,495.61c-5.55-.54-10.76,7.16-16.21,15.22-4.28,6.33-7.13,10.71-4.37,14.38,2.01,2.66,6.43,4.22,10.33,4.15,5.74-.11,9.4-3.73,12.71-7.02,1.91-1.9,5.23-5.19,6.14-10,1.34-7.13-2.92-16.17-8.61-16.73Z"/>
  </g>
  <path class="cls-1" d="M409.17,575.4c.56.08,1.42.15,2.48,0,2.65-.39,3.72-1.78,4.95-1.42,1.18.35,1.45,1.99,1.4,2.94-.05.97-.44,1.2-1.34,3.37-.96,2.3-.66,2.41-1.37,3.66-.68,1.2-1.53,2.7-3.13,3.28-1.77.65-3.59-.14-4.5-1.11-.9-.97-.4-1.6-1.09-3.23-1.02-2.4-2.55-2.1-3.62-4.29-1.04-2.14-.77-4.86.1-5.28.65-.31,1.3.82,3.65,1.58,1.01.33,1.91.45,2.47.5Z"/>
  <path class="cls-1" d="M402.37,559.49c.17-.35,1.4-2.86,2.63-2.71.53.07.71.59,1.79,2.41,1.76,2.98,2.41,3.48,2.1,4.31-.37,1.03-1.79,1.42-2.1,1.5-1.14.32-1.59-.11-3.58-.3-2.51-.24-3.25.3-4-.3-.47-.38-.92-1.18-.63-3.11"/>
  <path class="cls-4" d="M654.29,692.73c4.25,29.44,8.51,58.87,12.76,88.31-12.57,2.65-25.15,5.3-37.72,7.94"/>
  <path class="cls-4" d="M746.27,692.13c4.15,30.17,8.31,60.34,12.46,90.51-12.59,2.76-25.18,5.52-37.76,8.27"/>
  <g>
    <path class="cls-6" d="M839.15,211.73c5.53-10.01,2.43-22.89-6.92-28.77-9.35-5.88-21.42-2.54-26.95,7.47-5.53,10.01-2.43,22.89,6.92,28.77,9.35,5.88,21.42,2.54,26.95-7.47Z"/>
    <path class="cls-2" d="M833.03,216.91c6.15-6.64,2.91-18.7-3.98-24.49-5.58-4.69-15.14-6.6-20.74-1.98-7.08,5.84-5.66,20.36,2.62,26.78,6.13,4.75,16.66,5.57,22.1-.31Z"/>
  </g>
</svg>