<?xml version="1.0" encoding="UTF-8"?>
<svg id="Layer_1" data-name="Layer 1" xmlns="http://www.w3.org/2000/svg" viewBox="0 0 2656.33 1233.82">
  <defs>
    <style>
      .cls-1 {
        fill: none;
      }

      .cls-1, .cls-2, .cls-3 {
        stroke: #203555;
        stroke-miterlimit: 10;
        stroke-width: 6px;
      }

      .cls-2 {
        fill: #213555;
      }

      .cls-3 {
        fill: #fff6ea;
      }
    </style>
  </defs>
  <path class="cls-3" d="M1766.07,724.89c18-4.54,74.8-19.42,125.48-59.95,100.82-80.62,101.11-201.68,101.19-233.53.05-20.93-1.76-140.85-103.3-239.86-63.46-61.88-134.7-85.2-150.42-90.1-30.31-9.44-84.77-25.77-152.84-15.02-64.44,10.18-106.79,39.21-133.43,57.92-18.87,13.25-152.24,110.06-152.84,263.86-.29,73.67,30.01,129.24,46.1,158.74,19,34.85,41.02,75.24,89.76,109.4,62.68,43.94,131.02,50.58,184.38,55.77,37.17,3.61,85.8,7.92,145.93-7.24Z"/>
  <g>
    <path class="cls-2" d="M1671.43,240.63c-17.03,118.04-30.08,246.14-36.37,383.2-7.68,167.44-4.09,322.72,6.06,463.59,12.12-.89,24.25-1.79,36.37-2.68,1.24-32.79,2.77-83.17,3.03-144.71.53-123.91-4.4-215.26-6.06-249.22-4.56-92.94-8.24-236.31-3.03-450.2Z"/>
    <path class="cls-1" d="M1734.29,262.07c-2.63,7.98-9.95,26.16-29.52,41.99-17.96,14.53-37.06,19.66-46.2,21.56"/>
    <path class="cls-1" d="M1582.08,353.73c-.13,2.99-.72,27.4,21.82,44.26,20.05,15,43.53,12.9,47.49,12.48"/>
    <path class="cls-1" d="M1732.88,478.12c-3,7.43-9.45,20.15-23.1,31.77-21.36,18.2-46.35,21.8-55.19,22.7"/>
    <path class="cls-1" d="M1512.12,572.11c1.63,12.28,6.4,31.96,21.82,51.07,37.62,46.63,104.58,47.65,112.94,47.66"/>
  </g>
</svg>