<?xml version="1.0" encoding="UTF-8"?>
<svg id="Layer_1" data-name="Layer 1" xmlns="http://www.w3.org/2000/svg" viewBox="0 0 2656.33 1233.82">
  <defs>
    <style>
      .cls-1 {
        fill: none;
      }

      .cls-1, .cls-2, .cls-3 {
        stroke: #203555;
        stroke-miterlimit: 10;
        stroke-width: 6px;
      }

      .cls-2 {
        fill: #213555;
      }

      .cls-3 {
        fill: #fff6ea;
      }
    </style>
  </defs>
  <path class="cls-3" d="M1647.07,849.21c-45.09-7.43-94.83-15.63-128.46-58.34-27.97-35.53-47.16-97.94-20.07-145.86,21.42-37.89,62.18-49.75,68.32-51.43,31.3-8.6,62.19-1.33,62.15-.66-.06,1.03-76.29,14.88-115.39-24.72-25.67-26-30.22-69.87-22.59-102.78,1.85-7.95,10.82-42.9,42.17-66.51,30.63-23.06,64.37-21.55,95.61-20.16,31.41,1.4,63.69,9.56,63.36,12.58-.36,3.31-40.89,9.77-76.8-8.84-41.15-21.33-55.73-64.94-58.64-73.67-33.75-101,61.1-268.97,180.05-280.36,47.57-4.56,85.16,17.25,98.95,25.26,80.9,46.95,98.89,139.7,107.06,181.86,10.94,56.41.72,84.2-3.22,93.6-3.6,8.58-18.43,42.6-53.14,57.82-32.5,14.24-68.32,5.82-68.54,1.82-.22-3.91,33.09-13.04,66.84-8.44,9.97,1.36,36.01,5.22,59.69,23.59,57.26,44.42,48.15,132.87,46.23,151.55-2.68,26.05-4.91,47.7-21.09,62.3-34.07,30.77-104.81,7.55-104.54,2.11.18-3.74,34.34-7.37,66.33-.86,16.74,3.41,40.18,8.18,56.86,24.85,33.58,33.57,31.4,107.09-1.62,149.02-22,27.94-51.85,34.43-110.3,47.15-37.83,8.23-68.62,9.07-130.18,10.75-50.99,1.39-76.49,2.09-99.02-1.63Z"/>
  <g>
    <path class="cls-2" d="M1752.61,431.8c11.48,93.37,20.27,194.71,24.5,303.13,5.17,132.45,2.75,255.28-4.08,366.72-8.17-.71-16.34-1.41-24.5-2.12-.84-25.93-1.86-65.79-2.04-114.47-.36-98.02,2.96-170.28,4.08-197.14,3.07-73.52,5.55-186.93,2.04-356.12Z"/>
    <path class="cls-1" d="M1710.26,448.77c1.77,6.31,6.7,20.69,19.89,33.21,12.1,11.49,24.97,15.55,31.13,17.06"/>
    <path class="cls-1" d="M1812.82,521.27c.09,2.37.49,21.67-14.7,35.01-13.51,11.87-29.33,10.2-32,9.87"/>
    <path class="cls-1" d="M1711.21,619.67c2.02,5.88,6.37,15.94,15.57,25.14,14.39,14.39,31.23,17.24,37.18,17.95"/>
    <path class="cls-1" d="M1859.95,694.02c-1.1,9.72-4.32,25.28-14.7,40.4-25.35,36.88-70.47,37.7-76.1,37.7"/>
  </g>
</svg>