<?xml version="1.0" encoding="UTF-8"?>
<svg id="Layer_1" data-name="Layer 1" xmlns="http://www.w3.org/2000/svg" viewBox="0 0 2656.33 1233.82">
  <defs>
    <style>
      .cls-1 {
        fill: none;
      }

      .cls-1, .cls-2, .cls-3 {
        stroke: #203555;
        stroke-miterlimit: 10;
        stroke-width: 6px;
      }

      .cls-2 {
        fill: #213555;
      }

      .cls-3 {
        fill: #fff6ea;
      }
    </style>
  </defs>
  <path class="cls-3" d="M1787.16,984.11c-118.08-66.14-165.75-202.25-170.07-215.12-58.36-173.76-13.62-327.37,5.55-389.99,30.59-99.94,85.97-201.97,118.31-261.54,21.01-38.7,39.91-70.5,53.61-92.86,16.51,21.31,38.08,50.67,61,86.67,72.94,114.51,106.63,213.01,120.16,256.9,24,77.82,55.58,184.09,38.82,318.8-4.16,33.48-9.83,56.79-11.09,61.9-25.81,104.61-97.63,248.91-177.47,247.61-15.14-.25-26.84-5.67-38.82-12.38Z"/>
  <g>
    <path class="cls-2" d="M1815.45,344.01c-8.14,105.81-14.37,220.64-17.37,343.5-3.67,150.09-1.95,289.28,2.9,415.56,5.79-.8,11.58-1.6,17.37-2.4.59-29.39,1.32-74.55,1.45-129.71.25-111.07-2.1-192.96-2.9-223.39-2.18-83.31-3.93-211.82-1.45-403.55Z"/>
    <g>
      <path class="cls-1" d="M1713.5,549.79c1.11,11.43,4.35,29.75,14.83,47.53,25.56,43.4,71.08,44.35,76.76,44.36"/>
      <path class="cls-1" d="M1748.19,457.95c.78,11.01,3.06,28.65,10.42,45.78,17.97,41.79,49.96,42.72,53.96,42.72"/>
      <path class="cls-1" d="M1775.96,359.8c.46,8.6,1.82,22.38,6.2,35.75,10.69,32.64,29.71,33.36,32.09,33.37"/>
      <path class="cls-1" d="M1687.13,641.9c1.31,11.16,5.14,29.04,17.5,46.41,30.17,42.37,83.89,43.3,90.59,43.31"/>
    </g>
    <g>
      <path class="cls-1" d="M1903.47,631.1c-1.82,11.18-6.2,28.83-17.74,44.7-28.16,38.73-73.48,31.8-79.13,30.82"/>
      <path class="cls-1" d="M1874.75,533.76c-1.47,10.82-4.85,27.96-13.25,43.72-20.5,38.45-52.38,33.83-56.35,33.15"/>
      <path class="cls-1" d="M1853.3,431.33c-1,8.47-3.22,21.94-8.41,34.48-12.68,30.61-31.65,28.03-34.01,27.63"/>
      <path class="cls-1" d="M1923.9,727.28c-2.01,10.87-6.94,28-20.32,43.12-32.67,36.91-86.15,28.54-92.82,27.39"/>
    </g>
  </g>
</svg>