<?xml version="1.0" encoding="UTF-8"?>
<svg id="Layer_1" data-name="Layer 1" xmlns="http://www.w3.org/2000/svg" viewBox="0 0 2656.33 1233.82">
  <defs>
    <style>
      .cls-1, .cls-2, .cls-3, .cls-4 {
        stroke-miterlimit: 10;
        stroke-width: 5px;
      }

      .cls-1, .cls-2, .cls-4 {
        fill: none;
      }

      .cls-1, .cls-3 {
        stroke: #1e3555;
      }

      .cls-2 {
        stroke: #203555;
      }

      .cls-3 {
        fill: #2d466b;
      }

      .cls-4 {
        stroke: #1f3555;
      }
    </style>
  </defs>
  <g>
    <path class="cls-1" d="M1269.78,61.73c-64.81,15.58-135.02,30.53-210.91,44.3-45.08,8.18-90.2,15.6-135.29,22.31,6.55,91.14,13.9,182.98,22.08,275.42,11.52,130.16,24.28,256.7,38.08,379.52,53.82-19.6,98.08-36.98,130.93-50.27,54.02-21.86,84.09-34.11,123.66-54.18,35.95-18.24,64.86-35.4,84.64-47.74-10.4-93.04-20.22-188.58-29.35-286.58-8.86-95.13-16.79-189.44-23.83-282.77Z"/>
    <path class="cls-1" d="M921.02,127.6c-7.35,6.75-15.1,13.64-23.28,20.62-6.61,5.64-13.14,11.04-19.57,16.2,7.24,101.46,12.53,183.68,16.01,239.8,5.79,93.41,8.1,139.28,14.95,205.84,7.91,76.86,17.41,137.87,24.06,176.76,7.76-1,16.02-1.76,24.68-2.14,8.33-.36,16.05-.33,23.13-.02"/>
    <path class="cls-3" d="M1048.24,762.09c-13.55,119.29-27.2,239.42-40.94,360.4,9.62-6.41,20.57-13.11,32.66-19.49,10.84-5.72,20.79-10.24,29.66-13.82,7.37-63.02,14.43-126.42,21.14-190.2,5.72-54.32,11.08-107.91,16.1-160.78-19.34,7.88-38.88,15.85-58.62,23.89Z"/>
    <path class="cls-3" d="M962.8,788.57c-12.28,50.17-25.96,102.54-41.23,157.08-14.75,52.67-30.06,104.13-45.76,154.25,11.22-5.37,23.6-10.74,36.95-15.69,13.04-4.84,24.97-8.51,35.65-11.33,14.7-49.88,29.05-100.79,42.92-152.65,14.17-52.99,27.1-104.18,38.91-153.55-7.82,3.58-16.36,7.12-25.55,10.4-15.45,5.5-29.55,9.11-41.89,11.5Z"/>
    <path class="cls-3" d="M1213.02,694.11c11.05,43.11,23.93,87.71,38.98,133.13,13.85,41.78,28.24,80.37,42.74,115.85,6.93-2.74,14.96-6.42,23.78-11.42,9.01-5.11,16.88-10.49,23.47-15.46-12.11-35.51-24.03-73.19-35.55-113.07-13.54-46.87-25.47-93.05-35.96-138.12-18.95,9.6-38.11,19.29-57.46,29.09Z"/>
    <path class="cls-3" d="M1057.24,57.18c17.05-6.6,33.94-13.14,50.69-19.62.88,19.22,1.77,38.44,2.65,57.64-16.29,3.2-32.72,6.42-49.29,9.67-1.35-15.89-2.7-31.79-4.05-47.7Z"/>
  </g>
  <g>
    <path class="cls-1" d="M955,233.08c.62-9.02,1.6-17.96,3.16-18.33,1.58-.38,3.11,8.28,3.64,11.27,3.96,22.45,30.58,303.79,49.5,506.06"/>
    <path class="cls-1" d="M963.13,232.87c.21-1.99,3.8-34.01,16.72-43.05,8.51-5.95,16.29,1.86,18.35,3.95,17.79,17.94,20.19,75.11,23.8,133.53,4.18,67.62,11.94,133.46,16.64,200.49,3,42.69,7.75,105.86,14.81,182.97"/>
    <g>
      <path class="cls-4" d="M1070.19,210.56c14.3,221.97,24.94,374.31,30.54,420.68,1,8.3,4.34,33.92-2.04,49.81-4.05,10.09-12.37,17.15-19.5,11.84-5.65-4.21-8.05-14.3-8.71-17.36"/>
      <path class="cls-4" d="M1070.58,217.96c-.41-7.89-1.34-18.63-3.63-27.01-5.49-20.07-15.37-12.7-20.63-.83-10.55,23.82-14.37,92.85-5.13,136.62,6.07,28.76,15.31,34.81,16.97,35.9,12.47,8.17,20.05-21.56,21.03-25.56"/>
    </g>
    <path class="cls-4" d="M1078.84,144.46c8.25,94.83,16.22,190.64,23.9,287.44,6.49,81.85,12.63,162.7,18.43,242.53"/>
    <path class="cls-1" d="M1103.15,435.25c.19-1.93,3.53-32.99,15.55-42.35,7.92-6.17,15.15.98,17.07,2.89,16.56,16.42,18.79,71.46,22.15,127.65,3.45,57.59,7.47,102.08,9.27,127.7"/>
    <path class="cls-4" d="M1151.85,203.83c10.88,186.48,20.19,323.73,24.02,367.51.92,10.54,3.26,35.28,12.51,46.44,1.64,1.98,9.29,11.2,16.57,2.05,5.08-6.39,8.25-19.53,8.23-33.69"/>
    <path class="cls-4" d="M1212.57,192.82c1.9-7.21,8.81-31.58,20.28-35.52,7.1-2.44,12.76,4.06,14.73,6.32,22.81,26.18,29.39,161.58,32.42,262.31,1.13,37.4,2.36,89.76,2.71,153.06-4.49,7.28-12.05,17.84-22.2,24.13-6.27,3.89-26.55,16.44-41.54-6.62-17.67-27.19-20.99-92.99-7.12-134.57,11.51-34.51,31.04-40.78,37.77-42.94,13.83-4.44,24.72,2.35,30.38,6.94"/>
    <path class="cls-2" d="M1138.05,184.35c3.47-7.72,6.08-8.77,7.84-8.25,3,.9,3.94,6.52,7.87,7.17.96.16,3.18.46,5.26-2.86,1.85-2.94,2.61-7.17,2.88-9.01"/>
  </g>
</svg>