<?xml version="1.0" encoding="UTF-8"?>
<svg id="Layer_1" data-name="Layer 1" xmlns="http://www.w3.org/2000/svg" viewBox="0 0 2656.33 1233.82">
  <defs>
    <style>
      .cls-1 {
        stroke: #203555;
      }

      .cls-1, .cls-2, .cls-3, .cls-4, .cls-5 {
        stroke-miterlimit: 10;
        stroke-width: 6px;
      }

      .cls-1, .cls-4 {
        fill: none;
      }

      .cls-2 {
        fill: #2d466b;
        stroke: #1e3555;
      }

      .cls-3 {
        fill: #d78928;
        stroke: #e8aa45;
      }

      .cls-4, .cls-5 {
        stroke: #1f3555;
      }

      .cls-5 {
        fill: #1f3555;
      }
    </style>
  </defs>
  <path class="cls-1" d="M1596.1,390.98c-1.79-11.54-7.3-39.18-25.29-63.98-36.96-50.95-90.97-40.49-94.41-39.75-4.12.89-56.13,13.46-67.4,80.41-1.01,6-10.15,66.15,28.15,119.31,37.15,51.56,86.66,48.37,97.71,47.13,16.45-1.85,28.78-8.52,36.44-13.74"/>
  <path class="cls-1" d="M1544.64,495.43c3.18,2.83,7.97,6.45,14.12,8.86,8.36,3.28,15.24,2.75,19.13,2.04-3.66,6.58-5.9,12.66-7.28,17.05-2.83,9.01-4.51,14.29-3.03,20.91,1.77,7.91,6.69,12.29,7.37,12.88,7.49,6.47,16.09,2.68,20.64.67,5.16-2.28,8.72-5.76,10.74-8.05"/>
  <path class="cls-1" d="M1624.69,504.2c-3.69,7.59-7.83,16.85-11.99,27.79-5.07,13.3-7.4,22.22-9.94,31.85-5.56,21.09-5.52,27.97-3.54,34.12.52,1.61,2.27,6.6,5.9,10.27,9.14,9.23,22.84,2.6,31.03-.97,19.65-8.56,45.63-19.47,57.69-24.19,13.87-5.43,26.74-13.52,39.68-19.94.27-.13,3.12-1.55,6.29-4.84,1.78-1.84,8.09-8.38,7.08-13.47-.92-4.62-7.59-6.63-12.15-6.09-5.8.69-11.21,5.88-13.9,13.84-1.32,3.92-1.69,7.65-1.8,10.06"/>
  <path class="cls-1" d="M1469.98,1004.68c-3.66-2.53-11.04-6.51-21.31-4.94-3.88.6-18.15,2.79-26.28,16.66-1.28,2.18-5.88,10.03-4.62,17.07,1.8,10.1,14.37,11.56,24.99,12.61,6.73.67,20.87,1.28,43.87-5.94,13.85-4.35,25.94-8.29,39.78-19.65,16.38-13.46,20-24.92,20.91-28.2.98-3.52,1.51-7.17,1.57-11.3.39-24.73-16.11-51.26-18.14-54.54,0,0-22.74-36.79-35.38-82.42-2.57-9.28-9.54-36.29-9.08-66.1,1.11-72.54,45.23-133.92,54.92-128.54,3.48,1.93,0,10.83,4.14,46.18.15,1.28,2.67,22.13,9.79,47.71,5.88,21.12,8.14,21.18,8.73,21.03,3.33-.8,4.4-19.84,4.6-23.43.37-6.63.34-15.71.33-16.84-.05-11.31-.1-14.98.66-15.23,1.42-.46,4.58,11.14,5.77,15.55,2.51,9.28,5.56,22.28,7.98,38.7"/>
  <path class="cls-1" d="M1575.22,724.36c-.16-1.63-.26-3.98.09-6.74.24-1.9.95-7.6,4.33-11.93,5.13-6.57,12.35-4.85,12.69-4.77,6.38,1.66,9.67,9.03,11.5,13.13,5.78,12.94,5.08,27.87,4.98,27.89-.09.02-1.92-11.31-.31-24.14.77-6.18,1.62-12.4,5.49-16.8.22-.25,5.54-6.13,10.85-3.83,4.77,2.07,6.8,9.58,7.59,12.52,7.28,26.99-1.42,103.44-2.01,108.82-2,17.98-6.51,59.29-2.84,97.69,2.69,28.18,5.45,57.11,16.86,59.29,11.17,2.13,27.57-22.06,40.91-41.75,5.89-8.7,13.98-23.56,24.78-28.87,2.41-1.18,7.35-3.51,10.52.15.17.19,2.61,3.11,2.57,8.1-.06,7.37-5.51,11.2-10.89,21.91-1.86,3.7-9.04,17.9-6.94,24.51,3.1,9.75,23.52,1.04,40.11-6.04,12.56-5.36,22.68-11.17,29.72-15.58"/>
  <path class="cls-1" d="M1467.74,770.29c10.35-7.91,21.85-15.87,34.44-23.33,17.69-10.49,33.83-17.8,47.75-22.97"/>
  <path class="cls-1" d="M1518.74,639.2c3.47-.12,8.3-.93,13.03-4.34,6.28-4.53,8.1-10.59,11.34-9.72,3.17.85,2.98,7.09,7.69,12.94,3.36,4.17,7.34,5.82,10.13,6.56"/>
  <path class="cls-1" d="M1596.38,490.22c3.47-1.69,5.73-1.43,7.16-.86,2.44.98,2.81,2.99,6.02,4.1.79.27,2.6.87,4.56.27,1.73-.52,2.66-1.7,3.02-2.23"/>
  <path class="cls-4" d="M1629.96,505.28c1.59,2.6,2.16,5.69,1.4,7.6-1.07,2.7-4.85,3.24-8.11-.32"/>
  <g>
    <path class="cls-1" d="M1473.3,520.44c1.27,9.4,4.16,21.75,11.32,33.15,10.26,16.33,23.87,22.08,22.99,25.22-.73,2.62-10.98.93-20.93-3.24-21.66-9.07-33.9-26.43-36.53-23.64-1.38,1.46,1.42,6.84,5.81,18.31,6.75,17.65,11.13,29.1,11.18,38.28.1,18.44-17.52,32.27-24.75,37.93-24.69,19.35-52.44,18.53-87.33,17.51-18.51-.54-40.63-1.36-69.66-10.44-21.31-6.67-57.1-18.36-86.29-52.35-22.52-26.23-22.4-43.65-22.15-48.37.63-11.89,5.78-20.75,9.52-25.89"/>
    <g>
      <g>
        <path class="cls-2" d="M1153.51,568.62c8.97-6.68,21.32-16.17,35.41-27.95,15.1-12.63,28.31-23.67,43.65-39.25,14.77-15.01,30.65-28.19,44.82-42.69,4.19-4.29,12.03-12.41,19.41-9.45,3.61,1.45,6.99,5.5,7.98,9.77,2.17,9.31-7.99,17.55-25.02,32.71-10.53,9.37-20.26,20.06-31.61,29.02-17.19,13.57-42.95,35.1-81.48,70.69-4.37-7.57-8.76-15.19-13.17-22.84Z"/>
        <path class="cls-3" d="M1145.61,568.09c-1.69-.33-9.32-1.87-15.48,2.31-6.39,4.35-4.52,10.07-10.87,23.31-2.46,5.12-6.17,12.7-13.37,19.12-7.85,7-16.74,9.88-22.39,11.19,3.62,2.18,8.82,4.92,15.4,7.13,5.1,1.71,14.44,4.71,25.67,3.76,6.6-.56,21.31-3.12,32.14-15.14,4.07-4.52,13.74-15.26,10.67-29.2-2.19-9.95-10.57-20.27-21.78-22.48Z"/>
      </g>
      <path class="cls-2" d="M1079.13,623.51c8.57-1.81,14.68-4.91,18.34-7.14,4.94-2.99,7.6-4.61,10.21-7.9,2.51-3.17,3.15-5.59,5.42-5.89,3.33-.44,5.09,4.37,8.36,3.98,3.49-.41,3.65-6.17,7.17-6.51,2.32-.22,5.22,1.99,6,4.38,1.04,3.24-1.91,6.51-.21,8.3.13.13.42.44.89.56,1.75.42,2.87-2.66,5.19-3.96,3-1.68,7.81-.24,10.76,2.26,3.37,2.85,5.12,7.72,3.73,11.39-.84,2.23-2.83,3.48-6.82,5.97-1.13.71-4.5,2.79-8.46,4.25-17.13,6.31-36.01,1.8-36.01,1.8-11.03-2.64-19.32-7.64-24.56-11.5Z"/>
    </g>
    <path class="cls-1" d="M1206.57,559.12c1.58.57,10.13,3.51,17.91-.97,8.54-4.91,11.88-16.19,8.83-25.39-4.22-12.7-19.49-17.87-30.28-16.17-9.88,1.56-15.45,8.78-17.14,11.18"/>
  </g>
  <path class="cls-2" d="M1489.92,283.31c.54-7.98,1.08-15.94,1.62-23.9-5.26-2.48-13.37-6.73-23-13.63-15.12-10.84-24.43-17.52-28.72-29.45-5.42-15.07.94-27.91,2.33-30.5,6.54-12.19,18.55-12.75,25.34-13.07,12.66-.6,23.3,5.1,28.48,7.95,18.66,10.27,31.16,27.2,36.8,35.75,3.55-.64,8.76-1.48,15.08-2.13,19.43-1.98,28.92-2.94,40.77,2,6.74,2.81,17.52,7.32,25.88,20.88,1.57,2.54,9.28,15.07,8.72,28.38-.57,13.45-9.23,19.23-14.76,22.92-13.64,9.11-29.2,5.11-36.79,2.41-.26,5.71-.44,11.63-.54,17.74-.07,4.2-.09,8.33-.08,12.39-9-7.82-22.22-17.8-39.12-25.67-16.72-7.78-31.32-10.84-42-12.07Z"/>
  <path class="cls-4" d="M1448.73,352.38c1.98,2.1,5.36,5.17,9.95,7.19,9.19,4.04,16.48.89,18.4-.05"/>
  <path class="cls-4" d="M1566.56,378.14c-1.38-2.23-3.82-5.62-7.52-8.39-7.52-5.66-14.63-4.57-16.55-4.19"/>
  <g>
    <path class="cls-4" d="M1505.22,475.25c3.94,1.48,11.21,3.6,19.88,2.35,13.62-1.95,21.51-10.9,23.86-13.81"/>
    <path class="cls-4" d="M1526.28,476.53c3.03-3.9,5-7.37,6.27-9.87,1.64-3.26,2.49-5.7,4.3-5.81,1.57-.09,3.19,1.63,3.85,3.17,1.24,2.89-.11,6.95-3.64,9.77"/>
  </g>
  <path class="cls-5" d="M1459.24,369.48c-.23-2.64.69-4.96,2.05-5.17s2.64,1.75,2.87,4.39c.23,2.63-.69,4.95-2.04,5.17s-2.65-1.74-2.88-4.38Z"/>
  <path class="cls-5" d="M1545.78,384.28c-.2-2.48.6-4.66,1.8-4.87s2.33,1.62,2.53,4.09-.6,4.65-1.79,4.87-2.33-1.61-2.54-4.08Z"/>
</svg>