<?xml version="1.0" encoding="UTF-8"?>
<svg id="Layer_1" data-name="Layer 1" xmlns="http://www.w3.org/2000/svg" viewBox="0 0 2656.33 1233.82">
  <defs>
    <style>
      .cls-1 {
        fill: none;
      }

      .cls-1, .cls-2 {
        stroke: #203555;
        stroke-miterlimit: 10;
        stroke-width: 8px;
      }

      .cls-2 {
        fill: #fff6ea;
      }
    </style>
  </defs>
  <path class="cls-2" d="M1612.59,1035.41c-41.76,1.84-119.55,4.7-203.82-18.91-120.77-33.85-168.17-97.79-184.78-120.2-46.76-63.08-33.06-115.37-18.03-135.88,5.01-6.83,15.51-21.15,40.56-27.44,14.11-3.54,27.7-3.25,36.05-2.61-6.67-11.7-15.79-28.76-24.79-49.65-19.41-45.07-32.54-75.57-29.29-112.36,2.64-29.93,7.44-84.3,72.11-108.44,16.09-6.01,54.73-17.18,101.4-13.07,18.05,1.59,32.25,5.02,41.55,7.75-1.48-8.39-3.5-20.53-5.49-35.18-4.69-34.54-9.06-66.69-6.76-101.91.95-14.58,2.78-40,13.39-71.09,15.36-45,35.88-105.14,117.41-140.11,19.56-8.39,59.13-25.37,103.73-20.49,12.57,1.37,57.02,7.93,101.22,61.85,76.7,93.56,68.45,226.97,60.84,287.43,8.15-5.2,20.95-12.64,38.56-20.15,24.48-10.44,52.81-22.52,80.93-21.15,39.61,1.93,64.7,29.87,74.09,40.31,57.55,64.06-11.76,147.56-29.64,167.87,9.92-2.48,28.3-6.03,49.02-3.3,30.26,3.99,47.05,18.95,54.71,25.78,24.72,22.02,67.7,103.14,3.42,198.93-78.33,116.72-280.86,202.97-486.4,212.02Z"/>
  <g>
    <path class="cls-1" d="M1631.53,372.62c35.59,87.08,68.9,190.74,89.97,309.01,22.52,126.42,25.9,240.58,20.73,337.31"/>
    <path class="cls-1" d="M1844.63,567.5c5.32,24.5,8.99,62.35-5.16,107.1-22.73,71.9-78.3,119.94-105.9,141"/>
    <path class="cls-1" d="M1476.25,633.23c15.72,25.61,43.24,61.9,90.85,97.19,61.98,45.95,128.92,68.64,169.55,79.67"/>
    <path class="cls-1" d="M1506.27,862.84c11.55,19.14,28.92,42.03,55.37,64.88,62.41,53.92,139.51,76.61,180.91,86.12"/>
    <path class="cls-1" d="M1951.28,737.35c-2.93,31.26-13.07,80.28-48.94,134.74-49.29,74.84-121.12,120.36-159.8,141.75"/>
  </g>
</svg>