<?xml version="1.0" encoding="UTF-8"?>
<svg id="Layer_1" data-name="Layer 1" xmlns="http://www.w3.org/2000/svg" viewBox="0 0 2656.33 1233.82">
  <defs>
    <style>
      .cls-1 {
        stroke: #1e3555;
      }

      .cls-1, .cls-2, .cls-3, .cls-4 {
        stroke-miterlimit: 10;
        stroke-width: 6px;
      }

      .cls-1, .cls-2, .cls-4 {
        fill: none;
      }

      .cls-2, .cls-3 {
        stroke: #203555;
      }

      .cls-3 {
        fill: #203555;
        opacity: .4;
      }

      .cls-4 {
        stroke: #1f3555;
      }
    </style>
  </defs>
  <g>
    <path class="cls-2" d="M1655.93,116.13c-7.55-15.31-21.89-39.25-46.48-56.36-10-6.96-64.22-42.45-122.76-2.84-42.34,28.65-71.48,86.6-73.74,146.47-2.52,66.71,29.51,109.76,34.79,116.62"/>
    <path class="cls-2" d="M1510.06,339.54c.07-9.87-4.41-18.68-11.18-22.14-6.77-3.46-14.57-.92-18.89,5.35-1.01,1.47-4.92,7.62-3.25,24.27,3.05,30.56,20.27,49.38,18.13,52.21-1.97,2.62-17.12-12.99-19.24-15.18-18.88-19.57-26.02-34-29.32-31.7-3.14,2.18.56,17.17,2.25,31.65,3.63,31.13-2.5,55.37-8.99,81.02-13.65,53.96-39.28,83.17-56.14,101.88-19.02,21.09-35.59,39.49-58.12,35.6-11.35-1.96-30.54-10.63-32.13-22.9-.54-4.14,1.06-7.46,1.42-8.21,5.31-11.03,21.63-4.64,33.57-1.77,12.77,3.07,31.3,4.69,55.26-2.72"/>
    <path class="cls-2" d="M1534.48,353.29c5.35,2.44,11.38,4.47,18.05,5.66,35.63,6.34,65.98-15.57,78.96-26.39-12.83-1.18-26.17-2.9-39.9-5.3-10.31-1.8-20.06-3.85-29.26-6.06"/>
    <path class="cls-2" d="M1607.95,349.01c-2.76,2.64-8.32,8.72-11.41,18.87-.99,3.25-5.27,17.32-.65,25.69,6.63,12,28.54,6.54,43.23,2.88,13.92-3.47,34.49-10.81,58.16-27.98"/>
    <path class="cls-2" d="M1722.76,341.53c-21.76,20.75-36.34,40.84-45.55,55.25-12.56,19.66-25.89,41-31.6,72.74-3,16.65-6.13,35.37,2.06,55.09,7.42,17.89,20.26,27.29,24.48,30.29,17.93,12.76,36,12.19,45.05,11.9,59.82-1.91,174.2-74.89,180.85-79.17"/>
    <path class="cls-2" d="M1497.78,528.73c-5.7,23.54-13.54,58.67-20.58,102.02-5.5,33.82-5.21,40.09-10.87,80.36-11.67,83.14-17.54,124.81-33.68,149.38-3.9,5.94-20.82,30.62-50.39,39.81-11.48,3.57-35.98,11.86-55.16-8.31-3.18-3.35-12.2-12.83-13.06-24.57-.49-6.74,1.71-13.91,5.84-15.45,6.44-2.4,14.7,10.03,22.65,18.6,10.26,11.06,26.33,22.49,51.95,24.12"/>
    <path class="cls-2" d="M1461.76,528.64c.22-8.58,1.53-24.83,9.04-41.27,2.26-4.95,14.59-31.94,40.22-38.18,30.03-7.31,54.7,19.23,61.71,26.76,6.51,7,28.1,30.93,31.76,69.83.44,4.68,4.02,48.65-20.22,73.09-3.63,3.66-11.66,11.52-24.25,12.91-22,2.42-39.32-17.07-42.22-20.43"/>
    <path class="cls-2" d="M1501.84,608.61c.59,20.86-.92,36.86-2.39,47.55-2.03,14.74-7.1,42.09-9.76,56.47,0,0,0,.02,0,.03-.78,4.33-.51,8.79-.2,8.89.4.14.42-7.07,2.28-15.48.55-2.5,3.54-14.84,12.13-25.85,3.89-4.99,6.92-8.75,12.26-9.91,1.73-.37,8.63-1.79,14.58,4.23,5.79,5.85,6.85,14.85,7.11,17.06.96,8.1-1.64,10.51-4.22,26.23-1.62,9.83-2.39,14.78-.76,16.8,2.01,2.49,7.87,2,25.64-12.72"/>
    <path class="cls-2" d="M1649.97,707.6c3.42,3.99,9.27,9.96,17.49,14.47,7.25,3.98,22.11,12.13,32.97,3.79,8.77-6.73,11.32-21.4,7.95-34.16-4.92-18.63-20.57-26.24-23.26-27.53-16.57-7.99-29.95.95-31.81,2.24-.84,7.98-2.19,20.37-4.05,35.41-6.19,50.2-12.36,84.56-15.02,100.4-16.61,98.98-27.62,164.57.6,205.31,6.15,8.87,19.87,24.89,38.15,37.79,6.41,4.52,17.57,9.52,40.31,19.7,15.05,6.74,20.85,8.73,25.72,5.83,5.67-3.38,8.99-12.73,5.67-22.12-4.25-12.03-17.12-17.73-20.06-19.04-12.92-5.73-19.68-.13-36.78,2.26-7.25,1.01-17.81,1.65-31.44-.42"/>
    <g>
      <path class="cls-4" d="M1610.66,688.99c-.52-4.18-2.15-14.37-7.54-22.26-.54-.8-9.07-12.81-20.92-8.1-11.47,4.56-20.96,22.82-22.6,42.93-1.74,21.34,6.13,35.34,6.8,36.49,1.59,2.73,6.68,10.64,14.95,11.57,11.71,1.32,20.15-12.4,21.41-14.52l7.9-46.12Z"/>
      <path class="cls-4" d="M1614.37,673.12c-4.82,23.96-8.29,43.97-10.71,58.97-1.95,12.08-3.43,21.34-.71,24.96,3.85,5.13,13.43-4.58,14.78-5.97"/>
    </g>
    <path class="cls-4" d="M1984.08,365.83c-6.02-11.37-17.66-29.65-38.12-44.89-29.62-22.06-59.69-24.24-71.88-24.39-7.7,15.62-16.81,32.28-27.59,49.39-15.02,23.85-30.13,43.6-43.93,59.64,7.05,2.16,16.73,5.52,27.96,10.7,12.19,5.62,24.89,11.48,37.92,22.28,8.6,7.12,22.06,20.31,33.56,42.46,3.99-.65,9.88-1.32,17.05-1.13,26.38.71,46.37,12.53,59.76,20.67,40.23,24.44,65.85,61.68,76.74,79.23"/>
    <path class="cls-4" d="M1914.59,460.33c10.14-13.19,21.99-27.37,35.81-42.04,14.3-15.19,28.54-28.61,42.13-40.4,10.79-.45,22.19-.01,34.12,1.63,89.03,12.26,149,82.86,172.77,114.63-15.22,9.53-30.52,18.94-45.89,28.2-26.02,15.68-51.16,30.29-75.42,43.93"/>
    <path class="cls-4" d="M1827.13,417.44c-9.27,13.64-18.44,27.13-27.52,40.49,8.2.06,17.09.59,26.6,1.81,29.4,3.77,54.84,12.85,74.88,22.24"/>
    <path class="cls-4" d="M1825.02,459.69c-3.55,3.37-8.11,8.46-12.14,15.61-3.34,5.93-5.33,11.52-6.54,15.91,10.3-3.79,23-7.45,37.91-9.69,21.68-3.26,41.1-2.51,56.34-.69"/>
    <path class="cls-4" d="M1896.79,479.4c9.6,10.45,20.97,24.8,31.42,43.46,16.15,28.84,23.25,55.7,26.6,74.13,6.45-2.5,14.75-6.5,23.41-12.94,8.7-6.47,15.02-13.37,19.4-18.97"/>
    <path class="cls-4" d="M1900.59,480.83c25.23,15.15,44.83,30.29,58.75,42.11,15.87,13.47,24.93,23.08,33,35.16,7.38,11.04,11.97,21.2,14.8,28.5,4.89-2.49,10.74-6.05,16.73-11.13,7.63-6.47,12.93-13.25,16.5-18.68"/>
    <path class="cls-4" d="M1731.14,340.44c2.69,4.09,3.33,9.01,1.59,12.07-2.45,4.3-9.75,5.18-15.38-.4"/>
    <path class="cls-2" d="M1667.69,315.61c6.18-2.82,10.05-2.6,12.47-1.84,4.15,1.3,4.54,4.36,10.09,5.83,1.37.36,4.54,1.16,8.16.11,3.22-.93,5.08-2.83,5.81-3.68"/>
    <path class="cls-4" d="M1472.1,158.2c2.79,2.22,7.39,5.1,12.94,4.96,11.32-.29,18.07-12.89,19.85-16.46"/>
    <path class="cls-4" d="M1568.62,133.38c3.12,2.31,8.27,5.29,14.5,5.06,12.72-.49,20.37-13.98,22.38-17.79"/>
    <path class="cls-1" d="M1564.24,256.84c-4.88,6.3-11.18,8.25-16.01,4.81-7.65-5.45-10.44-23.61-5.24-32.16,3.11-5.11,8.76-6.31,14.18-3.72"/>
    <path class="cls-2" d="M1614.45,649.95c2.02-3.28,5.38-7.87,10.47-11.64,5.73-4.25,11.22-5.66,14.75-6.18"/>
  </g>
  <path class="cls-3" d="M1466.73,926.93c-5.13-.65-33.16-4.03-67.21.07-16.41,1.97-50.28,6.05-52.83,17.38-2.35,10.41,22.83,22.18,32.29,26.59,86.15,40.24,285.23,52.44,292.4,26.63,6.26-22.55-137.35-62.16-204.65-70.67Z"/>
</svg>