<?xml version="1.0" encoding="UTF-8"?>
<svg id="Layer_1" data-name="Layer 1" xmlns="http://www.w3.org/2000/svg" viewBox="0 0 2656.33 1233.82">
  <defs>
    <style>
      .cls-1 {
        fill: none;
      }

      .cls-1, .cls-2 {
        stroke: #203555;
        stroke-miterlimit: 10;
        stroke-width: 7px;
      }

      .cls-2 {
        fill: #fff6ea;
      }
    </style>
  </defs>
  <path class="cls-2" d="M1647.61,1069.76c-70.93,15.47-160.31,28.01-263.47,26.35-60.62-.98-115.57-6.69-163.76-14.45-13.99,3.52-88.07,20.71-160.39-23.16-75.11-45.56-91.94-122.51-95.22-141.06-20.89-117.83,65.34-205.06,73.49-213.04,14.19-13.88,65.77-64.37,131.63-63.88,20.84.15,51.64,5.48,81.66,19.57,11.54,5.42,27.37,12.85,26.44,15.64-1.48,4.42-46.81,2.8-72.46-25.41-8.77-9.65-12.93-19.86-17.17-30.3,0,0-9.59-23.59-10.57-50.63-1.43-39.7,19.57-92.31,56.66-132.1,15.5-16.62,61.81-61.05,134.99-68.93,64.37-6.92,112.63,18.41,135.18,30.24,26.45,13.88,56.27,35.51,54.23,39.27-1.89,3.48-32.81-5.07-58.15-25.46-21.04-16.92-31.22-36.37-39.06-51.72-5.42-10.61-20.91-43.06-24.08-86.61-1.77-24.31-8.01-110,55.33-172.55,76.52-75.55,187.26-50.87,196.17-48.73,80.5,19.33,131.36,80.49,152.51,133.91,5.8,14.64,31.03,78.37,2.69,130.57-7.89,14.54-22.28,32.48-26.45,30.48-4.92-2.36,4.26-32.57,14.63-55.14,7.98-17.37,12.92-28.12,23.87-38.15,23.38-21.4,54.64-21.67,62.87-21.43,56.6,1.63,91.59,57.83,96.34,65.46,32.9,52.84,28.39,121.92-2.03,170.9-25.87,41.65-69.69,67.48-73.57,63.78-2.49-2.37,7.54-20.64,23.48-31.61,28.42-19.56,65.92-9.21,85.61-3.78,78.2,21.57,119.45,86.35,122.78,91.74,5.43,8.81,60.08,99.95,22.05,159.51-27.92,43.72-96.35,55.63-97.69,52.9-.7-1.44,14.84-11.76,30.88-17.73,44.42-16.54,88.95,1.62,97.37,5.25,4.06,1.74,61.19,27.35,79.13,85.31,20.73,66.98-23.15,137.5-66.07,173.42-45.98,38.48-98.92,44.01-288.47,37.71-81.68-2.72-183.64-7.46-301.37-16.17Z"/>
  <g>
    <path class="cls-1" d="M1729.39,350.32c13.41,83.65,22.4,190.39,12.92,313.29-13.22,171.39-57.44,310.09-96.89,406"/>
    <path class="cls-1" d="M1869.06,443.86c-3.94,18.76-13.62,52.42-39.65,86.34-29.7,38.72-65.22,57.62-83.26,65.74"/>
    <path class="cls-1" d="M1590.53,548.84c.19,17.28,2.9,38.48,11.89,60.83,32.37,80.44,118.63,107.37,133.81,111.85"/>
    <path class="cls-1" d="M1869.06,742.13c-5.85,11.77-27.39,51.42-75.33,71.62-29.92,12.61-57.02,12.12-71.37,10.79"/>
    <path class="cls-1" d="M1581.3,834.88c.31,13.79,2.6,32.06,10.77,51.68,22.95,55.1,74.35,78,88.27,83.68"/>
  </g>
</svg>