<?xml version="1.0" encoding="UTF-8"?>
<svg id="Layer_1" data-name="Layer 1" xmlns="http://www.w3.org/2000/svg" viewBox="0 0 2656.33 1233.82">
  <defs>
    <style>
      .cls-1 {
        fill: none;
      }

      .cls-1, .cls-2 {
        stroke: #203555;
        stroke-miterlimit: 10;
        stroke-width: 7px;
      }

      .cls-2 {
        fill: #fff6ea;
      }
    </style>
  </defs>
  <path class="cls-2" d="M1494.18,1062.89c-121.22-1.84-181.83-2.75-240.28-35.39-117.31-65.51-143.85-197.6-149.24-231.31-4.4-27.5-18.28-124.11,42.46-220.64,16.75-26.63,62.17-98.8,158.15-129.04,71.08-22.39,134.69-8.95,158.83-3.94,20.68,4.29,62.67,15.12,61.74,21.87-.6,4.31-18.67,7.01-33.73,5.09-37.9-4.83-61.12-39.46-71.41-54.8-27.62-41.19-50.56-112.06-25.58-186.22,33.44-99.25,131.11-140.26,164.38-154.23,24-10.08,85.96-35.17,166.84-24.34,20.31,2.72,75.86,10.81,129.9,50,102.58,74.4,104.7,191.98,104.71,205.01,0,26.8.02,98.52-50.27,131.9-28.37,18.82-69.29,23.15-71.63,17.96-1.89-4.19,19.15-19.4,42.72-25.24,22.93-5.69,45.79-1.9,72.81,8.62,66.25,25.79,108.44,72.93,117.19,82.91,42.6,48.63,118.47,135.21,111.78,260.61-1.48,27.73-6.54,122.58-82.66,190.36-50.02,44.54-107.78,56.97-159.48,68.09-66.69,14.34-91.8,6.18-203.99,8.17-141.48,2.51-138.49,16.15-243.23,14.57Z"/>
  <g>
    <path class="cls-1" d="M1699.45,420.6c-22.3,70.88-43.35,162.24-49.49,269.63-8.56,149.78,15.09,274.73,39.54,362.13"/>
    <path class="cls-1" d="M1560.75,485.92c1.34,16.67,6.12,46.88,25.79,79.14,22.44,36.82,52.58,57.15,68.06,66.19"/>
    <path class="cls-1" d="M1802.26,607.9c-2.26,14.93-7.28,32.97-18.17,51.31-39.22,65.98-121.17,79.64-135.56,81.82"/>
    <path class="cls-1" d="M1524.86,744c3.92,10.84,18.8,47.55,60.12,70.4,25.78,14.26,50.56,16.86,63.82,17.32"/>
    <path class="cls-1" d="M1776.26,856.44c-1.94,11.9-6.23,27.45-16.05,43.52-27.57,45.11-77.23,59.18-90.61,62.53"/>
  </g>
</svg>