<?xml version="1.0" encoding="UTF-8"?>
<svg id="Layer_1" data-name="Layer 1" xmlns="http://www.w3.org/2000/svg" viewBox="0 0 2656.33 1233.82">
  <defs>
    <style>
      .cls-1 {
        fill: none;
      }

      .cls-1, .cls-2 {
        stroke: #203555;
        stroke-miterlimit: 10;
        stroke-width: 7px;
      }

      .cls-2 {
        fill: #fff6ea;
      }
    </style>
  </defs>
  <path class="cls-2" d="M1629.94,1067.68c-35.38,8.12-94.75,18.93-166.72,17.76-198.13-3.2-303.06-94.03-315.47-105.19-16.52-14.86-102.4-92.12-49.53-142.05,15.59-14.72,39.05-23.12,57.95-28.03-17.18-7.36-40.46-18.36-65.05-33.61-20.65-12.81-91.84-56.97-115.29-116.16-24.14-60.95-12.01-174.03,113.23-217.24,111.99-38.64,238.49,4.76,250.66,9.09-13.09-25.83-27.46-65.45-22.84-114.66,3.46-36.87,14.38-153.2,158.24-216.36,10.34-4.54,135.16-57.88,239.24-32.25,111.76,27.52,168.99,138.54,90.9,263.71,14.07-8.64,36.47-20.63,67.51-30.66,19.24-6.22,74.66-23.56,141.77-17.92,13.82,1.16,100.07,9.34,138.26,55.61,36.21,43.86,15.45,105.23-53.77,150.95,23.22-.93,58.66-.22,93.85,10.47,109.95,33.4,104.57,129.95,103.86,138.81-5.22,65.58-67.91,111.66-85.36,124.13-51.83,37.06-110.49,54.5-139.91,61.89,7.76-1.24,47.13-7.06,73.33,6.75,23.56,12.42,22.29,33.24,21.68,43.2-3.34,54.75-99.86,125.18-211.86,160.1-148.92,46.43-289.98,19.11-324.69,11.66Z"/>
  <g>
    <path class="cls-1" d="M1609.94,475.43c5.86,63.91,11.18,128.62,15.94,194.11,9.9,136.19,16.86,269.41,21.26,399.48"/>
    <path class="cls-1" d="M1807.64,476.37c-9.26,52.29-30.42,128.39-82.9,209.12-30.08,46.27-63.17,82.86-92.47,110.65"/>
    <path class="cls-1" d="M1890.55,580.46c-49.25,25.32-98.49,50.64-147.74,75.96"/>
    <path class="cls-1" d="M1362.29,540.14c17.54,19.44,43.08,43.22,78.65,64.7,70.8,42.75,141.95,52.64,179.63,55.33"/>
    <path class="cls-1" d="M1510.03,786.76c5.48,17.06,15.6,40.56,35.08,64.7,34.86,43.23,79.63,63.65,102.04,72.21"/>
    <path class="cls-1" d="M1409.06,856.16c11.11,5.22,26.14,10.84,44.64,14.07,39.88,6.94,72.91-1.3,89.28-6.56"/>
    <path class="cls-1" d="M1501.53,504.5c5.29,13.04,11.35,32.78,11.69,57.2.41,29.36-7.61,52.61-13.82,66.58"/>
  </g>
</svg>