<?xml version="1.0" encoding="UTF-8"?>
<svg id="Layer_1" data-name="Layer 1" xmlns="http://www.w3.org/2000/svg" viewBox="0 0 2656.33 1233.82">
  <defs>
    <style>
      .cls-1 {
        fill: none;
      }

      .cls-1, .cls-2 {
        stroke: #203555;
        stroke-miterlimit: 10;
        stroke-width: 7px;
      }

      .cls-2 {
        fill: #fff6ea;
      }
    </style>
  </defs>
  <path class="cls-2" d="M1390.94,1105.13c-53.26,2.07-152.45,5.3-259.91-21.3-154-38.12-214.45-110.15-235.63-135.39-59.63-71.05-42.16-129.95-22.99-153.05,6.38-7.69,19.77-23.82,51.72-30.9,17.99-3.99,35.32-3.66,45.98-2.94-8.5-13.17-20.14-32.4-31.61-55.92-24.75-50.76-41.5-85.12-37.36-126.56,3.37-33.71,9.49-94.95,91.95-122.14,20.52-6.77,69.8-19.35,129.31-14.72,23.02,1.79,41.13,5.66,52.98,8.73-1.89-9.45-4.47-23.13-7-39.63-5.98-38.9-11.55-75.11-8.62-114.78,1.21-16.42,3.55-45.06,17.08-80.08,19.58-50.69,45.75-118.43,149.72-157.82,24.94-9.45,75.41-28.57,132.28-23.08,16.03,1.55,72.71,8.93,129.08,69.66,97.81,105.38,87.28,255.65,77.58,323.75,10.4-5.86,26.72-14.24,49.17-22.69,31.22-11.76,67.35-25.37,103.2-23.82,50.51,2.18,82.51,33.64,94.48,45.41,73.39,72.15-14.99,166.21-37.79,189.08,12.65-2.8,36.09-6.8,62.5-3.72,38.59,4.49,60,21.34,69.77,29.03,31.52,24.81,86.33,116.18,4.36,224.07-99.88,131.47-358.15,228.62-620.26,238.81Z"/>
  <g>
    <path class="cls-1" d="M1415.1,358.58c45.39,98.08,87.87,214.85,114.73,348.06,28.72,142.4,33.03,270.99,26.44,379.94"/>
    <path class="cls-1" d="M1686.84,578.09c6.79,27.59,11.47,70.23-6.58,120.64-28.99,80.98-99.85,135.1-135.05,158.82"/>
    <path class="cls-1" d="M1217.08,652.12c20.04,28.85,55.14,69.72,115.85,109.47,79.04,51.75,164.39,77.32,216.21,89.74"/>
    <path class="cls-1" d="M1255.37,910.75c14.73,21.56,36.88,47.34,70.6,73.08,79.59,60.73,177.91,86.29,230.69,97"/>
    <path class="cls-1" d="M1822.84,769.4c-3.74,35.21-16.67,90.43-62.4,151.77-62.85,84.29-154.45,135.57-203.77,159.66"/>
  </g>
</svg>