<?xml version="1.0" encoding="UTF-8"?>
<svg id="Layer_1" data-name="Layer 1" xmlns="http://www.w3.org/2000/svg" viewBox="0 0 2616.72 1233.82">
  <defs>
    <style>
      .cls-1 {
        fill: none;
      }

      .cls-1, .cls-2, .cls-3 {
        stroke: #203555;
        stroke-miterlimit: 10;
      }

      .cls-1, .cls-3 {
        stroke-width: 5px;
      }

      .cls-2 {
        stroke-width: 4px;
      }

      .cls-2, .cls-3 {
        fill: #fff6ea;
      }
    </style>
  </defs>
  <g>
    <path class="cls-3" d="M376.94,944.93c-59.86,6.2-89.78,9.3-120.64-4.39-61.94-27.46-83.33-95.25-88.11-112.63-3.9-14.18-16.82-64.08,7.04-118.35,6.58-14.97,24.42-55.54,69.82-77.09,33.62-15.95,65.81-12.66,78.03-11.45,10.46,1.03,31.84,4.23,31.8,7.84-.02,2.3-8.76,4.78-16.3,4.67-18.98-.3-32.61-17.11-38.64-24.55-16.2-19.99-31.97-55.85-24.32-96.26,10.23-54.09,55.79-81.38,71.3-90.68,11.2-6.71,40.15-23.54,80.69-22.63,10.18.23,38.07,1.2,67.16,18.58,55.24,33,63.68,94.61,64.5,101.45,1.69,14.07,6.21,51.73-16.47,72.22-12.8,11.56-32.69,16.25-34.17,13.66-1.19-2.09,8.22-11.32,19.46-15.78,10.94-4.34,22.45-3.7,36.42.22,34.27,9.62,58.03,31.88,62.97,36.61,24.06,23.01,66.89,63.99,71.49,130.22,1.02,14.65,4.49,64.74-28.76,104.83-21.85,26.34-49.53,36.28-74.31,45.17-31.96,11.47-44.85,8.67-100.02,16.34-69.57,9.67-67.24,16.66-118.96,22.02Z"/>
    <g>
      <path class="cls-1" d="M437.68,595.59c-6.53,38.53-11.16,87.74-7.42,144.49,5.21,79.14,24.72,143.35,42.28,187.79"/>
      <path class="cls-1" d="M373.44,638.07c1.71,8.67,5.97,24.25,17.69,40.03,13.38,18.01,29.51,26.9,37.71,30.73"/>
      <path class="cls-1" d="M500.14,687.85c-.17,7.97-1.51,17.74-5.73,28.01-15.18,36.96-54.7,48.97-61.66,50.96"/>
      <path class="cls-1" d="M371.99,775.69c2.61,5.46,12.26,23.86,34.06,33.41,13.6,5.96,25.98,5.87,32.54,5.32"/>
      <path class="cls-1" d="M502.97,819.88c-.21,6.36-1.34,14.78-5.17,23.8-10.75,25.31-34.34,35.63-40.72,38.18"/>
    </g>
  </g>
  <g>
    <path class="cls-3" d="M602.21,756.48c-19.18,1.03-54.9,2.64-93.6-10.62-55.46-19.01-77.23-54.92-84.86-67.51-21.47-35.43-15.18-64.8-8.28-76.31,2.3-3.83,7.12-11.88,18.63-15.41,6.48-1.99,12.72-1.82,16.56-1.47-3.06-6.57-7.25-16.15-11.38-27.88-8.91-25.31-14.94-42.44-13.45-63.1,1.21-16.81,3.42-47.34,33.11-60.9,7.39-3.37,25.14-9.65,46.57-7.34,8.29.89,14.81,2.82,19.08,4.35-.68-4.71-1.61-11.53-2.52-19.76-2.15-19.4-4.16-37.45-3.1-57.23.44-8.19,1.28-22.47,6.15-39.93,7.05-25.27,16.48-59.05,53.92-78.69,8.98-4.71,27.16-14.25,47.64-11.51,5.77.77,26.18,4.45,46.49,34.74,35.22,52.54,31.43,127.47,27.94,161.43,3.74-2.92,9.62-7.1,17.71-11.32,11.24-5.86,24.25-12.65,37.17-11.88,18.19,1.08,29.71,16.77,34.03,22.64,26.43,35.98-5.4,82.88-13.61,94.28,4.56-1.4,13-3.39,22.51-1.86,13.9,2.24,21.61,10.64,25.13,14.48,11.35,12.37,31.09,57.93,1.57,111.73-35.97,65.55-128.98,114-223.38,119.08Z"/>
    <g>
      <path class="cls-1" d="M610.91,384.23c16.35,48.91,31.64,107.13,41.32,173.55,10.34,71,11.89,135.12,9.52,189.45"/>
      <path class="cls-1" d="M708.77,493.69c2.45,13.76,4.13,35.02-2.37,60.15-10.44,40.38-35.96,67.36-48.63,79.19"/>
      <path class="cls-1" d="M539.59,530.6c7.22,14.39,19.86,34.77,41.72,54.59,28.46,25.81,59.2,38.55,77.86,44.75"/>
      <path class="cls-1" d="M553.38,659.56c5.31,10.75,13.28,23.61,25.43,36.44,28.66,30.28,64.07,43.03,83.08,48.37"/>
      <path class="cls-1" d="M757.75,589.08c-1.35,17.55-6,45.09-22.47,75.67-22.64,42.03-55.62,67.6-73.39,79.61"/>
    </g>
  </g>
  <g>
    <path class="cls-3" d="M820.98,803.72c-14.31,3.81-38.32,8.88-67.42,8.33-80.12-1.5-122.56-44.11-127.57-49.35-6.68-6.97-41.41-43.22-20.03-66.64,6.3-6.9,15.79-10.85,23.43-13.15-6.95-3.45-16.36-8.61-26.31-15.77-8.35-6.01-37.14-26.72-46.62-54.49-9.76-28.59-4.85-81.64,45.79-101.91,45.29-18.13,96.45,2.23,101.37,4.26-5.3-12.12-11.1-30.7-9.23-53.79,1.4-17.3,5.81-71.87,63.99-101.5,4.18-2.13,54.66-27.15,96.75-15.13,45.19,12.91,68.34,64.99,36.76,123.71,5.69-4.05,14.75-9.68,27.3-14.38,7.78-2.92,30.19-11.05,57.33-8.41,5.59.55,40.47,4.38,55.91,26.09,14.64,20.57,6.25,49.37-21.74,70.81,9.39-.44,23.72-.1,37.95,4.91,44.46,15.67,42.29,60.96,42,65.12-2.11,30.76-27.46,52.38-34.52,58.23-20.96,17.38-44.68,25.57-56.58,29.03,3.14-.58,19.06-3.31,29.66,3.17,9.53,5.83,9.01,15.59,8.77,20.26-1.35,25.69-40.38,58.72-85.67,75.11-60.22,21.78-117.27,8.97-131.31,5.47Z"/>
    <g>
      <path class="cls-1" d="M812.9,525.88c2.37,29.98,4.52,60.34,6.45,91.06,4,63.89,6.82,126.39,8.6,187.41"/>
      <path class="cls-1" d="M892.84,526.32c-3.74,24.53-12.3,60.23-33.53,98.1-12.16,21.71-25.55,38.87-37.4,51.91"/>
      <path class="cls-1" d="M926.37,575.15c-19.92,11.88-39.83,23.76-59.75,35.63"/>
      <path class="cls-1" d="M712.75,556.23c7.09,9.12,17.42,20.28,31.81,30.35,28.63,20.06,57.41,24.7,72.64,25.96"/>
      <path class="cls-1" d="M772.49,671.93c2.22,8.01,6.31,19.03,14.18,30.35,14.1,20.28,32.2,29.86,41.26,33.87"/>
      <path class="cls-1" d="M731.66,704.48c4.49,2.45,10.57,5.09,18.05,6.6,16.13,3.26,29.49-.61,36.11-3.08"/>
      <path class="cls-1" d="M769.05,539.51c2.14,6.12,4.59,15.38,4.73,26.83.17,13.77-3.08,24.68-5.59,31.23"/>
    </g>
  </g>
  <g>
    <path class="cls-3" d="M963.4,958c-60.17-.97-90.25-1.46-119.26-18.71-58.23-34.64-71.4-104.49-74.08-122.31-2.18-14.54-9.07-65.62,21.08-116.67,8.32-14.08,30.86-52.24,78.5-68.23,35.28-11.84,66.85-4.73,78.84-2.09,10.27,2.27,31.11,7.99,30.64,11.57-.3,2.28-9.27,3.71-16.74,2.69-18.81-2.55-30.34-20.87-35.44-28.98-13.71-21.78-25.1-59.25-12.7-98.47,16.6-52.48,65.08-74.17,81.59-81.55,11.91-5.33,42.66-18.6,82.81-12.87,10.08,1.44,37.66,5.72,64.48,26.44,50.92,39.34,51.97,101.52,51.97,108.4,0,14.17.01,52.1-24.95,69.74-14.08,9.95-34.39,12.24-35.55,9.49-.94-2.22,9.5-10.26,21.2-13.35,11.38-3.01,22.73-1,36.14,4.56,32.88,13.63,53.83,38.56,58.17,43.84,21.15,25.71,58.8,71.5,55.48,137.8-.73,14.66-3.25,64.82-41.03,100.66-24.83,23.55-53.5,30.12-79.16,36-33.1,7.58-45.56,3.27-101.25,4.32-70.22,1.33-68.74,8.54-120.73,7.7Z"/>
    <g>
      <path class="cls-1" d="M1065.28,618.37c-11.07,37.48-21.52,85.79-24.57,142.58-4.25,79.2,7.49,145.27,19.63,191.49"/>
      <path class="cls-1" d="M996.44,652.91c.66,8.81,3.04,24.79,12.8,41.85,11.14,19.47,26.1,30.22,33.78,35"/>
      <path class="cls-1" d="M1116.31,717.41c-1.12,7.89-3.61,17.43-9.02,27.13-19.47,34.89-60.14,42.11-67.29,43.26"/>
      <path class="cls-1" d="M978.62,789.38c1.95,5.73,9.33,25.15,29.84,37.23,12.8,7.54,25.1,8.92,31.68,9.16"/>
      <path class="cls-1" d="M1103.41,848.83c-.96,6.29-3.09,14.51-7.97,23.01-13.68,23.85-38.33,31.29-44.97,33.07"/>
    </g>
  </g>
  <g>
    <path class="cls-2" d="M1300.29,960.62c-32.4,7.14-73.22,12.92-120.34,12.16-27.69-.45-52.79-3.08-74.79-6.67-6.39,1.63-40.23,9.55-73.26-10.69-34.3-21.02-41.99-56.53-43.49-65.09-9.54-54.37,29.84-94.62,33.57-98.3,6.48-6.41,30.04-29.7,60.12-29.48,9.52.07,23.58,2.53,37.3,9.03,5.27,2.5,12.5,5.93,12.07,7.22-.68,2.04-21.38,1.29-33.1-11.72-4.01-4.45-5.9-9.17-7.84-13.98,0,0-4.38-10.89-4.83-23.36-.65-18.32,8.94-42.59,25.88-60.95,7.08-7.67,28.23-28.17,61.65-31.8,29.4-3.19,51.44,8.49,61.74,13.95,12.08,6.4,25.7,16.38,24.77,18.12-.86,1.61-14.99-2.34-26.56-11.75-9.61-7.81-14.26-16.78-17.84-23.86-2.47-4.89-9.55-19.87-11-39.97-.81-11.22-3.66-50.76,25.27-79.62,34.95-34.86,85.53-23.47,89.6-22.49,36.77,8.92,60,37.14,69.66,61.79,2.65,6.76,14.17,36.16,1.23,60.25-3.61,6.71-10.17,14.99-12.08,14.06-2.25-1.09,1.94-15.03,6.68-25.44,3.64-8.01,5.9-12.97,10.9-17.6,10.68-9.88,24.96-10,28.72-9.89,25.85.75,41.83,26.68,44,30.2,15.03,24.38,12.97,56.26-.93,78.86-11.82,19.22-31.83,31.14-33.6,29.43-1.14-1.09,3.44-9.52,10.73-14.58,12.98-9.02,30.11-4.25,39.1-1.75,35.72,9.95,54.56,39.84,56.08,42.33,2.48,4.07,27.44,46.12,10.07,73.6-12.75,20.17-44.01,25.67-44.62,24.41-.32-.66,6.78-5.42,14.1-8.18,20.29-7.63,40.63.75,44.47,2.42,1.85.8,27.95,12.62,36.14,39.36,9.47,30.9-10.57,63.44-30.18,80.02-21,17.75-45.18,20.31-131.75,17.4-37.31-1.25-83.87-3.44-137.65-7.46Z"/>
    <g>
      <path class="cls-1" d="M1337.65,628.66c6.12,38.6,10.23,87.85,5.9,144.56-6.04,79.08-26.23,143.08-44.25,187.34"/>
      <path class="cls-1" d="M1401.44,671.82c-1.8,8.65-6.22,24.19-18.11,39.84-13.57,17.87-29.79,26.59-38.03,30.33"/>
      <path class="cls-1" d="M1274.22,720.26c.09,7.97,1.32,17.75,5.43,28.07,14.78,37.12,54.18,49.54,61.12,51.61"/>
      <path class="cls-1" d="M1401.44,809.45c-2.67,5.43-12.51,23.73-34.41,33.05-13.67,5.82-26.04,5.59-32.6,4.98"/>
      <path class="cls-1" d="M1270.01,852.25c.14,6.36,1.19,14.79,4.92,23.85,10.48,25.42,33.96,35.99,40.31,38.61"/>
    </g>
  </g>
  <g>
    <path class="cls-3" d="M1276.83,1186.36c-19.18,1.03-54.9,2.64-93.6-10.62-55.46-19.01-77.23-54.92-84.86-67.51-21.47-35.43-15.18-64.8-8.28-76.31,2.3-3.83,7.12-11.88,18.63-15.41,6.48-1.99,12.72-1.82,16.56-1.47-3.06-6.57-7.25-16.15-11.38-27.88-8.91-25.31-14.94-42.44-13.45-63.1,1.21-16.81,3.42-47.34,33.11-60.9,7.39-3.37,25.14-9.65,46.57-7.34,8.29.89,14.81,2.82,19.08,4.35-.68-4.71-1.61-11.53-2.52-19.76-2.15-19.4-4.16-37.45-3.1-57.23.44-8.19,1.28-22.47,6.15-39.93,7.05-25.27,16.48-59.05,53.92-78.69,8.98-4.71,27.16-14.25,47.64-11.51,5.77.77,26.18,4.45,46.49,34.74,35.22,52.54,31.43,127.47,27.94,161.43,3.74-2.92,9.62-7.1,17.71-11.32,11.24-5.86,24.25-12.65,37.17-11.88,18.19,1.08,29.71,16.77,34.03,22.64,26.43,35.98-5.4,82.88-13.61,94.28,4.56-1.4,13-3.39,22.51-1.86,13.9,2.24,21.61,10.64,25.13,14.48,11.35,12.37,31.09,57.93,1.57,111.73-35.97,65.55-128.98,114-223.38,119.08Z"/>
    <g>
      <path class="cls-1" d="M1285.54,814.11c16.35,48.91,31.64,107.13,41.32,173.55,10.34,71,11.89,135.12,9.52,189.45"/>
      <path class="cls-1" d="M1383.4,923.57c2.45,13.76,4.13,35.02-2.37,60.15-10.44,40.38-35.96,67.36-48.63,79.19"/>
      <path class="cls-1" d="M1214.22,960.48c7.22,14.39,19.86,34.77,41.72,54.59,28.46,25.81,59.2,38.55,77.86,44.75"/>
      <path class="cls-1" d="M1228.01,1089.44c5.31,10.75,13.28,23.61,25.43,36.44,28.66,30.28,64.07,43.03,83.08,48.37"/>
      <path class="cls-1" d="M1432.38,1018.96c-1.35,17.55-6,45.09-22.47,75.67-22.64,42.03-55.62,67.6-73.39,79.61"/>
    </g>
  </g>
  <g>
    <path class="cls-3" d="M640.34,1147.05c-14.31,3.81-38.32,8.88-67.42,8.33-80.12-1.5-122.56-44.11-127.57-49.35-6.68-6.97-41.41-43.22-20.03-66.64,6.3-6.9,15.79-10.85,23.43-13.15-6.95-3.45-16.36-8.61-26.31-15.77-8.35-6.01-37.14-26.72-46.62-54.49-9.76-28.59-4.85-81.64,45.79-101.91,45.29-18.13,96.45,2.23,101.37,4.26-5.3-12.12-11.1-30.7-9.23-53.79,1.4-17.3,5.81-71.87,63.99-101.5,4.18-2.13,54.66-27.15,96.75-15.13,45.19,12.91,68.34,64.99,36.76,123.71,5.69-4.05,14.75-9.68,27.3-14.38,7.78-2.92,30.19-11.05,57.33-8.41,5.59.55,40.47,4.38,55.91,26.09,14.64,20.57,6.25,49.37-21.74,70.81,9.39-.44,23.72-.1,37.95,4.91,44.46,15.67,42.29,60.96,42,65.12-2.11,30.76-27.46,52.38-34.52,58.23-20.96,17.38-44.68,25.57-56.58,29.03,3.14-.58,19.06-3.31,29.66,3.17,9.53,5.83,9.01,15.59,8.77,20.26-1.35,25.69-40.38,58.72-85.67,75.11-60.22,21.78-117.27,8.97-131.31,5.47Z"/>
    <g>
      <path class="cls-1" d="M632.26,869.21c2.37,29.98,4.52,60.34,6.45,91.06,4,63.89,6.82,126.39,8.6,187.41"/>
      <path class="cls-1" d="M712.2,869.65c-3.74,24.53-12.3,60.23-33.53,98.1-12.16,21.71-25.55,38.87-37.4,51.91"/>
      <path class="cls-1" d="M745.73,918.48c-19.92,11.88-39.83,23.76-59.75,35.63"/>
      <path class="cls-1" d="M532.11,899.57c7.09,9.12,17.42,20.28,31.81,30.35,28.63,20.06,57.41,24.7,72.64,25.96"/>
      <path class="cls-1" d="M591.85,1015.26c2.22,8.01,6.31,19.03,14.18,30.35,14.1,20.28,32.2,29.86,41.26,33.87"/>
      <path class="cls-1" d="M551.02,1047.82c4.49,2.45,10.57,5.09,18.05,6.6,16.13,3.26,29.49-.61,36.11-3.08"/>
      <path class="cls-1" d="M588.41,882.85c2.14,6.12,4.59,15.38,4.73,26.83.17,13.77-3.08,24.68-5.59,31.23"/>
    </g>
  </g>
  <g>
    <path class="cls-3" d="M1014.63,1230.65c-19.18,1.03-54.9,2.64-93.6-10.62-55.46-19.01-77.23-54.92-84.86-67.51-21.47-35.43-15.18-64.8-8.28-76.31,2.3-3.83,7.12-11.88,18.63-15.41,6.48-1.99,12.72-1.82,16.56-1.47-3.06-6.57-7.25-16.15-11.38-27.88-8.91-25.31-14.94-42.44-13.45-63.1,1.21-16.81,3.42-47.34,33.11-60.9,7.39-3.37,25.14-9.65,46.57-7.34,8.29.89,14.81,2.82,19.08,4.35-.68-4.71-1.61-11.53-2.52-19.76-2.15-19.4-4.16-37.45-3.1-57.23.44-8.19,1.28-22.47,6.15-39.93,7.05-25.27,16.48-59.05,53.92-78.69,8.98-4.71,27.16-14.25,47.64-11.51,5.77.77,26.18,4.45,46.49,34.74,35.22,52.54,31.43,127.47,27.94,161.43,3.74-2.92,9.62-7.1,17.71-11.32,11.24-5.86,24.25-12.65,37.17-11.88,18.19,1.08,29.71,16.77,34.03,22.64,26.43,35.98-5.4,82.88-13.61,94.28,4.56-1.4,13-3.39,22.51-1.86,13.9,2.24,21.61,10.64,25.13,14.48,11.35,12.37,31.09,57.93,1.57,111.73-35.97,65.55-128.98,114-223.38,119.08Z"/>
    <g>
      <path class="cls-1" d="M1023.33,858.4c16.35,48.91,31.64,107.13,41.32,173.55,10.34,71,11.89,135.12,9.52,189.45"/>
      <path class="cls-1" d="M1121.2,967.86c2.45,13.76,4.13,35.02-2.37,60.15-10.44,40.38-35.96,67.36-48.63,79.19"/>
      <path class="cls-1" d="M952.02,1004.77c7.22,14.39,19.86,34.77,41.72,54.59,28.46,25.81,59.2,38.55,77.86,44.75"/>
      <path class="cls-1" d="M965.81,1133.73c5.31,10.75,13.28,23.61,25.43,36.44,28.66,30.28,64.07,43.03,83.08,48.37"/>
      <path class="cls-1" d="M1170.18,1063.25c-1.35,17.55-6,45.09-22.47,75.67-22.64,42.03-55.62,67.6-73.39,79.61"/>
    </g>
  </g>
</svg>