<?xml version="1.0" encoding="UTF-8"?>
<svg id="Layer_1" data-name="Layer 1" xmlns="http://www.w3.org/2000/svg" viewBox="0 0 854.87 774.39">
  <defs>
    <style>
      .cls-1, .cls-2, .cls-3, .cls-4 {
        fill: none;
      }

      .cls-1, .cls-2, .cls-3, .cls-4, .cls-5 {
        stroke-miterlimit: 10;
      }

      .cls-1, .cls-3, .cls-5 {
        stroke: #1f3555;
      }

      .cls-6 {
        fill: #db9ec7;
      }

      .cls-2 {
        stroke-width: 3px;
      }

      .cls-2, .cls-4 {
        stroke: #1e3555;
      }

      .cls-3, .cls-4, .cls-5 {
        stroke-width: 2px;
      }

      .cls-5 {
        fill: #fff6eb;
      }
    </style>
  </defs>
  <g>
    <path class="cls-2" d="M184.28,632.8c-.92,2.4-2.14,6.59-1.61,11.77.34,3.31,1.28,6.01,2.14,7.93,49.31-2.59,90.43-4.26,120.18-5.34,94.51-3.44,143.04-5.12,205.31-2.37,45.79,2.02,82.93,5.65,106.5,8.3,1.23-2.7,2.5-6.21,3.22-10.41,1.17-6.85.38-12.63-.5-16.43-28.57-2.58-57.93-4.62-88.04-6.05-126.33-5.98-242.83.11-347.21,12.6Z"/>
    <g>
      <path class="cls-2" d="M184.6,632.25c41.76-4.87,85.67-8.73,131.56-11.22,111.35-6.03,213.55-2.82,304.4,5.18,77.19-106.46,154.38-212.92,231.57-319.38-39.08-4.05-84.48-8.28-135.14-12.08-58.8-4.42-116.08-8.64-190.33-10.06-39.55-.76-85.5-.75-136.76.9-31.9,43.59-64.31,91.37-96.15,143.41-43.68,71.4-79.57,139.8-109.15,203.25-22.69-43.61-47.88-88.88-75.85-135.43-35.32-58.77-71.19-113.07-106.59-162.96,5.82-3.54,12.11-7.1,18.86-10.61,4.18-2.17,8.29-4.19,12.3-6.06"/>
      <path class="cls-2" d="M69.28,260.65c-7.43.4-17.86,1.71-29.59,5.66-11.7,3.94-20.56,9.11-26.53,13.21,20.66,35.11,41.15,71.89,61.23,110.37,44.05,84.41,80.28,165.73,110.21,242.36"/>
      <path class="cls-2" d="M118.26,218.2c-8.28.95-20.67,3.43-33.67,10.38-6.28,3.36-11.35,7.03-15.31,10.38,16.28,41.92,32.05,85.96,46.94,132.07,29.76,92.14,51.9,179.72,68.38,261.23"/>
    </g>
    <path class="cls-2" d="M829.88,293.71c3.61-7.44,7.22-14.88,10.83-22.32-54.52-9.86-114.53-18.11-179.45-23.21-115.29-9.05-218.85-6.03-306.76,2-23.48,34.46-47.03,72.85-69.37,115.24-51.07,96.9-81.75,188.01-100.64,265.06"/>
    <path class="cls-2" d="M802.34,256.3c.7-3.28,1.39-6.56,2.09-9.84-118.93-20.02-254.18-32.27-402.53-27.87-32.03.95-63.24,2.63-93.59,4.93-14.71,31.51-28.95,64.84-42.37,99.98-41.65,109.12-66.1,211.62-80.21,302.46"/>
    <path class="cls-2" d="M202.36,167.13c-3.35,33.87-6.71,67.74-10.06,101.61,9.84,3.32,22.35,6.59,37.1,8.29,22.86,2.63,42.19.44,55.58-2.13"/>
    <path class="cls-2" d="M129.7,195.8c-1.63.11-3.44.33-5.37.71-3.87.76-7.1,1.94-9.6,3.07,6.43,31.76,12.65,63.86,18.65,96.29,20.79,112.32,37.7,221.92,51.26,328.52"/>
    <path class="cls-2" d="M302.65,162.48c3.26,10.38,6.37,21.38,9.23,32.98,2.17,8.82,4.04,17.39,5.66,25.67"/>
    <path class="cls-2" d="M174.58,115.69c-1.18,5.88-2.81,18.94,4.61,31.65,9.39,16.09,27.14,21.22,41.08,25.1,4.76,1.32,33.36,8.87,64.65-2.31,10.19-3.64,19.97-7.28,26.08-16.51,5.91-8.94,6.22-19.86,6.43-27.08.18-6.13-.44-11.25-1.07-14.86"/>
    <path class="cls-2" d="M128.01,133.44c5.71,5.85,13.52,12.64,23.77,18.9,19.5,11.89,38.52,16.14,50.43,17.83"/>
    <path class="cls-2" d="M303.57,163.79c7.16,9.2,14.64,20.33,21.39,33.45,3.18,6.18,5.86,12.16,8.13,17.83"/>
    <path class="cls-2" d="M212.17,18.16c-5.44-.64-15.3-1.02-25.03,3.74-3.29,1.61-10.56,5.75-19.19,20.44-12.57,21.41-9.06,32.92-20.55,55.84-4.32,8.61-8.89,15.11-11.83,19"/>
    <path class="cls-2" d="M238.15,12.39c4.26-3.11,11.57-7.59,21.63-9.71,18.85-3.97,34.5,3.06,42.64,6.86,6.15,2.87,21.33,10.83,38.93,35.42,17.28,24.13,17.45,37.13,27.81,57.13,8.61,16.62,24.56,38.66,56.85,59.98-2.15,5.15-6.15,12.89-13.6,20.57-9.02,9.31-18.86,14.17-24.72,16.57-1.38-.74-3.26-1.94-5.09-3.8-1.9-1.92-3.04-3.82-3.71-5.18-.55,1.79-1.25,5.01-.48,8.9.48,2.45,1.4,4.4,2.18,5.74"/>
    <path class="cls-2" d="M119.81,148.03c-1.94,3.15-4.75,6.98-8.77,10.81-6.75,6.43-13.91,9.97-18.7,11.89,2.97,2.75,6.86,5.85,11.77,8.75,8.35,4.93,16.32,7.3,22.01,8.52,1.62-3.31,3.24-6.62,4.86-9.94,1.54,4.57,3.07,9.15,4.61,13.72,7.68,1.37,15.71,3.01,24.06,4.97,9.72,2.28,18.85,4.76,27.38,7.33"/>
    <path class="cls-2" d="M216.1,36.77c-.93,2.25-3.07,6.47-7.68,10.19-6.1,4.91-12.78,5.91-15.36,6.17"/>
    <path class="cls-2" d="M245.48,34.61c5.36,3.34,13.32,7.53,23.71,10.49,10.73,3.07,20.13,3.72,26.71,3.7"/>
    <g>
      <g>
        <path class="cls-3" d="M161.29,92.96c-1.53-16.92,12.25-31.95,30.79-33.57,18.54-1.62,34.8,10.79,36.33,27.71,1.53,16.92-12.25,31.95-30.79,33.57s-34.8-10.79-36.33-27.71"/>
        <path class="cls-3" d="M256.79,88.29c-2.39-.85-7.31-2.3-13.81-1.99-6.73.32-11.69,2.34-14.02,3.44"/>
        <path class="cls-3" d="M257.29,83.44c2.33-17.38,19.24-29.26,37.76-26.53,18.52,2.73,31.64,19.03,29.3,36.41-2.33,17.38-19.24,29.26-37.76,26.53-18.52-2.73-31.64-19.03-29.3-36.41"/>
      </g>
      <path class="cls-4" d="M183.93,90.99c1.57.89,5.42,2.79,10.66,2.75,5.45-.04,9.31-2.15,10.81-3.08"/>
      <path class="cls-4" d="M281.21,89.07c1.57.89,5.42,2.79,10.66,2.75,5.45-.04,9.31-2.15,10.81-3.08"/>
    </g>
    <path class="cls-2" d="M231.63,277.71c-.3,1.51-.59,4.18.45,7.23,1.98,5.8,7.24,8.49,8.47,9.08-.89,2.76-1.78,5.51-2.68,8.27"/>
    <path class="cls-2" d="M255.56,277.47c-.3,1.51-.59,4.18.45,7.23,1.98,5.8,7.24,8.49,8.47,9.08-.89,2.76-1.78,5.51-2.68,8.27"/>
    <path class="cls-5" d="M129.68,133.77c.53-2.35-4.13-5.35-9-8.49-3.83-2.46-6.48-4.12-8.88-3.27-1.74.61-2.88,2.38-2.96,4.08-.13,2.5,2.02,4.43,3.97,6.18,1.13,1.01,3.08,2.77,6.07,3.62,4.44,1.27,10.26.29,10.81-2.12Z"/>
    <path class="cls-5" d="M332.7,214.57c-2.17-.4-3.96,3.18-5.82,6.92-1.46,2.94-2.44,4.98-1.25,6.81.86,1.33,2.63,2.19,4.14,2.25,2.23.09,3.53-1.56,4.72-3.06.68-.87,1.87-2.37,2.07-4.66.3-3.4-1.63-7.86-3.86-8.26Z"/>
    <path class="cls-3" d="M221.12,157c4.56,2.14,15.95,6.78,30.82,5.4,11.36-1.05,19.63-5.14,23.86-7.62"/>
    <path class="cls-3" d="M242.82,113.46c-.97.46-3.6,1.84-4.98,4.6-.48.95-1.68,3.35-.42,5.49.82,1.38,2.25,1.96,2.74,2.15,2.59,1,5.13.09,5.62-.1"/>
    <g>
      <ellipse class="cls-6" cx="191.13" cy="130.08" rx="11.18" ry="3.47" transform="translate(-10.52 16.99) rotate(-4.96)"/>
      <path class="cls-1" d="M181.87,132.37c3.06-3.11,4.44-3.51,5.15-3.32,1.12.3.68,2.13,1.87,2.44,1.78.47,4.64-3.09,5.99-2.63.91.31.11,2.09,1.05,2.47.95.39,3.08-.9,5.47-2.75"/>
    </g>
    <g>
      <ellipse class="cls-6" cx="299.58" cy="127.79" rx="11.18" ry="3.47" transform="translate(-9.92 26.35) rotate(-4.96)"/>
      <path class="cls-1" d="M290.33,130.09c3.06-3.11,4.44-3.51,5.15-3.32,1.12.3.68,2.13,1.87,2.44,1.78.47,4.64-3.09,5.99-2.63.91.31.11,2.09,1.05,2.47.95.39,3.08-.9,5.47-2.75"/>
    </g>
    <path class="cls-2" d="M459.09,178.66c31.99-.16,66.48.85,103.12,3.59,47.85,3.57,91.75,9.53,131.18,16.57-1.65,3.84-3.27,8.29-4.62,13.3-1.14,4.22-1.89,8.17-2.4,11.74"/>
  </g>
  <path class="cls-2" d="M216.75,710.04c23.57-.77,58.3-1.65,100.32-1.75,103.18-.25,245.87,4.19,246.07,12.25.11,4.65-47.18,9.63-69.2,11.31-18.67,1.42-32.69,1.49-59.84,1.19-84.8-.95-116.62-3.56-164.73,4.16-10.56,1.7-35.63,5.72-35.39,8.92.35,4.57,52.01,4.2,176.96,5.95,104.41,1.47,115.13,2.38,115.18,3.57.1,2.19-36.07,6.74-204.63,17.25"/>
</svg>