<?xml version="1.0" encoding="UTF-8"?>
<svg id="Layer_1" data-name="Layer 1" xmlns="http://www.w3.org/2000/svg" viewBox="0 0 1222.02 854.51">
  <defs>
    <style>
      .cls-1, .cls-2, .cls-3, .cls-4 {
        stroke-miterlimit: 10;
      }

      .cls-1, .cls-2, .cls-4 {
        fill: none;
        opacity: .24;
        stroke: #783131;
      }

      .cls-1, .cls-3 {
        stroke-width: 4px;
      }

      .cls-2 {
        stroke-width: 3px;
      }

      .cls-3 {
        fill: #a14646;
        stroke: #793132;
      }

      .cls-4 {
        stroke-width: 2px;
      }
    </style>
  </defs>
  <path class="cls-3" d="M2.03,2c231.72.53,463.42,1.76,695.11,3.69,174.29,1.45,348.58,3.29,522.87,5.53v836.91c-71.31-8.86-125.36-13.51-149.69-14.75-16.25-.83-27.93-.57-38.96,5.53-8.14,4.5-10.31,9.09-19.84,11.89-13.19,3.87-25.82.02-27.76-.59-14.83-4.71-18.53-14.16-29.09-13.07-4.01.41-5.96,2.03-9.92,4.16-13.98,7.51-34.2,11.22-49.58,7.73-16.73-3.81-18.01-13.93-31.07-13.07-9.88.65-10.08,6.51-22.48,8.32-9.32,1.36-17.39-.75-30.41-4.16-13.64-3.57-13.11-5.33-19.17-5.35-13.3-.03-16.18,8.48-27.1,7.13-9.5-1.17-12.69-8.26-19.83-6.54-5.2,1.25-4.57,5.26-9.25,6.54-8.97,2.44-14.34-11.46-30.41-13.07-6.35-.64-7.74,1.31-15.87,0-7.32-1.18-10.63-3.48-13.88-1.78-4.03,2.1-1.62,7.01-5.29,9.51-5.4,3.68-13.68-4.87-25.78-2.97-8.05,1.26-7.39,5.51-14.89,6.87-12.52,2.26-16.87-9.11-31.88-9.83-14.69-.7-19.37,9.8-30.05,6.55-9.32-2.83-8.61-11.68-18.21-13.92-6.85-1.6-13.21,1.51-21.86,5.73-16.05,7.84-20.62,16.44-27.32,14.74-5.52-1.4-5.02-7.9-10.93-9.01-5.95-1.11-8.95,5.02-17.3,6.55-7.89,1.45-11.55-2.86-20.04-4.91-18.7-4.51-25.98,10.37-47.36,9.01-17.39-1.11-17.46-11.27-32.79-10.64-16.73.68-19.14,12.89-38.25,13.92-1.91.1-10.41-1.29-27.32-4.09-23.38-3.87-23.2-3.99-25.5-4.09-21.97-.98-23.97,10.7-41.89,10.64-23.23-.07-31-19.71-54.64-17.19-8.69.92-14.56,4.32-17.3,5.73-16.95,8.73-56.88,15.21-151.54,9.97C11.05,567.06,6.54,284.53,2.03,2Z"/>
  <path class="cls-2" d="M354.35,192.93c-1.74,90.4-2.38,162.62-2.96,210.32,0,0-.5,40.7,5.22,95.31,1.65,15.79,3.69,34.81,5.73,34.78,1.97-.04,4.24-17.74,5.73-92.73"/>
  <path class="cls-1" d="M216.19,192.64c-9.01,140.08-10.53,292.72,0,455.99,4.49,69.6,10.89,136.82,18.79,201.52"/>
  <path class="cls-1" d="M397.08,207.52c5.72,94.15,7.61,170.98,8.28,224.27.59,47.41.21,76.38,0,177.51-.16,80.99-.09,146.98,0,190.26"/>
  <path class="cls-1" d="M486.93,167.13c1.81,96.01,3.78,192.03,5.91,288.05,2.88,129.64,6.06,259.26,9.54,388.87"/>
  <path class="cls-2" d="M514.13,170.32c-4.01,71.63-4.96,149.13-1.18,231.71,5.65,123.49,20.85,235.75,40.2,334.82"/>
  <path class="cls-1" d="M671.92,183.91c2.12,95.4,1.31,195.73-3.38,300.51-3.29,73.63-8.28,144.84-14.63,213.5"/>
  <path class="cls-2" d="M677.55,611.91c.5,44.18.51,89.04,0,134.57-.3,26.85-.78,53.46-1.43,79.82"/>
  <path class="cls-2" d="M829.49,184.92c2.56,74.61,3.78,151.55,3.38,230.7-.48,94.96-3.26,186.77-7.88,275.22"/>
  <path class="cls-1" d="M874.51,146.47c3.07,50.66,6.38,122.66,6.75,209.45.26,61.57-.73,181.97-6.75,182.13-2.46.06-6.52-19.98-13.51-109.28"/>
  <path class="cls-2" d="M936.41,198.07c-11.61,151.79-9.52,254.5-4.5,323.79,0,0,2.65,36.64-12.38,255.99-.37,5.34-1.35,18.89-3.95,19.05-3.23.19-7.4-20.26-10.59-38.86"/>
  <path class="cls-4" d="M904.97,412.52c-.22,44.65.14,90.25,1.18,136.76,1.18,53.18,3.19,105.14,5.9,155.84"/>
  <path class="cls-2" d="M969.83,176.11c2.82,56.1,4.15,114.83,3.54,175.98-.88,87.31-5.63,169.83-12.97,247.01"/>
  <path class="cls-2" d="M951.76,680.56c-2.01,22.58-3.07,47.44-2.48,74.25.65,29.68,3.23,56.95,6.77,81.4"/>
  <path class="cls-1" d="M300.72,258.21c2.33,118.37,2.02,206.93,1.23,268.08,0,0-1.31,101.36,9.75,229.23,3.89,44.97,5.89,46.58,6.41,46.56,1.79-.05,2.56-19.8,2.94-36.96"/>
  <path class="cls-2" d="M321.87,496.58c2.52,42.57,3.85,87.41,3.56,134.34-.23,37.67-1.5,73.95-3.56,108.75"/>
  <path class="cls-2" d="M436.93,216.66c-2.38,39.04-4.24,78.97-5.49,119.77-1.78,58.04-2.23,114.43-1.57,169.08"/>
  <path class="cls-1" d="M721.82,218.32c-3.05,195.04-6.68,277.07-9.53,315.43-3.45,46.57-3.13,68.19-2.5,111.42.15,9.92.67,45.45,2.46,45.48,1.56.03,3.47-26.85,4.92-51.17"/>
  <path class="cls-1" d="M591.74,192.56c7.98,71.01,5.97,128.63,2.47,168.88-5.37,61.82-22.86,181.68-4.94,239.98,1.9,6.19,6.41,18.87,9.4,37.58,2.45,15.37,3.49,32.37,5.18,61.18.95,16.18,1.13,22.06,2.27,22.14,2.55.17,7.36-28.8,10.04-51.27,4.71-39.4,3.59-64.6,3.24-128.47-.08-14.68-.15-37.95,0-67"/>
  <path class="cls-1" d="M1018.45,201.53c6.68,111.41,8.94,231.88,4.32,360.25-3.68,102.47-11.37,199.5-21.73,290.52"/>
  <path class="cls-2" d="M734.13,842.19c.14-23.64.27-47.28.41-70.92"/>
  <path class="cls-2" d="M570.25,836.9c-.37-7.19-.54-14.68-.44-22.45.23-18.51,1.92-35.58,4.38-51"/>
  <path class="cls-2" d="M275.61,780.39c.16,6.75.31,13.51.44,20.29.25,12.9.44,25.73.58,38.49"/>
  <path class="cls-2" d="M866.56,828.48c.33-6.53.53-13.28.57-20.22.06-12.78-.43-24.92-1.32-36.36"/>
  <path class="cls-2" d="M1049.74,820.52c-.67-11.12-.93-22.9-.63-35.28.64-25.95,3.66-49.49,7.72-70.19"/>
  <path class="cls-1" d="M182.52,813.01c1.32-14.4,2.07-30.01,1.91-46.68-.24-24.3-2.38-46.48-5.41-66.15"/>
</svg>