<?xml version="1.0" encoding="UTF-8"?>
<svg id="Layer_1" data-name="Layer 1" xmlns="http://www.w3.org/2000/svg" viewBox="0 0 1224.44 854.51">
  <defs>
    <style>
      .cls-1 {
        fill: #a24646;
        stroke: #793132;
        stroke-miterlimit: 10;
        stroke-width: 5px;
      }
    </style>
  </defs>
  <path class="cls-1" d="M1183.22,262.91c-45.32,15.44-85.19,22.12-116.19,25.01-44.78,4.18-80.38,1.31-98.37-.67-32.85-3.61-56.63-13.38-104.82-21.32-4.88-.8-25.05-4.05-51.3-4.76-8.07-.22-14.68-.38-23.18.36-23.67,2.04-41.14,9.2-45.92,11.07-40.5,15.81-109.46,18.4-117.19,18.66-42.01,1.4-98.53-3.73-136-16.66-3.98-1.37-23.49-8.27-49.25-12.25-13.82-2.14-23.77-2.56-31.64-2.49-7.51.07-18.46.64-31.42,3.04-16.84,3.12-29.11,7.85-32.3,9.03-21.21,7.89-82.81,23.57-143.53,21.32-36.58-1.35-96.97-9.71-129.55-23.32-5.12-2.14-23.78-10.36-48.92-10.66-8.3-.1-15.07.69-19.35,1.33,3.02,4.48,7.71,11.45,13.44,19.99,14.72,21.95,24.19,36.28,26.18,39.25,30.75,46,67.41,74.38,67.41,74.38,13.98,10.82,41.03,31.76,77.78,37.65,65.9,10.56,118.65-34.01,132.6-46.83,31.97-29.39,74.98-89.4,81.41-114.14.51-1.94,2.6-10.65,6.24-11.05,4.87-.53,9.55,14.12,10.67,17.45,8.45,25.17,32.52,50.92,59.99,87.72,25.65,34.38,69.49,62.55,115.78,66.85,7.32.68,75.28,5.84,122.97-45.91,29.31-31.81,56.64-54.53,73.34-95.5,3.17-7.77,11.92-30.63,20.44-29.29,5.18.82,7.14,10.09,13.63,23.78,4.15,8.75,10.43,18.64,24.45,36.73,35,45.17,52.5,67.76,67.41,79.89,32.57,26.5,82.23,42.97,132.6,27.55,68.21-20.89,104.77-90.17,110.8-108.57.8-2.43,6.38-20.22,15.71-43.19,2.64-6.51,4.86-11.65,6.09-14.45Z"/>
  <path class="cls-1" d="M19.35,270.94c4.76,4.98,11.59,11.87,20.07,19.63,15.73,14.39,40.17,36.76,73.2,53.01,8.97,4.41,44.78,21.27,93.85,22.07,16.77.27,49.42.44,88.28-16.55,38.52-16.85,70.04-44.82,80.12-57.02.13-.16,6.15-6.39,18.18-18.85,6.43-6.67,9.73-10.01,13.65-10.63,8.67-1.36,16.25,8.36,19.05,11.81,15.91,19.6,37.92,29.74,56.82,44.73,26.2,20.77,49.99,29.64,61.75,34.02,52.23,19.47,98.89,9.65,114.45,5.56,70.12-18.43,136.44-80.09,144.12-93.02.8-1.35,5.01-8.98,9.63-8.28,2.64.4,4.34,3.35,4.72,3.98,6.7,10.93,78.09,70.2,120.51,90.89,54.81,26.74,108.65,12.22,125.25,6.9,66.24-21.22,104.69-76.93,117.87-98.09"/>
  <path class="cls-1" d="M24.37,259.63c15.33,6.25,37.8,15.2,65.18,25.25,45.14,16.58,67.71,24.87,80.12,27.35,63.59,12.74,124.93-5.37,155.48-19.36,17.62-8.07,36.41-12.51,53.3-22.73,9.63-5.83,21.37-14.04,37.47-13.06,7.64.47,12.89,2.8,19.51,5.56,16.68,6.98,33.96,11.67,50.59,18.84,5.68,2.45,49.74,21.25,87.67,28.91,16.54,3.34,62.68,10.78,115.75-4.59,36.28-10.51,65.37-18.93,91.52-35.04,3.65-2.25,12.85-8.1,25.91-10.43,19.24-3.43,34.65,2.96,43.74,6.67,24.09,9.85,48.56,18.22,72.68,27.95,12.59,5.08,49.29,18.83,94.89,20.44,49.47,1.75,87.25-11.57,102.29-17.52,29.79-11.78,53.08-27.33,69.27-39.98"/>
</svg>