<?xml version="1.0" encoding="UTF-8"?>
<svg id="Layer_1" data-name="Layer 1" xmlns="http://www.w3.org/2000/svg" viewBox="0 0 1222.02 854.51">
  <defs>
    <style>
      .cls-1 {
        fill: none;
        stroke: #793132;
        stroke-miterlimit: 10;
        stroke-width: 5px;
      }
    </style>
  </defs>
  <path vector-effect="non-scaling-stroke" class="cls-1" d="M761.08,11.11c-3.01,39.27-2.01,92.49,15.13,149.97,53.27,178.64,214.79,238.41,237.59,246.38"/>
  <path vector-effect="non-scaling-stroke" class="cls-1" d="M1104.38,378.84c-5.04,6.48-12.83,14.84-23.86,21.47-22.56,13.56-44.15,11.14-52.97,9.54,2.22,6.73,2.53,12.13,2.43,15.74-.16,5.53-1.49,13.95-2.83,22.42-.7,4.41-1.16,7.05,0,8.11,1.81,1.66,6.19-1.78,8.9-3.82,7.47-5.63,15.71-9.71,23.45-14.79,13.15-8.62,15.3-5.43,30.33-13.84,6.3-3.52,14.31-8.77,23.05-16.7.15-3.22.05-8.39-1.62-14.31-1.9-6.74-4.95-11.34-6.87-13.84Z"/>
  <path vector-effect="non-scaling-stroke" class="cls-1" d="M1021.52,468.33c-4.25,8.58-10.51,22.26-16.35,39.95-7.14,21.64-8.65,34.15-15.18,64.75-4.95,23.21-3.86,14.96-16.35,68.2-13.11,55.86-15.31,69.2-16.35,75.77-2.27,14.4-3.19,32.46-5.05,68.56-.06,1.17-.52,11.29,1.73,24.02,1.32,7.49,2.03,11.29,4.42,14.05,3.81,4.4,9.3,3.9,26.5,1.13,12.46-2.01,25.03-3.08,37.45-5.44,10.26-1.95,16.78-3.51,19.59.68,2.42,3.6-.17,8.09,2.5,16.31.82,2.54,2.71,8.37,6.34,10.65,7.85,4.93,17.47-10.86,33.8-15.63,7.03-2.06,17.32-2.67,31.33,4.12"/>
  <path vector-effect="non-scaling-stroke" class="cls-1" d="M1049.16,470.28c-2.23,30.46-5.22,56.05-7.85,75.42-4.28,31.55-6.42,47.33-10.65,62.85-6.32,23.18-11.86,32.7-16.26,56.89-2.98,16.41-3.74,30.18-3.93,39.03"/>
  <path vector-effect="non-scaling-stroke" class="cls-1" d="M1059.26,578.78c-1.51,15.49-3.54,37.55-5.61,64.17-2.7,34.82-4.06,52.69-4.49,75.42-.31,16.78-.22,40.34,1.68,68.8"/>
  <path vector-effect="non-scaling-stroke" class="cls-1" d="M910.1,99.81c-1.47,21.79-1.74,50.94,2.8,84.68,3.34,24.84,10.29,59.54,25.23,96.59,26.4,65.46,65.1,106.85,89.41,128.77"/>
  <path vector-effect="non-scaling-stroke" class="cls-1" d="M834.75,58.2c-2.43,16.86-4.48,41.28-1.62,70.2,4.21,42.69,16.87,72.46,29.21,100.84,13.45,30.93,33.44,75.79,74.65,118.07,30.71,31.5,62.46,50.53,88.5,62.17"/>
  <path vector-effect="non-scaling-stroke" class="cls-1" d="M984.75,176.11c-.09,13.91.37,33.73,3.03,57.28,1.24,10.95,6.51,54.21,26.44,104.33,9.14,22.99,19.46,42.62,33.81,46.03,2.03.48,6.73,1.52,9.97-1.53,5.19-4.9,3.29-17.17,0-33.75-5.07-25.54-9.99-43.78-11.7-50.63-5.42-21.66-6.08-38.39-6.94-59.84-.89-22.4.04-61.78,14.74-111.49"/>
</svg>