<?xml version="1.0" encoding="UTF-8"?>
<svg id="Layer_1" data-name="Layer 1" xmlns="http://www.w3.org/2000/svg" viewBox="0 0 1222.02 854.51">
  <defs>
    <style>
      .cls-1 {
        fill: none;
        stroke: #793132;
        stroke-miterlimit: 10;
        stroke-width: 5px;
      }
    </style>
  </defs>
  <path vector-effect="non-scaling-stroke" class="cls-1" d="M155.15,578.21c-.67-18.94-.93-38.57-.7-58.83.42-36.97,2.45-71.92,5.55-104.63"/>
  <g>
    <path vector-effect="non-scaling-stroke" class="cls-1" d="M567.76,9.27c6.38,39.18,14.14,125.33-32.62,211.5-46.29,85.31-122.59,127.39-171.6,154.45-38.49,21.25-73.32,34.23-98.83,42.25"/>
    <path vector-effect="non-scaling-stroke" class="cls-1" d="M168.32,387.58c5.69,6.24,13.84,13.7,24.93,20.11,25.59,14.79,50.99,14.86,62.6,14.13,0,4.97.38,12.18,2.22,20.65,2.55,11.81,6.48,19.33,4.43,20.65-1.59,1.03-5.21-2.72-10.53-6.52-6.86-4.9-11.06-5.97-27.14-11.96-10.8-4.02-23.6-8.79-34.35-13.59-7.46-3.33-18.1-8.54-30.47-16.31-.23-2.78-.21-6.33.55-10.33,1.53-7.99,5.3-13.71,7.76-16.85Z"/>
    <path vector-effect="non-scaling-stroke" class="cls-1" d="M268.98,472.5c9.37,19.91,22.04,49.09,34.19,85.59,4.62,13.88,9.04,29.49,17.68,60.15,13.82,48.99,20.83,74.01,25.94,99.47,16.51,82.44,4.06,94.09,0,97.16-9.59,7.26-24.45,6.11-38.99,4.99-11.41-.88-22.85-3.75-49.58-6.65-6.53-.71-16.47-1.69-18.65,2.49-2.11,4.06,4.83,9.68,2.6,17.74-.23.83-1.25,4.5-4.29,6.79-9.1,6.83-29.17-4.14-39.83-9.98-11.43-6.25-9.95-7.45-14.41-8.32-13.76-2.67-21.51,9.97-41.95,16.22-6.46,1.97-15.63,3.75-27.55,2.91"/>
    <path vector-effect="non-scaling-stroke" class="cls-1" d="M311.02,190.26c3.56,51.49-6.23,90.72-14.78,115.18-18.91,54.07-49.13,85.63-63.18,87.66-1.05.15-3.27.44-5.16-.78-5.85-3.77-2.5-18.11,4.76-47.08,4.45-17.79,6.68-26.68,7.92-31.27,8.53-31.55,8.64-58.36,8.7-71.66.09-20.78-2.44-55.96-19.13-98.97"/>
    <path vector-effect="non-scaling-stroke" class="cls-1" d="M398.08,119.98c3.18,29.8,4.17,77.47-13.25,131.86-28.78,89.85-89.9,142.17-115.97,162.06"/>
    <path vector-effect="non-scaling-stroke" class="cls-1" d="M488.68,76.8c3.64,21.2,6.65,54.05-.99,92.58-12.13,61.1-44.02,100.93-67.54,129.61-50.74,61.86-110.64,96.46-152.09,115.25"/>
  </g>
</svg>