<?xml version="1.0" encoding="UTF-8"?>
<svg id="Layer_1" data-name="Layer 1" xmlns="http://www.w3.org/2000/svg" viewBox="0 0 1220.88 847.22">
  <defs>
    <style>
      .cls-1, .cls-2 {
        fill: none;
      }

      .cls-1, .cls-2, .cls-3 {
        stroke-width: 2px;
      }

      .cls-1, .cls-2, .cls-3, .cls-4 {
        stroke-miterlimit: 10;
      }

      .cls-1, .cls-4 {
        stroke: #aa4a4b;
      }

      .cls-2, .cls-3 {
        stroke: #231f20;
      }

      .cls-3 {
        fill: #231f20;
      }

      .cls-4 {
        fill: #aa4a4b;
        stroke-width: 6px;
      }
    </style>
  </defs>
  <path class="cls-4" d="M1127.37,837.54c-1.87-1.1-6.94-4.07-8.11-9.86-1.45-7.12,3.7-14.91,10.5-17.26,6.05-2.09,11.47.79,13.36,1.97,1.13.71,7.7,4.83,8.11,12.82.25,4.84-1.81,9.87-5.73,12.82-7.38,5.57-16.73.33-18.13-.49Z"/>
  <path class="cls-4" d="M1164.51,378.53c-3.69-1.89-9.33-1.51-12.43,2.47-3.3,4.25-1.94,10.36.96,13.83,3.96,4.75,11.63,5.58,15.29,1.98,4.48-4.41,2.52-15.03-3.82-18.28Z"/>
  <path class="cls-1" d="M1131.43,793.28c-1.28-4.09,1.23-8.87,5.17-10.69,3.72-1.72,8.78-.83,11.08,3.05,2.49,4.21.5,9.89-3.32,12.21-4.61,2.8-11.36.43-12.93-4.58Z"/>
  <path class="cls-1" d="M1151.28,798.85c1.95-1,4.55-.29,5.84,1.72,1.21,1.89.98,4.49-.56,6.04-1.89,1.91-5.18,1.65-6.81-.43-1.8-2.3-.97-6.05,1.53-7.33Z"/>
  <path class="cls-2" d="M1141.71,373.82c4.69-7.77,13.77-10.95,21.29-10.11,13.28,1.48,24.48,15.79,21.87,27.95-2.98,13.89-23.47,22.54-36.15,13.87-9.25-6.33-13.36-21.2-7.01-31.71Z"/>
  <path class="cls-4" d="M1192.16,631.2c-2.16-1.09-8.73-4.01-15.81-1.59-10.35,3.54-15.2,16.26-14.05,26.32.23,2,1.28,11.22,9.22,16.56,9.69,6.52,20.66,1.23,21.29.91-.22-14.07-.44-28.13-.66-42.2Z"/>
  <path class="cls-2" d="M1195.42,665.03c-2.09-.63-5.27-1.3-9.09-.98-6.94.58-16.77,4.5-20.07,13.5-1.79,4.87-.97,9.32-.57,11.35.35,1.76,1.72,8.77,7.01,12.53,5.93,4.22,15.21,3.22,22.72-2.74v-33.66Z"/>
  <path class="cls-3" d="M1178.22,609.74c-1.13-4.41-6.36-6.99-10.5-5.03-4.21,2-5.64,7.92-3.07,11.64,1.98,2.87,5.97,3.89,9.22,2.38,3.34-1.55,5.26-5.47,4.35-9Z"/>
</svg>