<?xml version="1.0" encoding="UTF-8"?>
<svg id="Layer_1" data-name="Layer 1" xmlns="http://www.w3.org/2000/svg" viewBox="0 0 1220.88 847.22">
  <defs>
    <style>
      .cls-1 {
        stroke: #aa4a4b;
        stroke-width: 6px;
      }

      .cls-1, .cls-2 {
        fill: none;
        stroke-miterlimit: 10;
      }

      .cls-2 {
        stroke: #203555;
        stroke-width: 2px;
      }
    </style>
  </defs>
  <path class="cls-1" d="M878.78,387.76c-.02-2.56-.62-27.06-19.47-40.11-19.05-13.19-42.44-4.78-54.88,4.1-20.02,14.29-22.93,37.84-23.46,44.22-1.63,19.89,6.72,34.42,9.29,38.75,2.29,3.85,15.01,25.26,36.76,29.06,20.69,3.62,29.53-12.2,53.08-7.18,2.73.58,12.08,2.68,20.8,9.57,23.61,18.65,31.6,63.69,10.96,89.96-3.45,4.39-12.12,13.89-29.28,18.68"/>
  <g>
    <path class="cls-2" d="M710.66,317.6c48.39-8.92,104.86-16.09,167.98-18.21,61.75-2.08,117.41,1.09,165.45,6.5,25.53-6.63,51.06-13.27,76.59-19.9-31.54-7.56-67.12-13.97-106.28-17.62-79.72-7.44-149.23-1.12-203.75,8.54-33.33,13.56-66.66,27.13-99.99,40.69Z"/>
    <path class="cls-2" d="M715.78,323.9c10.4,13.77,20.94,29.22,31.11,46.46,27.6,46.76,43.7,91.72,53.4,128.69"/>
    <path class="cls-2" d="M1048.1,314.82c-1.24,23.47-2.29,47.33-3.11,71.55-1.13,33.24-1.81,65.82-2.07,97.72"/>
    <path class="cls-2" d="M1121.2,291.86c-5.69,33.65-10.94,68.74-15.55,105.19-4.47,35.3-8.05,69.51-10.89,102.52"/>
  </g>
  <path class="cls-1" d="M897.03,338.94c5.14,21.33,10.63,43.06,16.5,65.16,6.05,22.74,12.25,44.94,18.57,66.58"/>
  <path class="cls-1" d="M962.35,459.35c2.95-9.65,5.56-17.52,7.56-23.37.97-2.84,2.16-6.2,4.13-6.37,2.06-.19,3.95,3.22,6.19,7.79,2.5,5.1,5.71,12.23,8.94,21.25"/>
  <path class="cls-1" d="M1024.24,333.27c-.58,18.01-1.27,36.19-2.06,54.54-1,22.94-2.15,45.61-3.44,67.99"/>
  <path class="cls-1" d="M941.32,529.53c.78,4.73,1.57,9.45,2.35,14.18"/>
</svg>