<?xml version="1.0" encoding="UTF-8"?>
<svg id="Layer_1" data-name="Layer 1" xmlns="http://www.w3.org/2000/svg" viewBox="0 0 1921.58 1091.26">
  <defs>
    <style>
      .cls-1 {
        fill: #1f3555;
      }

      .cls-1, .cls-2, .cls-3, .cls-4, .cls-5 {
        stroke-miterlimit: 10;
        stroke-width: 2px;
      }

      .cls-1, .cls-4 {
        stroke: #1f3555;
      }

      .cls-2 {
        stroke: #203555;
      }

      .cls-2, .cls-4, .cls-5 {
        fill: none;
      }

      .cls-3 {
        fill: #253e61;
      }

      .cls-3, .cls-5 {
        stroke: #1e3555;
      }
    </style>
  </defs>
  <path class="cls-2" d="M671.36,770.49c-3.79,6.07-12.81,22.29-12.14,44.52.67,22.07,10.49,37.13,15.45,44.52,16,23.83,38.1,32.56,45.24,35.27,10.3,3.9,39.31,12.82,70.61-1.16,43.78-19.55,54.8-67.25,55.89-72.36"/>
  <path class="cls-2" d="M692.22,879.39c-2.15,20.41-5.13,42.1-9.2,64.88-5.47,30.54-12.12,58.62-19.23,84.04,12.67,7.28,31.26,15.81,54.82,19.72,45.3,7.51,81.64-6.59,97.78-14.15-2.42-27.08-4.49-54.96-6.14-83.61-1.3-22.58-2.29-44.72-2.99-66.39"/>
  <path class="cls-2" d="M692.22,879.39c-2.72,6.46-6.92,16.24-12.35,28.23-3.74,8.25-4.68,10.09-5.56,12.99-2.4,7.9-3.4,20.51,5.15,39.49"/>
  <path class="cls-2" d="M698.82,721.11c-4.18,2.33-3.06,4.89-10.25,13.61-7.5,9.09-11.04,9.12-15.04,15.76-2.2,3.65-4.61,9.42-4.79,18.27,2.79.68,7.06,1.64,12.3,2.51,14.81,2.45,22.19,1.63,31.45,2.51,8.79.83,17.25,3.9,34.18,10.03,21.56,7.81,24.12,11.35,36.57,12.54,7.27.69,10.41-.13,18.12,1.79,6.6,1.64,11.13,3.95,21.53,9.67,7.54,4.15,16.28,9.05,25.98,14.69-.08-3.92.82-6.8,2.05-8.95,1.41-2.46,2.95-3.42,2.73-5.01-.28-2.06-3.2-3.23-6.15-4.3-7.05-2.55-10.58-3.82-14.36-4.3-8.33-1.06-14.9-5.22-25.29-11.82-12.84-8.15-10.92-11.95-27.34-25.79-4.93-4.16-11.72-8.74-25.29-17.91-17.02-11.49-23.49-14.95-29.05-17.55-12.31-5.76-20.58-9.49-27.34-5.73Z"/>
  <path class="cls-2" d="M709.76,716.45c5.59-3.83,14.4-8.81,25.98-11.1,13.82-2.74,24.35-.2,40.67,3.94,16.6,4.2,31,7.85,46.14,19.7,10.93,8.55,17.99,18.04,22.22,24.72"/>
  <path class="cls-2" d="M760.42,741.74c6.62-1.6,15.92-3.17,27.07-2.86,9.49.26,15.97,1.77,27.52,4.53,20.2,4.82,30.41,7.4,36.17,15.49,3.79,5.33,4.78,10.78,5.69,15.73,2.66,14.58-1.17,26.64-3.45,32.41"/>
  <path class="cls-2" d="M850.13,890.9c3.41-.18,5.14-1.17,6.88-.15.89.52,1.86,1.63,2.39,4.12.72-2.37,1.54-5.87,1.68-10.15.26-7.85-1.94-13.6-5.05-21.77-3.27-8.57-6.72-14.05-7.72-15.59-2.16-3.35-4.25-6.01-5.9-7.94.71,3.81,1.35,8.83,1.26,14.71-.13,9.11-1.89,13.06-1.68,21.48.09,3.9.61,8.9,2.25,14.71,1.29.33,3.36.72,5.9.59Z"/>
  <path class="cls-2" d="M847.7,836.68c1.7,1.81,4.48,4.31,8.44,5.86,4.52,1.78,7.27,1.04,12.66,2.26,2.72.62,6.64,1.86,11.19,4.63-1.61,1.22-3.77,3.25-5.01,6.38-1.27,3.23-.58,5.19-1.67,8.33-.7,2.04-2.23,4.81-5.99,7.51"/>
  <path class="cls-4" d="M849.16,817.08c3.73-.69,7.39.55,9.43,3.31,3.08,4.16,1.46,10.41-1.94,13.69-3.65,3.52-9.57,3.85-14.11.51"/>
  <path class="cls-2" d="M807.08,883.34c2.13,6.7,5.43,16.86,9.75,29.33,2.75,7.94,3.75,10.09,4.36,13.49,1.39,7.68.85,19.73-10.13,36.76"/>
  <path class="cls-2" d="M714.44,1047.75v18.12l-7.66.62"/>
  <path class="cls-2" d="M733.12,1049.12v18.12l7.66.62"/>
  <path class="cls-5" d="M685.25,785.67c4.43,0,9.3.2,14.52.76,4.29.46,8.29,1.09,11.98,1.81"/>
  <path class="cls-3" d="M689.07,775.3c1.88.33,3.8.24,5.69.47,3.7.45,5.55.67,7.08.77,3.28.23,5.67.13,9.52.86,1.36.26,3.08.65,3.45,1.83.16.51.05,1.13-.26,1.55-.67.93-2.19.82-2.86.76-7.42-.65-11.13-.97-13.58-1.22-10.56-1.05-10.58-1.05-10.58-1.05-.78-.04-3.59-.17-3.97-1.42-.11-.34-.05-.82.11-1.19.11-.26.4-.77,1.32-1.17,1.55-.67,3.27-.34,4.08-.19Z"/>
  <path class="cls-1" d="M696.24,794.43c-.57-1.69,0-3.93,1.28-4.99s2.77-.55,3.34,1.14c.57,1.69,0,3.93-1.28,4.99-1.28,1.06-2.77.55-3.34-1.14Z"/>
  <path class="cls-3" d="M810.53,802.74c-1.87-.39-3.63-1.19-5.48-1.68-3.61-.96-5.41-1.44-6.88-1.91-3.14-1.01-5.35-2-9.19-2.75-1.36-.27-3.1-.54-3.84.43-.32.42-.43,1.03-.29,1.55.31,1.12,1.77,1.58,2.42,1.77,7.16,2.16,10.73,3.24,13.1,3.92,10.23,2.96,10.25,2.97,10.25,2.97.74.25,3.41,1.18,4.2.15.22-.28.32-.75.3-1.16-.02-.28-.11-.87-.84-1.59-1.22-1.21-2.94-1.53-3.75-1.7Z"/>
  <path class="cls-5" d="M810.55,812.87c-4.17-1.58-8.81-3.11-13.91-4.45-4.18-1.1-8.15-1.93-11.86-2.55"/>
  <path class="cls-1" d="M797.39,817.2c1.09-1.39,1.27-3.69.41-5.14s-2.43-1.5-3.52-.11-1.27,3.69-.41,5.14c.86,1.45,2.43,1.5,3.52.11Z"/>
  <path class="cls-4" d="M738.37,810.67c-1.17,1.17-2.89,2.92-4.89,5.13-5.25,5.79-5.8,7.38-6.01,8.63-.62,3.72,1.39,6.86,1.78,7.46,2.61,4.07,7.71,6.07,13.12,5.36"/>
  <path class="cls-4" d="M719.02,864.75c3.12,1.8,7.47,3.85,12.9,5.13,8.13,1.92,15.05,1.25,19.35.47"/>
  <path class="cls-1" d="M756.19,862.64c-.31-.99.14-2.34.99-3.02s1.8-.43,2.11.56-.14,2.34-.99,3.02-1.8.43-2.11-.56Z"/>
</svg>