<?xml version="1.0" encoding="UTF-8"?>
<svg id="Layer_1" data-name="Layer 1" xmlns="http://www.w3.org/2000/svg" viewBox="0 0 1220.88 847.22">
  <defs>
    <style>
      .cls-1, .cls-2, .cls-3, .cls-4, .cls-5, .cls-6, .cls-7 {
        stroke-miterlimit: 10;
      }

      .cls-1, .cls-2, .cls-4, .cls-5, .cls-7 {
        fill: none;
      }

      .cls-1, .cls-3, .cls-4 {
        stroke: #1f3555;
      }

      .cls-2, .cls-3, .cls-4, .cls-5, .cls-6 {
        stroke-width: 2px;
      }

      .cls-2, .cls-6 {
        stroke: #203555;
      }

      .cls-3 {
        fill: #1f3555;
      }

      .cls-5, .cls-7 {
        stroke: #1e3555;
      }

      .cls-6 {
        fill: #fff6eb;
      }

      .cls-7 {
        stroke-width: 1.5px;
      }
    </style>
  </defs>
  <g>
    <path class="cls-2" d="M89.1,647.23c1.33,6.61,4.29,15.79,11.55,23.68,17.01,18.48,44.9,16.04,66.23,14.17,24.57-2.15,46.84-4.1,58.52-21.86,10.21-15.53,6.48-34.29,4.77-41.09"/>
    <path class="cls-2" d="M112.6,680.14c-1.24,16.61-3.3,34.53-6.5,53.52-4.59,27.22-10.72,51.76-17.3,73.32,10.99,4.07,26.67,8.7,45.94,10.58,22.67,2.21,40-.38,51.3-2.15,13.3-2.08,31-6.04,50.95-14.06-4.76-15.92-9.2-33.67-12.73-53.11-5.05-27.76-7.21-53.17-7.8-75.33"/>
    <path class="cls-2" d="M85.92,575.97c6.66-3.11,16.44-8.09,27.54-15.38,23.51-15.46,26.34-23.85,42.74-33.94,11.16-6.86,38.42-23.63,61.31-12.4,16.92,8.3,29.6,30.97,26.78,47.81-.91,5.45-3.64,11.41-3.28,22.18.12,3.62.61,8.41,3.14,17.58,4.79,17.3,8.33,19.27,12.34,32.77,2.63,8.84,5.62,20.07,2.29,33.06-2.42,9.43-7.31,16.21-10.82,20.25-1.68-.97-4.48-2.29-8.13-2.65-3.86-.38-6.92.47-9.44,1.18-2.39.67-4.32,1.5-5.69,2.16"/>
    <path class="cls-2" d="M78.59,577.53c-2.52,1.99-5.84,4.99-9.07,9.17-8.58,11.11-10.4,22.67-11.05,27.17-.53,3.67-2.58,20.11,5.17,37.17,4.58,10.09,9.08,12.69,8.75,20.62-.31,7.5-4.57,10.82-3.55,17.82.86,5.87,4.83,10.21,8.21,13.04,2.02-2.14,3.99-2.98,5.13-3.34,2.45-.79,4.57-.51,8.19,0,2.51.35,4.54.86,5.89,1.25"/>
    <path class="cls-6" d="M129.48,733.95c1.38.39,4.43-1.97,7.12-4.05,2.55-1.97,6.63-5.12,5.91-6.49-.56-1.06-3.83-.66-6.02.09-2.9,1-4.62,2.86-5.18,3.48-2.5,2.78-3.38,6.53-1.83,6.96Z"/>
    <path class="cls-2" d="M112.35,680.32c-3.01,6.2-6.79,15.73-8.43,27.87-1.32,9.8-2.1,15.56.07,19.12,9,14.75,69.53-6.79,86.24-12.96"/>
    <path class="cls-2" d="M216.46,672.91c1.68,5.04,4.82,14.45,9.03,26.77,2.8,8.21,2.98,9.33,2.75,10.58-1.23,6.65-16.08,14.36-86.89,13.86"/>
    <path class="cls-2" d="M106.86,574.14c3.88-.84,9.68-2.36,16.28-5.26,20.05-8.79,22.95-19.42,42.1-32.29,11.21-7.54,26.94-18.11,43.32-13.68,2.08.56,14.41,3.9,19.52,15.81,5.53,12.88-1.94,25.18-2.75,26.46"/>
    <path class="cls-2" d="M131.07,576.42c3.04-.68,7.5-1.92,12.51-4.26,10.53-4.92,13.75-10.15,25.02-19.77,13.01-11.11,20.59-17.41,31.12-17.64,2.35-.05,11.43-.25,15.88,5.89,4.5,6.2,1.48,15.04.78,17.08-1.45,4.24-3.77,7.18-5.29,8.85"/>
    <path class="cls-2" d="M177.18,815.88c-.41,8.52-.83,17.03-1.24,25.55,4.49.69,8.99,1.38,13.48,2.08"/>
    <path class="cls-2" d="M149.97,818.4c-.41,8.52-.83,17.03-1.24,25.55,4.49.69,8.99,1.38,13.48,2.08"/>
    <path class="cls-6" d="M188.37,715.43c.89,1.12,4.75.99,8.15.88,3.22-.11,8.38-.28,8.6-1.8.17-1.19-2.72-2.77-4.93-3.44-2.94-.89-5.42-.38-6.24-.21-3.66.79-6.58,3.32-5.58,4.57Z"/>
    <g>
      <path class="cls-4" d="M172.76,627.44c8.91,17.21,51.95,13.9,58.27-6.22,1.82-5.79,1.01-14.28.71-17.47-.74-7.78-2.71-13.94-4.28-17.91-19.42,2.07-38.85,4.15-58.27,6.22-.51,5.05-.87,12.69.42,21.82.84,5.97,1.45,10.29,3.15,13.56Z"/>
      <path class="cls-4" d="M169.49,609.12c-2.28-.67-6.84-1.69-12.44-.61-4.97.95-8.52,3.13-10.4,4.48"/>
      <path class="cls-4" d="M88.15,636.18c8.91,17.21,51.95,13.9,58.27-6.22,1.82-5.79,1.01-14.28.71-17.47-.74-7.78-2.71-13.94-4.28-17.91-19.42,2.07-38.85,4.15-58.27,6.22-.51,5.05-.87,12.69.42,21.82.84,5.97,1.45,10.29,3.15,13.56Z"/>
    </g>
    <path class="cls-2" d="M86.57,632.32c-.57-.16-4.08-1.11-7.26.96-3.31,2.16-4.5,6.45-3.42,9.74,1.44,4.38,6.99,7.2,12.57,5.41"/>
    <path class="cls-5" d="M162.25,633.08c-.49,2.44-.11,3.38.37,3.79.77.66,1.65-.23,3.77.05.87.11,2.5.32,3.53,1.7.74.99,1.02,2.38.73,3.61-.57,2.42-3.08,3.22-3.67,3.41-1.96.63-3.65.01-4.28-.25"/>
    <g>
      <path class="cls-3" d="M115.8,625.85c-1.64-.08-3.08-2.73-2.4-4.71.35-1.04,1.4-2.21,2.66-2.16,1.53.06,2.61,1.87,2.61,3.41,0,1.77-1.49,3.53-2.87,3.46Z"/>
      <path class="cls-3" d="M108.48,619.67c1.53-.45,3.18-.87,4.96-1.24,2.86-.58,5.51-.91,7.89-1.07"/>
    </g>
    <g>
      <path class="cls-3" d="M201.24,615.55c1.6-.38,2.52-3.24,1.5-5.07-.54-.96-1.78-1.92-3.01-1.64-1.49.34-2.23,2.32-1.94,3.82.34,1.74,2.11,3.2,3.45,2.88Z"/>
      <path class="cls-3" d="M207.3,608.13c-1.58-.16-3.29-.28-5.1-.31-2.92-.05-5.58.12-7.95.39"/>
    </g>
    <g>
      <path class="cls-7" d="M154.94,669.8c2.71.82,5.06,1.14,6.79,1.27,1.58.12,3.4.25,5.77-.12,2.22-.35,4.01-1,5.24-1.55"/>
      <path class="cls-7" d="M172.79,669.3c.18.19,1.25,1.33,1.02,2.77-.22,1.42-1.54,2.16-2.16,2.5-1.86,1.03-3.74.79-6.03.45-1.61-.23-4.83-.74-8.16-3.09-1.36-.96-2.35-1.95-3.01-2.7,2.47-.04,4.58-.44,6.33-.96,1.38-.41,2.77-.96,3.85-1.4,3.51-1.41,4.48-2.16,6.08-1.84.38.08,2,.4,2.5,1.72.44,1.17-.3,2.34-.42,2.53Z"/>
    </g>
  </g>
  <path class="cls-1" d="M110.95,656.54c1.98-3.39,2.98-3.88,3.52-3.71.86.26.72,2.19,1.64,2.46,1.38.41,3.16-3.44,4.22-3.03.71.28.29,2.18,1.03,2.53.75.36,2.21-1.08,3.82-3.13"/>
  <path class="cls-1" d="M197.87,646.38c1.98-3.39,2.98-3.88,3.52-3.71.86.26.72,2.19,1.64,2.46,1.38.41,3.16-3.44,4.22-3.03.71.28.29,2.18,1.03,2.53.75.36,2.21-1.08,3.82-3.13"/>
</svg>