<?xml version="1.0" encoding="UTF-8"?>
<svg id="Layer_1" data-name="Layer 1" xmlns="http://www.w3.org/2000/svg" viewBox="0 0 1220.88 847.22">
  <defs>
    <style>
      .cls-1, .cls-2, .cls-3, .cls-4 {
        fill: none;
      }

      .cls-1, .cls-2, .cls-3, .cls-4, .cls-5 {
        stroke-miterlimit: 10;
      }

      .cls-1, .cls-3 {
        stroke: #1f3555;
      }

      .cls-6 {
        fill: #db9ec7;
      }

      .cls-2, .cls-3, .cls-4, .cls-5 {
        stroke-width: 2px;
      }

      .cls-2, .cls-5 {
        stroke: #203555;
      }

      .cls-4 {
        stroke: #1e3555;
      }

      .cls-5 {
        fill: #fff6eb;
      }
    </style>
  </defs>
  <path class="cls-2" d="M724.92,638.77c-3.53-2.18-7.98-1.44-10.42,1.53-2.87,3.49-1.81,8.61.74,11.25,3.26,3.36,9.58,3.31,13.65-1.15"/>
  <g>
    <path class="cls-2" d="M821.37,520.71c6.01-3.93,11.38-6.13,15.13-7.4,7.12-2.4,11.45-3.8,14.98-1.47,4.74,3.14,4.56,10.74,4.53,11.8-.24,9.79-8.76,15.65-9.86,16.37"/>
    <g>
      <path class="cls-2" d="M867.24,605.48c1.16-5.49,5.41-8.93,9.07-8.56,4.72.49,7.56,7.22,6.47,12.24-1.14,5.2-6.65,9.16-13.08,8.52"/>
      <g>
        <path class="cls-2" d="M753.16,543.91c2.83-2.67,7.29-6.33,13.45-9.33,6.06-2.95,12.74-4.74,21.73-5.33,20.63-1.34,40.38-2.63,57.8,10.76,23.12,17.76,24.78,48.02,24.98,52.92"/>
        <path class="cls-2" d="M804.51,519.04c-4.2-2.57-10.23-6.43-17.22-11.54-11.23-8.21-13.65-11.38-17.96-10.78-7.18,1-13.07,11.61-13.27,21.13-.2,9.66,5.5,16.38,7.07,18.11"/>
        <path class="cls-2" d="M803.63,529.26c-.25-.46-2.2-4.3-.44-8.14,2.15-4.68,7.76-4.87,8.52-4.89,3.84-.06,7.88,2.12,9.66,6.06,1.65,3.64.61,7.11.33,7.97"/>
        <path class="cls-2" d="M785.95,505.98c-.45-2.21-3.33-17.67,5.76-27.64,12.66-13.9,41.44-9.31,47.92,6.24,4.45,10.68-3.05,23.08-4.45,25.32"/>
        <path class="cls-2" d="M792.96,507.25c-.77-1.81-3.64-9.13-.49-16.33,4.34-9.92,16.42-11.16,19.91-11.52.88-.09,14.23-1.24,23.97,8.74,2.88,2.95,7.63,7.81,7.01,14.18-.64,6.53-6.71,12.39-15.24,14.43"/>
        <path class="cls-2" d="M831.32,511.3c5.91-13.9,2.22-28.37-6.64-34.06-8.47-5.44-19.1-1.19-21.51-.13-2.97,1.31-12.2,5.37-14.26,15.19-1.78,8.48,2.5,17.89,9.83,21.78,3.86,2.05,7.65,2.08,9.83,1.9"/>
        <path class="cls-2" d="M816.32,516.61c9.07-4.16,13.84-12.9,12.17-19.37-2.52-9.77-19.52-13.66-25.82-7.22-3.88,3.97-3.14,11.3-1.84,15.45,2.01,6.42,6.77,9.71,8.24,10.64"/>
        <g>
          <path class="cls-2" d="M716.85,636.98c-1.42-2.22-16.73-27-5.74-55.18,9.48-24.31,31.3-32.62,34.67-33.84"/>
          <path class="cls-2" d="M776.83,566.49c5.89,4.69,14.31,10.37,25.28,14.88,11.67,4.79,21.24,6.19,27.41,7.06,7.61,1.06,17.84,1.79,29.9.64"/>
          <g>
            <path class="cls-2" d="M724.17,637.89c2.39,7.27,9.54,25.78,28.05,40,3.9,2.99,26.78,19.99,58.25,15.55,7.53-1.06,39.68-5.6,54.47-35,12.48-24.8,3.83-49.85,2.16-54.44"/>
            <path class="cls-2" d="M775.48,690.53c.14,14.74-.18,30.38-1.15,46.79-1.47,24.83-4.19,47.81-7.56,68.7,13.51,4.03,36.38,8.82,64.09,4.62,43.92-6.66,72.46-31.73,83.17-42.21-5.98-8.56-11.99-18-17.8-28.33-16.23-28.88-26.26-56.55-32.62-80.03"/>
            <path class="cls-2" d="M725.09,632.65c8.63-6.17,21.02-16.7,31.82-33.08,7.62-11.56,12.15-22.46,14.87-30.94"/>
            <path class="cls-2" d="M864.15,662.73c0,27.42-1.08,41.22-3.25,41.4-1.73.15-4.14-8.34-7.24-25.46"/>
            <path class="cls-2" d="M775.41,692.1c-.4,3.74-1.19,9.13-2.92,15.46-1.71,6.26-2.62,9.42-4.8,10.95-6.7,4.7-20.38-6.11-21.06-6.66"/>
            <path class="cls-5" d="M853.49,679.63c1.69-.4,2.68-4.56,3.55-8.24.82-3.48,2.15-9.05.28-10.03-1.46-.77-4.34,1.53-5.86,3.56-2.01,2.69-2.11,5.57-2.13,6.54-.09,4.27,2.26,8.62,4.16,8.17Z"/>
            <path class="cls-5" d="M750.85,711.07c-.56,1.84-1.82,3.07-1.82,3.07-1.92,1.87-4.38,2.02-4.74,2.03-2.23.1-4.5-.89-5.52-2.73-.25-.45-1.05-1.89-.41-3.18.62-1.24,2.08-1.35,2.23-2.24.13-.76-.84-1.22-2.02-2.2-2.01-1.68-3.81-4.19-3.29-4.85.54-.69,3.71.52,4.33.76,2.21.85,3.18,1.75,3.57,1.43.4-.33-.4-1.48-1.04-3.89-.51-1.91-.91-3.44-.49-3.71,1.26-.81,11.1,9.27,9.21,15.5Z"/>
            <path class="cls-2" d="M833.24,810.64c1.61,8.83,3.21,17.66,4.82,26.48-3.96,1.49-7.91,2.97-11.87,4.46"/>
            <path class="cls-2" d="M846.24,806.99c-1.03,5.59-2.07,11.17-3.1,16.76,4.59.74,9.17,1.49,13.76,2.23-1.09,2.69-2.19,5.38-3.28,8.07"/>
            <path class="cls-3" d="M808.13,672.95c-.33,2.29-2.21,3.63-3.8,3.34-1.29-.24-2.4-1.55-2.54-2.8-.21-1.87,1.82-3,1.36-3.73-.51-.82-3.03.62-4.52-.58-.99-.79-1.24-2.52-.68-3.74.56-1.24,1.79-1.65,2.45-1.87,1.58-.53,3-.15,3.54.02"/>
            <path class="cls-4" d="M813.85,619.25c1.87,1.09,6.31,3.3,11.03,1.9,4.9-1.45,7.31-5.98,8.19-7.93"/>
            <path class="cls-4" d="M750.7,638.17c1.87,1.09,6.31,3.3,11.03,1.9,4.9-1.45,7.31-5.98,8.19-7.93"/>
            <path class="cls-4" d="M797.63,637.64c.99,2.03.86,2.96.51,3.44-.55.77-1.55.2-3.41.97-.76.31-2.2.9-2.82,2.37-.45,1.06-.39,2.35.15,3.37,1.06,2,3.52,2.09,4.11,2.12,1.92.08,3.32-.88,3.83-1.27"/>
            <g>
              <path class="cls-6" d="M772.61,651.96c.98,1.89-2.98,5.24-8.84,7.49s-11.4,2.53-12.38.63,2.98-5.24,8.84-7.49c5.86-2.24,11.4-2.53,12.38-.63Z"/>
              <path class="cls-1" d="M753.73,660.89c1.84-4.04,3.05-4.83,3.82-4.82,1.22,0,1.48,2.02,2.78,2.02,1.94,0,3.4-4.44,4.91-4.34,1.02.07.91,2.13,1.98,2.27,1.08.14,2.7-1.76,4.36-4.32"/>
            </g>
            <g>
              <path class="cls-6" d="M846.04,631.31c.98,1.89-2.98,5.24-8.84,7.49-5.86,2.24-11.4,2.53-12.38.63-.98-1.89,2.98-5.24,8.84-7.49,5.86-2.24,11.4-2.53,12.38-.63Z"/>
              <path class="cls-1" d="M827.16,640.24c1.84-4.04,3.05-4.83,3.82-4.82,1.22,0,1.48,2.02,2.78,2.02,1.94,0,3.4-4.44,4.91-4.34,1.02.07.91,2.13,1.98,2.27,1.08.14,2.7-1.76,4.36-4.32"/>
            </g>
          </g>
        </g>
      </g>
    </g>
  </g>
</svg>