<?xml version="1.0" encoding="UTF-8"?>
<svg id="Layer_1" data-name="Layer 1" xmlns="http://www.w3.org/2000/svg" viewBox="0 0 818.61 789.8">
  <defs>
    <style>
      .cls-1 {
        fill: none;
        stroke: #1e3555;
        stroke-miterlimit: 10;
        stroke-width: 14px;
      }
    </style>
  </defs>
  <path class="cls-1" d="M6.94,163.26c.72-5.27,15.73-98.91,127.38-139.85,77.84-28.54,164.97-17.65,226.73,15.76,88.38,47.8,96.14,126.15,97.86,143.45,7.39,74.61-38.89,157.51-115.09,183.54-6.2,2.12-65.58,22.4-97.41,1.97-1.49-.95-16.99-11.19-15.29-23.64,2.69-19.64,46.17-30.07,62.34-33.95,52.53-12.6,131.05-12.66,200.06,20.16,100.4,47.75,120.08,136.27,123.63,152.25,21.39,96.24-31.23,225.48-179.83,278.08-144.39,51.11-323.1,9.94-412.55-99.42"/>
</svg>