<?xml version="1.0" encoding="UTF-8"?>
<svg id="Layer_1" data-name="Layer 1" xmlns="http://www.w3.org/2000/svg" viewBox="0 0 757.33 754.46">
  <defs>
    <style>
      .cls-1 {
        fill: #fff6eb;
      }

      .cls-1, .cls-2, .cls-3, .cls-4, .cls-5, .cls-6 {
        stroke-miterlimit: 10;
      }

      .cls-1, .cls-2, .cls-3, .cls-5 {
        stroke-width: 4px;
      }

      .cls-1, .cls-3, .cls-4, .cls-5, .cls-6 {
        stroke: #1f3555;
      }

      .cls-2 {
        stroke: #1e3555;
      }

      .cls-2, .cls-5, .cls-6 {
        fill: none;
      }

      .cls-3, .cls-4 {
        fill: #1f3555;
      }

      .cls-4, .cls-6 {
        stroke-width: 3px;
      }
    </style>
  </defs>
  <path class="cls-6" d="M204.99,332.79c10.91-9.42,15.09-10.01,16.9-8.86,2.87,1.81.23,8.24,3.31,10.16,4.59,2.86,15.29-8.34,18.7-5.8,2.3,1.71-1.31,7.73,1,9.73,2.33,2.03,9.25-1.32,17.35-6.54"/>
  <path class="cls-5" d="M236.16,424.78c-8.52,78.92-17.04,157.84-25.57,236.76,25.81,12.03,65,26.99,114.62,34.01,35.67,5.04,79.86,11.59,132.91-3.51,57.88-16.48,97.03-50.27,118.38-72.52-24.74-68.58-49.48-137.16-74.22-205.74"/>
  <path class="cls-6" d="M337.36,318.07c-1.49.02-10.35.3-16.36,7.25-4.18,4.83-6.8,12.67-3.72,19.04,4.11,8.5,17.99,13.61,31.58,8.17"/>
  <path class="cls-6" d="M338.34,421.56c-3.84,4.52-9.89,4.8-13.07,1.95-2.58-2.31-3.29-6.69-1.9-9.6,2.07-4.34,8.16-3.98,8.12-6.2-.04-2.48-7.65-2.86-9.37-7.54-1.14-3.1.63-7.19,3.55-9.08,2.94-1.91,6.27-1.09,8.05-.65,4.26,1.05,6.95,3.84,7.92,4.96"/>
  <path class="cls-5" d="M169.2,272.64c-2.35,14.39-9.73,70.64,28.17,118.36,29.38,37.01,67.53,48.82,102.72,58.98,21.67,6.26,74.51,20.76,134.97,1.38,16.14-5.17,38.77-12.43,60.29-31.96,46.21-41.92,47-103.81,46.78-118.76"/>
  <path class="cls-5" d="M353.35,21.17c15.14-4.56,38.45-9.27,66.14-5.32,69.51,9.91,111.82,66.61,125.1,84.41,13.46,18.03,15.59,25.98,61.15,159.59,24.8,72.73,31.71,92.51,46.24,120.88,21.7,42.36,45.29,74.42,61.85,94.9-7.77,6.71-19.48,15.31-35.46,22.35-16.61,7.31-31.8,10.28-42.59,11.56-9.61-9.24-19.22-18.48-28.84-27.72,2.39,10.66,4.79,21.32,7.18,31.98-6.01,4.95-13.54,10.31-22.72,15.28-15.52,8.4-30.23,12.68-41.45,14.96"/>
  <path class="cls-5" d="M300.52,70.33c-3.65,10.19-9.74,23.01-20.16,35.79-25.13,30.78-59.09,41.2-73.69,44.75"/>
  <path class="cls-5" d="M331.75,66.37c17.42,16.15,39.44,34.05,66.48,51.24,43.19,27.46,84.07,43.46,115.4,53.03"/>
  <path class="cls-5" d="M305.39,21.11c-40.03,9.21-95.66,28.93-134.73,76.17-14.31,17.31-17.13,27.1-54.16,120.7-34.04,86.04-40.37,113.41-66.16,159.14-17.94,31.81-35.72,56.12-47.85,71.59,5,7.22,13.58,17.77,27.03,27.35,17.04,12.14,33.68,16.89,43.2,18.89,7.54-9.09,15.07-18.19,22.61-27.28-3.08,11.43-6.17,22.86-9.25,34.29,19.23,10.35,43.11,21.05,71.4,29.37,14.94,4.4,29.05,7.52,42.04,9.75"/>
  <g>
    <path class="cls-6" d="M146.42,219.94c-.11-41.99,37.42-73.61,83.82-70.64,46.4,2.97,84.1,39.42,84.21,81.4.11,41.99-37.42,73.61-83.82,70.64-46.4-2.97-84.1-39.42-84.21-81.4"/>
    <path class="cls-6" d="M384.66,244.25c-5.74-2.98-17.65-8.35-33.88-10.04-16.78-1.74-29.56,1.35-35.59,3.17"/>
    <path class="cls-6" d="M386.97,232.56c9.6-41.65,54.18-64.39,99.59-50.79,45.4,13.6,74.43,58.4,64.84,100.06-9.6,41.65-54.18,64.39-99.59,50.79-45.4-13.6-74.43-58.4-64.84-100.06"/>
  </g>
  <g>
    <path class="cls-6" d="M244.37,250.67c6.13-10.18,3.24-24.06-6.45-31-9.69-6.94-22.51-4.32-28.63,5.86-6.13,10.18-3.24,24.06,6.45,31,9.69,6.94,22.51,4.32,28.63-5.86Z"/>
    <path class="cls-4" d="M237.57,254.53c4.79-7.18,2.63-19.2-4.83-26.84-7.45-7.64-17.38-8.01-22.16-.83-4.79,7.18-2.63,19.2,4.83,26.84,7.45,7.64,17.38,8.01,22.16.83Z"/>
  </g>
  <path class="cls-6" d="M427.3,358.33c9.93-10.36,14.02-11.31,15.92-10.32,3.02,1.57,1,8.22,4.24,9.88,4.82,2.47,14.38-9.65,18-7.41,2.44,1.51-.57,7.84,1.91,9.65,2.5,1.83,9.05-2.11,16.59-8.04"/>
  <g>
    <path class="cls-5" d="M501.71,414.55c20.03,18.84,40.07,37.68,60.1,56.52,2.76,14.3,5.52,28.59,8.29,42.89"/>
    <path class="cls-1" d="M568.65,511.27c-3.37.97-4.3,9.05-5.27,17.49-.76,6.63-1.22,11.2,1.39,13.68,1.89,1.8,4.89,2.02,7.14.94,3.31-1.58,4.44-5.69,5.47-9.42.59-2.15,1.63-5.89.84-10.32-1.17-6.57-6.11-13.36-9.57-12.37Z"/>
  </g>
  <path class="cls-5" d="M235.67,426.62c-13.87,23.39-27.75,46.79-41.62,70.18-15.61,11.8-31.22,23.59-46.84,35.39"/>
  <path class="cls-3" d="M112.63,565.21c-3.22,2.54-6.45,5.08-9.67,7.62,1.34-3.93,2.69-7.85,4.03-11.78,11.82-15.68,23.64-31.35,35.46-47.03,1.47,1.24,2.95,2.49,4.42,3.73-11.41,15.82-22.83,31.64-34.24,47.45Z"/>
  <path class="cls-1" d="M151.1,531.75c-2.26-3.79-11.65-2.32-21.46-.79-7.71,1.2-12.99,2.11-14.87,6.07-1.37,2.88-.56,6.59,1.43,8.97,2.93,3.51,7.94,3.57,12.48,3.63,2.62.03,7.17.09,11.87-2.29,6.97-3.53,12.87-11.71,10.56-15.59Z"/>
  <g>
    <path class="cls-6" d="M476.59,279.23c6.13-10.18,3.24-24.06-6.45-31-9.69-6.94-22.51-4.32-28.63,5.86-6.13,10.18-3.24,24.06,6.45,31,9.69,6.94,22.51,4.32,28.63-5.86Z"/>
    <path class="cls-4" d="M469.79,283.09c4.79-7.18,2.63-19.2-4.83-26.84-7.45-7.64-17.38-8.01-22.16-.83-4.79,7.18-2.63,19.2,4.83,26.84,7.45,7.64,17.38,8.01,22.16.83Z"/>
  </g>
  <path class="cls-2" d="M373.56,699.11l2.13,50.87c-6.83.8-13.65,1.61-20.48,2.41"/>
  <path class="cls-2" d="M428.62,699.13l2.13,50.87c-6.83.8-13.65,1.61-20.48,2.41"/>
</svg>