<?xml version="1.0" encoding="UTF-8"?>
<svg id="Layer_1" data-name="Layer 1" xmlns="http://www.w3.org/2000/svg" viewBox="0 0 1185.3 100.71">
  <defs>
    <style>
      .cls-1 {
        stroke: #1e3555;
      }

      .cls-1, .cls-2 {
        fill: none;
        stroke-miterlimit: 10;
        stroke-width: 4px;
      }

      .cls-2 {
        stroke: #203555;
      }
    </style>
  </defs>
  <g>
    <path class="cls-2" d="M.03,91.82c3.81.06,9.39-.12,16.13.12,17.11.62,25.54,1.93,39.16-1.83,11.22-3.1,24.07-6.65,31.79-19.4,8.6-14.21,7.37-34.14-1-48.33-1.98-3.35-11.25-18.05-28.45-20.14C40.31.13,28.34,12.51,25.53,15.42c-10.44,10.8-12.7,23.88-13.39,28.19-.95,5.95-2.81,17.62,3.01,27.82,5.08,8.9,13.56,12.4,18.74,14.28,26.39,9.58,54.35,8.92,70.28,8.79,19.13-.16,27.58.39,36.03.94,13.15.86,24.85.89,41.27.89,13.6,0,32.78.06,56.26-.93"/>
    <path class="cls-2" d="M236.71,95.4c18.38.06,33.9-.09,45.86-.27,18.96-.29,28.42-.63,35.17-1.03,14.62-.86,18.61-1.81,36.45-1.17,17.11.62,25.54,1.93,39.16-1.83,11.22-3.1,24.07-6.65,31.79-19.4,8.6-14.21,7.37-34.14-1-48.33-1.98-3.35-11.25-18.05-28.45-20.14-17.35-2.1-29.31,10.27-32.13,13.18-10.44,10.8-12.7,23.88-13.39,28.19-.95,5.95-2.81,17.62,3.01,27.82,5.08,8.9,13.56,12.4,18.74,14.28,26.39,9.58,54.35,8.92,70.28,8.79,19.13-.16,27.58.39,36.03.94,13.33.87,25.25.89,41.27.89,13.67,0,32.49-.23,55.57-1.14"/>
    <path class="cls-2" d="M574.4,96.22c17.64.03,32.63-.13,44.31-.31,19.02-.29,28.52-.64,35.17-1.03,14.62-.86,18.61-1.81,36.45-1.17,17.11.62,25.54,1.93,39.16-1.83,11.22-3.1,24.07-6.65,31.79-19.4,8.6-14.21,7.37-34.14-1-48.33-1.98-3.35-11.25-18.05-28.45-20.14-17.35-2.1-29.31,10.27-32.13,13.18-10.44,10.8-12.7,23.88-13.39,28.19-.95,5.95-2.81,17.62,3.01,27.82,5.08,8.9,13.56,12.4,18.74,14.28,26.39,9.58,54.35,8.92,70.28,8.79,19.13-.16,27.58.39,36.03.94,13.15.86,24.85.89,41.27.89,13.69,0,32.74-.18,56.26-.93"/>
    <path class="cls-2" d="M910.88,97.18c18.38.06,33.9-.09,45.86-.27,18.96-.29,28.42-.63,35.17-1.03,14.62-.86,18.61-1.81,36.45-1.17,17.11.62,25.54,1.93,39.16-1.83,11.22-3.1,24.07-6.65,31.79-19.4,8.6-14.21,7.37-34.14-1-48.33-1.98-3.35-11.25-18.05-28.45-20.14-17.35-2.1-29.31,10.27-32.13,13.18-10.44,10.8-12.7,23.88-13.39,28.19-.95,5.95-2.81,17.62,3.01,27.82,5.08,8.9,13.56,12.4,18.74,14.28,26.39,9.58,54.35,8.92,70.28,8.79,11.5-.09,19.14.07,25.24.33,4.9.21,7.45.42,10.8.61,7.71.44,18.76.76,32.81.14"/>
  </g>
  <path class="cls-1" d="M379.64,35.92c.47-.83,2.74-4.63,7.72-6.1,3.5-1.03,8.34-.91,11.58,1.79,4.84,4.04,3.31,11.48,1.35,15.42-3.49,7.02-12.47,11.2-17.76,9.5-.94-.3-3.12-1.22-3.09-2.33.02-1.04,1.98-2.05,3.67-2.33,5.36-.89,8.17,5.58,15.06,6.28,2.99.3,5.51-.61,6.95-1.26"/>
  <path class="cls-1" d="M715.23,36.66c.03-.24.69-4.55,5.59-6.43,3.41-1.31,7.24-.81,9.95.72,3.88,2.2,4.22,5.8,4.29,6.6.32,3.43-1.71,7.25-5.05,8.44-.27.1-2.88,1.03-4.27.09-.07-.04-.75-.51-.67-1.09.12-.9,2.03-1.38,2.73-1.56,2.3-.58,5.75-.58,8.78.93,4.4,2.2,5.27,6.27,5.42,7,.94,4.43-1.37,10.37-7.89,12.79-6.33,2.35-14.17.46-18.1-4.57"/>
  <g>
    <path class="cls-1" d="M42.85,45.93c1.63-.33,3.58-1,5.31-2.45,4.28-3.58,4.3-9.43,4.9-9.39.57.04.95,5.36.61,23.47"/>
    <path class="cls-1" d="M45.3,59.2c1.93-.71,4.81-1.51,8.37-1.63,3.1-.1,5.7.35,7.55.82"/>
  </g>
  <g>
    <path class="cls-1" d="M1056.95,34.21c-.48,2.53-1.28,6.55-2.48,11.48-1.55,6.39-2.15,7.66-1.55,9,.73,1.62,4.07,5.21,26.08,1.28"/>
    <path class="cls-1" d="M1070.87,46.47c-.51,4.75-.75,10.21-.41,16.25.19,3.35.53,6.48.96,9.36"/>
  </g>
</svg>