<?xml version="1.0" encoding="UTF-8"?>
<svg id="Layer_1" data-name="Layer 1" xmlns="http://www.w3.org/2000/svg" viewBox="0 0 1188.16 550.97">
  <defs>
    <style>
      .cls-1, .cls-2, .cls-3, .cls-4, .cls-5, .cls-6 {
        fill: none;
      }

      .cls-1, .cls-2, .cls-3, .cls-4, .cls-5, .cls-6, .cls-7 {
        stroke-miterlimit: 10;
      }

      .cls-1, .cls-5, .cls-6, .cls-7 {
        stroke: #1f3555;
      }

      .cls-8 {
        fill: #db9ec7;
      }

      .cls-2 {
        stroke-width: 5px;
      }

      .cls-2, .cls-3, .cls-4 {
        stroke: #1e3555;
      }

      .cls-3, .cls-6 {
        stroke-width: 3px;
      }

      .cls-4 {
        stroke-width: 12px;
      }

      .cls-5, .cls-7 {
        stroke-width: 2px;
      }

      .cls-7 {
        fill: #fff6eb;
      }
    </style>
  </defs>
  <path class="cls-3" d="M461.22,166.02c-2.2,7.11-6.42,24.31.37,43.74,6.94,19.9,21.4,30.71,30.53,37.28,26.6,19.13,55.2,20.86,73.87,21.99,20.11,1.22,46.36,2.81,74.86-10.52,40.79-19.07,57.95-55.49,62.99-67.53"/>
  <path class="cls-3" d="M476.74,235.98c-5.75,10.68-11.74,23.66-16.83,38.8-5.96,17.74-9.15,33.89-10.87,47.31"/>
  <path class="cls-3" d="M653.26,252.78c-6.2,11.28-12.91,26.25-17.44,44.54-7.5,30.31-5.69,56.35-3.06,73.05"/>
  <path class="cls-3" d="M533.64,4.29c-9.32-2.23-24.86-4.63-42.85-.7-23.4,5.1-37.6,17.99-57.37,35.94-14,12.71-26.08,23.95-32.68,42.99-1.89,5.44-4.11,13.79-4.36,23.96-.64,26.03,12.08,45.48,18.15,53.56"/>
  <path class="cls-3" d="M637.48,4.29c8.63,1.87,22.36,4.94,39.21,9.16,30.74,7.69,35.18,10.01,50.65,12.51,15.93,2.57,27.87,2.71,51.75,2.99,19.17.23,33.44-.49,53.01-1.41,19.65-.92,37.22-2.2,52.29-3.52,1.37,2.66,3.11,6.87,3.43,12.14.69,11.37-5.97,16.16-9.97,27.32-2.2,6.14-1.47,17.72,0,40.88,1.05,16.55,2.1,20.61,0,28.19-2.74,9.9-8.46,17.14-13.07,21.85"/>
  <path class="cls-3" d="M655.72,297.09c10.12,5.34,20.24,10.68,30.36,16.01-.83-4.01-1.28-9.61,1.98-13.45,3.4-4.01,8.8-3.73,14.52-5.12,6.04-1.48,14.34-5.29,23.1-16.01"/>
  <path class="cls-3" d="M717.95,260.94c3.35,2.27,6.92,4.92,10.59,7.99,2.96,2.48,5.62,4.94,8,7.31,0-2.61.33-6.67,2.12-11.19,3.35-8.47,9.72-13.24,14.11-16.44,3.39-2.47,7.9-4.54,16.94-8.68,8.69-3.98,13.04-5.98,18.82-7.76,10.81-3.34,13.01-1.98,18.11-4.11,5.83-2.43,13.25-8.5,18.35-25.34"/>
  <path class="cls-3" d="M449.48,72.33c-5.53,10.46-12.37,26.07-16.17,45.92-2.26,11.8-5.9,30.82-1.2,52.32,7.7,35.16,33.37,56.98,44.63,65.41"/>
  <path class="cls-3" d="M797.71,124.11c-18.21,23.75-42.8,51.51-75.22,79.04-24.39,20.71-48.11,36.96-69.22,49.63"/>
  <path class="cls-3" d="M557.69,39.46c-2.8,4.16-6.36,8.57-10.93,12.84-18.48,17.27-41.28,20.84-51.76,21.77"/>
  <path class="cls-3" d="M608.56,35.96c9.02,10.59,22.48,23.91,41.41,35.72,33.36,20.82,66.03,25.91,83.97,27.35"/>
  <path class="cls-4" d="M3.13,191.8c67.48,41.22,135.24,81.99,203.28,122.32,106.09,62.87,212.87,124.66,320.33,185.37.18,3.88.92,9.5,3.69,15.54,9.04,19.7,32.88,29.06,51.73,29.88,23.38,1.02,47.49-10.73,59.12-31.08,6.18-10.8,7.27-21.3,7.39-27.49,83.03-53.08,173.66-107.08,271.93-160.38,91.74-49.76,180.48-93.68,265.07-132.47"/>
  <path class="cls-2" d="M16.68,169.44c70.34,37.61,141.53,75.63,201.92,107.85,101.56,54.18,136.99,71.22,189.73,102.59,80.54,47.9,141.62,92.16,178.84,120.49,8.02-7.62,20.29-18.79,36.08-31.33,30.97-24.58,57.17-39.86,68.99-46.68,169.43-97.87,212.03-119.78,212.03-119.78,70.39-36.2,157.24-79.85,258.23-128.38"/>
  <path class="cls-2" d="M586.73,498.63c-.47-15.24.08-28.05.78-37.63,1.32-18.01,2.08-27.42,6.21-38.61,4.48-12.15,11.09-21.51,19.24-30.68,39.86-44.88,153.14-99.96,153.14-99.96,4.77-2.32,4.06-2.02,9.03-5.21,30.91-19.82,135.97-80.28,135.97-80.28,44.29-24.64,103.06-58.16,184.31-105.22"/>
  <path class="cls-2" d="M587.52,461c14.71-21.76,38.67-52.48,75.11-81.69,28.07-22.5,50.99-34.04,107.87-63.79,40.63-21.25,80.71-43.51,121.61-64.28,51.77-26.3,126.98-66.37,223.12-124.11"/>
  <path class="cls-2" d="M588.67,494.64c16.65-31.39,35.8-52.79,49.77-66.15,27.68-26.47,57.68-42.82,76.58-53.44,24.84-13.96,32.93-15.38,68.36-31.33,40.93-18.42,69.01-34.11,125.17-65.48,60.65-33.88,62.4-37.2,98.38-57.28,33.06-18.46,81.06-43.62,142.28-70.11"/>
  <path class="cls-2" d="M67.01,116.1c11.06,11.09,28.21,26.98,51.3,43.32,36.53,25.85,66.85,37.91,93.3,49.15,77.3,32.86,55.66,30.72,164.09,79.75,54.39,24.59,85.51,36.74,128.25,65.13,27.19,18.06,48.89,35.04,63.98,62.95,13.21,24.44,16.45,47.86,17.17,63.13"/>
  <path class="cls-2" d="M43.68,133.56c11.41,13.54,29.17,32.36,54.2,50.88,12.56,9.29,29.94,20.72,71.97,40.53,54.51,25.7,62.07,23.82,114.62,47.43,44.06,19.79,76.92,38.25,97.74,50.02,34.39,19.43,57.81,34.7,82.64,50.88,65.26,42.54,81.14,58.43,93.28,73.95,14.16,18.11,22.77,35.11,27.8,46.61"/>
  <g>
    <g>
      <path class="cls-6" d="M444.93,125.51c1.73-29.74,29.45-52.97,61.92-51.88,32.47,1.08,57.38,26.07,55.65,55.81-1.73,29.74-29.45,52.97-61.92,51.88-32.47-1.08-57.38-26.07-55.65-55.81"/>
      <path class="cls-6" d="M611.23,137.48c-3.9-1.98-12.04-5.53-23.37-6.37-11.71-.87-20.82,1.61-25.14,3.03"/>
      <path class="cls-6" d="M613.35,129.15c8.53-29.72,40.83-46.81,72.14-38.17,31.31,8.64,49.77,39.73,41.24,69.45-8.53,29.72-40.83,46.81-72.14,38.17-31.31-8.64-49.77-39.73-41.24-69.45"/>
    </g>
    <path class="cls-3" d="M482.86,130.56c2.49,1.87,8.64,5.98,17.71,7.02,9.43,1.08,16.65-1.78,19.49-3.08"/>
    <path class="cls-3" d="M652.18,153.36c2.49,1.87,8.64,5.98,17.71,7.02,9.43,1.08,16.65-1.78,19.49-3.08"/>
  </g>
  <path class="cls-5" d="M576.76,242.03c-1.98,2.78-5.54,3.23-7.6,1.74-1.67-1.21-2.37-3.69-1.73-5.43.95-2.59,4.57-2.67,4.41-3.94-.18-1.42-4.7-1.28-6.01-3.89-.87-1.73-.08-4.16,1.52-5.39,1.62-1.23,3.63-.92,4.71-.75,2.59.4,4.35,1.88,5,2.48"/>
  <path class="cls-5" d="M582.38,192.47c-.57.18-3.99,1.2-7.28-.68-2.29-1.31-4.41-3.96-4.16-6.78.34-3.76,4.9-7.47,10.86-7.12"/>
  <g>
    <ellipse class="cls-8" cx="488.72" cy="192.27" rx="6.13" ry="16.84" transform="translate(291.26 678.93) rotate(-89.39)"/>
    <path class="cls-1" d="M474.4,194.67c5.25-4.92,7.41-5.39,8.42-4.93,1.6.72.54,3.86,2.26,4.63,2.56,1.14,7.6-4.61,9.52-3.57,1.29.7-.29,3.69,1.02,4.53,1.33.85,4.79-1.04,8.77-3.86"/>
  </g>
  <g>
    <ellipse class="cls-8" cx="650.66" cy="211.15" rx="6.13" ry="16.82" transform="translate(326.57 813.57) rotate(-79.7)"/>
    <path class="cls-1" d="M636.13,211.07c6.06-3.96,8.27-4.05,9.18-3.43,1.44.98-.16,3.9,1.39,4.94,2.31,1.55,8.32-3.25,10.02-1.9,1.15.91-.95,3.59.19,4.63,1.15,1.06,4.9-.21,9.33-2.31"/>
  </g>
  <path class="cls-7" d="M448.1,74.09c-2.2-1.3-1.83-6.98.71-10.77.23-.34,3.07-4.44,7.78-4.89.78-.07,2.1-.18,3.51.48,1.9.89,3.41,2.92,3.41,5.2,0,3.34-3.25,5.14-3.77,5.43-1.32.73-1.49.28-3.2,1.13-2.37,1.19-2.51,2.31-4.49,3.1-.67.27-2.67,1.07-3.95.32Z"/>
  <path class="cls-7" d="M794.91,126.67c-1.73-1.99,1.3-6.21,4.46-10.63,2.49-3.47,4.23-5.83,7.02-5.82,2.02,0,4.04,1.27,5,2.79,1.41,2.25.3,4.7-.71,6.92-.58,1.29-1.6,3.51-4.09,5.25-3.7,2.57-9.91,3.53-11.68,1.49Z"/>
</svg>