<?xml version="1.0" encoding="UTF-8"?>
<svg id="Layer_1" data-name="Layer 1" xmlns="http://www.w3.org/2000/svg" viewBox="0 0 966.15 832.03">
  <defs>
    <style>
      .cls-1, .cls-2, .cls-3, .cls-4, .cls-5, .cls-6, .cls-7, .cls-8, .cls-9, .cls-10 {
        stroke-miterlimit: 10;
      }

      .cls-1, .cls-4, .cls-6, .cls-10 {
        stroke: #1e3555;
      }

      .cls-1, .cls-5, .cls-7, .cls-8, .cls-9 {
        fill: none;
      }

      .cls-1, .cls-8, .cls-9, .cls-10 {
        stroke-width: 3px;
      }

      .cls-2 {
        fill: #d88a28;
        stroke: #e9ab45;
      }

      .cls-2, .cls-3, .cls-5, .cls-6 {
        stroke-width: 2px;
      }

      .cls-3 {
        fill: #1f3555;
      }

      .cls-3, .cls-5, .cls-9 {
        stroke: #1f3555;
      }

      .cls-4, .cls-6, .cls-10 {
        fill: #2d466b;
      }

      .cls-7 {
        stroke-width: 4px;
      }

      .cls-7, .cls-8 {
        stroke: #203555;
      }
    </style>
  </defs>
  <path class="cls-7" d="M753.44,187.07c-1.44-11.32-6.35-38.15-26.3-59.69-39.3-42.43-97.88-22.13-101.45-20.82-4.26,1.56-55.98,21.63-70.14,81.9-1.26,5.35-12.85,58.43,20.04,102.72,33.6,45.26,85.54,41.61,97.7,40.25,18.49-2.06,32.99-8.79,42.21-14.09"/>
  <path class="cls-7" d="M609.22,320c.75,8.52,2.96,19.74,9.59,30.11,9.61,15.05,23.52,20.53,22.42,23.44-.93,2.43-11.56.69-21.57-3.28-21.31-8.45-32.38-24.07-35.1-21.56-1.42,1.31,1.01,6.11,4.65,16.4,5.65,15.96,9.35,26.4,8.88,34.68-.94,16.65-18.97,28.18-26.22,32.81-24.24,15.47-49.3,12.97-79.49,9.96-15.45-1.54-33.42-3.47-55.85-12.3-15.94-6.28-41.76-16.83-60.9-43.59-14.32-20.02-13.49-33.03-13.11-36.56.95-8.89,4.85-15.57,7.64-19.48"/>
  <path class="cls-7" d="M686.53,294.16c3.4,2.58,8.6,5.87,15.47,7.95,9.44,2.87,17.51,2.09,22.14,1.24-4.72,6.61-7.74,12.65-9.62,16.98-3.86,8.88-6.13,14.05-4.83,20.5,1.55,7.71,7.02,11.99,7.78,12.57,8.43,6.39,18.93,2.66,24.55.67,6.42-2.28,11.02-5.79,13.65-8.1"/>
  <path class="cls-7" d="M781.68,299.24c-5.19,7.9-11.02,17.47-16.96,28.67-7.16,13.51-10.62,22.5-14.37,32.17-8.15,21.02-8.54,27.89-6.54,34.09.52,1.62,2.34,6.68,6.54,10.5,10.68,9.71,28.36,3.62,39.09.32,26.36-8.1,62.56-18.81,79.9-23.57,20.41-5.61,40.02-14.31,60.07-21.34.42-.15,4.91-1.72,10.06-5.41,2.9-2.08,13.28-9.52,12.07-15.29-1.09-5.23-11.33-7.38-18.39-6.69-8.91.87-17.5,6.74-22.13,15.61-2.27,4.35-3.11,8.48-3.45,11.15"/>
  <path class="cls-7" d="M578.68,756.19c-3.41-3.32-10.32-8.97-20.19-10.46-3.69-.56-17.1-2.58-25.29,7.19-1.28,1.52-5.86,7-5.1,13.42,1.1,9.23,12.5,14.22,22.3,18.36,6.29,2.65,19.74,7.61,42.69,8.47,14.19.53,26.84.87,42-5.12,18.36-7.26,23-16.92,24.19-19.73,1.29-3.03,2.08-6.31,2.4-10.22,1.92-23.35-14.42-53-16.4-56.61,0,0-21.81-39.81-32.18-84.4-2.09-8.98-7.6-34.84-5.44-61.91,5.27-66.04,55.34-119.5,65.66-113.77,3.74,2.08-.65,10.32,1.78,44.4.09,1.24,1.62,21.43,8.02,46.85,5.33,21.19,7.9,21.59,8.58,21.55,3.85-.25,6.26-18.55,6.71-22,.84-6.38,1.36-15.2,1.43-16.3.64-10.99.82-14.57,1.71-14.72,1.66-.29,4.6,11.4,5.7,15.85,2.33,9.4,5.07,22.55,6.87,39.02"/>
  <path class="cls-7" d="M707.25,517.03c-.08-1.61-.05-3.91.53-6.57.4-1.83,1.58-7.3,5.8-11.16,6.44-5.87,14.91-3.37,15.31-3.24,7.56,2.38,11.06,10.12,13.02,14.44,6.22,13.72,4.39,28.59,4.26,28.59-.11,0-1.61-11.6,1.19-24.24,1.35-6.1,2.8-12.23,7.86-16.2.29-.22,7.29-5.54,13.79-2.6,5.9,2.67,7.97,10.59,8.79,13.7,7.51,28.69-8.71,105.26-9.82,110.6-3.71,17.81-12.08,58.49-10.05,98.32,1.5,29.34,3.04,59.57,17.34,65.81,14.28,6.23,37.61-13.04,57.1-29.12,8.75-7.23,21.13-20.42,36.88-22.56,3.55-.48,10.89-1.37,15.24,3.69.23.27,3.6,4.3,3.17,9.75-.64,8.06-8.88,10.3-17.45,20.02-2.94,3.34-14.2,16.02-11.7,23.92,3.7,11.72,34.02,10.29,59.47,9.09,19.79-.93,36.2-3.4,47.81-5.58"/>
  <path class="cls-7" d="M589.59,545.59c10.71-5.71,22.77-11.41,36.14-16.6,19.21-7.46,37.07-12.32,52.75-15.52"/>
  <path class="cls-7" d="M649.49,430.37c3.73.09,8.99-.39,14.33-3.34,7.16-3.96,9.54-9.63,13.08-8.64,3.48.98,2.88,6.94,7.8,12.82,3.52,4.22,7.93,6.07,11.06,6.97"/>
  <path class="cls-8" d="M747.34,286.49c4.35-1.88,7.1-1.75,8.82-1.25,2.94.85,3.27,2.86,7.18,3.81.96.23,3.18.74,5.67.04,2.21-.62,3.45-1.87,3.94-2.42"/>
  <path class="cls-9" d="M788.36,300.12c1.87,2.6,2.39,5.76,1.29,7.75-1.55,2.81-6.44,3.5-10.35-.02"/>
  <g>
    <path class="cls-1" d="M334.05,137.99c-59.45,4.38-121.53,7.62-186.07,9.34-37.14.99-73.47,1.44-108.94,1.42,5.11,61.13,10.85,123.04,17.27,185.7,9.09,88.67,19.21,175.67,30.24,260.97,43.76-1.64,80.68-3.89,108.63-5.86,47.05-3.33,73.84-5.28,109.75-10.75,33.32-5.07,60.59-11.05,79.52-15.64-9.98-70.69-19.34-142.71-28-216.01-8.36-70.8-15.81-140.53-22.4-209.16Z"/>
    <path class="cls-1" d="M37.04,148.01c-5.7,3.74-11.69,7.51-17.98,11.28-5.06,3.04-10.05,5.92-14.95,8.64,5.52,67.33,9.56,121.99,12.22,159.36,4.44,62.35,6.22,92.95,11.5,138.03,6.12,52.25,13.5,94.53,18.69,121.71,6.08.97,12.57,2.2,19.41,3.79,6.61,1.53,12.75,3.2,18.41,4.93"/>
    <path class="cls-10" d="M139.14,595.03c-11.19,78.36-22.39,156.72-33.58,235.08,7.83-1.68,16.78-3.2,26.73-4.19,8.97-.89,17.26-1.21,24.67-1.2,6.19-41.37,12.14-83.24,17.82-125.62,4.85-36.21,9.42-72.1,13.71-107.67-16.45,1.2-32.9,2.39-49.35,3.59Z"/>
    <path class="cls-10" d="M69.84,594.48c-9.71,30.85-20.46,62.66-32.37,95.31-11.41,31.29-23.18,61.41-35.15,90.33,8.54-.65,18.03-1.02,28.32-.85,10.12.16,19.44.81,27.83,1.7,11.62-29.54,23.05-60.08,34.17-91.61,11.45-32.44,21.97-64.17,31.64-95.13-6.41.74-13.38,1.29-20.85,1.52-12.48.38-23.77-.22-33.59-1.26Z"/>
    <path class="cls-10" d="M281.88,584.06c10.03,33.4,21.8,68.52,35.66,105.05,12.85,33.87,26.31,65.81,39.99,95.78,6.57-.02,14.22-.41,22.66-1.55,8.66-1.17,16.27-2.88,22.66-4.65-11.73-29.69-23.2-60.73-34.21-93.07-12.86-37.74-24.09-74.32-33.93-109.52-17.61,2.66-35.22,5.31-52.83,7.97Z"/>
    <path class="cls-10" d="M146.62,113.67c14.26-2.94,28.52-5.89,42.79-8.83.76,13.44,1.51,26.88,2.27,40.33-13.89.54-27.79,1.08-41.68,1.62-1.12-11.04-2.25-22.08-3.37-33.12Z"/>
  </g>
  <g>
    <path class="cls-1" d="M63.66,221.84c.49-5.95,1.27-11.81,2.5-11.87,1.25-.07,2.47,5.9,2.88,7.96,3.15,15.5,24.44,208.45,39.75,348.77"/>
    <path class="cls-1" d="M70.11,222.67c.16-1.31,3.01-22.33,13.32-26.93,6.83-3.05,13.09,3.1,14.76,4.74,14.44,14.21,16.39,53.3,19.34,93.46,3.42,46.58,9.8,92.62,13.67,139.13,2.47,29.68,6.41,73.74,12.26,127.94"/>
    <g>
      <path class="cls-9" d="M157.44,220.41c12.04,155.03,21.05,262.26,25.82,295.49.85,5.96,3.71,24.43-1.74,34.12-3.45,6.14-10.5,9.26-16.52,4.1-4.75-4.08-6.77-11.53-7.32-13.77"/>
      <path class="cls-9" d="M157.76,225.55c-.34-5.48-1.12-12.98-3.04-19.01-4.59-14.42-12.82-10.5-17.18-2.99-8.71,15.01-11.86,61.58-4.24,92.68,5.02,20.52,12.7,26.02,14.08,27.01,10.42,7.47,16.8-11.88,17.62-14.49"/>
    </g>
    <path class="cls-9" d="M164.71,175.88c6.96,66.44,13.72,133.81,20.26,202.11,5.54,57.96,10.81,115.35,15.8,172.15"/>
    <path class="cls-1" d="M185.32,380.38c.16-1.31,3.01-22.33,13.32-26.93,6.83-3.05,13.09,3.1,14.76,4.74,14.44,14.21,16.39,53.3,19.34,93.46,3.03,41.23,6.57,73.42,8.17,91.88"/>
    <path class="cls-9" d="M227.41,225.83c9.56,132.85,17.78,231.37,21.17,263.07.82,7.64,2.89,25.63,11.14,35.45,1.47,1.75,8.31,9.9,14.86,4.92,4.59-3.49,7.45-12.22,7.44-22.35"/>
    <path class="cls-9" d="M281.47,225.73c1.72-4.91,7.99-21.49,18.45-22.92,6.51-.89,11.72,4.49,13.53,6.37,21.17,21.87,27.32,121.22,30.17,195.03,1.06,27.44,2.22,65.81,2.54,111.99-4.21,4.35-11.29,10.42-20.75,12.82-5.82,1.47-24.49,6.2-38.15-13.49-15.96-23.01-18.95-70.51-6.45-97.62,10.44-22.65,28.31-23.75,34.52-24.13,12.81-.78,22.98,6.07,28.29,10.42"/>
    <path class="cls-8" d="M215.38,210.46c3.02-4.99,5.29-5.42,6.83-4.84,2.62.99,3.45,5.05,6.88,5.99.85.23,2.79.71,4.62-1.37,1.62-1.85,2.29-4.73,2.54-6"/>
  </g>
  <g>
    <g>
      <path class="cls-6" d="M346.12,361.81c6.24-4.9,14.96-11.95,25.11-20.85,11.07-9.71,20.93-18.35,32.71-30.7,11.57-12.13,24.1-23.08,35.64-35.24,3.45-3.64,9.97-10.58,15.66-8.61,2.8.97,5.3,4.06,5.89,7.47,1.29,7.45-7.21,14.57-21.28,27.37-8.54,7.77-16.42,16.46-25.33,23.71-13.25,10.79-32.63,27.43-60.62,53.86-2.59-5.67-5.19-11.34-7.78-17.01Z"/>
      <path class="cls-2" d="M340.95,361.38c-1.09-.25-5.99-1.41-10.13,1.61-4.27,3.11-3.32,7.27-7.91,16.76-1.77,3.65-4.42,9.03-9.19,13.48-5.15,4.8-10.73,6.62-14.23,7.4,2.11,1.64,5.18,3.73,9.14,5.5,3.09,1.38,8.79,3.82,15.94,3.5,4.24-.19,13.86-1.57,21.48-10.08,2.89-3.23,9.81-10.96,8.36-21.37-1.04-7.41-6.17-15.11-13.46-16.79Z"/>
    </g>
    <path class="cls-4" d="M296.87,400.14c5.27-1.05,9.14-3.1,11.49-4.59,3.18-2.02,4.9-3.11,6.66-5.41,1.7-2.22,2.2-3.94,3.64-4.12,2.12-.25,3.03,3.24,5.11,3.04,2.24-.22,2.58-4.39,4.84-4.57,1.49-.12,3.27,1.54,3.67,3.3.54,2.38-1.5,4.69-.48,6.04.08.1.25.33.55.43,1.11.35,1.97-1.87,3.52-2.77,2.02-1.16,5.1,0,6.93,1.9,2.1,2.18,3.04,5.81,1.97,8.47-.65,1.62-2.01,2.47-4.74,4.18-.77.48-3.05,1.9-5.68,2.84-11.24,4-22.9.13-22.9.13-6.7-2.22-11.55-6-14.58-8.88Z"/>
  </g>
  <path class="cls-7" d="M382.7,354.86c1.09.44,7.02,2.69,12.79-.73,6.4-3.79,9.35-12.54,7.55-19.63-2.49-9.76-13.23-13.44-20.94-11.93-6.97,1.36-11.14,6.89-12.41,8.72"/>
  <path class="cls-10" d="M639.91,100.43c1.03-7.5,2.06-15.01,3.09-22.51-5.36-1.22-13.51-3.48-22.96-7.83-14.58-6.71-23.4-10.77-26.94-20.55-4.44-12.28,2.47-25.24,3.97-27.9,7.13-12.57,19.16-16.09,26.06-18.11,13.05-3.82,23.84-1.31,29.15,0,19.48,4.79,32.21,17.7,37.98,24.47,4.03-1.51,9.96-3.63,17.22-5.87,22.74-7.02,34.11-10.53,48.14-8.81,8.1.99,21.24,2.61,30.91,14.19,1.83,2.19,10.9,13.05,9.27,26.92-1.64,13.99-13.09,21.92-20.31,26.92-17.55,12.15-36.17,11.38-45.04,10.28-.67,5.69-1.26,11.57-1.77,17.62-.35,4.15-.64,8.23-.88,12.24-10.06-6.03-24.7-13.26-43.28-17.62-17.92-4.2-33.42-4.29-44.6-3.43Z"/>
  <path class="cls-9" d="M594.26,170.03c1.83,1.63,4.98,3.95,9.43,5.18,8.98,2.49,16.54-1.34,18.55-2.45"/>
  <path class="cls-9" d="M718.92,178.33c-1.48-2-4.1-4.97-8.21-7.16-8.3-4.42-16.44-2.35-18.63-1.72"/>
  <g>
    <path class="cls-5" d="M644.79,277.09c4.1,1.16,11.75,2.74,21.22,1.08,15.12-2.65,24.51-11.74,27.35-14.71"/>
    <path class="cls-5" d="M667.35,277.08c3.55-3.88,5.93-7.3,7.47-9.77,2.01-3.22,3.09-5.61,5.11-5.84,1.76-.2,3.46,1.34,4.1,2.77,1.21,2.68-.55,6.66-4.65,9.58"/>
  </g>
  <path class="cls-3" d="M603.68,184.1c-.08-2.36.97-4.57,2.34-4.94,1.37-.36,2.55,1.26,2.62,3.62.08,2.36-.97,4.57-2.34,4.94s-2.55-1.26-2.62-3.62Z"/>
  <path class="cls-3" d="M694.63,187.07c-.08-2.36.97-4.57,2.34-4.94,1.37-.36,2.55,1.26,2.62,3.62s-.97,4.57-2.34,4.94-2.55-1.26-2.62-3.62Z"/>
</svg>