<?xml version="1.0" encoding="UTF-8"?>
<svg id="Layer_1" data-name="Layer 1" xmlns="http://www.w3.org/2000/svg" viewBox="0 0 769.97 799.42">
  <defs>
    <style>
      .cls-1 {
        stroke: #1e3555;
      }

      .cls-1, .cls-2, .cls-3, .cls-4, .cls-5 {
        fill: none;
        stroke-miterlimit: 10;
      }

      .cls-1, .cls-2, .cls-4 {
        stroke-width: 4px;
      }

      .cls-2, .cls-3 {
        stroke: #203555;
      }

      .cls-3, .cls-5 {
        stroke-width: 3px;
      }

      .cls-4, .cls-5 {
        stroke: #1f3555;
      }
    </style>
  </defs>
  <path class="cls-2" d="M392.48,74.67c-6.94-12.21-20.16-31.72-42.76-47.38-9.36-6.49-61.91-41.13-120.96-16.65-45.49,18.86-77.69,65.69-79.42,117.82-1.94,58.57,35.5,96.53,41.54,102.45"/>
  <path class="cls-2" d="M258.32,246.81c-.11-8.23-4.93-15.55-12.07-18.41-7.2-2.88-15.46-.71-19.97,4.63-1.06,1.25-5.17,6.53-3.08,20.68,3.83,25.96,22.51,41.23,20.31,43.72-2.04,2.31-18.53-10.29-20.86-12.08-21-16.16-29.19-28.45-32.84-26.38-3.49,1.97.91,14.91,3.04,27.43,4.58,26.89-1.88,48.43-8.79,71.46-14.76,49.21-44.46,78.83-64.59,98.42-23.29,22.66-44.1,42.94-73.55,43.49-15.17.28-41.42-4.48-43.75-16.21-.78-3.96,1.4-7.51,1.89-8.3,7.19-11.69,29.36-8.25,45.26-7.51,16.73.78,40.45-.77,70.15-11.46"/>
  <path class="cls-2" d="M283.53,257.74c5.42,1.88,11.47,3.41,18.1,4.22,34.56,4.22,62.32-13.75,73.86-22.36-11.66-.79-23.98-2-36.86-3.78-9.8-1.35-19.19-2.92-28.15-4.64"/>
  <path class="cls-2" d="M354.36,252.81c-2.5,2.13-7.55,7.06-10.23,15.2-.86,2.61-4.6,13.96-.07,20.46,6.45,9.27,26.5,4.04,39.66.6,12.27-3.2,30.01-9.54,49.72-23.2"/>
  <path class="cls-2" d="M453.89,245.31c-17.47,15.83-29.29,31.34-36.81,42.59-10.4,15.55-21.61,32.67-25.97,57.68-2.3,13.21-4.69,28.1,3.04,42.79,6.96,13.23,18.41,19.21,22.13,21.1,15.65,7.91,30.81,5.55,38.3,4.39,47.68-7.42,129.26-68.01,133.71-71.35"/>
  <path class="cls-2" d="M248.96,407.22c-5.62,20.82-13.38,52.15-20.22,90.88-5.4,30.56-4.98,36-10.48,72.6-11.55,76.77-17.46,115.89-35.56,143.15-4.44,6.68-23.98,35.1-59.8,54.21-14.29,7.63-45.56,24.98-71.11,12.71-4.3-2.07-16.59-7.97-17.89-19.28-.74-6.49,2.17-14.41,7.72-17.43,8.62-4.69,19.74,4.5,30.3,9.96,13.46,6.96,34.13,12.06,65.94,4.36"/>
  <path class="cls-2" d="M209.99,411.33c.1-7.51,1.26-21.8,9.22-36.81,2.38-4.49,15.22-28.71,42.15-35.89,30.49-8.13,55.39,11.89,62.34,17.49,6.41,5.16,27.37,22.57,31.61,53.38.51,3.71,4.79,38.54-17.56,61.66-3.41,3.53-10.99,11.17-23.27,14.27-21.9,5.51-39.97-8.19-43.02-10.58"/>
  <path class="cls-2" d="M254.73,474.95c1.01,17.78-.28,31.78-1.64,41.23-1.87,13.08-6.77,37.74-9.37,50.8,0,0,0,.02,0,.03-.76,3.94-.39,7.76-.05,7.78.44.03.32-6.24,2.16-13.95.55-2.29,3.5-13.59,12.41-24.79,4-5.03,7.1-8.82,12.64-10.8,1.79-.64,8.88-3.1,15.1.91,6,3.87,7.25,11.26,7.56,13.08,1.13,6.65-1.45,9.19-3.77,23-1.45,8.67-2.15,13.04-.44,14.4,2.09,1.68,8.03.01,25.49-16.03"/>
  <path class="cls-2" d="M400.29,531.83c3.13,2.55,8.43,6.22,15.73,8.3,6.39,1.82,19.33,5.51,28.34-2.84,7.18-6.66,8.96-18.29,5.85-27.5-4.55-13.49-17.95-16.99-20.27-17.59-14.48-3.73-26,5.29-27.62,6.6-.56,6.41-1.49,16.39-2.8,28.58-4.4,40.96-9.19,69.66-11.25,82.93-13.03,84.26-21.86,141.34,5.17,165.92,5.78,5.26,18.47,13.82,34.89,18.29,5.68,1.55,15.42,1.93,34.89,2.71,12.63.5,17.43.23,21.32-3.53,4.51-4.35,6.95-12.55,4.05-18.75-3.73-7.98-14.38-8.57-16.83-8.71-10.87-.6-16.4,5.81-30.88,12.95-6.22,3.07-15.4,6.91-27.48,9.6"/>
  <g>
    <path class="cls-4" d="M364.14,523.81c-.57-3.28-2.31-11.24-7.51-16.71-.53-.56-8.81-8.92-20.01-3.14-10.99,5.67-19.9,22.44-21.11,39.47-1.29,18.14,6.76,28.19,7.44,29.02,1.62,1.94,6.74,7.44,14.76,6.47,11.23-1.36,18.91-14.28,20.05-16.25l6.38-38.85Z"/>
    <path class="cls-4" d="M367.23,510.39c-3.96,20.16-6.76,36.99-8.7,49.63-1.57,10.22-2.76,18.08-.13,20.47,3.72,3.38,12.42-6.47,13.64-7.87"/>
  </g>
  <path class="cls-5" d="M641.52,258.08c-4.09-7.31-11.95-19.11-25.54-29-20.12-14.64-40.6-16.22-49.06-16.36-5,10.68-11.02,22.18-18.29,34.13-10.27,16.89-20.88,31.18-30.78,43.01,5.33,1.29,12.59,3.31,20.96,6.55,8.99,3.47,18.23,7.03,27.72,13.96,6.2,4.52,15.86,12.92,24.29,27.42,2.7-.67,6.66-1.46,11.48-1.73,17.46-.98,30.68,5.75,39.42,10.33,25.62,13.43,42.03,35.6,48.95,45.98"/>
  <path class="cls-5" d="M598.81,323.06c6.44-9.38,13.92-19.38,22.57-29.65,8.82-10.49,17.53-19.67,25.75-27.66,6.68-.51,13.69-.47,20.98.33,52,5.74,86.49,46.69,99.82,64.64-7.69,6.43-15.53,12.87-23.52,19.33-13.78,11.12-27.44,21.8-40.93,32.04"/>
  <path class="cls-5" d="M536.36,297.34c-6.48,10.02-12.97,20.03-19.45,30.05,6.16-.41,12.79-.51,19.82-.16,21.34,1.06,39.47,5.96,53.49,11.25"/>
  <path class="cls-5" d="M535.86,327.25c-2.53,2.58-5.77,6.45-8.59,11.77-2.34,4.43-3.69,8.55-4.49,11.77,7.58-3.38,16.84-6.78,27.61-9.28,15.37-3.57,28.95-4.17,39.47-3.8"/>
  <path class="cls-5" d="M587.22,336.97c6.8,6.56,14.84,15.6,22.29,27.51,11.39,18.2,16.72,35.61,19.37,47.64,4.1-2.26,9.31-5.65,14.65-10.67,5.32-5,9.09-10.04,11.67-14.06"/>
  <path class="cls-5" d="M589.86,337.72c17.38,8.78,30.68,17.72,40.02,24.67,10.5,7.82,16.48,13.5,21.86,20.83,4.89,6.65,8,12.92,9.94,17.44,2.94-2.03,6.43-4.82,9.94-8.59,4.44-4.77,7.45-9.53,9.44-13.28"/>
  <path class="cls-5" d="M460.67,244.4c2.27,2.98,2.89,6.59,1.56,8.87-1.88,3.22-7.79,4-12.52-.03"/>
  <path class="cls-3" d="M407.07,226.32c5.26-2.15,8.59-2,10.67-1.43,3.56.97,3.96,3.28,8.69,4.36,1.16.27,3.85.85,6.86.05,2.67-.71,4.17-2.14,4.76-2.77"/>
  <path class="cls-4" d="M214.91,93.68c3.05,2.08,8.03,4.84,13.94,5.14,11.94.59,18.77-9.33,20.55-12.13"/>
  <path class="cls-4" d="M312.85,81.02c3.05,2.08,8.03,4.84,13.94,5.14,11.94.59,18.77-9.33,20.55-12.13"/>
  <path class="cls-1" d="M311.06,179.36c-4.63,4.96-10.76,6.4-15.59,3.51-7.7-4.61-10.84-19.48-5.82-26.24,2.98-4.02,8.54-4.76,13.91-2.47"/>
  <path class="cls-3" d="M366.8,491.75c1.79-2.95,4.79-7.13,9.37-10.9,5.13-4.22,10.06-6.14,13.22-7.05"/>
</svg>