<?xml version="1.0" encoding="UTF-8"?>
<svg id="Layer_1" data-name="Layer 1" xmlns="http://www.w3.org/2000/svg" viewBox="0 0 655.19 725.13">
  <defs>
    <style>
      .cls-1 {
        stroke-width: 2px;
      }

      .cls-1, .cls-2, .cls-3 {
        stroke: #203555;
      }

      .cls-1, .cls-2, .cls-3, .cls-4, .cls-5 {
        fill: none;
        stroke-miterlimit: 10;
      }

      .cls-2, .cls-5 {
        stroke-width: 4px;
      }

      .cls-3 {
        stroke-width: 3px;
      }

      .cls-4 {
        stroke-width: 5px;
      }

      .cls-4, .cls-5 {
        stroke: #1f3555;
      }

      .cls-6 {
        fill: #c03c45;
        opacity: .74;
      }
    </style>
  </defs>
  <path class="cls-4" d="M320.4,122.51c-.71,1.36-18.31,33.74-53.77,34.69-21.83.58-44.4-10.9-55.72-32.65-13.16-25.28-3.66-50.78-1.96-55.1,12.28-31.19,44.01-40.98,56.7-44.9,6.21-1.92,19.65-5.42,52.79-3.06,32.89,2.34,54.89,8.3,76.25,13.27,24.37,5.66,68.9,15.56,120.25,18.37,57.77,3.16,78.44-6.64,90.92-15.31,15.38-10.69,24.83-24.18,30.31-33.67"/>
  <path class="cls-4" d="M441.62,82.87c-21.58,13.63-45.62,32.01-68.77,57.04-23.99,25.93-26.6,36.9-71.84,97.42-30.91,41.35-44.2,55.63-60.18,69.22-36.36,30.93-58.59,34.41-65.7,35.25-8.04.95-38.01,4.47-60.18-16.02-4.06-3.75-20.02-18.51-19.65-40.38.15-8.7,2.83-15.62,4.91-19.87"/>
  <path class="cls-4" d="M307.49,263.46c-3.49,4.77-5.82,9.08-7.33,12.24-3.26,6.81-5.68,11.88-5.28,18.66.13,2.15.46,6.83,3.37,11.17,5.19,7.74,14.79,8.74,17.48,9.02,13.5,1.4,28.43-10.18,38.26-28.73"/>
  <path class="cls-4" d="M388.27,230.69c-6.5,8.14-15.06,19.87-23.53,35.03-13.16,23.58-22.96,41.13-17.24,53.63,4.73,10.34,19,14.88,42.65,16.06,56.34,2.81,101.82-16.7,125.05-27.11,37.41-16.77,85.02-40.39,138.68-73.1"/>
  <path class="cls-4" d="M139.28,670.32c-3.79-7.45-10.84-18.92-23.14-28.76-9.71-7.76-27.06-21.63-45.84-15.68-14.08,4.46-27.35,19.55-26.34,35.23.74,11.61,9.04,19.41,10.47,20.7,16.65,15.12,50.31,9.78,84.86-11.5,7.6-35.52,15-66.69,21.49-92.59,9.51-37.98,23.61-78.48,51.8-159.47,10.18-29.24,22.38-62.85,50.69-72.87,6.59-2.33,12.49-2.83,16.53-2.88"/>
  <path class="cls-5" d="M186.14,420.38c4.87-2.26,10.73-4.43,17.48-5.94,17.97-4.01,33.35-1.3,42.69,1.27"/>
  <path class="cls-4" d="M270.14,349.71c-9.55,10.74-8.39,24.29-8.16,27.02.19,2.23,1.84,18.49,15.07,27.2,13.61,8.97,32.92,5.64,43.97-7.03,8.5-9.74,12.72-25.69,6.03-39.42-9.01-18.48-30.7-18.36-32.62-18.32-3.03.07-15.21.35-24.29,10.55Z"/>
  <path class="cls-4" d="M330.12,375.02c3.23-.57,7.45-1.79,11.72-4.59,2.9-1.91,3.9-3.29,4.36-3.03,1.25.71-2.94,12.88-24.07,58.47"/>
  <path class="cls-4" d="M339.1,387.05c3.65-4.11,9.01-8.84,16.39-12,5.19-2.22,11.12-4.77,17.62-2.43,1.14.41,5.78,2.08,8.32,6.51,3.93,6.87.36,16.06-1.34,20.28-15.98,39.57-31.25,68.62-31.25,68.62-11.29,21.84-16.98,34.49-19.33,51.9-2.41,17.78.87,24.26,4.03,27.56,3.58,3.75,10.75,7.35,27.1,3.92,50.5-10.57,124.22-74.6,126.35-76.46,25.62-22.24,62.56-51.1,112.42-80.12"/>
  <path class="cls-3" d="M389.38,226.51c.74-.21,2.68-.66,4.51.29,2.58,1.35,4.22,5.12,2.68,8.47-.98,2.14-3.16,3.91-5.14,4.02-2.01.11-2.54-1.54-5.09-1.87-1.75-.23-3.35.31-4.47.82"/>
  <path class="cls-3" d="M334.41,346.76c.74-.21,2.68-.66,4.51.29,2.58,1.35,4.22,5.12,2.68,8.47-.98,2.14-3.16,3.91-5.14,4.02-2.01.11-2.54-1.54-5.09-1.87-1.75-.23-3.35.31-4.47.82"/>
  <path class="cls-2" d="M363.12,222.61c-.68-2.34-2.01-5.98-4.79-10.62-3.11-5.19-6.71-9.41-9.1-12.01"/>
  <g>
    <path class="cls-3" d="M256.45,61.17c.26-2.95.39-9.14-3.35-12.42-6.46-5.68-21.84-.38-28.01,10.22-3.6,6.18-6.1,17.65,1.18,25.05,5.63,5.72,15.07,6.94,23.08,2.61"/>
    <path class="cls-3" d="M278.14,62.57c1.18-2.06,4.56-7.3,11.05-9.82,11.48-4.46,21.89,3.83,23.08,4.81,6.2,5.1,11.87,14.79,9.27,24.65-3.64,13.78-21.46,20.43-32.74,15.23-4.41-2.03-7.2-5.58-8.88-8.42"/>
    <path class="cls-3" d="M247.57,142.53c5.47.74,11.92,1.21,19.13,1,8.62-.25,16.14-1.43,22.29-2.81.22-5.49-.06-12.69-1.97-20.84-3.14-13.37-9.21-23.04-13.41-28.66-3.04-.26-6.64-.34-10.65,0-4.69.4-8.74,1.27-12.03,2.2,1.29,5.52,2.44,12.92,2.17,21.64-.36,11.76-3.14,21.22-5.52,27.45Z"/>
    <path class="cls-3" d="M242.13,61.39c-1.18.5-1.71,1.48-2.09,2.18-.28.52-1.39,2.56-.59,4.9.15.44.98,2.87,3.21,3.32,2.14.43,3.76-1.3,3.86-1.41,1.93-2.14.82-5.38.54-6.2-.31-.89-.69-2-1.82-2.64-1.44-.81-2.96-.2-3.11-.14Z"/>
    <path class="cls-3" d="M286.68,66.94c-1.18.5-1.71,1.48-2.09,2.18-.28.52-1.39,2.56-.59,4.9.15.44.98,2.87,3.21,3.32,2.14.43,3.76-1.3,3.86-1.41,1.93-2.14.82-5.38.54-6.2-.31-.89-.69-2-1.82-2.64-1.44-.81-2.96-.2-3.11-.14Z"/>
    <path class="cls-6" d="M253.75,81.43c-.13-.86,5.27-2.3,6-2.49,6.24-1.64,10.06-1.13,12.19-.63,1.2.28,3.67.89,3.83,2.12.08.63-.48,1.18-.54,1.23-.96.92-2.61.43-4.27.12-2.85-.53-5.1-.4-7.08-.3-2.92.16-3.51.71-6.48.62-1.08-.03-3.56-.11-3.64-.68Z"/>
    <path class="cls-6" d="M257.23,84.95c-.1-.55,4.13-1.47,4.7-1.59,4.89-1.05,7.89-.73,9.56-.41.94.18,2.88.57,3,1.36.06.41-.37.75-.42.79-.76.59-2.05.27-3.35.08-2.23-.34-4-.26-5.55-.19-2.29.1-2.75.45-5.08.4-.85-.02-2.79-.07-2.86-.43Z"/>
  </g>
  <path class="cls-3" d="M218.05,24.45c-2.23.06-5.92-.17-9.25-2.47-8.51-5.86-8.21-20.64-9.78-20.48-.99.1-.59,5.95-2.82,14.72-1.43,5.61-2.14,8.42-3.76,9.81-7.41,6.38-27.28-8.34-29.15-5.4-.71,1.11,2.02,3.35,5.64,10.31,3.39,6.52,5.11,9.82,4.23,12.76-2.16,7.23-18.46,7.2-18.34,9.81.08,1.73,7.18,1.13,12.44,6.27,2.97,2.9,4.28,6.59,4.92,9.45"/>
  <path class="cls-1" d="M21.17,672.26c1.33,4.97,4.05,12.38,9.84,19.52,12.64,15.57,30.3,18.01,34.94,18.49"/>
  <path class="cls-1" d="M1.48,649.66c-.53,4.21-3.27,29.15,13.78,50.86,15.35,19.54,36.16,22.98,40.85,23.63"/>
  <path class="cls-1" d="M451.83,368.15c2.47,3.23,5.93,8.73,7.39,16.29,3.46,17.93-7.27,32.05-9.04,34.29"/>
  <path class="cls-1" d="M463.79,354.58c3.65,3.55,8.16,9.05,10.9,16.8,8.45,23.85-7.72,46.56-9.34,48.76"/>
</svg>