<?xml version="1.0" encoding="UTF-8"?>
<svg id="Layer_1" data-name="Layer 1" xmlns="http://www.w3.org/2000/svg" viewBox="0 0 801.89 899.39">
  <defs>
    <style>
      .cls-1 {
        stroke-width: 3px;
      }

      .cls-1, .cls-2, .cls-3 {
        stroke: #203555;
      }

      .cls-1, .cls-2, .cls-3, .cls-4, .cls-5 {
        fill: none;
        stroke-miterlimit: 10;
      }

      .cls-2, .cls-5 {
        stroke-width: 4px;
      }

      .cls-6 {
        fill: #c03c45;
        opacity: .74;
      }

      .cls-3 {
        stroke-width: 2px;
      }

      .cls-4 {
        stroke-width: 5px;
      }

      .cls-4, .cls-5 {
        stroke: #1f3555;
      }
    </style>
  </defs>
  <path class="cls-4" d="M189.22,216.43c-.28,1.9-7.46,45.54-43.9,33.4-21.17-7.05-46.49-31.2-64.67-65.68-20.9-39.63-22.07-74.18-22.19-80.12-.9-43.91,24.8-53.35,35.59-57.31,5.39-1.98,17.59-5.32,53.73,4.51,38.51,10.47,67.66,25.71,97,39.73,35.22,16.83,104.77,49.28,191.52,73.58,113.36,31.76,154.63,19.23,180,4.66,32.97-18.94,51.63-48.61,62.19-70.73"/>
  <path class="cls-4" d="M329.17,193.98c-25.62,16.3-51.15,38.86-71.4,71.32-19.59,31.4-18.64,47.55-47.95,117.06-18.01,42.7-26.49,55.25-37.52,65.04-23.66,20.99-42.21,13.81-48.08,11.22-6.54-2.88-30.12-13.25-54.19-48.04-4.33-6.26-21.17-30.6-28-56.54-2.73-10.39-3.01-17.73-2.85-22.08"/>
  <path class="cls-4" d="M226.01,423.71c-2.15,4.94-3.18,9.84-3.73,13.5-1.16,7.86-2.02,13.64.74,23.42.87,3.09,2.82,9.85,7.42,17.63,8.24,13.96,19.13,21.28,22.21,23.35,15.74,10.57,29.17,3.48,34.54-17.55"/>
  <path class="cls-4" d="M310.74,420.53c-5.48,8.94-12.19,22.03-17.4,40.07-7.84,27.11-13.47,46.57-2.44,68.54,9.15,18.24,28.09,34.96,58.52,54.23,79.1,50.07,143.58,59.27,179.56,63.65,63.19,7.7,153.89,14.37,272.83,10.19"/>
  <path class="cls-4" d="M192.77,809.97c-5.2-10.54-14.17-27.58-26.83-46.44-9.85-14.68-27.18-40.5-39.63-46.41-9.08-4.31-14.45,2.54-9.41,18.7,3.71,11.91,11.82,24.92,13.22,27.13,16.38,25.99,40.7,43.98,62.66,47.02-3.65-31.94-6.32-60.17-8.3-83.97-2.99-35.86-2.81-72.84-2.43-151.74.15-30.24.81-65.96,25.3-62.44,5.91.85,11.8,3.76,15.97,6.18"/>
  <path class="cls-5" d="M158.9,560.88c3.6.16,8.14,1,13.76,3.22,15.3,6.03,30.76,19.11,40.66,28.4"/>
  <path class="cls-4" d="M215.76,521.75c-6.14,8.4-.54,26.93.58,30.64.92,3.04,7.84,25.27,24.2,45.44,17.18,21.18,37.06,30.64,45.32,21.63,6.51-7.11,6.16-26.13-6.06-50.01-16.34-31.92-40.1-45.75-42.15-46.9-3.21-1.81-15.93-8.96-21.89-.79Z"/>
  <path class="cls-4" d="M289.09,596.01c3.53,1.53,8.05,2.91,12.12,2.09,2.8-.56,3.53-1.78,4.15-1.08,1.72,1.92.75,15.93-8.95,62.36"/>
  <path class="cls-4" d="M303.45,619.28c2.94-3,7.76-5.6,15.59-4.51,5.58.78,12.05,1.68,20.92,10.09,1.57,1.49,7.98,7.56,12.67,16.01,7.29,13.13,5.69,23.43,4.88,28.07-7.36,42.12-16.74,68.57-16.74,68.57-6.55,19.26-9.27,30.84-6.68,51.25,2.61,20.55,8.31,31.7,12.95,38.76,5.28,8.04,14.76,19.28,33.37,30.45,61.71,37.04,150.85,27.42,153.72,27.11,35.75-3.85,93.32-4.61,185.07,11.87"/>
  <path class="cls-1" d="M310.68,414.54c.89.1,3.27.55,6,3.17,3.89,3.72,7.4,10.78,6.56,15.2-.53,2.81-2.77,4.27-5.34,3.22-2.58-1.06-3.86-4-7.28-6.09-2.33-1.42-4.2-1.55-5.45-1.42"/>
  <path class="cls-1" d="M284.71,559.48c.79.21,2.9.93,5.34,3.54,3.48,3.72,6.66,10.23,5.96,13.89-.44,2.33-2.41,3.27-4.69,2.02-2.29-1.26-3.46-3.95-6.51-6.21-2.08-1.54-3.74-1.91-4.85-1.97"/>
  <path class="cls-2" d="M276.08,393.25c-1.67-4.02-4.61-10.44-9.67-19.17-5.64-9.75-11.5-18.2-15.29-23.46"/>
  <path class="cls-1" d="M99.28,102.08c-.88-4.48-3.14-14.02-8.03-19.88-8.37-10.05-20.7-4.96-22.3,9.74-.92,8.44,1.15,24.85,10.55,37.5,7.34,9.87,16.63,14.11,22.62,9.7"/>
  <path class="cls-1" d="M121.35,109.29c.4-2.95,1.82-10.46,7.52-12.99,10.31-4.57,24.74,11.35,26.42,13.24,8.8,9.91,18.89,27.29,19.8,42.63,1.26,21.13-15.56,26.09-29.43,14.52-5.34-4.45-9.56-10.77-12.35-15.64"/>
  <path class="cls-1" d="M121.24,221.56c5.56,2.93,12.05,5.85,19.13,8.05,8.6,2.67,15.88,3.6,21.75,3.74-1.8-8.27-4.78-19.38-9.83-32.52-8.28-21.57-18.16-38.29-24.55-48.14-3.15-1.24-6.77-2.36-10.62-2.94-4.45-.67-8.07-.46-10.9.07,3.32,8.65,7.2,20.07,10.21,33.02,4.02,17.36,4.82,30.4,4.81,38.73Z"/>
  <path class="cls-1" d="M87.28,109.85c-.92.49-1.05,1.87-1.13,2.84-.07.73-.32,3.56,1.31,7.27.31.7,2.01,4.55,4.29,5.75,2.19,1.16,3.07-1.09,3.12-1.24,1.03-2.8-1.27-7.98-1.86-9.31-.63-1.42-1.42-3.21-2.74-4.43-1.67-1.55-2.87-.95-2.99-.89Z"/>
  <path class="cls-6" d="M104.4,132.41c-.45-1.33,4.25-2.16,4.89-2.27,5.52-.93,9.51.82,11.84,2.15,1.31.75,4.04,2.33,4.67,4.29.32,1-.03,1.7-.07,1.77-.62,1.16-2.47-.03-4.25-.95-3.04-1.56-5.24-1.96-7.16-2.31-2.81-.51-3.18.18-6.12-.73-1.06-.33-3.5-1.08-3.79-1.96Z"/>
  <path class="cls-6" d="M109.13,138.66c-.3-.86,3.49-1.16,4-1.2,4.44-.33,7.54.96,9.34,1.9,1.01.53,3.11,1.65,3.54,2.91.22.64-.09,1.06-.12,1.11-.54.7-1.96-.13-3.34-.79-2.36-1.12-4.09-1.47-5.6-1.78-2.22-.45-2.54-.03-4.86-.74-.84-.26-2.75-.84-2.96-1.41Z"/>
  <path class="cls-1" d="M49.37,38.73c-1.97-.25-5.32-1.18-9.14-5.13C30.57,23.59,25.1,1.44,23.82,1.5c-.81.03,1.81,8.87,3.28,21.67.94,8.14,1.41,12.19.56,14C23.83,45.39,1.89,21.12,1.51,25.12c-.15,1.5,2.9,5.11,8.47,15.65,5.24,9.92,7.89,14.95,8.28,19.03.94,9.97-12.23,7.08-11.16,10.79.71,2.45,6.18,2.86,12.36,11.1,3.51,4.68,5.96,10.17,7.55,14.35"/>
  <path class="cls-3" d="M103.91,732.53c2.28,5.64,6.17,14.5,12.16,25.07,13.18,23.24,26.68,37.37,30.24,40.99"/>
  <path class="cls-3" d="M84.32,698.83c.79,3.76,5.72,26.07,23.15,57.23,15.93,28.49,31.74,45.58,35.33,49.38"/>
  <path class="cls-3" d="M446.27,685.06c4.75,7.31,11.74,19.13,16.39,32.27,11,31.09-.72,41.92-2.63,43.55"/>
  <path class="cls-3" d="M459.96,674.82c6.79,9.05,15.59,22.08,22.4,37.05,21.04,46.24,2.78,64.78.98,66.48"/>
  <path class="cls-1" d="M153.07,132.84c-.92.49-1.05,1.87-1.13,2.84-.07.73-.32,3.56,1.31,7.27.31.7,2.01,4.55,4.29,5.75,2.19,1.16,3.07-1.09,3.12-1.24,1.03-2.8-1.27-7.98-1.86-9.31-.63-1.42-1.42-3.21-2.74-4.43-1.67-1.55-2.87-.95-2.99-.89Z"/>
</svg>