<?xml version="1.0" encoding="UTF-8"?>
<svg id="Layer_1" data-name="Layer 1" xmlns="http://www.w3.org/2000/svg" viewBox="0 0 1170.23 808.64">
  <defs>
    <style>
      .cls-1 {
        fill: none;
        stroke: #1f3555;
        stroke-miterlimit: 10;
        stroke-width: 6px;
      }
    </style>
  </defs>
  <path class="cls-1" d="M94.71,207.41c-5.23,5.49-12.47,11.88-22.04,17.49-20.91,12.26-41.28,13.97-52.15,14.04,8.7,5.54,24.47,13.78,45.46,15.29,8.55.61,16.12-.03,22.35-1.06-.9,10.91-.27,25.6,7.45,39.37,21.77,38.84,83.47,40.99,154.29,42.56,69.99,1.55,104.98,2.33,135.14-17.02,39.66-25.46,70.67-74.9,68.1-129.81-2.63-56.09-39.05-91.51-51.07-103.21-62.61-60.9-146.64-50.06-154.29-48.95-12.68,1.85-84.87,13.75-126.62,79.8-23.38,36.99-26.37,73.8-26.6,91.51Z"/>
  <path class="cls-1" d="M241.46,361.75c-2.03,14.24-3.97,33.98-3.48,57.47,0,0,1.68,81.49,40.06,158.49,61.27,122.93,194.89,179.01,220.92,189.94,178.91,75.1,349.66,19.14,411.85-1.24,33.53-10.99,60.4-22.78,78.56-31.42,18.32,2.34,38.72,3.89,60.89,3.93,40.85.06,76.55-5.04,105.57-11.42-17.17-3.54-39.83-10.06-64.44-22.64-29.56-15.12-50.75-33.28-64.44-47.02,13.35-6.83,31.65-18.15,48.77-36.57,72.83-78.39,45.44-200.63,40.06-224.67-17.76-79.3-61.76-130.14-85.34-156.75-92.84-104.73-211.71-129.56-250.8-135.85-15.08-2.43-72.59-10.82-146.3,1.74-69.4,11.83-122.27,36.97-155.01,55.73"/>
</svg>