<?xml version="1.0" encoding="UTF-8"?>
<svg id="Layer_1" data-name="Layer 1" xmlns="http://www.w3.org/2000/svg" viewBox="0 0 1890.27 1332.24">
  <defs>
    <style>
      .cls-1 {
        fill: none;
      }

      .cls-1, .cls-2 {
        stroke: #1f3555;
        stroke-miterlimit: 10;
        stroke-width: 6px;
      }

      .cls-2 {
        fill: #1f3555;
      }
    </style>
  </defs>
  <path class="cls-1" d="M1823.84,781.72c.03,4.29-.24,29.35-22.29,49.05-21.76,19.43-48.44,19.12-53.16,18.99,4.88-.17,35.87-.74,60.02,22.15,24.59,23.31,22.67,52.56,22.29,56.96-.87-2.2-12-32.07,8.57-56.96,14.75-17.84,36.15-21.43,41.16-22.15-8.63-4.37-23.16-13.04-36.01-28.48-12.9-15.49-18.24-30.72-20.58-39.55Z"/>
  <path class="cls-1" d="M1251.07,420.48c-12.34-6.16-34.11-10.48-47.24.79-10.42,8.95-9.73,22.85-9.45,28.53.2,3.94,1.33,26.77,22.33,37.24,13.02,6.49,31.96,7.39,45.52-3.17,16.12-12.56,13.16-32.42,12.88-34.07-3.17-18.9-20.71-27.65-24.05-29.32Z"/>
  <path class="cls-1" d="M997.71,498.34c-4.45-.22-9.17-.45-13.85,2.08-8.35,4.51-13.04,15.9-9.02,25.26,5.29,12.31,22.15,12.97,24.8,13.07,7.95.31,22.44-1.96,26.41-11.89,3.55-8.86-3.72-17.71-4.83-19.02-7.41-8.72-19.2-9.3-23.51-9.51Z"/>
  <path class="cls-1" d="M1429.85,203.59c3.7-37.67.75-68.45-2.83-90.02-5.59-33.68-9.17-53.37-25.45-61.31-20.23-9.87-47.39,4.57-70.7,16.96-15.5,8.24-41.56,22.52-57.97,52.18-5.39,9.73-16.73,30.49-12.73,52.18,6.38,34.53,50.27,63.56,108.38,69.68"/>
  <path class="cls-1" d="M1274.82,203.62c-26.83-.3-48.44,2.93-63.19,5.97-33.52,6.9-44.43,15.42-50.1,21.05-4.16,4.13-14.26,14.15-12.08,24.76,2.66,12.93,21.99,19.24,31.31,22.29,49.57,16.19,128.23-.83,160.14-8.67"/>
  <path class="cls-1" d="M1347.13,285.58c.4,11.27,1.32,27.25,3.63,46.38,4.28,35.4,8.64,42.85,11.51,46.94,9.53,13.6,27.61,25.84,46.63,26.82,30.69,1.58,64.47-26.12,71.7-68.92"/>
  <path class="cls-1" d="M1406.08,251.04c2.41,6.1,6.23,14.9,11.9,25.04,10.15,18.15,20.44,36.99,41.79,50.85,9.12,5.92,22.87,14.85,41.79,15.65,5.59.24,19.71.08,52.69-19,34.84-20.15,59.13-34.21,68.05-61.35,2-6.09,9.38-28.54-3.03-43.18-9.06-10.68-25.09-12.98-58.5-12.39-26.85.47-64.68,2.81-110.49,11.19"/>
  <path class="cls-2" d="M1444.14,201.07c-15.04-3.75-28.5,11.11-61.64,33.98-27.83,19.2-45.99,27.8-48.84,44.35-.35,2.04-1.08,6.63,1.55,8.58,4.98,3.69,17.76-5.23,34.11-15.02,34.17-20.45,53.4-26.38,74.43-47.21,5.43-5.37,12.11-12.87,9.69-18.6-1.78-4.2-7.71-5.68-9.3-6.08Z"/>
  <path class="cls-2" d="M1731.81,375.25c-1.99-.39-9.19-1.7-15.99,2.27-6.47,3.77-11.92,11.93-9.22,19.86,2.97,8.75,14.03,11.79,21.52,11.35,10.56-.62,22.21-8.64,21.52-18.15-.61-8.35-10.42-13.86-17.83-15.32Z"/>
</svg>