<?xml version="1.0" encoding="UTF-8"?>
<svg id="Layer_1" data-name="Layer 1" xmlns="http://www.w3.org/2000/svg" viewBox="0 0 1890.27 1332.24">
  <defs>
    <style>
      .cls-1 {
        fill: none;
      }

      .cls-1, .cls-2 {
        stroke: #1f3555;
        stroke-miterlimit: 10;
        stroke-width: 7px;
      }

      .cls-2 {
        fill: #1f3555;
      }
    </style>
  </defs>
  <path class="cls-1" d="M381.88,720.44c-2.1,13.2-6.59,35.94-16.21,60.5-14.83,37.85-32.44,55.93-39.13,62.12,6.37,3.46,13.6,8.98,20.74,18.01,18.43,23.3,26.34,57.32,29.84,77.94-.06-8.19.35-33.46,9.85-58.89,11.97-32.03,33.47-51.23,52.97-45.69-8.15-1.73-23.89-7.55-37.36-31.25-16.22-28.56-19.75-66.54-20.72-82.72Z"/>
  <path class="cls-1" d="M752.5,207.75c-13.5-8.34-30.44-21.49-42.03-40.7-35.34-58.55,11.78-119.05,17.12-125.68,2.59-7.98,5.19-15.96,7.78-23.94.88,10.02,2.6,25.95,6.23,45.48,7.22,38.88,13.07,43.96,10.9,63.44-2.34,20.96-10.31,25.89-9.34,46.68.69,14.77,5.39,26.77,9.34,34.71Z"/>
  <path class="cls-1" d="M510.41,296.57c-.13,3.07-1.24,19.45-18.85,31.62-13.11,9.06-27.91,10.62-33.12,10.98,2.86,0,21.6.28,35.41,12.3,14.03,12.22,11.8,26.84,11.42,28.98,1.44-4.6,4.29-11.18,10.28-18,10.04-11.43,23.17-16.99,29.7-19.32-5.45-2.23-15.82-7.21-23.99-16.69-10.81-12.55-11.06-25.19-10.85-29.86Z"/>
  <path class="cls-2" d="M632.17,715.32c-3.54-.23-10.84-.72-16.58,6.59-4.03,5.13-7.16,13.94-5.53,22.24,2.59,13.21,15.87,18.38,25.18,16.48,1.54-.32,13.68-2.8,16.58-15.65,1.96-8.66-1.32-17.37-4.91-22.24-4.99-6.77-11.4-7.19-14.74-7.41Z"/>
  <path class="cls-2" d="M90.7,665.29c7.6-14.83,27.2-21.89,36.81-9.14,5.91,7.84,7.77,22.83,2.73,32.91-4.87,9.73-14.01,10.53-19.09,10.97-3.16.27-18.47,1.61-23.17-10.97-3.91-10.45,2.32-22.97,2.73-23.77Z"/>
  <path class="cls-2" d="M911.73,10.65c10.56-4.43,27.65,2.29,28.22,9.3.41,5.03-7.69,10.56-16.12,11.36-8.44.81-18.83-2.94-20.15-9.3-.97-4.65,3.22-9.33,8.06-11.36Z"/>
</svg>