<?xml version="1.0" encoding="UTF-8"?>
<svg id="Layer_1" data-name="Layer 1" xmlns="http://www.w3.org/2000/svg" viewBox="0 0 1890.27 1332.24" preserveAspectRatio="none" xmlns:xlink="http://www.w3.org/1999/xlink">
  <defs>
    <style>
      .cls-1 {
        fill: #da9dc6;
      }

      .cls-2 {
        fill: #fff6ea;
      }

      .cls-2, .cls-3, .cls-4 {
        stroke-miterlimit: 10;
        stroke-width: 6px;
      }

      .cls-2, .cls-4 {
        stroke: #1f3555;
      }

      .cls-3 {
        stroke: #203555;
      }

      .cls-3, .cls-4 {
        fill: none;
      }
    </style>
  </defs>
  <path class="cls-3" d="M.07,953.96c166.98-3.83,302.93-6.75,397.46-8.74,156.41-3.29,293.2-5.98,469.52-6.55,57.22-.19,104.28-.1,135.4,0"/>
  <path class="cls-3" d="M283.51,842.82c-5.78,14.63-13.31,35.29-20.46,60.68-6.46,22.93-9.69,34.39-7.06,35.98,4.49,2.72,24.43-15.78,95.25-115.01"/>
  <path class="cls-3" d="M277.14,834.02c-7.7,16.87-16.46,34.56-26.42,52.85-12.12,22.25-24.5,42.56-36.64,60.95"/>
  <path class="cls-3" d="M181.3,660.35c-1.09,12.49-1.59,30.12,1.38,50.85,2.07,14.44,7.1,49.64,26.12,76.51,35.6,50.28,106.53,52.12,117.56,52.25"/>
  <path class="cls-3" d="M353.57,842.84c27.95,1.7,58.72,2.02,91.84,0,16.22-.99,31.75-2.46,46.53-4.29"/>
  <path class="cls-3" d="M619.82,647.89c2.63,16.98,5.86,53.66-11.02,94.44-25.03,60.47-76.32,86.56-89.72,92.87"/>
  <path class="cls-3" d="M498.55,829.98c6.9,11.49,16.74,27.66,28.88,46.84,28.18,44.52,42.27,66.78,45.65,65.24,3.16-1.45-1.7-23.64-37.35-115.5"/>
  <path class="cls-3" d="M535.73,826.56c9.05,19.37,18.03,40.38,26.59,63,6.81,18,12.74,35.39,17.91,52.04"/>
  <path class="cls-3" d="M307.94,371.16c-13.75.64-33.79,3-56.25,11.25-74.14,27.23-107.34,93.94-114.54,108.4-32.32,64.95-24.81,128.42-19.43,173.85,9.46,79.89,36.79,110.59,27.61,183.05-4.02,31.72-13.21,57.03-20.45,73.63"/>
  <path class="cls-3" d="M335.56,367.07c15.49-11.26,50.53-33.25,97.15-32.72,52.38.59,88.19,29.24,115.56,51.13,80.38,64.3,106.27,151.91,111.47,170.78,19.91,72.32.69,96.84,11.25,199.41,7.34,71.35,23.7,128.05,35.79,163.62"/>
  <path class="cls-3" d="M342.97,731.68c5.92,1.69,14.29,4.97,22.51,11.62,18.74,15.16,22.68,36.57,23.6,42.84"/>
  <path class="cls-3" d="M396.33,755.27c6.69,3.3,16.72,7.24,29.4,8.71,20.3,2.36,36.47-2.86,44.65-6.17"/>
  <path class="cls-3" d="M497.61,725.14c-3.5,2.3-11,7.96-15.25,18.15-7.51,18.04,1.64,34.79,2.9,37.03"/>
  <path class="cls-3" d="M424.87,660.96c1.09-.24,7.91-1.61,13.77,2.78,5.47,4.1,8.22,11.79,5.55,18.89-2.56,6.82-9.39,11.14-16.66,10.55"/>
  <path class="cls-3" d="M315.23,454.93c-2.78,7-7.1,15.52-13.91,24.08-17.16,21.56-39.38,29.88-49.77,32.99"/>
  <path class="cls-3" d="M351.28,446.72c12.95,9.91,29.66,20.74,50.3,29.96,42.03,18.8,80.6,22.12,105.16,22.1"/>
  <path class="cls-2" d="M352.96,824.42c4.16-3.44,2.07-14.28.4-22.89-1.4-7.24-2.26-11.41-5.53-13.75-4.38-3.13-11.14-1.57-14.37,3.43-2.7,4.2-2.12,9.48-1.58,13.22.38,2.67,1.05,7.29,4.12,11.69,4.4,6.29,12.82,11.7,16.95,8.29Z"/>
  <path class="cls-2" d="M495.78,829.89c-4.16-3.44-2.07-14.28-.4-22.89,1.4-7.24,2.26-11.41,5.53-13.75,4.38-3.13,11.14-1.57,14.37,3.43,2.7,4.2,2.12,9.48,1.58,13.22-.38,2.67-1.05,7.29-4.12,11.69-4.4,6.29-12.82,11.7-16.95,8.29Z"/>
  <g>
    <path class="cls-4" d="M159.52,614.75c-7.92-50,29.22-95.68,82.95-102.02s103.7,29.05,111.62,79.05c7.92,50-29.22,95.68-82.95,102.02-53.73,6.34-103.7-29.05-111.62-79.05"/>
    <path class="cls-4" d="M437.07,592.97c-7.13-2.32-21.77-6.19-40.69-4.74-19.56,1.5-33.63,7.91-40.2,11.36"/>
    <path class="cls-4" d="M437.54,578.55c3.26-51.67,50.14-88.26,104.7-81.73,54.56,6.54,96.14,53.73,92.88,105.4-3.26,51.67-50.14,88.26-104.7,81.73-54.56-6.54-96.14-53.73-92.88-105.4"/>
  </g>
  <g>
    <ellipse class="cls-1" cx="253.83" cy="727.05" rx="28.62" ry="9.39" transform="translate(-136.75 63.36) rotate(-11.23)"/>
    <path class="cls-4" d="M230.88,735.66c6.97-9.19,10.4-10.64,12.24-10.32,2.91.52,2.27,5.57,5.4,6.11,4.65.8,11-9.55,14.56-8.68,2.4.59.82,5.61,3.31,6.4,2.51.8,7.59-3.23,13.21-8.84"/>
  </g>
  <g>
    <ellipse class="cls-1" cx="569.02" cy="707.44" rx="9.39" ry="28.62" transform="translate(-141.46 1272.66) rotate(-89.69)"/>
    <path class="cls-4" d="M544.8,711.28c8.67-7.61,12.32-8.35,14.06-7.66,2.75,1.09,1.11,5.91,4.07,7.07,4.4,1.71,12.69-7.16,16-5.59,2.23,1.06-.31,5.66,1.96,6.93,2.3,1.28,8.09-1.65,14.71-6.02"/>
  </g>
  <path class="cls-3" d="M293.79,602.92c-5.87-2.05-13.17-3.97-21.67-4.82-19.19-1.92-34.81,2.54-43.95,6.02"/>
  <path class="cls-3" d="M580.98,587.27c-5.87-2.05-13.17-3.97-21.67-4.82-19.19-1.92-34.81,2.54-43.95,6.02"/>
</svg>