<?xml version="1.0" encoding="UTF-8"?>
<svg id="Layer_1" data-name="Layer 1" xmlns="http://www.w3.org/2000/svg" viewBox="0 0 2497.63 1233.82">
  <defs>
    <style>
      .cls-1 {
        stroke-width: 3px;
      }

      .cls-1, .cls-2, .cls-3, .cls-4, .cls-5 {
        fill: none;
        stroke: #203555;
        stroke-miterlimit: 10;
      }

      .cls-3 {
        stroke-width: 5px;
      }

      .cls-4 {
        stroke-width: 4px;
      }

      .cls-5 {
        stroke-width: 2px;
      }
    </style>
  </defs>
  <path class="cls-5" d="M1875.61,625.52c1.28,1.42,2.64,3.11,3.96,5.09,2.3,3.44,3.8,6.74,4.8,9.47"/>
  <g>
    <path class="cls-5" d="M1893.12,620.44c.92,2.36,2.07,4.93,3.53,7.63,2.21,4.08,4.59,7.46,6.78,10.17"/>
    <path class="cls-5" d="M1827.14,626.37c1.23-2.31,2.45-4.67,3.67-7.06,1.82-3.58,3.56-7.11,5.23-10.6"/>
    <g>
      <path class="cls-3" d="M1868.22,520.72c-4.12,1.27-10.85,3.97-16.91,9.95-5.02,4.95-7.35,9.94-9.61,14.92-6.51,14.29-2.45,16.47-8.29,29.18-3.9,8.49-7.24,10.84-10.61,21.22-1.47,4.53-2.24,8.39-2.65,10.94"/>
      <g>
        <path class="cls-5" d="M2194.55,755.32c1.69,1.09,4.15,2.94,6.23,5.89,2.31,3.27,2.37,5.35,4.38,8.25,1.34,1.94,3.73,4.5,8.25,6.57"/>
        <path class="cls-5" d="M2216.43,762.22c1.32,1,3.25,2.5,5.56,4.38,3.59,2.93,5.09,4.34,6.4,5.39,2.58,2.06,6.65,4.49,13.13,5.89"/>
        <path class="cls-5" d="M2231.58,768.28c2.16.2,5.24.77,8.42,2.53,2.71,1.49,4.11,3.09,5.56,4.38,2.53,2.26,6.67,4.89,13.64,6.23"/>
        <g>
          <path class="cls-5" d="M2345.39,707.51c3.67,3.2,6.16,6.24,7.74,8.42,3.38,4.63,5.29,8.93,7.91,14.81,2.04,4.58,1.88,4.88,3.87,9.09,3.45,7.29,4.11,6.81,5.05,9.93,1.4,4.66.78,8.61-.34,15.66-.73,4.6-1.73,8.35-2.53,10.94"/>
          <path class="cls-5" d="M2346.73,747.57c.29,1.82.53,4.55,0,7.74-.48,2.94-1.14,3.39-2.86,8.25-2.41,6.79-2.14,8.74-4.55,12.29-1.23,1.81-2.51,3.1-3.37,3.87"/>
          <path class="cls-5" d="M2353.97,742.52c.3,3.11.6,7.57.51,12.96-.06,3.79-.12,6.37-.67,9.6-.54,3.14-1.71,7.78-4.55,13.13"/>
          <path class="cls-5" d="M2336.63,751.44c-.33,2.41-.89,5.27-1.85,8.42-.55,1.8-1.59,4.87-3.37,8.42-1.65,3.29-4.41,7.94-8.92,12.79"/>
          <path class="cls-5" d="M2321.31,764.91c-.65,2.02-1.65,4.47-3.2,7.07-2.33,3.9-5.01,6.64-7.07,8.42"/>
          <g>
            <path class="cls-3" d="M2036.87,291.58c-7.55-2.29-20.24-5.11-35.86-3.59-7.4.72-25.36,2.7-43.03,15.78-4.91,3.64-17.1,12.88-24.39,29.41-6,13.6-6.29,26.72-6.46,34.43-.29,13.03,2.02,16.92,0,29.41-1.44,8.91-3.01,10.8-5.02,20.08-1.61,7.44-3.16,18.37-2.23,32.41"/>
            <path class="cls-3" d="M1977.34,494.55c-.11-4.47-.78-11.14-3.59-18.65-2.33-6.23-5.45-14.57-12.91-19.37-5.51-3.54-8.79-2.2-24.39-3.59-20.67-1.84-19.47-4.61-27.97-3.59-1.32.16-21.24,2.85-30.84,18.65-2.79,4.59-3.75,8.71-5.02,16.5-1.78,10.93-3.74,26.46-4.3,45.9"/>
            <path class="cls-3" d="M1935.95,612.7c-2.64-4.36-7.46-11.06-15.48-16.8-1.75-1.25-6.82-4.87-15.57-7.79-26.84-8.94-51.63-1.59-55.74-.31-7.43,2.31-14.29,4.52-21.18,10.59-6.06,5.34-8.85,10.78-13.7,20.24-6.3,12.29-9.45,18.43-7.79,26.16.24,1.12,1.99,8.73,8.72,13.7,4.56,3.37,9.34,4.01,12.46,4.36,17.2,1.92,38.31.99,45.47.62"/>
            <path class="cls-3" d="M2347.82,695.03c-9.9-5.69-18.71-7.23-25.59-8.37-7.18-1.19-21.3-2.69-49.22,3.94-25.94,6.15-39.93,9.47-56.11,20.67,0,0-28.62,19.81-36.42,49.22-1.58,5.97-2,11.22.49,15.75,1.76,3.2,5.36,6.76,22.15,11.32,15.31,4.16,24.61,4.92,24.61,4.92,27.46,2.24,52.37,1.82,73.34,1.48,9.91-.16,27.25-.44,49.22-3.94,12.23-1.95,21.88-4.25,28.06-12.31,4.8-6.25,5.48-13.35,5.91-17.72,1.25-12.89-3.27-22.83-6.89-30.52-3.54-7.53-11.27-23.96-29.53-34.45Z"/>
            <path class="cls-3" d="M2210.99,281.87c12.9-2.02,23.24-.51,29.56.93,8.31,1.9,20.83,4.73,29.48,15.19,4.63,5.59,6.41,11.18,8.04,16.97,8.86,31.45,10.59,59.3,10.72,61.64.69,12.12,1.13,28.41.22,47.8"/>
            <path class="cls-3" d="M2207.8,498.63c-.42-3.36-.8-8.63.08-14.93.87-6.24,1.73-6.95,9.14-25.63,2.83-7.13,4.52-11.89,8.47-18.28,2.08-3.36,3.66-5.34,5.79-7.13,4.35-3.64,8.93-4.73,12.7-5.57,13.61-3.03,20.42-4.55,26.74-4.9,10.32-.58,18.92-1.06,29.42,2.45,5.15,1.72,11.84,3.96,17.83,10.03,6.51,6.6,8.51,14.02,10.92,22.96,2.64,9.79.74,9.12,4.23,27.86,1.18,6.3,1.61,12.77,3.34,18.94,1.63,5.82,3.47,10.23,1.34,14.26-1.42,2.69-4.04,4.12-6.02,4.9"/>
            <path class="cls-3" d="M2254.53,582.45c3.07-5.44,5.05-10.09,6.31-13.35,2.21-5.76,2.4-7.89,4.82-12.61,2.46-4.78,5.06-8.02,6.68-10.01,3.56-4.39,6.64-8.19,11.5-10.76,3.92-2.07,6.52-2.04,12.61-2.97,5.12-.78,11.2-2.37,23.37-5.56,15.74-4.13,17.93-5.81,24.48-5.19,5.84.55,10.15,2.46,13.72,4.08,0,0,10.88,4.92,19.66,14.46,17.32,18.82,26.39,61.77,31.9,90.5,2.32,12.11,5.35,28.69,8.53,48.59"/>
            <path class="cls-3" d="M2139.19,642.16c3.8-7.67,6.26-14.13,7.79-18.54,3.41-9.86,3.84-14.3,8.16-22.99,4.07-8.18,7.16-11.24,9.27-12.98,3.79-3.13,7.5-4.57,11.13-5.93,3.31-1.25,7.58-2.52,16.69-3.71,7.53-.98,14.98-1.95,25.22-1.48,9.72.45,17.58,1.99,22.99,3.34,9.18,2.29,13.77,3.43,18.17,7.05,4.65,3.81,6.63,8.41,10.38,17.43,1.43,3.44,4.28,10.75,8.53,29.67,1.7,7.56,2.91,13.84,3.71,18.17"/>
            <path class="cls-3" d="M2164.06,586.44c-1.11-1.02-2.7-2.71-3.93-5.14-3.3-6.54-.82-12.16,2.16-25.47,2.63-11.74,2.36-14.84,6.04-29.57,1.36-5.45,2.42-9.1,5.18-13.17.96-1.41,4.7-6.66,11.67-10.39,6.81-3.65,12.97-3.74,22.62-4.08,6.46-.23,10.96.29,18.17,1.11,2.21.25,13.91,1.64,28.56,5.93,5.72,1.67,8.95,2.93,12.24,5.56,1.92,1.54,3.74,3.45,7.79,9.64,2.51,3.85,5.76,9.15,9.16,15.77"/>
            <path class="cls-3" d="M1973.53,499.69c-5.32.96-13.79,3.27-21.86,9.56-7.35,5.74-11.01,12.16-16.39,21.86-1.2,2.15-5.73,10.44-11.43,26.7-2.92,8.33-6.43,19.54-9.48,33.17"/>
            <path class="cls-3" d="M2180.96,670.19c9.04-.14,18.25-.14,27.63,0,28.78.44,56.08,2.24,81.77,4.97"/>
            <path class="cls-1" d="M2027.69,305.78c-3.15,3.98-6.13,6.76-8.27,8.56-.79.67-1.53,1.25-8.86,6.5-7.14,5.11-7.52,5.33-8.86,6.5-4,3.48-3.57,4.11-7.38,7.38-2.83,2.43-3.12,2.13-9.16,6.5-4.42,3.2-6.68,4.84-8.86,7.09-3.8,3.91-3.2,4.9-5.61,7.09-6.68,6.07-17.43,4.07-18.61,3.84-8.45-1.68-13.35-7.37-14.77-9.16,9.19,4.43,13.12,10.28,14.77,13.29,2.49,4.56,3.23,9.14,4.73,18.31.83,5.08,1.25,9.36,1.48,12.4"/>
            <path class="cls-1" d="M1939.42,412.1c3.17,2.52,7.74,5.6,13.74,8.05,7.9,3.22,14.97,3.99,19.63,4.12,2.99-2.34,6.32-4.73,10.01-7.07,7.5-4.75,14.69-8.14,21-10.6"/>
            <path class="cls-1" d="M1972.29,424.19c1.71,5.05,3.7,10.33,5.99,15.78,4.34,10.31,9.06,19.47,13.74,27.48"/>
            <path class="cls-5" d="M1974.19,368.05c1.22,3.82,2.87,6.7,4.27,8.71,1.25,1.8,5.65,7.99,13.51,11.38,4.06,1.75,5.62,1.28,8.89,3.56,3.05,2.12,4.92,4.78,6.05,6.76"/>
            <path class="cls-5" d="M1989.63,386.83c.44,2,1.26,4.77,2.93,7.76,1.57,2.82,3.36,4.9,4.76,6.3"/>
            <path class="cls-5" d="M2193.89,742.85c.97,1.74,2.69,4.35,5.52,6.75,1.18,1,5.44,4.41,16.56,6.44,4.19.76,6.54.82,13.19,1.23,18.38,1.13,16.77,1.71,20.86,1.53,5.89-.25,12.72-2.83,26.38-7.97,15.63-5.89,15.81-7.87,22.18-10.54.54-.23,2.15-.89,3.73-2.39.31-.3,1.42-1.39,2.46-3.36,1.31-2.48,1.09-3.67,1.94-6.12.99-2.85,2.49-4.75,3.28-5.74,1.92-2.41,3.44-3.03,7.81-5.91,4.72-3.1,3.64-2.84,9.16-6.56,5.12-3.45,5.98-3.64,9.95-6.33,2.36-1.6,5.82-4.1,9.84-7.58"/>
            <path class="cls-3" d="M2129.92,710.38c.81.63,2.02,1.45,3.6,2.16,1.29.58,6.5,2.72,12.39.86,3.69-1.16,9.92-4.6,9.8-8.94-.08-3.1-3.37-5.34-7.35-8.07-6.48-4.43-11.37-4.97-11.24-6.34.17-1.76,8.32-2.49,12.68-2.88,7.9-.71,9.11.13,12.97-1.15,1.83-.61,7-2.33,10.09-7.21,3.75-5.91,3.65-15.23-.58-18.16-5.43-3.75-16.09,4.12-17.58,1.87-1.22-1.83,6.39-6.29,5.91-12.11-.54-6.51-11.13-13.28-18.02-10.95-8.06,2.72-10.58,17.72-10.95,17.58-.24-.09,2.88-5.5,1.44-11.1-1.5-5.82-7.1-8.6-7.49-8.79-7.37-3.52-17.41.02-19.74,5.62-2.16,5.2,2.3,12.2,2.16,12.25-.15.05-1.58-9.18-7.21-11.67-4.75-2.11-11.64.97-15.13,5.33-3.74,4.67-3.88,11.17-3.6,11.24.2.06,1.49-3.13,2.02-6.5.53-3.36,1.28-8.15-1.51-11.4-3.13-3.66-9.62-4.08-13.66-1.73-5.16,3-6.22,10.44-6.74,10.27-.47-.15,2.51-5.6.82-10.69-1.81-5.46-8.31-8.52-13.22-9.27-1.09-.17-8.99-1.37-13.83,3.46-5.79,5.78-2.8,15.83-5.86,16.57-1.82.44-2.76-3.15-7.97-6.54-1.65-1.07-6.16-4.01-11.93-3.63-1.52.1-9.19.61-11.59,6.4-1.87,4.52.55,9.64,3.63,12.45,4.81,4.39,11.13,3.08,11.76,2.94"/>
            <path class="cls-3" d="M2119.88,691.76c1.51,1.9,3.48,5.04,2.93,8.47-.88,5.5-7.69,8.27-14.01,10.75-9.03,3.54-24.43,9.58-41.37,2.61-6.37-2.62-11.09-6.32-14.33-9.45-1.07,2.33-2.95,5.67-6.19,8.79-9.04,8.72-21.26,8.57-29.32,8.47-10.04-.13-19.42-.24-23.45-6.84-3.5-5.72-1-13.07,0-15.64-4.2,2.26-10.51,5.24-18.57,7.49-11.78,3.29-22.62,6.32-30.29.65-1.68-1.24-6.7-5.48-7.82-16.29-3.93,1.85-9.84,4.42-17.26,6.84-11.97,3.91-21.76,6.97-32.96,4.48-3.92-.87-12.61-2.81-14.43-8.8-1.38-4.56,1.91-9.2,3.41-11.32,6.11-8.62,16.53-10.28,19.68-10.66-1.3.48-3.32,1.07-5.83,1.1-1.03.01-8.52,0-12.42-5.06-3.39-4.4-2.81-10.95-1.1-14.36,4.55-9.06,24.38-10.57,49.19-4.56-1.07-1.14-3.96-4.51-3.91-9.12.08-7.05,7.02-12.5,13.03-13.36,7.94-1.13,16.97,5.39,19.49,16.17,1.57-1.68,4.15-3.87,7.87-5.09,8.56-2.8,15.94,1.94,16.94,2.61,2.47,1.64,4.08,3.53,5.04,4.82.57-.65,2.28-2.43,5.12-3.01,4.02-.82,7.08,1.41,7.57,1.78"/>
            <path class="cls-3" d="M2073.84,282.98c-2.38-.26-5.82-.37-9.75.53-8.85,2.02-15.91,8.18-24.64,21.31-6.42,9.66-15.34,25.49-21.69,48.06l-12.33,127.16"/>
            <path class="cls-3" d="M2097.05,281.4c-4.26-1.27-14.41-3.57-23.2,1.58-7.03,4.12-10.2,11.25-14.53,20.98-2.6,5.86-4.11,10.96-4.98,14.46"/>
            <path class="cls-3" d="M2106.51,282.27c-2.18-.61-8.45-2.03-15.26.84-11.2,4.72-13.75,16.78-13.96,17.88"/>
            <path class="cls-3" d="M2116.62,280.78c-2.15-.33-5.83-.55-9.69,1.08-3.83,1.62-6.48,4.49-9.28,9.03-6.22,10.09-8.89,21.42-10.09,28.6"/>
            <path class="cls-3" d="M2119.98,499.89c-.75.11-5.31.69-7.76-2.07-3.15-3.54-.81-10.36,3.1-13.71,3.92-3.35,10.91-4.51,15.01-.52,3.83,3.73,2.69,9.59,2.59,10.09"/>
            <path class="cls-3" d="M2138.09,488.25c2.07,1.72,4.14,3.45,6.21,5.17.25-.75,1.8-5.13,6.47-7.24.26-.12,5.77-2.5,10.87.52,1.74,1.03,2.84,2.33,3.47,3.22.32-1.14,1.14-3.43,3.25-5.29,3.14-2.76,8.15-3.71,12.16-1.55,2.41,1.3,5.39,4.22,5.17,7.5-.22,3.43-3.8,5.34-8.28,8.54-5.37,3.83-9.74,8.9-14.75,13.19-9.3,7.98-12.45,22.86-14.75,38.81-4.69,32.52-4.98,63.64-4.66,82.27"/>
            <path class="cls-3" d="M2030.5,488.1c-.2-1.2-.87-4.19-3.39-6.78-.6-.62-3.7-3.8-7.83-3.65-4.39.16-8.57,4.05-9.91,9.65-1.29-1.39-3.43-3.43-6.52-5.22-2.77-1.6-4.81-2.78-7.56-2.61-2.31.15-6.08,1.31-7.3,4.43-1.29,3.29.58,7.87,4.96,10.17-2.02.66-5.1,1.79-8.61,3.65-2.27,1.2-12.11,6.62-21.13,19.3-5,7.03-15.55,24.47-23.48,70.69-1.59,9.26-3.53,22.33-4.86,38.21"/>
            <path class="cls-3" d="M2113.41,316.99c.43-2.78,1.32-6.83,3.32-11.37,4.17-9.44,10.7-14.94,15.84-19.62,4.57-4.17,6.93-6.28,10.94-7.56,2.25-.72,7.93-.79,19.2-.89,10.11-.08,9.17.52,16.81.34,13.63-.31,18.12-2.15,26.01.39,3.35,1.08,5.89,2.49,7.42,3.44-6.37,1.35-11.25,3.59-14.55,5.44-3.22,1.8-7.13,3.98-10.51,8.07-3.4,4.1-4.41,7.87-6.3,14.23-5.01,16.82-5.5,15.78-7.21,22.65-6.27,25.22-5.83,57.99-5.83,57.99.34,25.31.03,55.55-1.01,94.89"/>
            <path class="cls-5" d="M1835.2,604.19c-.24,1.71-.28,3.74.85,4.52.88.62,1.89.05,3.39.14,2.54.15,4.09,2.02,5.65,3.39,1.77,1.56,5.27,2.83,12.29,5.37,3.64,1.32,6.27,2.26,10.03,2.97,2.25.43,4.19.78,6.64.71,3.76-.11,6.29-1.16,9.61-2.4,10.36-3.89,9.07-2.53,15.68-5.37,4.44-1.91,8.06-3.49,12.29-6.64,2.35-1.75,4.15-3.43,5.37-4.66"/>
            <path class="cls-5" d="M1899.76,618.03c1.16,1.97,3.5,5.94,4.66,7.91,2.92,4.95,5.84,9.89,8.76,14.84"/>
            <path class="cls-5" d="M1951.26,479.29c1.11,1.77,2.23,3.65,3.33,5.65,2.05,3.73,3.74,7.33,5.15,10.69"/>
            <path class="cls-5" d="M1945.92,482.12c.85,1.27,1.69,2.58,2.52,3.93,2.9,4.71,5.33,9.32,7.36,13.72"/>
            <path class="cls-5" d="M2246.34,302.84c-7.06,1.53-12.71,2.42-16.68,2.97-5.35.73-7.9.86-11.87,2.35-2.35.89-3.6,1.65-6.55,2.35-3.07.73-5.58.84-7.88.92-2.04.07-4.76.05-7.98-.31"/>
            <path class="cls-5" d="M2186.37,312.67c2.47,2.62,4.83,3.96,6.55,4.71,2.05.89,3.12.89,5.73,2.05,2.44,1.09,4.11,2.25,5.42,3.17,4.47,3.14,7.76,6.92,9.82,9.62"/>
            <path class="cls-5" d="M2179.8,357.55c1.4,1.44,3.27,3.46,5.33,6.01,1.85,2.3,3.29,4.09,4.65,6.42,1.32,2.29,1.35,3.01,3.83,9.98,2.78,7.81,3.61,9.33,4.65,10.79,1.4,1.98,2.97,4.14,5.88,5.47,3.13,1.43,6.06,1.08,8.06.82,2.97-.39,4.7-1.28,11.34-4.65,8.98-4.55,8.74-4.39,9.16-4.65,2.96-1.86,7.13-4.98,11.34-10.11"/>
            <path class="cls-5" d="M2256.32,416.86c-1.07-3.08-2.73-7.24-5.33-11.89-2.13-3.82-3.78-6.77-6.83-9.84-2.06-2.07-5.72-5.16-11.48-7.38"/>
            <path class="cls-5" d="M2253.7,388.77c1.8,2.08,3.7,4.54,5.54,7.42,3.29,5.16,5.36,10.08,6.69,14.11"/>
            <path class="cls-5" d="M2264.15,390.86c1.53,1.47,3.24,3.34,4.91,5.64,1.34,1.85,2.4,3.63,3.24,5.22"/>
            <path class="cls-5" d="M2267.41,349.51c.03,2.46-.06,5.09-.31,7.86-.71,7.86-2.51,14.59-4.47,19.96"/>
            <path class="cls-5" d="M2273.8,356.44c.04,1.67.05,3.42,0,5.24-.06,2.28-.2,4.44-.39,6.47"/>
            <path class="cls-5" d="M2249.17,308.7c.78.88,1.65,1.8,2.62,2.71,2.33,2.19,4.65,3.87,6.73,5.16"/>
            <path class="cls-5" d="M2255.99,305.3c1.63,1.07,3.41,2.36,5.24,3.93,2.04,1.75,3.75,3.48,5.16,5.07"/>
            <path class="cls-5" d="M2231.06,476.36c-.95-4.87-.03-7.72,1.09-9.46.86-1.34,1.97-2.23,2.43-4.24.47-2.09-.27-3.12-.24-4.97.03-1.7.7-4.06,3.64-6.91,1.55-.1,3.9-.09,6.55.73,2.96.91,4.77,2.34,7.28,4.12,0,0,4.85,3.44,9.7,6.18,1.26.71,7.57,4.18,16.49,4.85,1.99.15,8.79.51,16.85-2.3,5.35-1.87,8.97-4.34,11.64-6.18,5.47-3.79,9.3-7.82,11.76-10.79"/>
            <path class="cls-2" d="M2321.02,470.19c-.17,2.74-.41,6.81-.57,11.76-.26,7.66-.14,10.8-.29,14.14-.22,5.13-1.11,12.42-4.21,21.41"/>
            <path class="cls-2" d="M2313.75,465.51c.12,2.77.14,5.74,0,8.89-.25,5.68-.94,10.81-1.82,15.29"/>
            <path class="cls-2" d="M2305.15,470.19c.1,2.13.11,4.43,0,6.88-.16,3.52-.55,6.72-1.05,9.56"/>
            <path class="cls-2" d="M2310.31,508.13c-.18,1.76-.61,4.18-1.72,6.88-1,2.44-2.23,4.32-3.25,5.64"/>
            <path class="cls-2" d="M2244.75,539.04c1.29.95,2.66,2.13,3.99,3.59,4.78,5.26,6.34,11.23,6.91,14.63"/>
            <path class="cls-2" d="M2196.88,533.33c5.55,1.09,9.86.83,12.77.4,2.53-.38,3.03-.74,7.05-1.46,5.27-.94,6.3-.65,11.04-1.33,4.75-.68,8.02-1.6,13.7-3.19,5.08-1.42,7.66-2.16,9.44-3.46,3.74-2.72,5.44-6.58,6.25-9.04"/>
            <path class="cls-2" d="M2171.88,525.22c1.76.75,4.35,1.88,7.45,3.32,11.02,5.15,12.97,7.11,13.96,8.24.6.68,1.95,2.85,4.65,7.18,2.39,3.84,3.59,5.75,4.26,6.91,2.13,3.73,2.69,5.19,4.65,6.91.76.67,1.75,1.24,3.72,2.39,4.4,2.56,5.86,2.77,8.78,4.79.87.6,2.15,1.55,3.59,2.93"/>
            <path class="cls-2" d="M2251.67,533.06c1.43,1.64,2.9,3.45,4.39,5.45,1.5,2.02,2.83,3.99,3.99,5.85"/>
            <path class="cls-2" d="M2364.32,538.6c-5.27,4.37-9.96,6.69-13.28,8.01-2.79,1.11-4.24,1.35-9.28,3.28-3.3,1.26-4.39,1.81-9.87,4.16-9.47,4.07-14.28,6.12-17.97,6.94-3.81.84-3.28.27-9.46,1.46-5.94,1.14-7.68,1.9-11.28,1.64-2.56-.19-6.26-.46-8.37-3.28-1.35-1.8-1.49-3.9-1.46-5.09.59,1.92.96,4.34-.18,6.37-1.02,1.8-2.53,2.06-5.28,4.18-2.32,1.8-3.7,3.52-5.09,5.28-1.55,1.94-3.6,4.94-5.28,9.1"/>
            <path class="cls-2" d="M2000.06,498.67c-3.45,2.59-8.03,6.3-12.98,11.21-4.93,4.89-12.79,12.78-18.88,24.19-2.74,5.13-4.78,12.27-8.85,26.55-2.83,9.91-5.48,19.34-7.38,32.16-1.01,6.85-1.51,12.64-1.77,16.82"/>
            <path class="cls-2" d="M2189.19,283.59c-1.81,1.89-4.43,4.86-7.08,8.85-5.5,8.29-7.73,15.86-10.62,25.96-1.25,4.36-2.79,10.38-4.13,17.7"/>
            <path class="cls-2" d="M2153.25,432.47c.29-.36,1.27-1.58,2.7-1.6,2.21-.02,3.44,2.87,3.52,3.08.99,2.42-.23,4.61-.33,4.79-.64,1.11-2.24,2.95-3.97,2.59-1.54-.32-2.22-2.21-2.53-3.08-.16-.45-1.21-3.52.61-5.78Z"/>
            <path class="cls-2" d="M1954.49,617.7c.37-.5,2.57-3.46,5.26-3.11,3.07.4,4.41,4.77,4.78,5.98.4,1.3,2.15,6.98-1.32,9.69-2.4,1.88-6.23,1.48-8.49-.36-3.6-2.92-2.64-8.97-.24-12.2Z"/>
            <path class="cls-2" d="M2036.78,476.59c.65-.35,1.79-.97,2.73-.46,1.19.65,1.04,2.56,1.02,2.73-.11,1.22-.94,3.09-2.73,3.3-1.68.2-3.33-1.15-3.41-2.62-.09-1.62,1.76-2.62,2.39-2.96Z"/>
            <g>
              <path class="cls-4" d="M2046.2,336.9c-2.03,2.58-2.38,5.35-1.21,6.58.86.9,2.55.98,3.91.44,3.01-1.18,3.37-4.9,6.01-5.48.15-.03,1.39-.28,1.99.37,1.1,1.2-.72,4.56-1.34,5.73-4.9,9.27-28.77,59.4-31.74,99.02-.54,7.25-.52,16.46,4,21.18,4.67,4.88,12.17,2.98,16.61.29,12.06-7.3,14.55-27.66,23.16-64.24,8.38-35.6,16.03-58.11,11.12-60.74-.13-.07-2.58-1.34-4.2-.26-1.14.76-1.72,2.61-1.33,3.67.56,1.51,3.59,2.74,15.2.61"/>
              <path class="cls-4" d="M2108.45,343.81c-.18-.65-1.39-4.81-5.44-6.89-3.67-1.88-7.74-1.05-10.27.71-3.29,2.29-4.27,6.28-4.65,7.85-4.19,17.13-15.48,58.52-14.28,104.47.14,5.31.57,15.73,5.69,20.3,4.03,3.59,8.85,1.79,10.4,1.22,8.61-3.21,12.12-14.96,12.64-16.75"/>
              <path class="cls-4" d="M2108.84,339.19c-3.23,53.19-6.16,106.74-6.54,120.5-.07,2.55-.18,8.74,2.46,11.65,3.35,3.68,9.1-.01,12.05-2.29"/>
              <g>
                <path class="cls-4" d="M2118.66,340.18c-.49,34.48-1.12,78.39-1.94,136.23"/>
                <path class="cls-4" d="M2118.07,373.55c.3-2.65.82-6.88,1.64-11.89,2.37-14.34,4.09-24.16,9.31-25.17,1.82-.35,3.49.45,3.72.56,5.93,2.94,6.6,16.44,5.97,51.79-.65,36.51-2.32,79.03,6.58,85.64,1.14.85,2.12.88,3.29.98,12.67,1.07,17.85-23.04,19.05-29.27"/>
              </g>
            </g>
            <path class="cls-4" d="M1974.63,566.68c1.08-1.83,2.83-4.47,5.48-7.44,2.7-3.01,8.42-9.26,18.24-13.11,3.2-1.25,7.26-2.8,11.66-2.17,0,0,3.05.43,5.49,2.1,6.89,4.71.75,21.97-2.74,31.48-12.66,34.6-16.42,43.92-13.69,44.89,1.8.64,6.89-2.21,21.36-18.27"/>
            <path class="cls-4" d="M2065.63,518.77c-.72-.34-1.77-.74-3.11-.95,0,0-1.21-.18-2.47-.11-5.12.3-9.86,5.62-9.86,5.62-31.36,35.12-29.64,72.71-29.64,72.71.34,7.46,1.65,15.29,8.24,18.97,6.84,3.82,15.75,1.15,16.68.86,0,0,34.52-10.79,26.1-91.48-.09-.86-.45-1.75-.45-1.75-.37-1.04-.96-1.98-2.01-2.72-.72-.51-1.44-.78-1.8-.89-2.33-.75-4.45-.09-4.98.08-1.35.42-2.2,1.07-2.54,1.37-1.86,1.6-1.89,3.71-1.91,4.39-.02,1.02-.05,3.14,2.92,4.27,2.44.93,4.91.75,5.74.66,8.34-.88,10.26-1.94,12.99-1.5,2.2.36,5.19,1.74,8.37,6.57"/>
            <path class="cls-4" d="M2105.16,530.85c-.25.74-.54,2.07.06,3.63.22.57,1.2,3.14,3.17,3.28,1.85.13,3.92-1.82,4.65-3.46,1.59-3.56-1.79-8.56-7.27-9.35-3.6-.52-6.91.92-8.19,1.48-5.01,2.19-7.26,6.09-8.33,8.02-17.27,31.38-7.32,65.37-7.32,65.37,2.73,9.31,7.03,23.33,17.73,25.66,5.08,1.11,10.07-.81,10.87-1.13,1.47-.58,7.18-3.05,12.55-13.9,2.5-5.04,5.98-14.06,5.5-26.27"/>
            <path class="cls-4" d="M2094.34,325.35c.77.93,2.01,2.15,3.85,2.99,5.06,2.33,10.14-.24,10.9-.64"/>
            <path class="cls-4" d="M2007.78,507.49c-5.53,6-11.26,13.2-16.61,21.72-17.39,27.73-21.86,55.4-23,72.83"/>
            <path class="cls-4" d="M2027.19,624.98c.6-1.68,3.13-2.52,4.7-1.37,1.25.92,1.71,2.98.59,4.31-1.11,1.32-3.15,1.18-4.31.2-.86-.73-1.38-2.02-.98-3.13Z"/>
          </g>
        </g>
      </g>
    </g>
  </g>
</svg>