<?xml version="1.0" encoding="UTF-8"?>
<svg id="Layer_1" data-name="Layer 1" xmlns="http://www.w3.org/2000/svg" viewBox="0 0 1906.19 1135.34">
  <defs>
    <style>
      .cls-1 {
        stroke-width: 3px;
      }

      .cls-1, .cls-2, .cls-3, .cls-4 {
        fill: none;
      }

      .cls-1, .cls-2, .cls-3, .cls-4, .cls-5 {
        stroke: #203555;
        stroke-miterlimit: 10;
      }

      .cls-2 {
        stroke-width: 6px;
      }

      .cls-3, .cls-5 {
        stroke-width: 4px;
      }

      .cls-4 {
        stroke-width: 9px;
      }

      .cls-5 {
        fill: #2a4368;
      }
    </style>
  </defs>
  <path class="cls-5" d="M1176.8,1020.5c-74.99-36.09-151.63-74.68-229.64-115.96-51.35-27.17-101.37-54.48-150.07-81.85-3.48-45.7-6.52-91.94-9.09-138.7-12.12-220.33-12.67-431.4-4.55-632.09,54.85,34.61,112.95,74.53,172.8,120.51,73.2,56.23,137.19,112.43,192.58,165.72,9.32,227.46,18.65,454.91,27.97,682.37Z"/>
  <path class="cls-2" d="M524.7,247.45c-.26,140.35-.52,280.7-.79,421.04"/>
  <path class="cls-4" d="M523.91,695.29c2.1,95.11,4.2,190.22,6.31,285.32,69.28,4.9,142.5,12.5,219.12,23.65,135.07,19.64,257.93,46.97,367.3,77.24,5.32-4.28,10.73-8.89,16.17-13.87,17.38-15.9,31.42-32.13,42.7-47.29"/>
  <path class="cls-3" d="M761.03,155.54c-14.31-4.24-33.48-8.31-56.27-8.75-34.39-.67-62.03,7.21-79.4,13.75,3.04,145.94,6.08,291.88,9.12,437.82"/>
  <path class="cls-3" d="M639.69,795.6c2.31,23.87,3.83,49.14,4.24,75.69.15,9.86.15,19.53,0,29,14.73,2.35,36.85,5.96,63.66,10.61,72.17,12.52,168.41,29.22,281.52,58,45.37,11.55,107.13,28.52,180.14,52.52"/>
  <path class="cls-3" d="M532.55,260.66c2.56-3.83,6.45-6.85,11.17-9.31,4.93-2.57,6.47.33,11.52-2.21,4.95-2.49,3.98-5.55,10.24-10.47,4.13-3.25,4.89-2.19,9.89-5.93,4.38-3.28,3.9-4.18,8.96-8.49,6.41-5.46,7.75-4.51,10.94-8.38,3.27-3.96,2.49-5.72,5.93-10.94,3.35-5.06,6.96-7.77,8.61-9.19,4.66-4.03,10.6-12.57,15.54-32.68"/>
  <path class="cls-3" d="M633.52,906.18c-3.63,2.78-9.32,6.88-16.73,11.15-13,7.5-17.39,7.49-27.55,13.77-10.08,6.23-10.06,8.89-21.97,18.04-6.06,4.65-15.11,10.92-27.38,17,.62-6.9,1.25-16.71,1.17-28.47-.12-17.41-1.74-30.25-2.04-32.85-2-17.12-3.08-71.85-1.4-207.97"/>
  <path class="cls-3" d="M534.35,665.6c.45-14.26,1.05-35.99,1.4-62.49.53-40.02.07-57.96,0-91.4-.18-91.06,2.73-100.34,1.4-162.74-.77-36.01-2.5-66.56-4.14-89.6"/>
  <path class="cls-3" d="M537.76,967.63c8.58.97,21.44,2.39,37.09,3.92,24.32,2.38,41.79,3.73,47.9,4.22,7.52.61,27.51,2.33,100.28,12.66,60.63,8.61,90.95,12.91,119.14,18.12,57.23,10.57,45.45,11.51,95.81,20.6,68.54,12.37,103.19,12.95,153.01,36.52,11.41,5.4,20.46,10.51,26.34,14"/>
  <path class="cls-3" d="M653.98,940.34c37.94-2.09,68.77-.41,90.21,1.58,27.62,2.56,51.12,6.72,98.12,15.04,21.51,3.81,39.18,7.18,51.04,9.5"/>
  <path class="cls-1" d="M900.29,990.12c26.76,4.11,55.52,9.7,85.87,17.3,45.13,11.3,85.4,24.93,120.47,38.92"/>
  <path class="cls-1" d="M903.71,1000.46c4.11.44,10.84,1.26,19.09,2.81,14.42,2.71,21.32,5.36,38.46,9.26,4.69,1.07,11.86,2.62,20.77,4.21"/>
  <path class="cls-1" d="M756.81,951.76c20.49,5.04,37.23,8.2,48.44,10.11,25.03,4.28,39.03,5.2,62.82,11.18,12.53,3.15,22.53,6.39,28.75,8.52"/>
  <path class="cls-1" d="M551.03,303.6c-1.04,19.75-1.14,35.66-1.07,45.87.3,42.84,4.06,61.69,3.2,101.35-.37,16.88-1.41,30.44-2.13,38.41"/>
  <path class="cls-1" d="M612.9,224.66c-1.81,10.91-3.3,22.67-4.27,35.21-1.75,22.81-1.4,43.62,0,61.88"/>
  <path class="cls-1" d="M565.12,370.3c-.25,12.12-.51,24.24-.8,36.36-.48,19.97-1.01,39.93-1.6,59.89"/>
  <path class="cls-1" d="M601.91,429.25c-.65,19.93-.51,41.51.84,64.5,1.92,32.68,5.95,62.44,10.89,88.79"/>
  <path class="cls-1" d="M588.5,496.26c5.44,24.34,5.79,44.02,5.03,57.8-1.17,20.87-5.37,36.49-.84,60.31,2.06,10.82,5.18,19.45,7.54,25.13"/>
  <path class="cls-1" d="M569.06,765.55c1.92,14.99,3.4,31.24,4.12,48.61.93,22.38.45,43.08-.82,61.79"/>
  <path class="cls-1" d="M587.6,807.57c1.06,13.38,1.8,27.54,2.06,42.43.24,13.66.07,26.73-.41,39.14"/>
</svg>