<?xml version="1.0" encoding="UTF-8"?>
<svg id="Layer_1" data-name="Layer 1" xmlns="http://www.w3.org/2000/svg" viewBox="0 0 1906.19 1135.34">
  <defs>
    <style>
      .cls-1 {
        fill: #da9dc6;
      }

      .cls-2, .cls-3, .cls-4, .cls-5, .cls-6, .cls-7, .cls-8 {
        stroke-miterlimit: 10;
      }

      .cls-2, .cls-3, .cls-5, .cls-6, .cls-8 {
        fill: none;
      }

      .cls-2, .cls-4, .cls-6, .cls-8 {
        stroke: #1f3555;
      }

      .cls-3, .cls-5, .cls-7 {
        stroke: #203555;
      }

      .cls-3, .cls-7, .cls-8 {
        stroke-width: 3px;
      }

      .cls-4 {
        fill: #1f3555;
      }

      .cls-4, .cls-5, .cls-6 {
        stroke-width: 2px;
      }

      .cls-9, .cls-7 {
        fill: #fff6ea;
      }
    </style>
  </defs>
  <g>
    <g>
      <path class="cls-8" d="M771.95,650.3c-2.84-16.86-18.15-28.96-34.2-27.03-16.05,1.93-26.76,17.15-23.92,34.01,2.84,16.86,18.15,28.96,34.2,27.03,15.04-1.81,26.05-17.51,23.92-34.01"/>
      <path class="cls-8" d="M690.17,663.83c1.81-1.29,5.61-3.63,11.18-4.57,5.76-.97,10.45.07,12.68.71"/>
      <path class="cls-8" d="M688.56,659.17c-6.22-16.57-23.39-24.99-38.36-18.81-14.97,6.18-22.07,24.62-15.85,41.19,6.22,16.57,23.39,24.99,38.36,18.81,14.97-6.18,22.07-24.62,15.85-41.19"/>
    </g>
    <g>
      <path class="cls-6" d="M673.99,670.58c-.96-7.91-7.69-14.03-15.04-13.67-7.35.36-12.54,7.05-11.58,14.96.96,7.91,7.69,14.03,15.04,13.67,7.35-.36,12.54-7.05,11.58-14.96Z"/>
      <path class="cls-4" d="M667,678.45c2.35-4.86.45-12.21-4.25-16.41s-10.42-3.66-12.77,1.21c-2.35,4.86-.45,12.21,4.25,16.41,4.7,4.2,10.42,3.66,12.77-1.21Z"/>
      <path class="cls-9" d="M663.86,668.92c.36-1.79-.71-3.94-2.4-4.8s-3.36-.12-3.72,1.67c-.36,1.79.71,3.94,2.4,4.8,1.69.87,3.36.12,3.72-1.67Z"/>
      <path class="cls-9" d="M661.33,673.39c.08-.44-.2-.97-.64-1.19s-.86-.05-.95.39.2.97.64,1.19.86.05.95-.39Z"/>
    </g>
    <g>
      <path class="cls-6" d="M754.98,655.17c-.96-7.91-7.69-14.03-15.04-13.67-7.35.36-12.54,7.05-11.58,14.96.96,7.91,7.69,14.03,15.04,13.67s12.54-7.05,11.58-14.96Z"/>
      <path class="cls-4" d="M747.99,663.05c2.35-4.86.45-12.21-4.25-16.41s-10.42-3.66-12.77,1.21c-2.35,4.86-.45,12.21,4.25,16.41,4.7,4.2,10.42,3.66,12.77-1.21Z"/>
      <path class="cls-9" d="M744.85,653.51c.36-1.79-.71-3.94-2.4-4.8s-3.36-.12-3.72,1.67c-.36,1.79.71,3.94,2.4,4.8s3.36.12,3.72-1.67Z"/>
      <path class="cls-9" d="M742.33,657.98c.08-.44-.2-.97-.64-1.19s-.86-.05-.95.39.2.97.64,1.19.86.05.95-.39Z"/>
    </g>
  </g>
  <path class="cls-8" d="M646.34,697.52c-.43,5.46-.91,20.88,9.24,34.05,10.71,13.89,26.49,16.53,39.01,18.63,29.75,4.97,52.21-7.39,58.53-10.99,6.63-3.78,13.28-7.68,18.41-15.77,8.14-12.83,6.52-26.8,5.66-31.92"/>
  <path class="cls-8" d="M667.9,616.91c-.66,2.78-1.83,6.32-4.02,10.05-4.63,7.89-11.13,12.05-14.57,13.91"/>
  <path class="cls-8" d="M679.6,609.94c7.02,3.22,16.09,6.65,26.97,9.06,11.86,2.62,22.34,3.25,30.51,3.15"/>
  <path class="cls-8" d="M649.88,595.99c-2.28.95-5.58,2.54-9.14,5.12-1.6,1.16-8.18,6.08-13.9,16.09-2.04,3.56-10.02,18.37-11.7,46.81-.65,10.95-.52,26.65,3.29,45.34"/>
  <path class="cls-8" d="M671.81,745.58c-3.98,1.03-21.63,5.14-39.85-4.78-15.45-8.42-21.93-21.82-23.81-26.14"/>
  <path class="cls-8" d="M622.46,741.89c1.03,5.66,1.88,14.5-.37,24.87-1.28,5.94-3.25,10.86-5.12,14.63,3.39-.19,8.61-.15,14.63,1.46,7.44,1.99,10.13,4.78,16.82,6.22,3.58.77,8.98,1.3,16.09-.37"/>
  <path class="cls-8" d="M671.68,744.6c-.09,11.57-.2,23.17-.33,34.8-.23,20.02-.52,39.94-.87,59.76,6.2,2.53,15.38,5.57,26.81,6.75,18.45,1.92,32.5-2.05,44.96-5.7,12.51-3.66,31.1-10.66,51.29-24.69"/>
  <path class="cls-8" d="M668.62,587.41c2.97-3.36,8.06-8.19,15.57-11.47,16.27-7.1,32.26-1.8,40.15.82,10.5,3.48,19.02,9.56,36.05,21.71,7.19,5.13,12.95,9.62,16.8,12.7"/>
  <path class="cls-8" d="M719.86,845.32c1.15,6.71,2.31,13.42,3.46,20.13-2.99,1.47-5.98,2.94-8.96,4.4"/>
  <path class="cls-8" d="M753,836.57c.22,1.57.97,5.27,3.93,8.75,3.39,4,7.6,5.24,9.09,5.61-.79,2.88-1.57,5.76-2.36,8.64"/>
  <path class="cls-8" d="M766.94,730.6c1.71,3.45,3.87,7.28,6.6,11.29,2.31,3.39,4.64,6.34,6.85,8.88"/>
  <path class="cls-7" d="M608,715.96c2.29-.87,1.18-4.52-.13-8.86-1.14-3.75-1.95-6.42-4.31-7.41-2.72-1.14-5.95.6-7.34,2.31-1.87,2.29-1.68,6.06,1.24,9.27,2.81,3.09,8.12,5.61,10.55,4.69Z"/>
  <path class="cls-6" d="M709.4,698.6c-.33.24-2.32,1.65-4.78,1.12-1.71-.37-3.56-1.66-3.92-3.58-.48-2.55,1.74-5.98,5.61-7.03"/>
  <path class="cls-7" d="M785.77,694.43c2.29-.87,1.18-4.52-.13-8.86-1.14-3.75-1.95-6.42-4.31-7.41-2.72-1.14-5.95.6-7.34,2.31-1.87,2.29-1.68,6.06,1.24,9.27,2.81,3.09,8.12,5.61,10.55,4.69Z"/>
  <path class="cls-3" d="M775.97,678.46c-.29-1.96-.85-4.45-1.95-7.21-1.09-2.74-2.39-4.92-3.52-6.53"/>
  <path class="cls-3" d="M767.71,731c3.19-1.44,6.58-3.15,10.09-5.18,1.9-1.1,3.69-2.21,5.37-3.31"/>
  <g>
    <ellipse class="cls-1" cx="661.47" cy="710.72" rx="9.31" ry="3.08" transform="translate(-105.29 115.11) rotate(-9.22)"/>
    <path class="cls-2" d="M653.96,713.29c2.29-2.93,3.41-3.36,4.01-3.24.95.2.73,1.84,1.76,2.05,1.52.31,3.61-3,4.77-2.68.78.22.26,1.84,1.07,2.12.82.29,2.49-.97,4.33-2.75"/>
  </g>
  <g>
    <ellipse class="cls-1" cx="756.48" cy="689.84" rx="9.31" ry="3.08" transform="translate(-159.43 232.4) rotate(-15.82)"/>
    <path class="cls-2" d="M749.31,693.25c1.94-3.17,3-3.73,3.62-3.68.97.09.94,1.75,1.98,1.84,1.55.13,3.24-3.4,4.43-3.21.8.13.47,1.8,1.31,1.99.85.19,2.36-1.25,3.98-3.23"/>
  </g>
  <path class="cls-3" d="M705.9,723c.94.68,2.81,1.8,5.5,2.13,2.48.3,4.5-.23,5.43-.52,2.87-.9,4.84-2.55,5.81-3.47"/>
  <path class="cls-5" d="M723.04,717.09c-.3.38-1.03,1.41-1.01,2.72.02,1.15.6,1.89.91,2.28.88,1.09,2.12,1.54,2.75,1.73"/>
</svg>