<?xml version="1.0" encoding="UTF-8"?>
<svg id="Layer_1" data-name="Layer 1" xmlns="http://www.w3.org/2000/svg" viewBox="0 0 1906.19 1135.34">
  <defs>
    <style>
      .cls-1 {
        stroke: #1e3555;
      }

      .cls-1, .cls-2, .cls-3, .cls-4 {
        stroke-miterlimit: 10;
        stroke-width: 3px;
      }

      .cls-1, .cls-4 {
        fill: none;
      }

      .cls-5 {
        fill: #da9dc6;
      }

      .cls-2 {
        fill: #1f3555;
      }

      .cls-2, .cls-4 {
        stroke: #1f3555;
      }

      .cls-3 {
        fill: #fff6ea;
        stroke: #203555;
      }
    </style>
  </defs>
  <path class="cls-1" d="M490.58,764.75c-29.68,15.37-43.57,34.52-49.47,44.2-20.28,33.25-16.78,70.26-15.96,77.53,1.65,14.56,5.47,23.88,3.99,42.75-1.16,14.79-4.89,26.78-7.98,34.78,3.82-1.45,9.56-3.16,16.76-3.62,8.66-.56,15.67.93,19.95,2.17,1.06-5.07,2.13-10.14,3.19-15.22,1.63,4.54,3.25,9.08,4.88,13.61,3.3-.35,6.6-.7,9.9-1.04"/>
  <path class="cls-1" d="M493.97,832.42c-2.99-4.99-8.83-7.89-14.76-7.37-8.64.76-12.22,8.33-12.54,9.04-2.43,5.39-1.33,12.2,3.69,16.42,5.78,4.85,15.33,5.07,22.13,0"/>
  <path class="cls-1" d="M526.06,781.84c-.07,7.84-1.45,22.7-11.44,37.86-4.51,6.85-9.63,12.02-14.02,15.74"/>
  <path class="cls-1" d="M512.41,757.38c2.04-.87,15.99-6.57,30.62-.33,9.54,4.07,14.24,11.02,15.86,13.74"/>
  <path class="cls-1" d="M502.08,895.74c8.53,2.11,22.34,4.55,39.1,3.01,15.85-1.45,40.96-3.74,51.28-20.77,8.99-14.84,1.55-32.32-.74-37.19,1.02,0,3.94-.1,6.27-2.01,3.22-2.63,4.54-8.03,1.11-11.39-3.21-3.14-9.28-3.22-12.91.33-2.46-2.57-4.92-5.14-7.38-7.7"/>
  <path class="cls-1" d="M584.71,863.58c-3.66,1.82-6.79,2.77-9.11,3.29-1.75.4-3.31.63-3.81,1.69-.6,1.27.64,3.1,2.05,4.05,1.23.83,2.57.97,5.49.93,2.21-.03,5.22-.16,8.83-.59"/>
  <path class="cls-1" d="M498.58,864.64c-.37,9.02.53,16.22,1.42,21.12,2.3,12.67,6.14,18.89,3.8,28.01-1.41,5.48-4.41,9.54-6.64,12.07"/>
  <path class="cls-4" d="M550.25,829.03c-3.07-2.25-3.55-6.38-1.08-9.23,2.48-2.85,6.98-3.33,10.05-1.09s3.55,6.38,1.08,9.23-6.98,3.33-10.05,1.09Z"/>
  <ellipse class="cls-2" cx="557.59" cy="822.43" rx="3.44" ry="4.3" transform="translate(-386.06 511.28) rotate(-37.61)"/>
  <path class="cls-4" d="M572.65,806.83c-10.91-12.18-31.3-13.98-45.55-4.01-14.25,9.96-16.96,27.91-6.05,40.09,10.91,12.18,31.3,13.98,45.55,4.01,14.25-9.96,16.96-27.91,6.05-40.09"/>
  <g>
    <path class="cls-5" d="M568.12,853.7c1.3,2.65-3.97,7.36-11.76,10.5-7.8,3.14-15.17,3.54-16.47.89-1.3-2.65,3.97-7.36,11.76-10.5s15.17-3.54,16.47-.89Z"/>
    <path class="cls-4" d="M543,866.23c2.44-5.66,4.06-6.77,5.08-6.77,1.62.01,1.97,2.83,3.7,2.83,2.58,0,4.53-6.23,6.54-6.09,1.35.1,1.21,2.98,2.63,3.18,1.44.2,3.59-2.47,5.8-6.05"/>
  </g>
  <path class="cls-1" d="M581.02,888.8c6.18,32.69,12.37,65.37,18.55,98.06-26.46,6.35-58.04,11.21-93.69,11.42-10.39.06-20.35-.28-29.85-.92,0-12.13.82-26.22,3.23-41.74,2.38-15.28,5.81-28.78,9.42-40.23"/>
  <path class="cls-1" d="M539.19,995.58c.24,7.48.47,14.95.71,22.43,3.79-.43,7.59-.86,11.38-1.29"/>
  <path class="cls-1" d="M514.72,996.91c.24,7.48.47,14.95.71,22.43,3.79-.43,7.59-.86,11.38-1.29"/>
  <path class="cls-1" d="M536.4,918.91c8.13.67,19.28.64,31.8-2.43,30.41-7.46,47.31-27.54,52.77-34.68"/>
  <path class="cls-3" d="M617.44,879.83c-1.1-2.48.59-5.3,2.26-8.07,3.8-6.33,10.25-10.82,11.22-9.96.49.43-.18,2.44-4.86,8.98,3.02.24,5.43,2.22,6.01,4.81.64,2.85-1.17,5.38-2.86,6.6-3.83,2.77-10.24,1.09-11.77-2.36Z"/>
</svg>