<?xml version="1.0" encoding="UTF-8"?>
<svg id="Layer_1" data-name="Layer 1" xmlns="http://www.w3.org/2000/svg" viewBox="0 0 1906.19 1135.34">
  <defs>
    <style>
      .cls-1 {
        stroke-width: 4px;
      }

      .cls-1, .cls-2, .cls-3, .cls-4, .cls-5 {
        fill: none;
        stroke: #213555;
        stroke-miterlimit: 10;
      }

      .cls-2 {
        stroke-width: 11px;
      }

      .cls-3 {
        stroke-width: 5px;
      }

      .cls-5 {
        stroke-width: 2px;
      }
    </style>
  </defs>
  <path class="cls-3" d="M771.88,291.58c54.73-8.99,99.27-12.61,128.53-14.28,99.67-5.7,149.76,3.87,247.55-3.17,28.33-2.04,66.26-5.88,111.08-14.28,15.92-2.98,29.05-5.86,38.08-7.93,6.37,39.76,15.15,100.23,22.22,174.55,7.45,78.41,8.12,121.01,12.69,188.83,4.04,59.98,11.58,146.32,26.98,252.31-28.81-2.14-71.71-4.34-123.77-3.17-69.61,1.56-117.39,8.3-182.49,15.87-50.96,5.93-123.48,13.63-212.64,20.63-10.14-114.44-20.66-206.12-28.56-269.76-8.46-68.13-20.55-157.62-34.91-293.57-2.05-19.4-3.68-35.39-4.76-46.02Z"/>
  <path class="cls-1" d="M761.4,285.79c-46.32-15.22-162.65-51.37-283.53-64.98-79.25-8.92-133.91-5.17-149.64-3.94-30.13,2.36-55.28,6.26-73.43,9.6,8.89,21.34,21.11,53.48,31.74,93.62,20.6,77.79,22.94,139.09,23.8,157.1,3.23,67.27,17.68,190.48,64.14,433.91,4.82-1.04,10.89-1.92,17.92-1.94,6.16-.02,11.57.63,15.99,1.45"/>
  <path class="cls-1" d="M639.52,894.19c14.07-1.5,28.61-2.7,43.58-3.51,56.28-3.07,107.97-.24,153.95,5.62"/>
  <path class="cls-2" d="M812.68,909.25c2.75-.21,8.08-.21,13.7,2.58,8.21,4.08,11.55,11.4,12.95,14.47,6.34,13.91.8,27.7-.46,30.65,28.42-2.64,72.29-6.61,126.04-11,70.64-5.77,121.57-9.26,238.93-17.46,35.27-2.46,131.97-9.24,168.14-11.78"/>
  <path class="cls-2" d="M252.97,244.22c-1.68.32-3.38.63-5.09.93-6.49,1.13-12.82,2.05-18.98,2.78,7.86,44.89,15.54,89.81,23.03,134.76,31.4,188.4,59.56,377.35,84.48,566.84,13.02-2.66,26.26-5.21,39.71-7.64,4.34-.78,8.67-1.55,12.98-2.29"/>
  <path class="cls-2" d="M612.88,915.92c19.7-2.23,36.57-3.65,49.64-4.58,37.22-2.65,65.86-2.89,88.59-3.05,17.29-.12,39.45-.02,65.34.76"/>
  <path class="cls-1" d="M1352.87,865.2c-.44,4.08-1.31,7.2-2,9.28-1.13,3.38-1.94,4.38-2,6.91-.04,1.67.29,2.28,1.46,7.09.93,3.87,1.4,5.8,1.46,6.55.42,5.64-2.24,7.21-.91,10.73.97,2.58,2.69,2.5,3.64,5.09,1.09,2.96-.03,6.08-1.09,8.18"/>
  <path class="cls-4" d="M906.42,915.86c23.95-3.71,43.64-5.67,57.21-6.77,30.1-2.45,45.84-1.97,88.07-4.52,17.97-1.08,32.64-2.22,42.15-3.01"/>
  <path class="cls-5" d="M1035.89,913.6c5.24.06,13.38,0,23.33-.75,15.09-1.14,21.31-2.89,33.12-3.76,7.53-.56,18.6-.85,32.37.75"/>
  <path class="cls-5" d="M1208.26,885.75c13.83.42,28.4.46,43.66,0,19.48-.59,37.83-1.93,54.95-3.76"/>
  <path class="cls-4" d="M883.09,939.19c12.13-1.55,24.94-2.85,38.39-3.76,16.16-1.1,31.5-1.54,45.92-1.51"/>
  <path class="cls-5" d="M1171.38,914.35c9.28.18,18.82.19,28.6,0,24-.47,46.63-2.11,67.75-4.52"/>
  <path class="cls-5" d="M868.22,935.83c4.33-1.48,9.41-2.9,15.18-3.92,8.05-1.42,15.22-1.67,21.06-1.47"/>
  <path class="cls-5" d="M1318.13,881.7c3.65.06,7.4.06,11.24,0,4.92-.08,9.69-.27,14.28-.54"/>
</svg>