<?xml version="1.0" encoding="UTF-8"?>
<svg id="Layer_1" data-name="Layer 1" xmlns="http://www.w3.org/2000/svg" viewBox="0 0 2497.63 1233.82">
  <defs>
    <style>
      .cls-1 {
        stroke-width: 3px;
      }

      .cls-1, .cls-2 {
        fill: none;
        stroke: #203555;
        stroke-miterlimit: 10;
      }

      .cls-2 {
        stroke-width: 2px;
      }
    </style>
  </defs>
  <path class="cls-1" d="M1821.37,1105.91c2.21-.09,5.61-.48,9.46-1.97,2.38-.92,5.47-2.16,8.41-5.12,1.42-1.43,4.48-4.52,5.06-9.39.29-2.48-.16-4.53-.54-5.78"/>
  <path class="cls-1" d="M1409.09,1112.84c2.21-.09,5.61-.48,9.46-1.97,2.38-.92,5.47-2.16,8.41-5.12,1.42-1.43,4.48-4.52,5.06-9.39.29-2.48-.16-4.53-.54-5.78"/>
  <g>
    <path class="cls-1" d="M1787.88,1025.13c5.69.43,13.61,1.35,22.86,3.55,17.35,4.12,29.81,10.44,35.86,13.79,9.35,5.19,18.03,10.12,25.61,20.1,4.02,5.29,7.71,10.28,7.49,16.94-.41,12.51-14.24,20.08-15.76,20.89"/>
    <path class="cls-1" d="M1621.97,1046.8c3.06-1.37,7.81-3.33,13.79-5.12,9.43-2.83,15.08-3.19,27.19-5.52,10.35-1.99,13.09-3.05,19.31-4.33,9.86-2.04,24.37-3.8,43.74-1.97"/>
    <path class="cls-1" d="M1701.97,1017.64c6.61-1.13,14-2.01,22.07-2.36,14.39-.63,27.06.59,37.44,2.36"/>
    <path class="cls-1" d="M1704.73,1045.23c6.22-.9,14.55-1.87,24.43-2.36,17.24-.86,30.06.2,41.38,1.18,16.9,1.46,25.51,2.26,33.5,5.52,9.9,4.03,17.81,9.87,21.28,12.61,4.78,3.77,8.45,7.42,11.03,10.25"/>
    <path class="cls-1" d="M1588.65,1082.74c1.45-2.39,3.21-4.85,5.36-7.26,11.42-12.77,26.8-16.24,34.39-17.35"/>
    <path class="cls-1" d="M1402.66,1010.79c5.69.43,13.61,1.35,22.86,3.55,17.35,4.12,29.81,10.44,35.86,13.79,9.35,5.19,18.03,10.12,25.61,20.1,4.02,5.29,7.71,10.28,7.49,16.94-.41,12.51-14.24,20.08-15.76,20.89"/>
    <path class="cls-1" d="M1209.7,1053.73c3.06-1.37,7.81-3.33,13.79-5.12,9.43-2.83,15.08-3.19,27.19-5.52,10.35-1.99,13.09-3.05,19.31-4.33,9.86-2.04,24.37-3.8,43.74-1.97"/>
    <path class="cls-1" d="M1289.69,1024.57c6.61-1.13,14-2.01,22.07-2.36,14.39-.63,27.06.59,37.44,2.36"/>
    <path class="cls-1" d="M1292.45,1052.15c6.22-.9,14.55-1.87,24.43-2.36,17.24-.86,30.06.2,41.38,1.18,16.9,1.46,25.51,2.26,33.5,5.52,9.9,4.03,17.81,9.87,21.28,12.61,4.78,3.77,8.45,7.42,11.03,10.25"/>
    <path class="cls-1" d="M1176.37,1089.66c1.45-2.39,3.21-4.85,5.36-7.26,11.42-12.77,26.8-16.24,34.39-17.35"/>
    <path class="cls-1" d="M1248.13,1080.8c6.22-.9,14.55-1.87,24.43-2.36,17.24-.86,30.06.2,41.38,1.18,16.9,1.46,25.51,2.26,33.5,5.52,9.9,4.03,17.81,9.87,21.28,12.61,4.78,3.77,8.45,7.42,11.03,10.25"/>
    <path class="cls-1" d="M1512.94,1055.14c.47-4.71.12-9.29-1.64-13.23-3.15-7.02-9.95-10.09-17.27-11.25"/>
    <path class="cls-2" d="M906.94,1019.95c-19.52.95-34.95,1.28-45.2,1.41-8.75.11-23.57.21-42.38,4.24-6.86,1.47-17,3.7-16.95,6.36.05,2.81,11.43,4.93,21.89,6.36"/>
    <path class="cls-1" d="M759.5,1059.03c-2.32,1.13-5.98,2.74-10.63,4.09-8.33,2.42-15.93,2.85-24.12,3.27-10,.52-13.22-.03-18.4,2.45-1.67.8-7.88,3.78-7.77,7.36.13,4.25,9.14,7.25,15.13,8.99,21.36,6.23,39.99,7.03,55.19,7.77,3.5.17,22.09.39,59.28.82,4.31.05,13.03.16,22.89-4.09,6.16-2.65,10.65-6.09,13.49-8.58,3.1-.31,8.11-.78,14.31-1.23,14.12-1.02,18.41-.76,25.35-2.45,3.7-.9,9.16-2.61,15.53-6.13"/>
    <path class="cls-1" d="M1216.18,1015.15c-9.09-.79-20.91-1.46-34.75-1.29-26.49.34-46.31,3.62-51.48,4.5-15.13,2.61-34.64,7.14-56.62,15.44.91,2.24,1.71,5.34.64,8.36-2.3,6.49-11.77,8.55-22.52,10.3-21.74,3.52-32.61,5.29-51.48,4.5-14.96-.62-20.85-2.15-37.96-1.93,0,0-10.81.14-25.09,3.86-6.35,1.66-12.84,3.4-12.87,5.79-.04,2.83,8.96,5.44,15.44,6.43,10.25,1.57,14.8-.78,26.38-1.93,11.98-1.18,21.2-.06,32.17,1.29,13.45,1.65,15.36,3.36,27.02,4.5,11.18,1.09,20.4.59,26.38,0"/>
  </g>
</svg>