<?xml version="1.0" encoding="UTF-8"?>
<svg id="Layer_1" data-name="Layer 1" xmlns="http://www.w3.org/2000/svg" viewBox="0 0 2497.63 1233.82">
  <defs>
    <style>
      .cls-1 {
        stroke-width: 3px;
      }

      .cls-1, .cls-2, .cls-3 {
        fill: none;
        stroke: #203555;
        stroke-miterlimit: 10;
      }

      .cls-2 {
        stroke-width: 5px;
      }

      .cls-3 {
        stroke-width: 2px;
      }
    </style>
  </defs>
  <path class="cls-3" d="M1382.24,746.24c-1.8.27-8.35,1.25-17.37,2.61-12.57,1.89-18.89,2.91-20.55,6.37-1.69,3.52.94,6.99-1.74,10.13-1.27,1.48-2.92,1.96-5.79,2.61-3.78.86-8.96,1.86-15.34,2.61"/>
  <g>
    <path class="cls-2" d="M1815.62,687.57c-53.21-3.2-131.04-4.81-224.11,4.83-68.84,7.13-139.47,19.74-409.03,101.18-191.99,58-289.29,87.66-353.06,119.84-124.85,62.99-214.96,136.54-271.01,188.2"/>
    <path class="cls-2" d="M1817.98,751.4c5.01-7.95.58-18.65,0-20.05-4.46-10.76-14.88-15.06-27.76-20.36-7.11-2.93-21.08-8.51-40.41-8.33-9.43.09-24.38.41-40.41,9.25-16.98,9.37-24.19,22.25-29,30.85-2.35,4.21-3.74,7.58-2.47,10.49,2.11,4.82,10.06,5.01,24.99,6.79,21.17,2.52,17.58,3.62,28.69,4.32,11.76.74,14.36-.58,41.95-3.39,32.01-3.26,40.07-2.66,44.42-9.56Z"/>
    <path class="cls-1" d="M1712.37,719c10.54,1.91,19.07,3.73,24.79,5,16.89,3.77,19.05,5,28.92,6.37,8.6,1.19,10.53.75,23.29,2.27,8.03.96,14.56,2,18.78,2.73"/>
    <path class="cls-1" d="M1780.44,646.36c-10.12-1.57-19.55-2.92-28.21-4.09-12.89-1.74-23.85-3.05-37.62-1.64-5.32.55-14,1.5-14.31,4.09-.33,2.74,8.84,5.91,11.86,6.95,8.62,2.98,16.39,3.77,27.8,4.09,14.84.42,16.16-.49,24.94,0,8.06.45,17.42,1.81,27.8,4.91"/>
  </g>
</svg>