<?xml version="1.0" encoding="UTF-8"?>
<svg id="Layer_1" data-name="Layer 1" xmlns="http://www.w3.org/2000/svg" viewBox="0 0 2497.63 1233.82">
  <defs>
    <style>
      .cls-1 {
        stroke-width: 3px;
      }

      .cls-1, .cls-2, .cls-3 {
        fill: none;
        stroke: #203555;
        stroke-miterlimit: 10;
      }

      .cls-2 {
        stroke-width: 4px;
      }

      .cls-3 {
        stroke-width: 2px;
      }
    </style>
  </defs>
  <path class="cls-2" d="M1136.33,851.4c-12.84,2.61-26.3,5.75-40.28,9.53-19.6,5.3-37.73,11.18-54.32,17.27"/>
  <g>
    <path class="cls-2" d="M1021.67,885.27c-4.39,1.81-9.52,4.29-14.95,7.73-5.53,3.5-10.04,7.14-13.58,10.39"/>
    <path class="cls-3" d="M1076.75,923.38c-8.91.95-16.16,2.26-21.42,3.35-5.44,1.13-7.78,1.85-7.92,3.05-.29,2.53,9.48,5.57,13.1,6.7,9.89,3.08,17.93,4.05,36.55,5.79,7.41.69,14.8,1.64,22.23,2.13,0,0,8.97.59,23.45,3.65,2.29.48,6.5,1.43,9.75,4.87,2.06,2.18,2.15,3.69,3.35,5.48,3.37,5.04,10.84,5.4,20.71,6.09,23.08,1.61,17.89,2.14,25.58,2.13,9.06-.01,21.64-.75,36.55-3.96"/>
    <path class="cls-3" d="M1231.88,909.71c-9.67.44-17.08.72-21.53.88-5.27.19-13.19.46-23.28,2.2-4.74.82-9.23,1.61-9.23,2.64,0,1.37,7.96,2.56,17.57,3.51"/>
    <g>
      <path class="cls-1" d="M1611.91,766.96c-1.68,1.71-4.56,5.17-4.23,9.31.39,4.89,5.07,8.2,10.44,11.28,7.09,4.07,19.26,9.98,37.8,14.39"/>
      <path class="cls-1" d="M1675.95,812.38c17.03,2.7,27.51,3.94,34.42,4.51,2.69.22,9.15.71,17.49,2.82,3.25.82,5.89,1.67,7.62,2.26"/>
      <path class="cls-1" d="M1774.12,823.38c-3.26-.08-18.55-.43-24.54-.56-3.9-.09-19.78-.39-38.65,2.26-5.49.77-11.17,1.78-11.57,4.23-.35,2.17,3.6,4.49,5.08,5.36,6.31,3.7,12.41,3.44,23.13,3.67,12.79.27-6.3.42,14.95.56,20.31.14,30.12-.06,36.67,0,9.12.08,22.21.72,38.37,3.39"/>
      <path class="cls-1" d="M1735.42,839.2c-.32,1.37-.5,3.28.48,4.83,1.71,2.7,5.85,2.65,11.02,2.9,5.76.28,11.46,1.23,17.2,1.74,28.37,2.53,5.44,1.58,17.98,3.19,1.23.16,4.44.55,5.03,2.32.34,1.04-.36,2.14-.48,2.32-1.89,2.92-6.98,1.94-15.85,4.35-1.48.4-2.55.76-2.61,1.35-.13,1.3,4.74,2.76,7.83,3.67,9.71,2.86,18.72,3.7,19.52,3.77,3.86.34,6.21.35,9.95,1.45,3.38.99,7.74,2.82,7.54,3.87-.22,1.11-5.62,1.36-14.01,1.74-1.16.05-5.02.22-8.6,2.61-.81.54-1.65,1.11-1.55,1.64.25,1.3,5.94,1.08,12.66,1.16,3.93.05,9.66.21,16.72.77"/>
      <path class="cls-1" d="M1423.37,818.12c-.65-4.7,7.58-9.43,13.62-12.82,6.79-3.81,15.34-8.51,28.58-10.68,6.33-1.04,23.68-3.66,43.8,4.27,18.29,7.21,29.07,19.28,33.65,25.1-3.11,2.2-7.89,5.28-14.15,8.01-19.44,8.49-36.4,6.45-63.29,3.2,0,0-12.13-1.46-34.72-10.95-3-1.26-7.05-3.06-7.48-6.14Z"/>
      <path class="cls-3" d="M1555.12,815.31c1.89-.12,5.59-.06,9.17,2.2.52.33,7.22,4.68,6.05,9.53-.51,2.09-2.27,3.4-3.3,4.03"/>
      <path class="cls-3" d="M1416.03,814.57c-2.44.17-6.72.86-10.61,3.91-1.6,1.25-3.32,2.6-3.63,4.61-.5,3.2,2.72,7.01,8.1,9.35"/>
      <path class="cls-3" d="M1420.73,836.74c3.42,1.13,7.18,2.21,11.26,3.14,6.04,1.37,11.63,2.16,16.61,2.58"/>
      <path class="cls-3" d="M1460.04,845.41c6.69,1.58,15.57,2.99,26.02,2.77,8.13-.17,15.18-1.28,20.85-2.58"/>
      <path class="cls-3" d="M1553.77,850.58c-4.94,2.45-11.53,5.1-19.56,6.83-11.21,2.41-20.85,2.07-27.49,1.29"/>
      <path class="cls-3" d="M1461.7,864.97c5.71,2.48,12.57,4.85,20.48,6.46,21.34,4.33,39.49.89,50.37-2.21"/>
      <path class="cls-3" d="M1727.71,956.14c13.1-.22,24.78.14,34.75.72,11.11.65,18.95,1.52,29.2,2.65,18.36,2.03,23.73,3.3,26.78,4.1,8.7,2.28,15.55,5.14,20.03,7.24"/>
      <path class="cls-3" d="M1300.86,852.15c8.68-.37,16.13-.25,21.97,0,12.7.55,21.9,1.9,26.36,2.64,1.6.26,6.19,1.35,15.38,3.51,5.8,1.37,7.37,1.79,7.47,2.64.34,2.9-16.93,7.1-18.45,7.47-6.18,1.48-15.4,3.22-34.27,3.95-14.07.55-15.31-.17-25.04.44-12.86.8-23.2,2.82-29.87,4.39"/>
      <path class="cls-3" d="M1404.98,919.81c-14.04.44-25.83,1.55-34.71,2.64-4.37.53-17,2.15-32.95,6.15-10.2,2.56-21.24,5.39-21.09,8.35.07,1.33,2.38,2.44,10.1,4.39,16.66,4.21,27.68,4.83,27.68,4.83,26.47,1.5,39.98,1.76,39.98,1.76,8.22.16,19.14.33,32.07.44"/>
    </g>
    <path class="cls-3" d="M987.63,913.75c9.59-.03,19.37-.21,29.34-.55,28.01-.96,54.62-3.11,79.71-6.09"/>
  </g>
</svg>