<?xml version="1.0" encoding="UTF-8"?>
<svg id="Layer_1" data-name="Layer 1" xmlns="http://www.w3.org/2000/svg" viewBox="0 0 2497.63 1233.82">
  <defs>
    <style>
      .cls-1 {
        stroke-width: 3px;
      }

      .cls-1, .cls-2, .cls-3 {
        fill: none;
        stroke: #203555;
        stroke-miterlimit: 10;
      }

      .cls-2 {
        stroke-width: 5px;
      }

      .cls-3 {
        stroke-width: 2px;
      }
    </style>
  </defs>
  <path class="cls-3" d="M2256.79,998.94c22.13,4.05,35.74,5.91,44.71,6.77,3.5.34,11.89,1.06,22.72,4.23,4.23,1.24,7.65,2.5,9.89,3.38"/>
  <path class="cls-3" d="M2384.31,1015.43c-4.24-.11-24.1-.64-31.88-.85-5.07-.13-25.69-.58-50.2,3.38-7.13,1.15-14.51,2.67-15.02,6.34-.46,3.26,4.68,6.74,6.6,8.04,8.2,5.55,16.12,5.16,30.05,5.5,16.62.4-8.19.63,19.42.85,26.39.2,39.13-.08,47.64,0,11.85.12,28.85,1.08,49.84,5.08"/>
  <path class="cls-3" d="M2334.04,1039.16c-.41,2.06-.65,4.91.63,7.25,2.22,4.05,7.6,3.97,14.31,4.35,7.48.42,14.89,1.84,22.35,2.61,36.85,3.79,7.06,2.37,23.35,4.78,1.6.24,5.77.82,6.53,3.48.45,1.56-.47,3.2-.63,3.48-2.45,4.37-9.06,2.9-20.59,6.52-1.93.6-3.32,1.14-3.39,2.03-.16,1.96,6.16,4.14,10.17,5.51,12.62,4.28,24.31,5.54,25.36,5.65,5.01.51,8.07.53,12.93,2.17,4.39,1.49,10.06,4.23,9.79,5.8-.28,1.66-7.3,2.03-18.2,2.61-1.51.08-6.52.33-11.17,3.91-1.05.81-2.14,1.67-2.01,2.46.32,1.95,7.71,1.62,16.45,1.74,5.11.07,12.55.31,21.72,1.16"/>
  <path class="cls-1" d="M2140.74,960.21c5.69-.43,13.61-1.35,22.86-3.55,17.35-4.12,29.81-10.44,35.86-13.79,9.35-5.19,18.03-10.12,25.61-20.1,4.02-5.29,7.71-10.28,7.49-16.94-.41-12.51-14.24-20.08-15.76-20.89"/>
  <path class="cls-1" d="M1974.84,938.54c3.06,1.37,7.81,3.33,13.79,5.12,9.43,2.83,15.08,3.19,27.19,5.52,10.35,1.99,13.09,3.05,19.31,4.33,9.86,2.04,24.37,3.8,43.74,1.97"/>
  <path class="cls-1" d="M2054.83,967.7c6.61,1.13,14,2.01,22.07,2.36,14.39.63,27.06-.59,37.44-2.36"/>
  <path class="cls-1" d="M2057.59,940.11c6.22.9,14.55,1.87,24.43,2.36,17.24.86,30.06-.2,41.38-1.18,16.9-1.46,25.51-2.26,33.5-5.52,9.9-4.03,17.81-9.87,21.28-12.61,4.78-3.77,8.45-7.42,11.03-10.25"/>
  <path class="cls-1" d="M2174.23,879.43c2.21.09,5.61.48,9.46,1.97,2.38.92,5.47,2.16,8.41,5.12,1.42,1.43,4.48,4.52,5.06,9.39.29,2.48-.16,4.53-.54,5.78"/>
  <path class="cls-1" d="M1941.51,902.61c1.45,2.39,3.21,4.85,5.36,7.26,11.42,12.77,26.8,16.24,34.39,17.35"/>
  <path class="cls-2" d="M2172.41,903.21c6.71-11.81.78-27.71,0-29.8-5.97-16-19.93-22.37-37.19-30.26-9.53-4.35-28.24-12.65-54.13-12.38-12.63.13-32.66.61-54.13,13.75-22.74,13.92-32.39,33.06-38.84,45.84-3.15,6.25-5.01,11.27-3.31,15.59,2.82,7.17,13.47,7.44,33.47,10.09,28.35,3.74,23.55,5.38,38.43,6.42,15.75,1.1,19.23-.86,56.19-5.04,42.87-4.85,53.67-3.95,59.5-14.21Z"/>
  <path class="cls-1" d="M2102.18,797.49c-13.52.72-24.51.84-32.1.82-8.7-.02-15.93-.25-26.61.82,0,0-7.72.77-22.22,5.21-4.85,1.48-6.89,2.35-6.86,3.29.06,1.94,8.88,3.27,16.74,4.12"/>
  <path class="cls-1" d="M1955.82,803.99c11.66-2.57,22.66-4.57,32.9-6.14,13.72-2.11,30.94-4.7,53.07-5.26,13.63-.35,10.42.55,33.34.44,10.44-.05,3.81-.2,46.06-2.19,0,0,8.21-.39,24.72-4.11,8.17-1.84,12.48-3.31,12.77-5.7.31-2.58-4.19-5.09-5.7-5.93-7.4-4.12-14.4-3.41-24.4-2.96,0,0-12.36.54-25.77.23-8.32-.2-13.96-.82-25.08-2.05-17.63-1.95-19.36-2.96-34.89-4.79-9.3-1.1-17.67-1.64-34.43-2.74,0,0-10.03-.65-34.66.46-5.99.27-14.41.76-17.79,6.16-.26.42-1.89,3.02-.91,4.79,1.15,2.09,5.2,1.7,11.63,1.37,3.9-.2,9.42-.42,16.19-.46"/>
  <path class="cls-3" d="M1959.29,1036.06c-2.17-.12-5.33-.08-8.99.82-2.41.59-4.56,1.12-4.67,2.09-.25,2.13,9.49,4.85,9.94,4.97,4.59,1.26,10.35,2.17,23.65,1.51,8.92-.45,9.42-1.02,19.13-1.51,7.71-.39,13.55-.34,17.02-.3,7.75.08,17.44.48,28.62,1.66"/>
  <path class="cls-1" d="M2024.77,1055.39c-6.01-.52-11.04-.44-14.72-.24-9.56.53-16.46,2.25-21.72,4.1-5.11,1.8-10.77,3.8-10.86,6.76-.07,2.3,3.27,4.16,6.27,5.79,7.71,4.19,14.85,4.8,15.2,4.83,35.73,2.68,41.5,2.65,41.5,2.65,22.35-.08,31.42-.04,45.6-.97,0,0,9.56-.63,26.54-5.07,9.47-2.48,12.51-4.03,12.57-5.76.08-2.26-4.93-4.18-11.47-6.68-6.77-2.59-12.27-3.46-14.67-3.78-2.89-.38-2.34-.11-6.97-.58-6.79-.69-10.96-1.11-15.69-2.76-2.24-.78-5.42-2.12-9.01-4.5"/>
  <path class="cls-1" d="M2300.39,972.7c12.01-.04,22-.84,29.34-1.66,21.11-2.35,27.23-5.56,44.84-6.09,6.42-.19,13.69.43,28.23,1.66,27.47,2.33,43.07,3.75,43.73,8.3.48,3.27-6.95,6.85-9.96,8.3-27.91,13.46-73.12,7.84-96.32,3.87"/>
</svg>