<?xml version="1.0" encoding="UTF-8"?>
<svg id="Layer_1" data-name="Layer 1" xmlns="http://www.w3.org/2000/svg" viewBox="0 0 2656.33 1233.82">
  <defs>
    <style>
      .cls-1 {
        fill: none;
      }

      .cls-1, .cls-2, .cls-3 {
        stroke: #203555;
        stroke-miterlimit: 10;
        stroke-width: 6px;
      }

      .cls-2 {
        fill: #213555;
      }

      .cls-3 {
        fill: #fff6ea;
      }
    </style>
  </defs>
  <path class="cls-3" d="M1734.18,37.69c-37.07-3.53-65.94,65.24-191.7,317.01-58.59,117.29-66.18,130.1-82.78,172.15-55.43,140.44-98.18,248.73-49.59,319.21,25.45,36.92,74.85,49.64,173.65,75.07,62.15,16,137.35,34.57,232.67,20.96,65.26-9.32,146.74-20.95,180.09-80.08,18.48-32.76,15.55-68.35-1.52-143.43-26.29-115.65-52.1-175.27-83.41-268.74-37.57-112.17-56.17-192.81-116.77-326.11-30.34-66.73-42.88-84.36-60.66-86.06Z"/>
  <g>
    <path class="cls-2" d="M1709.43,388.64c-11.48,100.04-20.28,208.6-24.51,324.77-5.18,141.9-2.76,273.5,4.09,392.9,8.17-.76,16.34-1.51,24.51-2.27.84-27.79,1.87-70.49,2.04-122.64.36-105.02-2.96-182.44-4.09-211.21-3.07-78.77-5.55-200.27-2.04-381.54Z"/>
    <g>
      <path class="cls-1" d="M1757.62,461.59c-1.77,6.76-6.71,22.17-19.9,35.59-12.1,12.31-24.98,16.66-31.14,18.27"/>
      <path class="cls-1" d="M1806.5,556.5c-3.39,13.55-12.82,44.42-38.03,71.3-23.13,24.67-47.74,33.38-59.52,36.61"/>
      <path class="cls-1" d="M1869.35,667.23c-5.34,19.3-20.18,63.27-59.86,101.56-36.41,35.13-75.15,47.55-93.7,52.15"/>
    </g>
    <g>
      <path class="cls-1" d="M1642.52,455.5c1.77,6.76,6.71,22.17,19.9,35.59,12.1,12.31,24.98,16.66,31.14,18.27"/>
      <path class="cls-1" d="M1593.64,550.41c3.39,13.55,12.82,44.42,38.03,71.3,23.13,24.67,47.74,33.38,59.52,36.61"/>
      <path class="cls-1" d="M1530.79,661.14c5.34,19.3,20.18,63.27,59.86,101.56,36.41,35.13,75.15,47.55,93.7,52.15"/>
    </g>
  </g>
</svg>