<?xml version="1.0" encoding="UTF-8"?>
<svg id="Layer_1" data-name="Layer 1" xmlns="http://www.w3.org/2000/svg" viewBox="0 0 1179.18 822.31">
  <defs>
    <style>
      .cls-1, .cls-2, .cls-3, .cls-4, .cls-5 {
        stroke-width: 2px;
      }

      .cls-1, .cls-2, .cls-3, .cls-4, .cls-5, .cls-6 {
        stroke-miterlimit: 10;
      }

      .cls-1, .cls-3, .cls-4, .cls-6 {
        fill: none;
      }

      .cls-1, .cls-5, .cls-6 {
        stroke: #203555;
      }

      .cls-2 {
        fill: #1f3555;
      }

      .cls-2, .cls-3 {
        stroke: #1f3555;
      }

      .cls-4 {
        stroke: #1e3555;
      }

      .cls-5 {
        fill: #fff6eb;
      }

      .cls-6 {
        stroke-width: 3px;
      }
    </style>
  </defs>
  <path class="cls-6" d="M748.57,389.1c19.57,37.12,38.91,81.33,54.02,132.23,32.65,110.03,32.36,206.99,25.23,275.67"/>
  <g>
    <path class="cls-6" d="M659.55,515.97c12.95,7.16,30.54,16.48,52.07,26.69,12.16,5.77,15.41,7,18.6,6.01,9.58-2.98,16.09-25.24.74-112.76"/>
    <path class="cls-5" d="M615.48,522.66c-1.54-1.7,7.03-13.68,21.31-17.91,3.49-1.03,14.78-4.38,20.52,1.1,3.49,3.34,3.54,8.62,2.24,12.28-1.5,4.18-5.4,8.01-10.54,9.01-.95.18-5.7,1.11-8.84-1.28-3.06-2.34-1.47-5.47-3.69-7.27-4.9-3.99-19.31,5.95-21,4.07Z"/>
  </g>
  <g>
    <path class="cls-6" d="M487.48,229.72c.8,17.92,2.66,44.02,7.41,75.24,7.16,47.06,10.75,70.59,23.17,89.35,32.63,49.3,99.26,53.32,105.63,53.61,47.76,2.18,113.83-19.19,130.65-70.54,6.88-20.98,3.54-40.9,0-53.61"/>
    <path class="cls-6" d="M692.87,179.23c3.34-.54,11.51-1.36,19.77,3.14,1.62.88,5.74,3.32,9.99,8.83,8.32,10.78,9.42,23.28,9.78,26.91,1.52,15.01,6.73,38.12,17.27,73.59"/>
    <path class="cls-6" d="M749.1,289.71c-.24-.65-3.89-10.79,2.1-18.42,4.17-5.32,10.38-6.05,13.14-6.38.83-.1,12.1-1.25,20.12,7.18,6.7,7.05,6.59,16.02,6.52,21.57-.06,4.88-.22,17.4-10.14,25.99-9.83,8.51-22.04,6.93-24.15,6.62"/>
    <path class="cls-6" d="M690.79,109.31c-8.29-7.24-21.81-17.36-40.61-24.73-30.48-11.95-57.59-9.9-71.29-7.79-22.61,3.49-38.09,11.69-52.34,19.24-19.73,10.45-39.17,20.75-55.05,42.59-16.7,22.98-21.3,47.53-22.56,63.2,3.27-5.89,7.91-12.82,14.44-19.69,14.29-15.04,30.2-21.97,39.71-25.19-4.79,4.29-10.23,10.01-15.34,17.4-10.37,15.01-14.47,29.85-16.24,39.39,2.74-2.61,5.74-5.23,9.02-7.79,15.62-12.18,31.75-18.53,44.67-21.98-7.04,4.29-15.89,10.62-24.82,19.69-9.25,9.41-15.61,18.76-19.85,26.1,6.36-3.14,16.66-8.26,29.33-14.66,54.35-27.42,63.41-33.47,80.76-38.01,13.48-3.53,34.36-6.78,62.27-2.29"/>
    <path class="cls-6" d="M711.09,111.13c5.12-.59,12.46-1.01,21.16,0,8.78,1.02,21.66,2.52,34.2,11.45,11.98,8.53,17.98,19.8,20.8,26.49-2.83-.99-5.77-1.94-8.82-2.86-5.77-1.74-11.31-3.15-16.57-4.3,3.51,1.9,7.69,4.56,11.99,8.23,5.43,4.64,9.31,9.4,11.99,13.24-6.93-1.55-13.87-3.1-20.8-4.65.3,2,1.1,7.28,1.41,9.31,4.7,30.97,5.49,35.67,5.99,39.37,1.46,10.79,2.25,26.56-1.06,47.6"/>
    <path class="cls-1" d="M613.67,284.93c-2.79,12.26-4.16,22.63-4.89,30.26-1.96,20.42.4,23.94,2.56,25.3,3.34,2.1,8.72.63,15.37-1.18,3.56-.97,6.42-2.16,8.39-3.07"/>
    <g>
      <path class="cls-3" d="M596.13,304.42c-8.57,26.95-70.88,33.11-84.78,5.84-4-7.84-4.9-20.23-5.24-24.9-.82-11.35.51-20.69,1.78-26.79,28.26-1.95,56.52-3.89,84.78-5.84,1.96,7.12,4.31,18,4.68,31.42.24,8.79.41,15.13-1.22,20.26Z"/>
      <path class="cls-3" d="M595.41,278.99c3.28-2.12,9.82-5.66,18.59-5.73,7.05-.06,12.65,2.15,15.95,3.8"/>
      <path class="cls-3" d="M719.16,295.52c-8.57,26.95-70.88,33.11-84.78,5.84-4-7.84-4.9-20.23-5.24-24.9-.82-11.35.51-20.69,1.78-26.79,28.26-1.95,56.52-3.89,84.78-5.84,1.96,7.12,4.31,18,4.68,31.42.24,8.79.41,15.13-1.22,20.26Z"/>
    </g>
    <g>
      <path class="cls-4" d="M529.48,286.84c6.53-.43,13.66-.99,21.28-1.7,6.26-.59,12.06-1.21,17.39-1.84"/>
      <path class="cls-2" d="M547.07,297.8c.52-1.54,2.7-2.82,4.87-2.86s3.5,1.18,2.97,2.73-2.7,2.82-4.87,2.86-3.5-1.18-2.97-2.73Z"/>
    </g>
    <g>
      <path class="cls-4" d="M658.68,274.94c6.53-.43,13.66-.99,21.28-1.7,6.26-.59,12.06-1.21,17.39-1.84"/>
      <path class="cls-2" d="M676.27,285.9c.52-1.54,2.7-2.82,4.87-2.86,2.17-.04,3.5,1.18,2.97,2.73s-2.7,2.82-4.87,2.86c-2.17.04-3.5-1.18-2.97-2.73Z"/>
    </g>
    <path class="cls-4" d="M629.33,407.34c4.54,1.09,8.88-.26,10.98-3.53,3.35-5.21.46-14.44-4.92-16.39-3.2-1.15-6.95.38-9.58,3.52"/>
  </g>
  <path class="cls-6" d="M555.83,429.06c2.98,12.03,5.53,25.75,6.94,40.93,2.04,21.92,1.19,41.43-.72,57.68"/>
</svg>