<?xml version="1.0" encoding="UTF-8"?>
<svg id="Layer_1" data-name="Layer 1" xmlns="http://www.w3.org/2000/svg" viewBox="0 0 1968.45 1424.18">
  <defs>
    <style>
      .cls-1, .cls-2, .cls-3 {
        stroke: #faebcd;
      }

      .cls-1, .cls-2, .cls-3, .cls-4 {
        stroke-miterlimit: 10;
        stroke-width: 5px;
      }

      .cls-1, .cls-4 {
        fill: none;
      }

      .cls-2 {
        fill: #faebcd;
      }

      .cls-3, .cls-5 {
        fill: #f7c873;
      }

      .cls-4 {
        stroke: #f7c873;
      }
    </style>
  </defs>
  <path class="cls-3" d="M182.99,549.55c-4.45,1.11-12.15-14.59-16.94-24.37-4.75-9.68-7.72-18.07-9.51-23.74-4.91,1.35-12.32,3.34-21.4,5.58-28.83,7.1-31.19,6.01-31.95,4.79-3.23-5.21,16.19-23.12,20.11-26.74,6.68-6.16,12.74-10.56,16.9-13.36-2.16-4.16-5.55-10.52-9.97-18.12-11.57-19.92-18.35-27.98-16.49-29.98,1.77-1.91,9.4,3.75,27.4,12.96,9.21,4.71,16.91,8.19,21.93,10.37,4.22-4.23,10.57-10.83,17.86-19.35,11.68-13.65,16.88-21.84,19.15-20.75,2.12,1.02-.34,9.14-2.83,23.62-2.22,12.92-3.21,23.65-3.7,30.89,3.99,1.45,9.88,3.65,16.94,6.51,21.81,8.84,32.87,13.32,32.39,16.82-.32,2.31-5.51,3.04-38.97,8.16-3.22.49-11.27,1.72-14.38,2.2-.3,3.28-.76,8.34-1.27,14.53-2.62,31.56-2.29,39.25-5.25,39.98Z"/>
  <path class="cls-2" d="M120.27,1093.5c-6.57,1.63-17.75-20.6-24.71-34.45-6.89-13.71-11.19-25.59-13.77-33.63-7.25,1.97-18.2,4.88-31.61,8.15-42.59,10.4-46.05,8.88-47.16,7.15-4.7-7.37,24.11-33.02,29.94-38.21,9.91-8.82,18.9-15.15,25.05-19.16-3.14-5.89-8.07-14.89-14.5-25.65-16.84-28.18-26.76-39.56-23.98-42.43,2.63-2.73,13.82,5.23,40.25,18.12,13.53,6.6,24.84,11.45,32.22,14.5,6.26-6.06,15.7-15.5,26.54-27.69,17.37-19.53,25.12-31.21,28.45-29.68,3.11,1.43-.6,12.99-4.42,33.6-3.41,18.38-4.98,33.64-5.78,43.94,5.87,2.02,14.53,5.08,24.9,9.06,32.06,12.33,48.31,18.58,47.57,23.55-.49,3.29-8.15,4.38-57.55,12.01-4.75.73-16.63,2.57-21.23,3.29-.48,4.67-1.21,11.86-2.03,20.66-4.2,44.87-3.81,55.79-8.17,56.87Z"/>
  <path class="cls-4" d="M214.79,163.39c-2.91.75-8.18-10.79-11.47-17.98-3.25-7.11-5.33-13.26-6.59-17.41-3.2.91-8.04,2.25-13.97,3.75-18.83,4.75-20.4,3.93-20.91,3.03-2.19-3.84,10.29-16.59,12.82-19.17,4.3-4.39,8.21-7.5,10.9-9.48-1.48-3.06-3.79-7.73-6.8-13.33-7.88-14.66-12.45-20.62-11.26-22.06,1.14-1.36,6.23,2.87,18.17,9.82,6.12,3.56,11.22,6.2,14.55,7.86,2.71-3.02,6.78-7.73,11.45-13.83,7.48-9.77,10.77-15.65,12.27-14.82,1.4.77-.09,6.65-1.52,17.15-1.27,9.37-1.76,17.16-1.98,22.43,2.64,1.11,6.54,2.8,11.21,4.98,14.45,6.75,21.77,10.17,21.51,12.71-.17,1.68-3.57,2.13-25.47,5.38-2.11.31-7.37,1.09-9.41,1.4-.15,2.38-.38,6.06-.63,10.56-1.27,22.93-.94,28.53-2.87,29.02Z"/>
  <path class="cls-5" d="M669.41,922.13c-1.48,1.59-8.04-2.02-12.13-4.27-4.05-2.23-7.11-4.46-9.1-6.03-1.61,1.8-4.04,4.51-7.07,7.75-9.62,10.29-10.78,10.53-11.36,10.29-2.44-1.02,1.05-12.69,1.76-15.05,1.2-4.01,2.56-7.23,3.55-9.35-1.79-.93-4.55-2.31-8-3.88-9.03-4.1-13.5-5.19-13.23-6.42.26-1.16,4.51-1.16,13.61-2.66,4.66-.77,8.45-1.57,10.9-2.13.68-2.66,1.66-6.74,2.56-11.78,1.45-8.06,1.62-12.41,2.75-12.62,1.06-.2,1.94,3.39,4.26,9.29,2.07,5.26,4.12,9.4,5.58,12.15,1.89-.55,4.68-1.33,8.07-2.19,10.5-2.65,15.83-3.99,16.44-2.6.4.92-1.45,2.57-13.33,13.39-1.14,1.04-4,3.64-5.1,4.65.63,1.27,1.6,3.22,2.8,5.59,6.15,12.1,8.02,14.8,7.03,15.85Z"/>
  <path class="cls-4" d="M705.62,952.63c-2.9.75-8.28-11.3-11.63-18.8-3.32-7.43-5.44-13.84-6.73-18.17-3.2.92-8.04,2.28-13.96,3.79-18.82,4.8-20.4,3.93-20.92,2.98-2.23-4.01,10.18-17.18,12.69-19.85,4.27-4.53,8.17-7.74,10.84-9.78-1.51-3.2-3.86-8.08-6.92-13.93-8.01-15.32-12.63-21.56-11.45-23.04,1.13-1.41,6.26,3.03,18.28,10.37,6.15,3.75,11.29,6.54,14.63,8.3,2.69-3.12,6.73-7.99,11.36-14.3,7.41-10.11,10.66-16.2,12.18-15.33,1.41.81-.04,6.92-1.38,17.83-1.2,9.74-1.63,17.85-1.81,23.32,2.66,1.18,6.57,2.96,11.27,5.27,14.53,7.14,21.88,10.75,21.64,13.39-.16,1.74-3.56,2.19-25.47,5.4-2.11.31-7.38,1.08-9.41,1.38-.13,2.48-.33,6.3-.54,10.98-1.09,23.85-.72,29.68-2.65,30.18Z"/>
  <path class="cls-4" d="M125.93,972.03c-2.91.75-8.18-10.79-11.47-17.98-3.25-7.11-5.33-13.26-6.59-17.41-3.2.91-8.04,2.25-13.97,3.75-18.83,4.75-20.4,3.93-20.91,3.03-2.19-3.84,10.29-16.59,12.82-19.17,4.3-4.39,8.21-7.5,10.9-9.48-1.48-3.06-3.79-7.73-6.8-13.33-7.88-14.66-12.45-20.62-11.26-22.06,1.14-1.36,6.23,2.87,18.17,9.82,6.12,3.56,11.22,6.2,14.55,7.86,2.71-3.02,6.78-7.73,11.45-13.83,7.48-9.77,10.77-15.65,12.27-14.82,1.4.77-.09,6.65-1.52,17.15-1.27,9.37-1.76,17.16-1.98,22.43,2.64,1.11,6.54,2.8,11.21,4.98,14.45,6.75,21.77,10.17,21.51,12.71-.17,1.68-3.57,2.13-25.47,5.38-2.11.31-7.37,1.09-9.41,1.4-.15,2.38-.38,6.06-.63,10.56-1.27,22.93-.94,28.53-2.87,29.02Z"/>
  <path class="cls-2" d="M169.29,615.75c-1.58,1.16-7.67-4.72-11.46-8.38-3.75-3.63-6.54-6.93-8.34-9.2-1.72,1.33-4.34,3.32-7.58,5.66-10.29,7.45-11.44,7.31-11.98,6.88-2.29-1.85,2.14-12.73,3.04-14.93,1.53-3.74,3.14-6.61,4.28-8.48-1.66-1.54-4.23-3.88-7.46-6.63-8.45-7.19-12.71-9.79-12.34-10.96.35-1.12,4.5.28,13.51,1.73,4.61.74,8.38,1.15,10.81,1.39.9-2.52,2.21-6.41,3.53-11.3,2.12-7.83,2.67-12.26,3.79-12.11,1.05.14,1.6,4.14,3.34,10.98,1.56,6.1,3.19,11.05,4.37,14.36,1.89.06,4.68.17,8.07.4,10.48.72,15.79,1.09,16.26,2.72.31,1.08-1.65,2.18-14.18,9.42-1.21.7-4.22,2.44-5.38,3.12.5,1.51,1.28,3.84,2.24,6.68,4.93,14.49,6.52,17.88,5.47,18.65Z"/>
  <path class="cls-5" d="M205.04,130.49c-1.35.23-3.26-4.28-4.44-7.08-1.17-2.78-1.85-5.16-2.25-6.77-1.49.29-3.75.7-6.51,1.16-8.76,1.45-9.43,1.1-9.63.75-.83-1.51,5.39-6.13,6.64-7.06,2.14-1.59,4.05-2.7,5.36-3.4-.54-1.2-1.39-3.02-2.52-5.22-2.95-5.75-4.77-8.11-4.17-8.63.57-.5,2.71,1.21,7.84,4.1,2.63,1.48,4.83,2.58,6.27,3.28,1.36-1.1,3.41-2.82,5.79-5.05,3.81-3.58,5.56-5.76,6.21-5.41.6.32-.33,2.53-1.42,6.51-.98,3.55-1.54,6.51-1.86,8.52,1.15.48,2.85,1.19,4.88,2.12,6.28,2.86,9.46,4.3,9.23,5.27-.15.64-1.71.74-11.8,1.56-.97.08-3.4.27-4.33.35-.17.91-.43,2.3-.74,4.01-1.56,8.72-1.65,10.86-2.55,11.01Z"/>
  <path class="cls-1" d="M104.2,62.43c-1.92.47-5.07-5.51-7.04-9.24-1.95-3.69-3.15-6.89-3.87-9.06-2.11.56-5.3,1.39-9.21,2.33-12.41,2.98-13.41,2.59-13.72,2.12-1.34-1.98,7.13-9.04,8.84-10.47,2.91-2.43,5.55-4.18,7.35-5.29-.89-1.58-2.28-4-4.11-6.89-4.78-7.57-7.61-10.61-6.8-11.4.78-.75,3.99,1.36,11.62,4.75,3.9,1.73,7.17,3.01,9.3,3.8,1.84-1.67,4.62-4.26,7.81-7.61,5.12-5.36,7.42-8.56,8.38-8.16.9.37-.23,3.52-1.42,9.12-1.06,5-1.58,9.14-1.85,11.93,1.7.52,4.2,1.32,7.19,2.36,9.26,3.22,13.96,4.85,13.72,6.2-.16.89-2.38,1.22-16.76,3.48-1.38.22-4.84.76-6.18.97-.16,1.27-.4,3.22-.67,5.61-1.39,12.17-1.32,15.13-2.59,15.44Z"/>
</svg>