<?xml version="1.0" encoding="UTF-8"?>
<svg id="Layer_1" data-name="Layer 1" xmlns="http://www.w3.org/2000/svg" viewBox="0 0 1968.45 1424.18">
  <defs>
    <style>
      .cls-1, .cls-2 {
        stroke: #faebcd;
      }

      .cls-1, .cls-2, .cls-3 {
        stroke-miterlimit: 10;
        stroke-width: 5px;
      }

      .cls-1, .cls-3 {
        fill: none;
      }

      .cls-2, .cls-4 {
        fill: #f7c873;
      }

      .cls-3 {
        stroke: #f7c873;
      }
    </style>
  </defs>
  <path class="cls-3" d="M1841.56,596.11c-2.9.75-8.28-11.3-11.63-18.8-3.32-7.43-5.44-13.84-6.73-18.17-3.2.92-8.04,2.28-13.96,3.79-18.82,4.8-20.4,3.93-20.92,2.98-2.23-4.01,10.18-17.18,12.69-19.85,4.27-4.53,8.17-7.74,10.84-9.78-1.51-3.2-3.86-8.08-6.92-13.93-8.01-15.32-12.63-21.56-11.45-23.04,1.13-1.41,6.26,3.03,18.28,10.37,6.15,3.75,11.29,6.54,14.63,8.3,2.69-3.12,6.73-7.99,11.36-14.3,7.41-10.11,10.66-16.2,12.18-15.33,1.41.81-.04,6.92-1.38,17.83-1.2,9.74-1.63,17.85-1.81,23.32,2.66,1.18,6.57,2.96,11.27,5.27,14.53,7.14,21.88,10.75,21.64,13.39-.16,1.74-3.56,2.19-25.47,5.4-2.11.31-7.38,1.08-9.41,1.38-.13,2.48-.33,6.3-.54,10.98-1.09,23.85-.72,29.68-2.65,30.18Z"/>
  <path class="cls-4" d="M1294.17,912.7c-1.48,1.59-8.04-2.02-12.13-4.27-4.05-2.23-7.11-4.46-9.1-6.03-1.61,1.8-4.04,4.51-7.07,7.75-9.62,10.29-10.78,10.53-11.36,10.29-2.44-1.02,1.05-12.69,1.76-15.05,1.2-4.01,2.56-7.23,3.55-9.35-1.79-.93-4.55-2.31-8-3.88-9.03-4.1-13.5-5.19-13.23-6.42.26-1.16,4.51-1.16,13.61-2.66,4.66-.77,8.45-1.57,10.9-2.13.68-2.66,1.66-6.74,2.56-11.78,1.45-8.06,1.62-12.41,2.75-12.62,1.06-.2,1.94,3.39,4.26,9.29,2.07,5.26,4.12,9.4,5.58,12.15,1.89-.55,4.68-1.33,8.07-2.19,10.5-2.65,15.83-3.99,16.44-2.6.4.92-1.45,2.57-13.33,13.39-1.14,1.04-4,3.64-5.1,4.65.63,1.27,1.6,3.22,2.8,5.59,6.15,12.1,8.02,14.8,7.03,15.85Z"/>
  <path class="cls-4" d="M1873.89,457.63c-.89.98-5.68-2.04-8.66-3.91-2.95-1.86-5.23-3.64-6.72-4.88-.96,1.11-2.41,2.78-4.23,4.78-5.78,6.32-6.56,6.4-6.97,6.18-1.76-.9-.29-8.66,0-10.23.5-2.67,1.18-4.78,1.69-6.16-1.3-.78-3.31-1.96-5.8-3.31-6.52-3.55-9.68-4.66-9.59-5.48.08-.78,3-.44,9.13-.74,3.13-.15,5.67-.41,7.3-.59.25-1.78.6-4.52.82-7.91.35-5.44.12-8.43.87-8.48.71-.05,1.6,2.5,3.67,6.75,1.84,3.79,3.58,6.81,4.8,8.82,1.25-.23,3.1-.54,5.36-.86,6.99-.98,10.54-1.48,11.07-.48.35.67-.79,1.66-8.07,8.16-.7.63-2.45,2.19-3.13,2.8.53.92,1.35,2.35,2.37,4.08,5.18,8.84,6.68,10.84,6.09,11.49Z"/>
  <path class="cls-2" d="M1881.39,154.32c-4.45,1.11-12.15-14.59-16.94-24.37-4.75-9.68-7.72-18.07-9.51-23.74-4.91,1.35-12.32,3.34-21.4,5.58-28.83,7.1-31.19,6.01-31.95,4.79-3.23-5.21,16.19-23.12,20.11-26.74,6.68-6.16,12.74-10.56,16.9-13.36-2.16-4.16-5.55-10.52-9.97-18.12-11.57-19.92-18.35-27.98-16.49-29.98,1.77-1.91,9.4,3.75,27.4,12.96,9.21,4.71,16.91,8.19,21.93,10.37,4.22-4.23,10.57-10.83,17.86-19.35,11.68-13.65,16.88-21.84,19.15-20.75,2.12,1.02-.34,9.14-2.83,23.62-2.22,12.92-3.21,23.65-3.7,30.89,3.99,1.45,9.88,3.65,16.94,6.51,21.81,8.84,32.87,13.32,32.39,16.82-.32,2.31-5.51,3.04-38.97,8.16-3.22.49-11.27,1.72-14.38,2.2-.3,3.28-.76,8.34-1.27,14.53-2.62,31.56-2.29,39.25-5.25,39.98Z"/>
  <path class="cls-1" d="M1939.74,163.68c-1.92.47-5.07-5.51-7.04-9.24-1.95-3.69-3.15-6.89-3.87-9.06-2.11.56-5.3,1.39-9.21,2.33-12.41,2.98-13.41,2.59-13.72,2.12-1.34-1.98,7.13-9.04,8.84-10.47,2.91-2.43,5.55-4.18,7.35-5.29-.89-1.58-2.28-4-4.11-6.89-4.78-7.57-7.61-10.61-6.8-11.4.78-.75,3.99,1.36,11.62,4.75,3.9,1.73,7.17,3.01,9.3,3.8,1.84-1.67,4.62-4.26,7.81-7.61,5.12-5.36,7.42-8.56,8.38-8.16.9.37-.23,3.52-1.42,9.12-1.06,5-1.58,9.14-1.85,11.93,1.7.52,4.2,1.32,7.19,2.36,9.26,3.22,13.96,4.85,13.72,6.2-.16.89-2.38,1.22-16.76,3.48-1.38.22-4.84.76-6.18.97-.16,1.27-.4,3.22-.67,5.61-1.39,12.17-1.32,15.13-2.59,15.44Z"/>
  <path class="cls-4" d="M1925.38,1019.18c-1.48,1.59-8.04-2.02-12.13-4.27-4.05-2.23-7.11-4.46-9.1-6.03-1.61,1.8-4.04,4.51-7.07,7.75-9.62,10.29-10.78,10.53-11.36,10.29-2.44-1.02,1.05-12.69,1.76-15.05,1.2-4.01,2.56-7.23,3.55-9.35-1.79-.93-4.55-2.31-8-3.88-9.03-4.1-13.5-5.19-13.23-6.42.26-1.16,4.51-1.16,13.61-2.66,4.66-.77,8.45-1.57,10.9-2.13.68-2.66,1.66-6.74,2.56-11.78,1.45-8.06,1.62-12.41,2.75-12.62,1.06-.2,1.94,3.39,4.26,9.29,2.07,5.26,4.12,9.4,5.58,12.15,1.89-.55,4.68-1.33,8.07-2.19,10.5-2.65,15.83-3.99,16.44-2.6.4.92-1.45,2.57-13.33,13.39-1.14,1.04-4,3.64-5.1,4.65.63,1.27,1.6,3.22,2.8,5.59,6.15,12.1,8.02,14.8,7.03,15.85Z"/>
</svg>