<?xml version="1.0" encoding="UTF-8"?>
<svg id="Layer_1" data-name="Layer 1" xmlns="http://www.w3.org/2000/svg" viewBox="0 0 1281.44 446.91">
  <defs>
    <style>
      .cls-1 {
        fill: #2d486e;
        stroke: #1f3555;
      }

      .cls-1, .cls-2, .cls-3, .cls-4, .cls-5 {
        stroke-miterlimit: 10;
      }

      .cls-2 {
        fill: #203555;
      }

      .cls-2, .cls-4 {
        stroke: #203555;
        stroke-width: 3px;
      }

      .cls-3 {
        stroke-width: 2px;
      }

      .cls-3, .cls-4, .cls-5 {
        fill: none;
      }

      .cls-3, .cls-5 {
        stroke: #fff6eb;
      }
    </style>
  </defs>
  <path vector-effect="non-scaling-stroke" class="cls-4" d="M885.02,284.69c31.29-84.21,62.59-168.41,93.88-252.62C922.78,14.83,850.82.26,767.19,1.58c-37.77.6-72.53,4.36-103.8,9.75-9.25,94.29-18.5,188.58-27.75,282.88,83.13-3.18,166.25-6.35,249.38-9.53Z"/>
  <path vector-effect="non-scaling-stroke" class="cls-2" d="M635.87,280.2c-29.45.37-60.54-.23-93.11-2.15-29.75-1.75-58.16-4.44-85.15-7.8-1.77,2.16-3.69,4.8-5.55,7.97-1.21,2.05-2.22,4.03-3.08,5.89,22.99,2.71,46.79,4.95,71.35,6.63,39.69,2.7,77.62,3.65,113.6,3.29.64-4.61,1.29-9.22,1.93-13.83Z"/>
  <path vector-effect="non-scaling-stroke" class="cls-4" d="M333.21,309.29c1-9.21,2-18.41,3-27.62,19.38.77,63.83,2.56,83.53,3.36,234.05,9.48,223.25,9.7,247.3,9.99,107.35,1.29,116.96-5.5,266.61-5.64,53.04-.05,96.42.76,124.51,1.45"/>
  <path vector-effect="non-scaling-stroke" class="cls-1" d="M789.46,117.6c2.11-1.63,12.24-9.47,24.95-6.75,17.81,3.82,23.68,24.74,24.02,26.02,4.1,15.51-.39,39.02-18.94,46.26-17.43,6.8-37.12-4.72-43.42-22.16-6.12-16.93,2.12-34.64,13.4-43.37Z"/>
  <path vector-effect="non-scaling-stroke" class="cls-3" d="M797.75,140.68c-.58-.82-2.64-3.5-5.53-3.54-4.38-.07-8.13,5.95-7.74,11.26.05.61.48,5.47,4.24,7.51,2.69,1.45,6.02.89,8.48-1.46"/>
  <path vector-effect="non-scaling-stroke" class="cls-3" d="M815.2,139.25l2.03,19.15c-.99-7.54.44-14.03,3.74-16.23.59-.4,2.43-1.62,4.58-.97,2,.61,3.07,2.49,3.37,3.03,1.01,1.83,1.03,3.64,1.03,6.29,0,1.93-.16,4.74-.95,8.08"/>
  <path vector-effect="non-scaling-stroke" class="cls-5" d="M809.77,153.86c-.93-1.34-1.8-2.28-2.43-2.9-1.75-1.71-2.86-2.1-3.39-3.82-.11-.37-.47-1.51-.05-2.51.39-.93,1.34-1.43,2.14-1.15.08.03.52.2.88.75.4.62.61,1.57.39,2.33-.14.48-.41.72-1.01,1.22-1.66,1.37-2.46,1.94-3.25,3.01-.48.64-.62,1.02-.66,1.41-.08.85.35,1.65.75,2.07.75.78,1.72.55,2.2.44,2.34-.55,3.68-3.7,4-4.48"/>
</svg>