<?xml version="1.0" encoding="UTF-8"?>
<svg id="Layer_1" data-name="Layer 1" xmlns="http://www.w3.org/2000/svg" viewBox="0 0 1170.25 822.31">
  <defs>
    <style>
      .cls-1 {
        fill: #5a749e;
      }

      .cls-1, .cls-2, .cls-3, .cls-4, .cls-5, .cls-6, .cls-7, .cls-8 {
        stroke-miterlimit: 10;
      }

      .cls-1, .cls-3, .cls-4, .cls-6 {
        stroke-width: 3px;
      }

      .cls-1, .cls-3, .cls-4, .cls-6, .cls-7 {
        stroke: #1e3555;
      }

      .cls-2 {
        stroke: #5a5b5d;
      }

      .cls-2, .cls-4, .cls-7 {
        fill: none;
      }

      .cls-2, .cls-5, .cls-7, .cls-8 {
        stroke-width: 2px;
      }

      .cls-3 {
        fill: #263f62;
      }

      .cls-5 {
        fill: #1f3555;
        stroke: #1f3555;
      }

      .cls-6 {
        fill: #263e61;
      }

      .cls-8 {
        fill: #fff6eb;
        stroke: #203555;
      }
    </style>
  </defs>
  <path class="cls-1" d="M892.14,313.12c-29.61,2.56-44.07,33.12-46.09,37.56-12.98,28.59-.97,55.36.86,59.27,3.38,7.21,11.7,21.73,28.52,30.81,5.14,2.78,25.34,13.69,44.65,4.99,7.52-3.39,11.93-8.41,15.56-12.62,19.73-22.93,17.62-53.27,17.28-57.22-.72-8.57-2.79-33.08-22.76-49.59-3.47-2.87-18.06-14.93-38.02-13.2Z"/>
  <path class="cls-7" d="M904.45,370.19c-2.21,4.3-4.43,8.68-6.65,13.13-2.12,4.25-4.17,8.44-6.16,12.56"/>
  <path class="cls-7" d="M917.38,367.44c-3.88,6.62-7.78,13.36-11.71,20.2-3.75,6.53-7.4,12.95-10.95,19.25"/>
  <g>
    <path class="cls-3" d="M841.06,148c.72-9.23,8.14-15.18,15.56-21.14,16.08-12.89,33.39-15.34,47.55-17.17,15.05-1.94,22.71-2.82,29.4,1.76,10.52,7.21,13.55,22.77,11.24,34.35-3.74,18.74-21.55,27.42-28.53,30.82-17.15,8.36-41.58,10.34-59.22-2.64-3.07-2.26-17.04-12.53-15.99-25.98Z"/>
    <g>
      <path class="cls-4" d="M698.14,174.79c4.99,19.63,11.3,47.16,16.65,80.48,7.28,45.31,15.37,87.89,9.51,140.45-6.04,54.22-7.56,85.33-31.7,111.39-36.49,39.41-93.42,36.86-113.35,35.96-56.43-2.53-95.19-31.7-108.43-42.75-31.84-26.59-44.37-55.58-67.33-108.67-10.12-23.41-28.53-71.25-35.85-134.5-1.51-13.04-2.24-24.06-2.62-32.07"/>
      <path class="cls-4" d="M382.83,333.01c-2.61-1.12-9.53-3.67-17.52-1.41-11.16,3.15-17.97,13.87-19.45,23.77-2.28,15.23,8.42,25.98,9.72,27.24,10.54,10.23,27.86,12.13,43.27,4.46"/>
      <path class="cls-4" d="M486.94,511.99c-3.39,15.48-8.38,40.46-12.32,71.64-4.78,37.84-4.68,58.45-8.03,100.62-1.73,21.83-4.79,54.53-10.44,94.89"/>
      <path class="cls-4" d="M701.92,496.82c9.71,32.85,17.6,63.81,24.06,92.53,10.92,48.55,13.32,70.8,24.09,118.62,7.52,33.39,15.74,64.26,24.09,92.44"/>
      <path class="cls-4" d="M897.1,298.58c-2.24-18.63-4.49-35.01-6.48-48.67-3.86-26.47-6.65-41.77-14.85-44-1.47-.4-1.92-.05-9.72,1.37-7.16,1.31-14.4,2.18-21.6,3.3-14.22,2.22-23.4,3.66-34.83,4.4-14.26.93-21.39,1.39-28.89,1.1-8.43-.33-16.61-1.23-22.41,4.12-2.31,2.13-3.46,4.54-4.32,6.32-4.11,8.57-2.76,17.28-2.43,19.52,4.58,31.29,3.7,63.24,8.14,94.55,5.67,39.93,10.71,99.26,15.32,125.6.47,2.69,2.13,11.88,6.09,23.45,2.64,7.72,3.96,11.58,5.55,13.51,3.15,3.82,10.25,8.54,58.92.81,15.42-2.45,4.91-1.37,38.2-7.86,20.27-3.95,30.22-5.54,33.7-13.23,1.58-3.5,1.44-7.42,1.17-14.73-.26-7.16-1.5-13-2.56-16.97"/>
      <path class="cls-4" d="M713.34,241.79c8.04-3.08,16.48-6.63,25.23-10.72,6.71-3.14,13.05-6.34,19.03-9.55"/>
      <path class="cls-4" d="M787.31,504.88c-12.78.44-27.28.21-43.15-1.3-15.71-1.49-29.87-3.96-42.25-6.76"/>
      <path class="cls-4" d="M485.8,513.52c-9.8,7.93-23.5,20.59-36.46,39.11-4.16,5.94-7.66,10.95-9.98,16.48-12.06,28.73,10.64,64.86,19.23,77.36"/>
      <path class="cls-4" d="M384.87,377c3.48,6.34,7.81,16,9.51,28.28,1.7,12.28-.78,15.92-1.9,37.19-1.13,21.35-1.59,32.29,3.42,44.94,2.41,6.09,6.47,16.35,17.12,23.25.95.62,15.67,9.86,31.12,5.29,6.29-1.86,7.54-4.49,15.66-6.84,7.75-2.24,14.58-2.16,19.1-1.75"/>
      <path class="cls-4" d="M701.88,499.06c8.66,7.39,22.6,17.64,41.77,25.28,41.51,16.55,78.17,9.17,89.45,6.46,35.26-8.45,58.39-27.74,68.76-37.6"/>
      <path class="cls-4" d="M418.86,117.65c7.36-9.63,18.58-22.43,34.54-34.68,27.73-21.28,54.13-28.92,67.6-32.67,17.19-4.79,39.68-11.06,68.59-7.54,27.11,3.3,46.02,12.98,76.97,29.15,21.53,11.25,38.49,22.36,50.14,30.58-8.44-1.45-18.57-2.43-29.99-2.01-22.23.81-40.2,6.59-52.3,11.7"/>
      <path class="cls-4" d="M581.69,165.4c20.05-2.58,36.92-2.61,49.34-2.01,20.82,1,36.93,4.14,51.81,7.04,14.21,2.77,26.01,5.72,34.54,8.04-4.54-6.54-11.31-14.4-21.22-20.61-23.52-14.74-48.87-10.22-48.85-11.06.02-.88,27.99-6.24,58.22,6.53,10.02,4.23,17.77,9.39,23.19,13.57-.85-8.91-3.58-21.09-11.84-32.17-16.7-22.4-49.17-31.1-82.47-22.55"/>
      <path class="cls-4" d="M394.48,125.9c-2.42-.92-24.13-8.81-41.44,3.84-15.14,11.07-18.9,32-16.53,33.49,1.23.78,4.08-3.73,12.71-7.74,2.69-1.25,9.41-4.37,10.72-2.73,2.85,3.57-22.41,26.6-19.8,29.97,2.63,3.4,31.28-16.14,33.02-13.62.85,1.23-5.77,6.24-13.23,16.44-6.67,9.13-14.5,23.07-11.96,25.39,3.27,2.99,23.24-13.97,25.92-16.25,10.73-9.11,11.93-12.49,18.44-15.74,9.99-4.99,20.72-3.82,28.52-1.89"/>
      <path class="cls-4" d="M897.1,298.58c-4.81-4.5-16.17-13.83-32.74-15.82-30.32-3.65-51.32,20.49-54.33,24.03-17.74,20.84-16.69,46.35-15.73,69.91,1.59,38.91,17.72,64.1,21.09,69.18,7.08,10.69,14.64,21.77,29.31,28.4,6.08,2.74,25.04,10,45.4.73,17.13-7.8,24.73-22.52,26.81-26.94"/>
      <path class="cls-4" d="M910.57,314c-2.58-3.78-9.8-13.26-22.47-17.02-15.95-4.73-29.61,2.83-34.57,5.57-27.73,15.36-33.6,50.59-35.64,62.85-1.56,9.38-4.3,26.98,2.86,47.33,2.8,7.95,7.66,21.79,21.09,32.41,23.1,18.27,51.71,11.34,56.12,10.19,8.6-2.23,15.15-5.8,19.26-8.42"/>
      <path class="cls-6" d="M838.32,148.95c-18.83,6.5-38.88,14.54-59.7,24.53-8.37,4.01-16.4,8.12-24.08,12.26.75,2.45,1.49,4.95,2.21,7.51.69,2.46,1.35,4.88,1.97,7.26,7.1-2.95,14.31-5.88,21.62-8.76,23.12-9.12,45.75-17.26,67.81-24.53-1.82-1.33-5.29-4.25-7.62-9.26-1.68-3.62-2.11-6.93-2.21-9.01Z"/>
      <path class="cls-6" d="M796.53,214.52c-1.9-8.37-3.79-16.73-5.69-25.1,6.21-2.88,12.41-5.75,18.62-8.63-.26,3.44-.29,7.51.22,12.04.98,8.59,3.55,15.47,5.8,20.21-6.32.49-12.63.98-18.95,1.48Z"/>
      <path class="cls-7" d="M587.06,412.2c1.42,3.42,2.76,7.21,3.87,11.38.32,1.19.6,2.36.86,3.5"/>
      <path class="cls-7" d="M596.94,410.67c1.1,2.74,2.24,5.51,3.44,8.32,1.14,2.68,2.29,5.31,3.44,7.88"/>
      <path class="cls-7" d="M572.37,297.64c.04,8.5.55,15.65,1.09,21.07,1.13,11.27,2.33,14.38,4.63,16.91,2.45,2.69,5.58,4.09,10.07,6.1,6.15,2.76,7.66,2.01,10.88,4.43,1.03.78,5.86,4.4,6.53,10.26.76,6.69-4.25,13.27-10.34,15.8-7.77,3.22-14.95-1.14-15.78-1.66"/>
      <path class="cls-7" d="M577.31,472.49c.2-1.5,1.34-8.84,7.74-13.48,1.12-.81,4.29-3.05,8.74-3.31,1.37-.08,3.79-.02,14.11,4.96,6.54,3.16,7.79,4.21,11.36,4.83,2.79.48,6.01,1.04,8.99-.64,5.39-3.03,5.61-10.9,5.62-11.7"/>
      <path class="cls-4" d="M399.4,286.22c15.81-1.36,33.09-3.61,51.55-7.16,15.17-2.92,29.25-6.36,42.17-10.02"/>
      <path class="cls-6" d="M403.87,244.69c6.74-1,13.2-3.43,19.88-4.79,13.07-2.66,19.61-3.98,24.92-5.34,11.39-2.9,19.46-5.91,33.32-7.79,4.89-.66,11.19-1.28,13.66,2.23,1.06,1.51,1.35,3.68.75,5.43-1.3,3.82-6.59,5.14-8.95,5.7-25.96,6.13-38.93,9.2-47.52,11.13-37.08,8.33-37.14,8.35-37.14,8.35-2.7.74-12.4,3.45-15.03-.28-.72-1.02-1.01-2.67-.86-4.08.11-.97.55-3,3.28-5.36,4.56-3.96,10.78-4.76,13.7-5.2Z"/>
      <path class="cls-6" d="M600.07,205.62c6.77-.77,13.3-2.98,20.02-4.11,13.15-2.21,19.73-3.32,25.08-4.49,11.48-2.51,19.64-5.25,33.56-6.66,4.91-.5,11.22-.9,13.58,2.69,1.01,1.54,1.23,3.72.58,5.45-1.42,3.77-6.76,4.92-9.13,5.39-26.14,5.25-39.21,7.88-47.86,9.51-37.33,7.07-37.4,7.08-37.4,7.08-2.72.65-12.5,3.03-15.01-.79-.69-1.05-.93-2.71-.73-4.1.14-.97.65-2.98,3.45-5.25,4.69-3.8,10.93-4.4,13.86-4.73Z"/>
      <path class="cls-4" d="M600.61,249.01c15.81-1.36,33.09-3.61,51.55-7.16,15.17-2.92,29.25-6.36,42.17-10.02"/>
      <path class="cls-5" d="M457.39,291.08c-2.46-1.36-4.03-5.06-3.52-8.27.52-3.21,2.93-4.71,5.39-3.35,2.46,1.36,4.03,5.06,3.52,8.27-.52,3.21-2.93,4.71-5.39,3.35Z"/>
      <path class="cls-5" d="M655.13,253.82c-2.46-1.36-4.03-5.06-3.52-8.27.52-3.21,2.93-4.71,5.39-3.35,2.46,1.36,4.03,5.06,3.52,8.27-.52,3.21-2.93,4.71-5.39,3.35Z"/>
      <path class="cls-8" d="M458.03,647.19c.2-3.96,7.1-6.97,15.3-10.54,7.09-3.09,12.14-5.29,15.18-3.49,3.51,2.08,2.34,8.28.19,12.11-2.88,5.14-9.47,9.46-16.63,9.63-6.9.16-14.25-3.52-14.04-7.71Z"/>
      <path class="cls-5" d="M378.36,380.14c-4.34-2.12-7.48-7.26-7-11.46.47-4.2,4.38-5.89,8.72-3.77,4.34,2.12,7.48,7.26,7,11.46-.47,4.2-4.38,5.89-8.72,3.77Z"/>
    </g>
    <path class="cls-2" d="M874.22,121.03c-4.4,4.59-9.24,10.26-13.99,17.1-5.4,7.79-9.38,15.2-12.31,21.59"/>
    <path class="cls-2" d="M903.92,113.69c-9.26,9.64-18.88,20.53-28.54,32.75-6.61,8.38-12.61,16.59-18.04,24.51"/>
    <path class="cls-2" d="M873.18,176.76c4.38-8.61,9.88-18.08,16.8-27.89,10.95-15.55,22.41-27.67,32.42-36.83"/>
    <path class="cls-2" d="M934.03,117.69c-5.93,7.34-11.91,15.06-17.9,23.15-9.72,13.15-18.52,26.02-26.49,38.47"/>
    <path class="cls-2" d="M941.37,134.65c-4.67,4.03-9.67,8.85-14.68,14.58-8.7,9.96-14.91,19.77-19.33,28.08"/>
    <path class="cls-2" d="M847.41,141.94c13.85,5.47,28.27,11.69,43.13,18.78,8.43,4.02,16.54,8.1,24.34,12.21"/>
    <path class="cls-2" d="M865.67,124.98c7.44.71,16.8,2.42,27.02,6.38,20.82,8.07,34.3,21.25,41.34,29.35"/>
  </g>
</svg>