<?xml version="1.0" encoding="UTF-8"?>
<svg id="Layer_1" data-name="Layer 1" xmlns="http://www.w3.org/2000/svg" viewBox="0 0 1179.18 822.31">
  <defs>
    <style>
      .cls-1, .cls-2, .cls-3, .cls-4 {
        stroke-width: 2px;
      }

      .cls-1, .cls-2, .cls-3, .cls-4, .cls-5 {
        stroke-miterlimit: 10;
      }

      .cls-1, .cls-3, .cls-5 {
        fill: none;
      }

      .cls-1, .cls-4, .cls-5 {
        stroke: #203555;
      }

      .cls-2 {
        fill: #1f3555;
      }

      .cls-2, .cls-3 {
        stroke: #1f3555;
      }

      .cls-4 {
        fill: #fff6eb;
      }

      .cls-5 {
        stroke-width: 3px;
      }
    </style>
  </defs>
  <path vector-effect="non-scaling-stroke" class="cls-5" d="M579.36,764.35c-5.74,2.25-12.74,5.6-20.14,10.63-8.96,6.09-15.55,12.65-20.14,17.97"/>
  <g>
    <path vector-effect="non-scaling-stroke" class="cls-4" d="M578.47,764.2c-.26-5.02,7.92-7.94,17.65-11.4,8.41-2.99,14.4-5.13,18.41-2.43,4.62,3.11,3.97,10.86,1.79,15.45-2.92,6.17-10.55,10.8-19.42,10.06-8.55-.71-18.16-6.38-18.43-11.69Z"/>
    <g>
      <path vector-effect="non-scaling-stroke" class="cls-5" d="M345.31,624.84c-6.74,11.58-13.6,25.3-19.58,41.17-12.79,33.98-16.68,64.88-17.54,87.74"/>
      <path vector-effect="non-scaling-stroke" class="cls-5" d="M366.92,670.58c-4.51,4.43-10.74,11.65-15.5,22.04-7.4,16.16-7.14,31-6.53,38.26"/>
      <path vector-effect="non-scaling-stroke" class="cls-5" d="M520.59,541.04c-13.98,9.78-34.98,25.91-57.09,49.4-23.33,24.78-66.72,71.91-83.05,144.66-6.8,30.29-6.91,56.14-6,72.9"/>
      <path vector-effect="non-scaling-stroke" class="cls-5" d="M528.5,602.54c-8.69,25.18-17.16,54.77-23.67,88.3-6.67,34.32-9.89,65.64-11.22,92.78"/>
      <path vector-effect="non-scaling-stroke" class="cls-5" d="M412.07,244.77c-3.91,5.36-8.25,12.42-11.83,21.21-6.99,17.18-7.7,32.77-7.34,42.42"/>
      <path vector-effect="non-scaling-stroke" class="cls-5" d="M407.58,217.32c-6.96,2.94-26.75,12.41-39.15,34.93-19.05,34.59-4.29,70.2-2.45,74.44"/>
      <g>
        <path vector-effect="non-scaling-stroke" class="cls-3" d="M338.06,73.45c-.06.41-.99,7.27,3.31,12.51,5.13,6.25,12.63,3.99,13.28,3.78,1.18-.38,6.81-2.4,8.74-9.18,1.27-4.44.75-10.21-2.54-14.37-4.34-5.5-10.58-4.5-11.56-4.34-4.75.76-10.2,4.7-11.24,11.6Z"/>
        <g>
          <path vector-effect="non-scaling-stroke" class="cls-3" d="M373.15,57.09c1.16-.74,12.66-8.25,12.24-17.47-.17-3.59-1.98-6.42-1.98-6.42-1.95-3.04-5.7-6.05-7.47-5.83-3.38.42-5.43,13.45-1.36,62.87"/>
          <path vector-effect="non-scaling-stroke" class="cls-3" d="M373.12,71.56c.16-.66,1.62-6.2,7.39-8.16,1.15-.39,6.4-1.97,9.52.75,2.7,2.36,2.46,6.79.15,8.53-1.25.94-3.46,1.3-4.19.59-.62-.61-.15-2.32.67-2.67,1.35-.57,3.46,2.49,6.55,5.79,2.24,2.39,5.54,5.49,10.18,8.59"/>
        </g>
      </g>
      <path vector-effect="non-scaling-stroke" class="cls-3" d="M414.88,84.62c21.67-1.56,33.66,1.37,40.57,4.43.29.13.55.25.55.25,2.07.95,19.92,9.31,19.45,19.22-.15,3.19-2.22,6.78-4.9,7.26-2.22.4-5.1-1.27-5.48-3.43-.28-1.61.86-3.26,1.76-4.01,4.36-3.63,16.78,2.4,23.78,8.83,11.99,11.02,12.98,27.74,13.03,33.98"/>
      <g>
        <path vector-effect="non-scaling-stroke" class="cls-5" d="M495.04,427.99c-.93,10.11-1.34,24.18,1.02,40.64,2.43,16.91,9.2,46.15,29.64,75.03,32.95,46.56,79.29,60.89,91.98,64.61,26.69,7.82,48.33,7.03,65.41,6.25,44.92-2.03,79.99-15.72,101.18-26.05"/>
        <path vector-effect="non-scaling-stroke" class="cls-5" d="M636.66,207.77c-2.84-3.66-8.72-10.08-18.04-13.14-13.33-4.37-25.23.94-32.64,4.38-11.29,5.24-23.44,14.51-39.51,39.41-5.62,8.71-11.61,19.17-25.77,51.68-20.16,46.29-23.12,59.77-38.65,78.83-8.86,10.86-17.58,18.36-23.19,22.77"/>
        <path vector-effect="non-scaling-stroke" class="cls-5" d="M671.02,202.51c3.62-4.38,10.61-11.58,21.47-15.77,14.43-5.56,27.16-2.53,37.79,0,23.43,5.58,38.33,18.7,41.15,21.25,5.07,4.58,11.69,11.61,29.17,46.4,16.89,33.6,16.47,38.5,25.67,54.13,7.54,12.82,20.31,30.75,42.3,49.01"/>
        <path vector-effect="non-scaling-stroke" class="cls-5" d="M620.09,154.34c-3.84-3.85-11.6-10.44-22.66-12.01-2.7-.38-12.49-1.45-31.72,9.24-8.12,4.51-21.59,13.16-36.25,29.57-15.41,17.25-23.62,33.53-30.81,48.05-5.71,11.52-8.93,19.9-16.31,39.74-18.28,49.13-20.81,57.75-25.38,69.31-7.95,20.12-21.75,48.41-47.13,80.4"/>
        <path vector-effect="non-scaling-stroke" class="cls-5" d="M658.78,151.25c5.4-5.17,14.29-12.55,26.87-18.26,7.32-3.33,26.43-11.71,50.29-7.73,19.99,3.34,32.93,13.61,44.09,22.48,17.19,13.65,26.7,28.06,35.82,42.15,12.67,19.55,19.68,36.6,26.87,54.09,5.73,13.94,15.99,40.89,18.6,47.77,5.81,15.31,8.17,21.88,13.78,30.21,8.81,13.06,19.42,21.21,26.87,25.99"/>
        <path vector-effect="non-scaling-stroke" class="cls-5" d="M775.74,468.66c-37.51-2.34-53.96-14.68-61.9-26.3-10.02-14.65-8.33-38.75-17.54-88.37-.87-4.69-2.68-14.12-5.41-14.2-2.12-.06-4.28,5.54-6.98,17.48-6.11,26.94-3.66,40.33-7.39,56.09-4.62,19.52-7.94,32.93-18.04,43.43-21.43,22.26-68.23,22.47-96.3-.75-23.97-19.83-27.35-51.01-28.89-65.23-2.18-20.16,1.15-36.87,4.13-47.34,23.61-5.67,49.47-10.48,77.38-13.68,80.76-9.24,151.21-1.76,205.57,9.33,2.23,9.89,4.18,20.81,5.54,32.65,2.45,21.34,2.38,40.55,1.23,56.82"/>
        <path vector-effect="non-scaling-stroke" class="cls-1" d="M690.51,432.06c-3.86,14.82-1.28,22.61,1.81,26.99,2.7,3.83,4.71,3.54,10.86,10.61,4.65,5.36,8.49,9.89,9.5,16.61.37,2.45,1.25,8.29-2.04,12.23-1.96,2.35-4.12,2.47-11.54,5.31-4.04,1.54-7.24,2.98-9.27,3.92"/>
        <path vector-effect="non-scaling-stroke" class="cls-2" d="M619.28,428.29c-2.16-3.55-1.52-9.44,1.43-13.14,2.95-3.71,7.09-3.83,9.24-.28s1.52,9.44-1.43,13.14c-2.95,3.71-7.09,3.83-9.24.28Z"/>
        <path vector-effect="non-scaling-stroke" class="cls-2" d="M762.66,428.71c-2.16-3.55-1.52-9.44,1.43-13.14,2.95-3.71,7.09-3.83,9.24-.28,2.16,3.55,1.52,9.44-1.43,13.14-2.95,3.71-7.09,3.83-9.24.28Z"/>
      </g>
    </g>
  </g>
</svg>