<?xml version="1.0" encoding="UTF-8"?>
<svg id="Layer_1" data-name="Layer 1" xmlns="http://www.w3.org/2000/svg" viewBox="0 0 4206.16 1233.82">
  <defs>
    <style>
      .cls-1 {
        fill: #da9dc6;
      }

      .cls-2, .cls-3 {
        fill: none;
      }

      .cls-2, .cls-3, .cls-4, .cls-5 {
        stroke-miterlimit: 10;
        stroke-width: 6px;
      }

      .cls-2, .cls-5 {
        stroke: #203555;
      }

      .cls-6, .cls-5 {
        fill: #fff6ea;
      }

      .cls-3, .cls-4 {
        stroke: #1f3555;
      }

      .cls-4 {
        fill: #1f3555;
      }
    </style>
  </defs>
  <path class="cls-2" d="M1208.77,630.28c-1.1,14.42-2.53,29.29-4.34,44.58,0,0-3.14,26.58-7.73,53.81-5.71,33.86-18.96,93.29-41.23,167.67,17.24,10.13,43.08,23.22,76.19,32.37,32.88,9.08,62.39,9.26,93.7,11.06,116.71,6.73,216.23-13.73,291.13-37.7-14.38-71.37-29.7-143.42-46.02-216.13-3.92-17.46-7.87-34.86-11.86-52.2"/>
  <path class="cls-2" d="M1423.5,938.7c18.96-53.66,42.19-111.87,54.04-108.59,5.3,1.47,6.61,14.77,8.3,33.41,2.23,24.63,2.83,61.27-6.64,106.41,14.35,6,28.7,12,43.04,18"/>
  <path class="cls-2" d="M1341.44,941.19c18.96-53.66,42.19-111.87,54.04-108.59,5.3,1.47,6.61,14.77,8.3,33.41,2.23,24.63,2.83,61.27-6.64,106.41,14.35,6,28.7,12,43.04,18"/>
  <path class="cls-3" d="M1145.37,470.45c-2.83,28.58-2.68,75.88,23.77,118.39,47.97,77.08,147.95,82.98,205.99,86.41,15.2.9,79.9,3.75,153.6-26.21,32.75-13.31,57.9-23.91,76.9-50.22,37.15-51.42,19.62-119.62,15.55-134.21"/>
  <path class="cls-3" d="M1274.15,101.93c-20.95,2.36-54.56,8.8-89.39,28.74-9.77,5.59-51.42,30.43-84.03,86.22-41.27,70.6-40,142.72-36.26,267.55,2.22,74.02,9.84,108.66-9.79,162.54-14.73,40.45-36.72,70.9-53.15,90.44,19.04,4.27,32.92,10.16,41.96,14.67,26.01,12.95,28.87,16.75,40.56,20.78,14.15,4.87,26.89,4.32,34.97,3.67"/>
  <path class="cls-3" d="M1324.21,91.9c19.3-11.11,66.27-34.38,126.2-26.28,8.37,1.13,46.67,6.89,88.26,35.47,69.85,48.02,107.64,139.66,127.28,221.2,24.3,100.88,4.05,124.48,33.52,207.06,22.24,62.34,54.35,108.27,78.2,137.5-22.87,8.79-38.94,19.37-49.48,27.5-30.7,23.71-37.34,28.91-51.07,32.35-8.52,2.14-15.82,2.04-20.75,1.62"/>
  <g>
    <path class="cls-3" d="M1648.67,386.59c.66-63.83-48.26-118.48-109.28-122.07-61.02-3.58-111.02,45.25-111.68,109.09-.66,63.83,48.26,118.48,109.28,122.07,61.02,3.58,111.02-45.25,111.68-109.09"/>
    <path class="cls-3" d="M1335.27,381.94c7.58-3.52,23.3-9.62,44.65-9.35,22.08.28,38.83,7.22,46.73,11.05"/>
    <path class="cls-3" d="M1332.38,363.76c-12.09-65.02-70.41-107.39-130.25-94.63-59.84,12.76-98.55,75.81-86.46,140.83,12.09,65.02,70.41,107.39,130.25,94.63,59.84-12.76,98.55-75.81,86.46-140.83"/>
  </g>
  <path class="cls-3" d="M1317.41,226.08c-15.44,11.04-37.22,23.89-65.14,32.72-13.77,4.36-26.58,6.96-37.88,8.5"/>
  <path class="cls-3" d="M1361.96,215.35c22.09,12.9,53.43,28.07,92.98,38.09,35.88,9.09,67.45,11.13,91.39,10.84"/>
  <g>
    <path class="cls-3" d="M1208.02,413.46c-10.96-15.1-9.2-36.76,3.93-48.38,13.13-11.62,32.66-8.79,43.62,6.31,10.96,15.1,9.2,36.76-3.93,48.38-13.13,11.62-32.66,8.79-43.62-6.31Z"/>
    <path class="cls-4" d="M1232.29,416.58c-10.64-6.69-15.87-23.86-11.69-38.37,4.19-14.5,16.21-20.84,26.85-14.16,10.64,6.69,15.87,23.86,11.69,38.37-4.19,14.5-16.21,20.84-26.85,14.16Z"/>
    <path class="cls-6" d="M1244.4,385.53c-3.46-2.45-5.05-7.91-3.54-12.2s5.54-5.79,9.01-3.34c3.46,2.45,5.05,7.91,3.54,12.2-1.51,4.29-5.54,5.79-9.01,3.34Z"/>
    <path class="cls-6" d="M1239.81,388.94c-.84-.6-1.19-1.99-.8-3.1.4-1.11,1.4-1.51,2.24-.91.84.6,1.19,1.99.8,3.1-.4,1.11-1.4,1.51-2.24.91Z"/>
  </g>
  <path class="cls-3" d="M1385.65,499.53c1.3.5,9.1,3.33,16.45-1.34,5.11-3.25,9.79-9.98,9.06-17.27-.98-9.73-11.49-19.58-24.98-19.04"/>
  <g>
    <ellipse class="cls-1" cx="1228.62" cy="533.6" rx="31.66" ry="13.28" transform="translate(-43.68 114.67) rotate(-5.25)"/>
    <path class="cls-3" d="M1202.24,541.47c8.97-11.62,12.93-13.03,14.9-12.24,3.11,1.26,1.68,8.25,5.02,9.57,4.98,1.98,13.43-11.39,17.2-9.51,2.54,1.27.09,8.03,2.69,9.6,2.63,1.58,8.78-3.14,15.74-9.99"/>
  </g>
  <g>
    <ellipse class="cls-1" cx="1536.18" cy="520.7" rx="31.66" ry="13.28" transform="translate(-41.2 142.76) rotate(-5.25)"/>
    <path class="cls-3" d="M1509.81,528.56c8.97-11.62,12.93-13.03,14.9-12.24,3.11,1.26,1.68,8.25,5.02,9.57,4.98,1.98,13.43-11.39,17.2-9.51,2.54,1.27.09,8.03,2.69,9.6,2.63,1.58,8.78-3.14,15.74-9.99"/>
  </g>
  <g>
    <path class="cls-3" d="M1506.4,404.62c-10.96-15.1-9.2-36.76,3.93-48.38,13.13-11.62,32.66-8.79,43.62,6.31,10.96,15.1,9.2,36.76-3.93,48.38-13.13,11.62-32.66,8.79-43.62-6.31Z"/>
    <path class="cls-4" d="M1530.67,407.73c-10.64-6.69-15.87-23.86-11.69-38.37,4.19-14.5,16.21-20.84,26.85-14.16,10.64,6.69,15.87,23.86,11.69,38.37-4.19,14.5-16.21,20.84-26.85,14.16Z"/>
    <path class="cls-6" d="M1542.78,376.68c-3.46-2.45-5.05-7.91-3.54-12.2s5.54-5.79,9.01-3.34c3.46,2.45,5.05,7.91,3.54,12.2-1.51,4.29-5.54,5.79-9.01,3.34Z"/>
    <path class="cls-6" d="M1538.19,380.1c-.84-.6-1.19-1.99-.8-3.1.4-1.11,1.4-1.51,2.24-.91.84.6,1.19,1.99.8,3.1-.4,1.11-1.4,1.51-2.24.91Z"/>
  </g>
  <path class="cls-3" d="M1404.14,578.2c-2.37,1.24-6.67,3.93-9.77,8.9-.79,1.27-7.8,12.96-1.03,22.73,4.83,6.97,14.69,10.13,24.16,7.41"/>
  <g>
    <path class="cls-3" d="M1202.66,622.91c-5.06,22.43-10.89,48.58-17.23,77.84-8.39,38.68-9.33,44.14-7.54,50.16,11.58,38.98,117.35,33.45,168.03,28.89"/>
    <path class="cls-5" d="M1340.64,780.58c.41-7.3,12.06-12.97,25.91-19.71,11.99-5.83,20.52-9.98,25.6-6.72,5.86,3.76,3.79,15.2.12,22.29-4.94,9.52-16.09,17.61-28.14,18.06-11.61.44-23.92-6.2-23.49-13.92Z"/>
  </g>
  <g>
    <path class="cls-3" d="M1563.93,629.97c6.55,19.54,14.11,42.35,22.44,67.88,11.01,33.75,12.35,38.55,11.48,44.19-5.66,36.58-94.67,45.2-137.52,47.61"/>
    <path class="cls-5" d="M1464.82,789.67c-1.09-6.52-11.42-10.13-23.7-14.42-10.62-3.71-18.19-6.35-22.1-2.76-4.51,4.14-1.6,14.17,2.2,20.09,5.11,7.94,15.27,13.79,25.39,12.64,9.75-1.1,19.36-8.66,18.21-15.56Z"/>
  </g>
  <path class="cls-2" d="M960.9,897.04c24.61-4.94,57.73-8.82,96.52-5.58,28.36,2.37,52.79,7.96,72.39,13.96"/>
  <path class="cls-2" d="M1642.51,891.06c10.56-6.6,29.38-16.39,54.64-19.48,18.95-2.32,34.83-.06,45.52,2.4"/>
  <path class="cls-2" d="M1133.69,868.28c-3.42-5.31-8.16-11.47-14.63-17.42-15.02-13.81-31.2-18.95-40.42-21.04"/>
  <path class="cls-2" d="M1636.1,863.4c.72-4.49,2.49-11.67,7.29-18.97,8.67-13.17,21.27-17.67,25.5-18.97"/>
</svg>