<?xml version="1.0" encoding="UTF-8"?>
<svg id="Layer_1" data-name="Layer 1" xmlns="http://www.w3.org/2000/svg" viewBox="0 0 1147.9 814.11">
  <defs>
    <style>
      .cls-1 {
        fill: #b7cada;
      }

      .cls-1, .cls-2, .cls-3, .cls-4, .cls-5, .cls-6, .cls-7, .cls-8, .cls-9, .cls-10, .cls-11, .cls-12, .cls-13, .cls-14, .cls-15, .cls-16, .cls-17 {
        stroke-miterlimit: 10;
      }

      .cls-1, .cls-3, .cls-5, .cls-6, .cls-7, .cls-8, .cls-9, .cls-12, .cls-13, .cls-15, .cls-17 {
        stroke-width: 3px;
      }

      .cls-1, .cls-3, .cls-5, .cls-7, .cls-8, .cls-9, .cls-12, .cls-13, .cls-15 {
        stroke: #203555;
      }

      .cls-2, .cls-6, .cls-14, .cls-15, .cls-16, .cls-17 {
        fill: none;
      }

      .cls-2, .cls-10, .cls-14, .cls-16, .cls-17 {
        stroke: #1f3555;
      }

      .cls-3 {
        fill: #2d4368;
      }

      .cls-18 {
        fill: #db9ec7;
      }

      .cls-4, .cls-11 {
        fill: #fbf8c6;
        stroke: #fede64;
      }

      .cls-5 {
        fill: #fff6eb;
      }

      .cls-6 {
        stroke: #1e3555;
      }

      .cls-7 {
        fill: #fef7ed;
      }

      .cls-8 {
        fill: #223556;
      }

      .cls-9 {
        fill: #fff;
      }

      .cls-10 {
        fill: #1f3555;
      }

      .cls-10, .cls-14 {
        stroke-width: 2px;
      }

      .cls-11 {
        stroke-width: 4px;
      }

      .cls-12 {
        fill: #2c4368;
      }

      .cls-13 {
        fill: #62533c;
      }

      .cls-16 {
        stroke-width: 8px;
      }
    </style>
  </defs>
  <g>
    <path class="cls-13" d="M279.51,607.54c2.19,18.75,6.91,33.57,10.18,42.46-19.95,1.58-41.9,2.15-65.54.98-58.69-2.9-108.25-15.53-146.09-28.85.11-7.33.22-14.67.33-22-3.8,5.44-7.59,10.87-11.39,16.31-3.78-1.3-9.32-3.72-14.96-8.26-6.89-5.55-10.76-11.74-12.77-15.57,8.19-8.44,20.25-22.22,31.31-41.29,35.12-60.52,33.83-129.03,64.34-154.69,12.51-10.52,26.51-13.51,26.51-13.51,10.88-2.32,20.18-.86,25.53.39,7.41-2.71,24.96-7.97,46.39-3.21,4.51,1,18,4.41,31.81,14.85,20.44,15.44,28.31,36.18,30.87,43.2,20.06,55.07-25.49,92.44-16.52,169.18Z"/>
    <path class="cls-7" d="M271.08,479.75c-1.52,19.16-6.02,33.8-9.75,43.4-4.41,11.34-8.24,16.95-9.8,19.13-2.17,3.02-10.11,13.58-22.41,20.43-25.07,13.96-53.05,4.38-61.42,1.52-8.43-2.88-27.22-9.3-39.28-27.65-7.54-11.46-9.32-22.38-9.66-24.75-1.44-10.04.39-18.07,4.12-33.73,1.7-7.13,4.39-17.06,8.69-28.74,7.61-.57,18.75-2.32,31.08-7.73,15.96-7,26.44-16.87,32.14-23.12,9.19,12.09,22.92,27.36,42.4,41.46,12.13,8.78,23.8,15.14,33.9,19.78Z"/>
    <path class="cls-17" d="M194.7,515.31c.43.24,3.02,1.67,5.76.75,1.91-.63,3.8-2.37,3.84-4.65.05-3.05-3.2-6.82-7.9-7.6"/>
    <path class="cls-6" d="M190.87,539.95c-3.92.22-6.87-.25-8.94-.78-1.56-.4-2.87-.88-3.95,0-1.28,1.05-1.58,3.56-1.16,5.21.37,1.44,1.27,2.21,3.46,3.53,1.66,1,3.98,2.26,6.95,3.49"/>
    <g>
      <ellipse class="cls-18" cx="141.11" cy="516.94" rx="3.44" ry="11.55" transform="translate(-394.42 535.57) rotate(-76.72)"/>
      <path class="cls-2" d="M131.29,516.12c4-1.94,5.5-1.87,6.13-1.47,1,.64-.02,2.21,1.05,2.89,1.6,1.01,5.55-1.41,6.73-.55.8.58-.57,2,.23,2.65.8.67,3.31.14,6.26-.82"/>
    </g>
    <g>
      <ellipse class="cls-18" cx="232.03" cy="536.22" rx="3.44" ry="11.55" transform="translate(-343.15 638.91) rotate(-76.72)"/>
      <path class="cls-2" d="M222.2,535.4c4-1.94,5.5-1.87,6.13-1.47,1,.64-.02,2.21,1.05,2.89,1.6,1.01,5.55-1.41,6.73-.55.8.58-.57,2,.23,2.65.8.67,3.31.14,6.26-.82"/>
    </g>
  </g>
  <path class="cls-1" d="M215.98,688.51c-16.17,4.37-52.57,11.66-93.62-3.03-26.34-9.43-44.7-24.37-55.54-34.92,20.61-37.23,41.22-74.45,61.83-111.68,6.68,7.08,23.88,23.33,51.18,29.03,15.38,3.21,28.54,1.94,37.1.36-.32,40.08-.63,80.16-.95,120.24Z"/>
  <g>
    <ellipse class="cls-14" cx="235.63" cy="500.64" rx="12.31" ry="10.59" transform="translate(-272.63 281.92) rotate(-41.51)"/>
    <path class="cls-10" d="M231.97,510.22c-2.43-2.72-1.45-8.36,2.19-12.6,3.64-4.24,8.56-5.48,10.99-2.76,2.43,2.72,1.45,8.36-2.19,12.6-3.64,4.24-8.56,5.48-10.99,2.76Z"/>
  </g>
  <g>
    <path class="cls-15" d="M216.99,567.49c1.31,4.55,3.23,10.76,5.91,18.07,3.36,9.15,5.07,13.75,6.94,15.19,9.52,7.3,36.61-15.53,44.54-22.44"/>
    <path class="cls-9" d="M284.59,559.62c2.11.53,3.7,3.88,3.97,6.25.5,4.21-2.95,6.91-5.54,8.94-1.81,1.42-7.27,5.18-8.99,3.64-2.91-2.61,5.11-20.2,10.55-18.83Z"/>
  </g>
  <g>
    <path class="cls-3" d="M559.69,148.25c-34.56,53.14-71.93,107.52-112.34,162.82-87.53,119.77-177.17,227.17-264.95,322.82-.32,11.2,1.1,29.87,12.73,49.2,27.51,45.72,87.34,53.88,94.86,54.8,57.18-44.59,118.87-89.93,185.26-135.31,116.87-79.88,230.78-147.89,338.05-205.76-84.54-82.85-169.07-165.71-253.61-248.56Z"/>
    <path class="cls-3" d="M514,579.88c.57,35.11.92,70.56,1.04,106.37.12,36.43,0,72.5-.35,108.21,10.26-.09,20.52-.18,30.78-.27.27-37.31.42-74.62.46-111.92.04-41.42-.06-82.84-.31-124.26-10.54,7.29-21.09,14.59-31.63,21.88Z"/>
    <path class="cls-15" d="M558.87,548.48c1.13,75.25,2.26,150.5,3.39,225.74-5.56,6.83-11.11,13.65-16.67,20.48"/>
    <path class="cls-3" d="M513.88,580.5c-9.05,21.98-18.81,44.41-29.36,67.23-23.71,51.31-48.8,98.99-74.28,143.04,8.55-.4,17.09-.8,25.64-1.21,26.1-53.39,52.2-106.79,78.29-160.18-.1-16.29-.19-32.59-.29-48.88Z"/>
    <path class="cls-15" d="M436.67,789.54c3.11-.4,6.23-.79,9.34-1.19,11.08-21.76,22.18-43.51,33.3-65.27,11.81-23.11,23.64-46.2,35.49-69.29"/>
    <path class="cls-12" d="M778.31,417.51c-1.4,44.99-3.03,90.31-4.91,135.97-1.98,48.02-4.19,95.66-6.63,142.91,3.23,8.36,6.84,16.92,10.86,25.64,16.1,34.87,35.39,64.63,54.72,89.51-12.58-.82-25.16-1.63-37.74-2.45-3.98-7.99-26.58-53.43-30.55-61.42-1.94-3.89-19.06-38.34-21.05-42.34-9.56,13.02-19.12,26.21-28.68,39.56-12.46,17.4-24.64,34.68-36.53,51.83-11.03-.46-22.06-.91-33.1-1.37,29.38-38.36,58.75-76.71,88.13-115.07,1.94-52.22,4.42-105.1,7.47-158.62,1.66-29.09,3.46-57.98,5.4-86.66,10.87-5.84,21.74-11.67,32.62-17.51Z"/>
    <path class="cls-15" d="M796.38,405.27c-.54,48.32-1.82,97.78-3.93,148.31-1.96,47.03-4.56,93.08-7.72,138.1,19.52,34.44,39.03,68.88,58.55,103.31-2.64,6.17-5.28,12.35-7.91,18.52"/>
    <path class="cls-15" d="M750.37,719.3c-14.86,26.51-29.72,53.02-44.58,79.53-8.96-.77-17.93-1.54-26.89-2.31"/>
    <path class="cls-3" d="M671.3,36.98c-17,8.4-75.69,38.4-107.3,103.85-6.61,13.68-41.29,85.5-6.17,155.22,43.58,86.53,170.55,121.97,270.09,98.27,93.47-22.25,138.2-90.81,144.29-100.5,42.78-68.04,53.17-174.26-18.5-241.21-81.56-76.2-213.74-49.55-282.42-15.63Z"/>
    <path class="cls-5" d="M676.85,46.49c-16.12,7.88-71.79,36.06-101.77,97.53-6.27,12.85-39.16,80.3-5.85,145.78,41.34,81.26,161.76,114.55,256.18,92.29,88.66-20.9,131.08-85.28,136.86-94.39,40.57-63.9,50.43-163.65-17.55-226.53-77.36-71.56-202.73-46.54-267.87-14.68Z"/>
    <path class="cls-3" d="M227.21,526.78c3.87-1.98,8.18-4.57,12.51-7.96,10.97-8.6,16.88-18.24,20.01-24.71,3.1,5.38,6.22,10.77,9.35,16.17,2.92,5.03,5.84,10.04,8.76,15.04-14.21,16.06-28.42,32.12-42.62,48.18-2.67-15.57-5.33-31.14-8-46.71Z"/>
    <ellipse class="cls-8" cx="524.01" cy="584.61" rx="3.47" ry="3.44"/>
    <ellipse class="cls-8" cx="756.06" cy="441.68" rx="3.47" ry="3.44"/>
    <ellipse class="cls-8" cx="520.68" cy="238.63" rx="10.26" ry="8.79"/>
    <path class="cls-15" d="M386.92,388.34c-.98,16.33,1.21,41.45,19.48,68.82,40.46,60.61,128.43,85.29,150.53,91.02"/>
    <path class="cls-15" d="M244.8,565.51c-.68,12.06.85,30.6,13.6,50.8,28.24,44.74,89.64,62.95,105.07,67.19"/>
    <ellipse class="cls-8" cx="360.39" cy="668.41" rx="6.67" ry="6.02"/>
    <ellipse class="cls-8" cx="553.74" cy="536.28" rx="4.72" ry="4.05"/>
  </g>
  <g>
    <path class="cls-15" d="M129.67,540.17c-.96,5.99-2.12,14.21-3.06,24.08-1.18,12.35-1.74,18.57-.54,21.1,6.11,12.85,45.54-2.42,57.2-7.16"/>
    <path class="cls-9" d="M203.22,560.44c1.9,1.56,1.84,6.23.93,9.17-1.62,5.22-6.54,6.92-10.23,8.2-2.58.89-10.11,2.97-11.09.39-1.67-4.37,15.49-21.77,20.39-17.76Z"/>
  </g>
  <path class="cls-17" d="M152.82,468.87c2.19.04,7.14.4,12.46,3.35,7.37,4.08,10.32,10.26,11.06,11.97-2.16-.75-4.59-1.46-7.24-2.05-5.95-1.32-11.17-1.59-15.26-1.49"/>
  <path class="cls-6" d="M145.58,690.66c-2.67,11.4-5.34,22.81-8.01,34.21,4.79.41,9.58.82,14.37,1.23"/>
  <path class="cls-6" d="M117.24,683c-5.19,8.72-10.38,17.44-15.56,26.16,1.85,2.85,3.7,5.71,5.55,8.56"/>
  <path class="cls-16" d="M585.49,198c4.58,29.47,9.19,57.04,13.75,83.17,1.01,5.76,2.45,13.51,7.73,17.65,12.97,10.16,37.04-11.03,41.3-14.86"/>
  <path class="cls-16" d="M563.83,258.92c4.62-4.28,11.69-9.8,21.27-13.84,10.21-4.31,19.34-5.28,25.56-5.37"/>
  <path class="cls-16" d="M641.75,186.4c6.82,31.56,13.64,63.12,20.46,94.67"/>
  <path class="cls-16" d="M651.98,229.58c4.24-4.44,10.2-9.12,18.05-11.73,6.01-2,12.88-4.28,20.01-.5,5.91,3.14,9.16,8.95,12.05,14.12,3.86,6.91,3.84,10.39,8.62,21.75,2.34,5.55,4.52,9.89,5.93,12.56"/>
  <path class="cls-16" d="M727.86,202.5c.95,7.2,4.52,31.34,13.87,44.06,1.3,1.77,2.91,3.58,5.12,5.05,9.26,6.16,19.91-.08,20.96-.72,8.87-5.37,11.61-15.65,12.21-18.11"/>
  <path class="cls-16" d="M766.48,189.05c5.83,18.02,11.67,36.04,17.5,54.06"/>
  <path class="cls-16" d="M770.27,182.98c2.01.4,3.67,1.94,4.08,3.77.58,2.58-1.3,5.92-4.64,6.2"/>
  <path class="cls-16" d="M803.75,170.2c.74-1.84,4.63-11.02,14.1-14.56,1.29-.48,10.79-3.85,19.37,2.17,5.39,3.78,6.73,8.67,13.1,21.7,2.94,6.02,7.45,14.79,13.67,25.19-1.58,3.48-10.22,21.8-25.66,23.34-2.72.27-8.69.86-13.38-3.76-5.36-5.27-5.97-14.3-5.41-19.1,1.46-12.38,13.79-22.38,30.78-24.18"/>
  <path class="cls-16" d="M800.39,148.6c1.6-4.57,3.2-9.13,4.8-13.7.65,1.07,3.08,4.79,7.42,6.15,2.76.86,5.04.38,6.19.03"/>
  <path class="cls-16" d="M856.12,154.4c8.94,13.54,17.87,27.07,26.81,40.61-14.07-17.32-20.57-36.77-15.83-49.01.85-2.2,3.49-9.01,9.78-11.63,5.87-2.43,11.41.23,12.98,1.02,5.32,2.66,8.17,7.25,12.26,14.04,2.98,4.94,6.91,12.45,10.13,22.56"/>
  <path class="cls-16" d="M945.05,107.66c-7.86-5.4-17.35-4.91-23.9,1.19-6.15,5.73-9.76,16.46-6.19,26.67,3.3,9.44,11.45,14.78,18.68,15.06,9.92.38,19.02-8.75,20.79-22.22"/>
  <path class="cls-16" d="M939.98,98.15c8.32,18.19,16.19,32.45,22.18,42.57,9.49,16.04,15.32,23.54,13.78,32.04-1.89,10.4-13.55,15.31-20.43,17.47"/>
  <polygon class="cls-4" points="38.03 440.09 28.23 435.78 21.39 443.61 22.17 433.12 12.37 428.81 22.66 426.64 23.45 416.15 29.02 425.3 39.31 423.12 32.46 430.95 38.03 440.09"/>
  <polygon class="cls-4" points="361.51 391.66 357.5 381.74 347.13 382.57 355.01 375.61 351 365.68 359.88 371.3 367.77 364.34 365.38 374.78 374.27 380.4 363.9 381.23 361.51 391.66"/>
  <polygon class="cls-11" points="965.29 387.47 955.49 383.16 948.65 390.99 949.43 380.5 939.63 376.19 949.92 374.02 950.71 363.53 956.28 372.68 966.57 370.5 959.72 378.33 965.29 387.47"/>
  <polygon class="cls-4" points="983.54 28.43 979.91 18.36 969.52 18.78 977.67 12.13 974.04 2.06 982.7 8.02 990.85 1.37 988.06 11.71 996.72 17.67 986.33 18.09 983.54 28.43"/>
  <polygon class="cls-11" points="541.77 31.47 531.97 27.17 525.13 34.99 525.91 24.51 516.11 20.2 526.4 18.02 527.19 7.54 532.76 16.68 543.05 14.51 536.2 22.33 541.77 31.47"/>
  <polygon class="cls-11" points="211.93 781.87 202.13 777.56 195.29 785.38 196.08 774.9 186.27 770.59 196.56 768.42 197.35 757.93 202.92 767.07 213.21 764.9 206.36 772.72 211.93 781.87"/>
  <polygon class="cls-11" points="1102.9 723.07 1079.01 712.7 1062.12 732.01 1064.25 706.3 1040.36 695.93 1065.57 690.4 1067.7 664.68 1081.15 686.99 1106.35 681.46 1089.46 700.77 1102.9 723.07"/>
  <polygon class="cls-4" points="1077.49 332.45 1073.86 322.38 1063.47 322.8 1071.62 316.15 1067.99 306.08 1076.65 312.04 1084.8 305.39 1082.01 315.73 1090.67 321.69 1080.28 322.11 1077.49 332.45"/>
  <polygon class="cls-11" points="94.19 125.38 70.3 115.02 53.41 134.33 55.54 108.61 31.65 98.24 56.86 92.72 58.99 67 72.44 89.3 97.64 83.77 80.75 103.08 94.19 125.38"/>
  <polygon class="cls-4" points="436.77 699.42 426.96 695.11 420.12 702.94 420.91 692.45 411.11 688.14 421.39 685.97 422.18 675.48 427.75 684.63 438.04 682.45 431.2 690.28 436.77 699.42"/>
  <polygon class="cls-11" points="1138.94 110.12 1115.06 99.75 1098.16 119.06 1100.29 93.34 1076.4 82.98 1101.61 77.45 1103.74 51.73 1117.19 74.03 1142.4 68.5 1125.5 87.81 1138.94 110.12"/>
  <polygon class="cls-11" points="32.16 663.54 22.36 659.23 15.51 667.05 16.3 656.57 6.5 652.26 16.79 650.09 17.58 639.6 23.15 648.74 33.44 646.57 26.59 654.39 32.16 663.54"/>
  <polygon class="cls-4" points="333.56 77.53 329.54 67.6 319.18 68.43 327.06 61.47 323.04 51.55 331.93 57.17 339.81 50.2 337.42 60.64 346.31 66.26 335.95 67.09 333.56 77.53"/>
  <polygon class="cls-4" points="213.53 256.34 209.52 246.41 199.15 247.24 207.03 240.28 203.02 230.35 211.9 235.98 219.79 229.01 217.4 239.45 226.29 245.07 215.92 245.9 213.53 256.34"/>
  <polygon class="cls-11" points="41.91 290.54 32.11 286.23 25.26 294.06 26.05 283.57 16.25 279.26 26.54 277.09 27.33 266.6 32.9 275.74 43.19 273.57 36.34 281.4 41.91 290.54"/>
  <polygon class="cls-11" points="1085.29 534.91 1075.49 530.6 1068.64 538.43 1069.43 527.94 1059.63 523.63 1069.92 521.46 1070.71 510.97 1076.28 520.12 1086.57 517.94 1079.72 525.77 1085.29 534.91"/>
  <polygon class="cls-4" points="900.81 598.64 897.19 588.57 886.8 588.99 894.94 582.34 891.31 572.27 899.98 578.23 908.12 571.58 905.33 581.92 913.99 587.88 903.61 588.3 900.81 598.64"/>
  <polygon class="cls-4" points="700.71 525.24 697.08 515.16 686.7 515.59 694.84 508.94 691.21 498.87 699.88 504.83 708.02 498.18 705.23 508.51 713.89 514.47 703.5 514.9 700.71 525.24"/>
  <polygon class="cls-11" points="630.96 727.12 621.16 722.81 614.31 730.64 615.1 720.15 605.3 715.84 615.59 713.67 616.38 703.18 621.95 712.33 632.24 710.15 625.39 717.98 630.96 727.12"/>
</svg>