<?xml version="1.0" encoding="UTF-8"?>
<svg id="Layer_1" data-name="Layer 1" xmlns="http://www.w3.org/2000/svg" viewBox="0 0 1065.91 694.55">
  <defs>
    <style>
      .cls-1 {
        fill: none;
        stroke: #203555;
        stroke-miterlimit: 10;
        stroke-width: 5px;
      }
    </style>
  </defs>
  <path class="cls-1" d="M282.98,4.12c-5.52-1.33-16.34-3.09-28.92.55-21.38,6.18-31.75,23.33-34.08,27.42-10.35-1.79-26.78-2.83-43.9,4.35-31.06,13.02-51.35,47.59-52.5,88.07-7.55-3.06-16.43-5.47-26.44-6.11-45.51-2.92-78.19,33.15-84.24,40.06,6.98-4.34,20.25-11.19,38-12.14,33.23-1.77,56.12,18.57,60.9,23.01-5.67,11.22-14.62,32.71-14.74,60.93-.16,36.64,14.66,63.24,21.53,74.06"/>
  <path class="cls-1" d="M1060.4,535.33c.98,3.29,10.08,35.4-9.15,56.81-4.87,5.42-10.46,8.94-15.55,11.25-1.4,10.48-6.6,38.29-29.9,60.39-28.65,27.16-65.02,27.09-78.1,27.06-18.81-.04-34.05-4.28-43.94-7.88"/>
</svg>