<?xml version="1.0" encoding="UTF-8"?>
<svg id="Layer_1" data-name="Layer 1" xmlns="http://www.w3.org/2000/svg" viewBox="0 0 809.69 599.36">
  <defs>
    <style>
      .cls-1 {
        fill: #b7cada;
      }

      .cls-1, .cls-2, .cls-3, .cls-4, .cls-5, .cls-6, .cls-7, .cls-8, .cls-9, .cls-10, .cls-11, .cls-12, .cls-13, .cls-14, .cls-15, .cls-16, .cls-17 {
        stroke-miterlimit: 10;
      }

      .cls-1, .cls-3, .cls-4, .cls-6, .cls-9, .cls-11, .cls-13, .cls-16, .cls-17 {
        stroke-width: 3px;
      }

      .cls-1, .cls-3, .cls-4, .cls-8, .cls-9, .cls-10, .cls-11, .cls-13, .cls-15, .cls-16 {
        stroke: #203555;
      }

      .cls-2, .cls-5, .cls-6, .cls-7, .cls-8, .cls-14, .cls-16, .cls-17 {
        fill: none;
      }

      .cls-2, .cls-12, .cls-14, .cls-17 {
        stroke: #1f3555;
      }

      .cls-18 {
        fill: #db9ec7;
      }

      .cls-3, .cls-10 {
        fill: #203555;
      }

      .cls-4 {
        fill: #fff6eb;
      }

      .cls-5 {
        stroke-width: 4px;
      }

      .cls-5, .cls-6 {
        stroke: #1e3555;
      }

      .cls-7 {
        stroke: #1f3352;
      }

      .cls-7, .cls-8, .cls-10, .cls-12, .cls-14 {
        stroke-width: 2px;
      }

      .cls-9 {
        fill: #fef7ed;
      }

      .cls-11 {
        fill: #fff;
      }

      .cls-12 {
        fill: #1f3555;
      }

      .cls-13 {
        fill: #62533c;
      }

      .cls-15 {
        fill: #2c466c;
      }
    </style>
  </defs>
  <path class="cls-13" d="M568.67,359.28c8.68,29.94,20.38,52.81,28.12,66.4-31.98,8.03-67.51,14.97-106.24,19.53-96.17,11.33-180.16,4.3-245.3-7.03-1.82-11.98-3.65-23.96-5.47-35.94-4.69,9.9-9.37,19.79-14.06,29.69-6.5-1.09-16.16-3.51-26.56-9.37-12.71-7.16-20.69-16.18-25-21.87,11-16,26.85-41.75,39.62-75.83,40.56-108.22,19.77-219.49,62.35-269.64,17.46-20.57,39.4-29.27,39.4-29.27,17.05-6.76,32.56-6.92,41.6-6.35,11.3-6.43,38.39-19.82,74.52-17.92,7.6.4,30.46,2.26,55.75,15.49,37.42,19.57,55.88,51.21,61.95,61.95,47.63,84.23-16.2,157.59,19.32,280.16Z"/>
  <path class="cls-9" d="M520.1,153.38c2.75,31.64-.56,56.72-4,73.38-4.06,19.69-8.77,29.88-10.71,33.85-2.7,5.51-12.73,24.89-30.85,39.42-36.93,29.61-85.02,21.65-99.41,19.28-14.49-2.39-46.78-7.71-71.39-34.3-15.37-16.62-21.25-33.92-22.45-37.68-5.08-15.96-4.29-29.55-2.51-56.08.81-12.08,2.49-29,6.29-49.21,12.21-3.02,29.84-8.92,48.4-21.1,24.03-15.77,38.37-34.71,45.92-46.46,18.24,17.19,44.71,38.31,80.22,55.94,22.12,10.98,42.82,18.16,60.49,22.96Z"/>
  <path class="cls-1" d="M528.92,484.92c-24.75,13.38-81.62,39.67-156.43,34.72-48.01-3.17-85.36-18.02-108.22-29.38,16.8-64.83,33.61-129.65,50.42-194.48,11.82,7.42,28.94,16.11,50.86,20.94,47.06,10.38,85.97-3.66,101.86-10.5,20.5,59.56,41.01,119.13,61.51,178.69Z"/>
  <g>
    <path class="cls-16" d="M313.97,296.62c-11.78,15.04-22.62,28.36-32.27,39.93-9.06,10.86-12.72,14.95-16.79,13.91-8.63-2.21-13.4-26.12-16.17-54.47"/>
    <path class="cls-11" d="M244.17,265.22c-2.29-.35-4.4,6.24-4.94,10.25-.18,1.31-1.22,10.2,5.05,17.18,1.72,1.91,3.27,3.64,4.45,3.35,4.48-1.08.08-30.06-4.57-30.77Z"/>
  </g>
  <g>
    <path class="cls-16" d="M468.1,306.93c12.29,14.62,23.1,27.97,32.44,39.79,8.76,11.1,12.02,15.52,10.16,19.3-3.94,7.99-28.32,7.74-56.63,4.62"/>
    <path class="cls-11" d="M423.01,368.78c-.82,2.17,5.2,5.59,9.01,6.94,1.25.44,9.73,3.29,17.85-1.41,2.22-1.29,4.23-2.45,4.19-3.67-.13-4.61-29.4-6.26-31.06-1.86Z"/>
  </g>
  <g>
    <path class="cls-9" d="M536.46,197.6c2.47-31.34-20.16-60.13-50.54-64.31-30.38-4.18-57.01,17.84-59.47,49.18-2.47,31.34,20.16,60.13,50.54,64.31,30.38,4.18,57.01-17.84,59.47-49.18"/>
    <path class="cls-17" d="M379.96,182.91c3.91-1.43,11.97-3.8,22.63-2.83,11.03,1.01,19.17,5.08,22.99,7.28"/>
    <path class="cls-9" d="M379.13,173.86c-3.87-32.43-31.6-55.56-61.94-51.66-30.34,3.9-51.8,33.35-47.93,65.78,3.87,32.43,31.6,55.56,61.94,51.66,30.34-3.9,51.8-33.35,47.93-65.78"/>
  </g>
  <g>
    <path class="cls-14" d="M336.54,203.97c8.43-3.48,13.19-14.32,10.63-24.21-2.56-9.89-11.46-15.08-19.89-11.6-8.43,3.48-13.19,14.32-10.63,24.21,2.56,9.89,11.46,15.08,19.89,11.6Z"/>
    <path class="cls-12" d="M327.91,201.96c5.33-1.87,9.11-10.33,8.44-18.9-.67-8.57-5.52-14-10.85-12.13-5.33,1.87-9.11,10.33-8.44,18.9.67,8.57,5.52,14,10.85,12.13Z"/>
  </g>
  <g>
    <path class="cls-14" d="M479.88,211.21c8.43-3.48,13.19-14.32,10.63-24.21-2.56-9.89-11.46-15.08-19.89-11.6-8.43,3.48-13.19,14.32-10.63,24.21,2.56,9.89,11.46,15.08,19.89,11.6Z"/>
    <path class="cls-12" d="M471.25,209.2c5.33-1.87,9.11-10.33,8.44-18.9-.67-8.57-5.52-14-10.85-12.13-5.33,1.87-9.11,10.33-8.44,18.9.67,8.57,5.52,14,10.85,12.13Z"/>
  </g>
  <path class="cls-17" d="M399.36,244.68c-.78.27-5.43,1.8-9.79-.64-3.03-1.7-5.79-5.24-5.32-9.1.62-5.15,6.92-10.41,14.95-10.18"/>
  <g>
    <g>
      <path class="cls-8" d="M161.31,192.34c-4.72,12.58-9.4,25.35-14.04,38.3-5.75,16.03-11.27,31.88-16.58,47.55,6.22,2.07,12.63,4.1,19.22,6.08,7.24,2.18,14.33,4.18,21.25,6.03,5.92-12.54,11.81-25.78,17.58-39.71,6.13-14.8,11.61-29.16,16.51-42.99-14.65-5.09-29.29-10.17-43.94-15.26Z"/>
      <path class="cls-10" d="M166.47,202.87c-4.87,13.83-9.75,27.66-14.62,41.48,3.62,1.14,7.29,2.35,11.02,3.63,5.4,1.85,10.61,3.76,15.64,5.7,2.28-6.16,4.65-12.4,7.11-18.7,2.94-7.51,5.91-14.87,8.9-22.05-4.18-2.26-9.26-4.62-15.19-6.64-4.65-1.58-8.99-2.67-12.86-3.42Z"/>
      <path class="cls-8" d="M161.79,255.55c-1.09-.34-5.36-1.52-9.68.59-6.08,2.97-7.03,9.91-7.1,10.54-.06.54-.82,7.95,5,12.45.52.4,5.41,4.06,11.27,2.33,5.89-1.74,8.83-7.75,9.09-12.59.23-4.2-1.49-9.01-5.11-11.64-1.43-1.03-2.8-1.47-3.46-1.68Z"/>
    </g>
    <path class="cls-10" d="M156.11,262.21c-.76.26-.78,1.03-2.04,4.6-1.27,3.59-1.74,4.17-1.33,4.87.96,1.63,4.82.86,5.72.69,1.67-.33,3.51-.69,4.09-2.06.7-1.63-.84-3.6-1.89-4.95-.61-.79-2.89-3.71-4.55-3.15Z"/>
  </g>
  <path class="cls-3" d="M219.87,329.06c-5.79,1.19-9.32,5.42-16.15,13.84-5.99,7.39-8.16,11.84-17.44,28.55-11.18,20.14-14.88,26.03-12.11,31.44,1.55,3.03,5.03,5.73,8.05,8.07,3.97,3.08,7.5,4.74,9.95,5.88,5.5,2.55,8.25,3.82,11.23,3.63,5.35-.35,9.13-4.93,12.69-9.71,9.82-13.15,11.84-19.47,20.71-34.46,6.35-10.74,11.01-17.11,10.26-26.48-.31-3.92-1.42-6.49-1.7-7.1-4.16-9.32-15.85-15.64-25.49-13.66Z"/>
  <path class="cls-16" d="M160.73,438.59c-3.7,7.51-7.37,15.33-10.98,23.47-5.58,12.57-10.51,24.77-14.87,36.5,1.7.16,3.74.49,5.99,1.16,3.08.92,5.54,2.18,7.34,3.28,2.21-5.49,4.81-11.26,7.87-17.2,7.72-14.96,16.41-27.22,24.53-36.96-6.63-3.42-13.25-6.83-19.88-10.25Z"/>
  <path class="cls-16" d="M161.44,403.16c-2.25.82-3.28,2.73-5.74,7.75-7.63,15.63-7.6,17.64-6.85,19.33.84,1.87,2.11,2.35,7.82,5.34,9.1,4.76,18.33,9.27,27.37,14.15,4.02,2.17,6.45,3.6,9.27,2.79,2.67-.77,3.68-2.99,7.08-8.46,7.07-11.37,9.12-12.11,8.65-14.94-.49-2.94-2.96-3.68-13.19-9.65-4.77-2.79-11.37-6.41-24.56-13.66-3.75-2.06-6.81-3.76-9.87-2.64Z"/>
  <g>
    <path class="cls-15" d="M343.63,427.57c1.53,21.56,3.05,43.13,4.58,64.69,1.91-.54,5.15-1.18,9.14-.66,3.19.42,5.7,1.43,7.33,2.25,2.74-21.41,5.48-42.82,8.22-64.23-9.76-.69-19.51-1.37-29.27-2.06Z"/>
    <g>
      <path class="cls-15" d="M386.39,424.5c-4.7,6.25-13.21,6.03-26.94,5.68-12.42-.32-19.42-.5-23.82-5.99-6.38-7.95-3.91-22.82,3.15-31.25,10.21-12.19,31.38-12.55,42.51-.55,7.92,8.54,11.26,23.91,5.1,32.11Z"/>
      <path class="cls-7" d="M352.68,390.32c4.26,2.47,9.66,6.2,15.07,11.69,7.25,7.35,11.6,14.9,14.12,20.21"/>
      <path class="cls-7" d="M341.79,395.59c4.26,2.47,9.66,6.2,15.07,11.69,7.25,7.35,11.6,14.9,14.12,20.21"/>
      <path class="cls-7" d="M378.08,397.99c-4.92.24-11.43,1.06-18.76,3.44-9.82,3.19-17.16,7.89-21.84,11.44"/>
      <path class="cls-7" d="M384.1,409.25c-4.92.24-11.43,1.06-18.76,3.44-9.82,3.19-17.16,7.89-21.84,11.44"/>
    </g>
  </g>
  <g>
    <path class="cls-16" d="M611.39,509.46c3.7,7.51,7.37,15.33,10.98,23.47,5.58,12.57,10.51,24.77,14.87,36.5-1.7.16-3.74.49-5.99,1.16-3.08.92-5.54,2.18-7.34,3.28-2.21-5.49-4.81-11.26-7.87-17.2-7.72-14.96-16.41-27.22-24.53-36.96,6.63-3.42,13.25-6.83,19.88-10.25Z"/>
    <path class="cls-16" d="M610.67,474.03c2.25.82,3.28,2.73,5.74,7.75,7.63,15.63,7.6,17.64,6.85,19.33-.84,1.87-2.11,2.35-7.82,5.34-9.1,4.76-18.33,9.27-27.37,14.15-4.02,2.17-6.45,3.6-9.27,2.79-2.67-.77-3.68-2.99-7.08-8.46-7.07-11.37-9.12-12.11-8.65-14.94.49-2.94,2.96-3.68,13.19-9.65,4.77-2.79,11.37-6.41,24.56-13.66,3.75-2.06,6.81-3.76,9.87-2.64Z"/>
    <g>
      <path class="cls-15" d="M603.33,470.31c-1.4,7.7-9.1,11.32-21.53,17.16-11.24,5.28-17.58,8.26-23.97,5.34-9.27-4.24-13.73-18.64-11.21-29.34,3.65-15.48,22.41-25.3,37.74-19.56,10.91,4.08,20.79,16.31,18.97,26.41Z"/>
      <path class="cls-7" d="M557.87,454.89c4.92.3,11.41,1.21,18.71,3.68,9.78,3.32,17.05,8.11,21.69,11.72"/>
      <path class="cls-7" d="M550.5,464.49c4.92.3,11.41,1.21,18.71,3.68,9.78,3.32,17.05,8.11,21.69,11.72"/>
      <path class="cls-7" d="M584,450.35c-4.29,2.42-9.74,6.07-15.22,11.49-7.35,7.26-11.79,14.75-14.39,20.02"/>
      <path class="cls-7" d="M594.44,457.71c-4.29,2.42-9.74,6.07-15.22,11.49-7.35,7.26-11.79,14.75-14.39,20.02"/>
    </g>
  </g>
  <g>
    <path class="cls-3" d="M607.44,236.41c5.79,1.19,9.32,5.42,16.15,13.84,5.99,7.39,8.16,11.84,17.44,28.55,11.18,20.14,14.88,26.03,12.11,31.44-1.55,3.03-5.03,5.73-8.05,8.07-3.97,3.08-7.5,4.74-9.95,5.88-5.5,2.55-8.25,3.82-11.23,3.63-5.35-.35-9.13-4.93-12.69-9.71-9.82-13.15-11.84-19.47-20.71-34.46-6.35-10.74-11.01-17.11-10.26-26.48.31-3.92,1.42-6.49,1.7-7.1,4.16-9.32,15.85-15.64,25.49-13.66Z"/>
    <path class="cls-16" d="M644.93,309.96c3.7,7.51,7.37,15.33,10.98,23.47,5.58,12.57,10.51,24.77,14.87,36.5-1.7.16-3.74.49-5.99,1.16-3.08.92-5.54,2.18-7.34,3.28-2.21-5.49-4.81-11.26-7.87-17.2-7.72-14.96-16.41-27.22-24.53-36.96,6.63-3.42,13.25-6.83,19.88-10.25Z"/>
  </g>
  <g>
    <path class="cls-4" d="M138.78,468.73c-.88-3.54,4.49-8.09,10.88-13.49,5.53-4.67,9.47-8,12.68-7.25,3.7.86,4.32,6.65,3.42,10.61-1.2,5.32-5.95,10.93-12.32,13.06-6.14,2.04-13.72.82-14.66-2.92Z"/>
    <path class="cls-5" d="M18.42,528.61c17.14-4.63,37.02-11.34,58.38-21.23,25.7-11.9,46.7-25.24,63.05-37.25"/>
  </g>
  <g>
    <path class="cls-4" d="M134.75,250.07c.97-3.52,7.88-4.85,16.1-6.43,7.11-1.36,12.17-2.33,14.6-.11,2.8,2.57.51,7.91-2.22,10.92-3.66,4.05-10.54,6.62-17.14,5.34-6.35-1.23-12.37-6.01-11.34-9.73Z"/>
    <path class="cls-5" d="M.49,243.28c17.21,4.36,37.83,8.26,61.29,10.1,28.24,2.22,53.08.88,73.21-1.57"/>
  </g>
  <g>
    <path class="cls-4" d="M373.67,481.58c2.23-2.9-.89-9.21-4.59-16.71-3.2-6.49-5.48-11.11-8.72-11.71-3.74-.69-6.61,4.37-7.37,8.36-1.02,5.36,1.08,12.4,6.08,16.89,4.81,4.32,12.25,6.24,14.6,3.17Z"/>
    <path class="cls-5" d="M460.09,584.55c-13.86-11.09-29.41-25.19-45.04-42.79-18.81-21.18-32.73-41.79-42.92-59.34"/>
  </g>
  <g>
    <path class="cls-4" d="M674.95,345.13c-.7-3.59-7.5-5.42-15.57-7.61-6.99-1.89-11.96-3.24-14.55-1.2-2.98,2.35-1.1,7.85,1.39,11.06,3.34,4.31,10.02,7.39,16.69,6.61,6.43-.75,12.78-5.07,12.04-8.86Z"/>
    <path class="cls-5" d="M809.35,348.39c-17.49,3.06-38.34,5.41-61.88,5.5-28.32.11-52.99-3.08-72.89-7.03"/>
  </g>
  <g>
    <path class="cls-4" d="M640.89,552.65c.44-3.63-5.45-7.48-12.45-12.06-6.06-3.96-10.37-6.78-13.47-5.65-3.57,1.31-3.47,7.12-2.1,10.95,1.84,5.13,7.24,10.13,13.83,11.45,6.34,1.28,13.72-.86,14.19-4.69Z"/>
    <path class="cls-5" d="M767.66,597.38c-17.57-2.51-38.13-6.74-60.54-13.94-26.96-8.67-49.43-19.35-67.13-29.27"/>
  </g>
  <path class="cls-6" d="M383.68,273.42c6.32,1.42,11.23,1.47,14.75,1.18,2.64-.22,4.91-.65,6.41,1.08,1.79,2.07,1.6,6.23.47,8.81-.99,2.25-2.67,3.26-6.58,4.8-2.97,1.17-7.09,2.6-12.24,3.78"/>
  <g>
    <ellipse class="cls-18" cx="319.03" cy="249.53" rx="5.68" ry="19.04" transform="translate(49.14 551.53) rotate(-86.24)"/>
    <path class="cls-2" d="M302.84,250.89c5.98-4.25,8.42-4.55,9.56-4.07,1.8.77.57,3.62,2.49,4.43,2.87,1.21,8.63-3.82,10.79-2.74,1.45.73-.37,3.41,1.1,4.26,1.49.87,5.42-.67,9.95-3.05"/>
  </g>
  <g>
    <ellipse class="cls-18" cx="472.04" cy="256.07" rx="5.68" ry="19.04" transform="translate(185.6 710.33) rotate(-86.24)"/>
    <path class="cls-2" d="M455.85,257.43c5.98-4.25,8.42-4.55,9.56-4.07,1.8.77.57,3.62,2.49,4.43,2.87,1.21,8.63-3.82,10.79-2.74,1.45.73-.37,3.41,1.1,4.26,1.49.87,5.42-.67,9.95-3.05"/>
  </g>
</svg>