<?xml version="1.0" encoding="UTF-8"?>
<svg id="Layer_1" data-name="Layer 1" xmlns="http://www.w3.org/2000/svg" viewBox="0 0 1220.88 847.22" preserveAspectRatio="none">
  <defs>
    <style>
      .cls-1, .cls-2, .cls-3 {
        fill: none;
      }

      .cls-1, .cls-2, .cls-3, .cls-4, .cls-5 {
        stroke-miterlimit: 10;
      }

      .cls-1, .cls-2, .cls-5 {
        stroke: #aa4a4b;
      }

      .cls-1, .cls-3, .cls-4 {
        stroke-width: 2px;
      }

      .cls-2, .cls-5 {
        stroke-width: 6px;
      }

      .cls-3, .cls-4 {
        stroke: #231f20;
      }

      .cls-4 {
        fill: #231f20;
      }

      .cls-5 {
        fill: #aa4a4b;
      }
    </style>
  </defs>
  <path vector-effect="non-scaling-stroke" class="cls-4" d="M15.81,840.51c1.04,4.42,5.83,7.01,9.61,5.04,3.86-2,5.17-7.94,2.81-11.67-1.81-2.88-5.47-3.9-8.44-2.39-3.06,1.55-4.81,5.48-3.99,9.02Z"/>
  <g>
    <path vector-effect="non-scaling-stroke" class="cls-3" d="M613.79,803.55c.5-6.94,5.76-13.86,13.19-15.63,8.59-2.04,17.34,3.45,20.27,11.64,3.58,10-2.47,21.42-10.94,23.94-10.65,3.17-23.36-8.24-22.52-19.95Z"/>
    <path vector-effect="non-scaling-stroke" class="cls-5" d="M623.72,801.41c.62-3.53,6.32-5.6,9.43-3.24.12.09,2.04,1.6,2.1,4.04.07,3.16-3.03,6.41-6.29,6.07-3.25-.34-5.71-4.17-5.24-6.87Z"/>
  </g>
  <path vector-effect="non-scaling-stroke" class="cls-1" d="M32.42,828.06c.1.04,1.43.57,2.54-.66,1.11-1.23,1.62-3.81.76-5.68-.75-1.63-2.23-2.06-3.37-1.46-1.23.64-2.2,2.53-1.99,4.54.17,1.65,1.08,2.85,2.06,3.27Z"/>
  <path vector-effect="non-scaling-stroke" class="cls-1" d="M38.92,830.79c-.51,2.77.46,6.19,2.42,7.34,2.41,1.4,4.94-1.4,5.74-4.31.09-.34.8-3.08-.23-5.3-1.22-2.62-4.11-2.89-5.97-1.33-.35.3-1.56,1.42-1.96,3.6Z"/>
  <path vector-effect="non-scaling-stroke" class="cls-5" d="M4.26,369.9c2.16-1.09,8.73-4.01,15.81-1.59,10.35,3.54,15.2,16.26,14.05,26.32-.23,2-1.28,11.22-9.22,16.56-9.69,6.52-20.66,1.23-21.29.91.22-14.07.44-28.13.66-42.2Z"/>
  <path vector-effect="non-scaling-stroke" class="cls-3" d="M1,403.73c2.09-.63,5.27-1.3,9.09-.98,6.94.58,16.77,4.5,20.07,13.5,1.79,4.87.97,9.32.57,11.35-.35,1.76-1.72,8.77-7.01,12.53-5.93,4.22-15.21,3.22-22.72-2.74v-33.66Z"/>
  <path vector-effect="non-scaling-stroke" class="cls-4" d="M18.2,348.44c1.13-4.41,6.36-6.99,10.5-5.03,4.21,2,5.64,7.92,3.07,11.64-1.98,2.87-5.97,3.89-9.22,2.38-3.34-1.55-5.26-5.47-4.35-9Z"/>
  <path vector-effect="non-scaling-stroke" class="cls-5" d="M354.08,830.9c1.87-1.1,6.94-4.07,8.11-9.86,1.45-7.12-3.7-14.91-10.5-17.26-6.05-2.09-11.47.79-13.36,1.97-1.13.71-7.7,4.83-8.11,12.82-.25,4.84,1.81,9.87,5.73,12.82,7.38,5.57,16.73.33,18.13-.49Z"/>
  <path vector-effect="non-scaling-stroke" class="cls-1" d="M350.02,786.64c1.28-4.09-1.23-8.87-5.17-10.69-3.72-1.72-8.78-.83-11.08,3.05-2.49,4.21-.5,9.89,3.32,12.21,4.61,2.8,11.36.43,12.93-4.58Z"/>
  <path vector-effect="non-scaling-stroke" class="cls-1" d="M330.17,792.21c-1.95-1-4.55-.29-5.84,1.72-1.21,1.89-.98,4.49.56,6.04,1.89,1.91,5.18,1.65,6.81-.43,1.8-2.3.97-6.05-1.53-7.33Z"/>
  <path vector-effect="non-scaling-stroke" class="cls-2" d="M15.64,571.97c.77-3.82,7.85-6.06,11.7-3.5.15.1,2.54,1.74,2.6,4.38.08,3.42-3.76,6.94-7.8,6.57-4.03-.37-7.09-4.52-6.5-7.44Z"/>
  <path vector-effect="non-scaling-stroke" class="cls-4" d="M25.67,555.48c.45-2.17,2.55-3.43,4.21-2.47,1.69.98,2.26,3.89,1.23,5.72-.8,1.41-2.4,1.91-3.7,1.17-1.34-.76-2.11-2.69-1.75-4.42Z"/>
  <path vector-effect="non-scaling-stroke" class="cls-3" d="M451.56,557.36c13.91-.1,36.38-.21,64.27-.05,34.37.19,48.64.61,78.03.68,16.32.04,40.85-.03,71.16-.61"/>
  <path vector-effect="non-scaling-stroke" class="cls-3" d="M484.75,564.39c13.91-.1,36.38-.21,64.27-.05,34.37.19,48.64.61,78.03.68,16.32.04,40.85-.03,71.16-.61"/>
  <path vector-effect="non-scaling-stroke" class="cls-5" d="M546.52,605.36c-1.87,1.1-6.94,4.07-8.11,9.86-1.45,7.12,3.7,14.91,10.5,17.26,6.05,2.09,11.47-.79,13.36-1.97,1.13-.71,7.7-4.83,8.11-12.82.25-4.84-1.81-9.87-5.73-12.82-7.38-5.57-16.73-.33-18.13.49Z"/>
  <path vector-effect="non-scaling-stroke" class="cls-3" d="M486.69,616.67c8.95-13.78,26.25-19.42,40.61-17.93,25.33,2.63,46.69,28.01,41.71,49.57-5.69,24.63-44.76,39.97-68.94,24.6-17.65-11.22-25.48-37.6-13.37-56.24Z"/>
  <path vector-effect="non-scaling-stroke" class="cls-3" d="M672.18,584.81c-.29-11.66-.67-30.49-.79-53.85-.14-28.81.25-40.77,0-65.4-.14-13.68-.5-34.23-1.58-59.62"/>
  <path vector-effect="non-scaling-stroke" class="cls-3" d="M679.08,583.97c-.29-14.91-.67-38.98-.79-68.85-.14-36.83.25-52.12,0-83.6-.14-17.49-.5-43.76-1.58-76.23"/>
</svg>