<?xml version="1.0" encoding="UTF-8"?>
<svg id="Layer_1" data-name="Layer 1" xmlns="http://www.w3.org/2000/svg" viewBox="0 0 1220.88 847.22" preserveAspectRatio="none">
  <defs>
    <style>
      .cls-1, .cls-2, .cls-3, .cls-4 {
        fill: none;
      }

      .cls-1, .cls-2, .cls-3, .cls-4, .cls-5, .cls-6 {
        stroke-miterlimit: 10;
      }

      .cls-1, .cls-2, .cls-3, .cls-6 {
        stroke: #aa4a4b;
      }

      .cls-1, .cls-4, .cls-5 {
        stroke-width: 2px;
      }

      .cls-2, .cls-6 {
        stroke-width: 6px;
      }

      .cls-3 {
        stroke-width: 3px;
      }

      .cls-4, .cls-5 {
        stroke: #231f20;
      }

      .cls-5 {
        fill: #231f20;
      }

      .cls-6 {
        fill: #aa4a4b;
      }
    </style>
  </defs>
  <path vector-effect="non-scaling-stroke" class="cls-3" d="M638.55,305.18c.23-.06,3.29-.86,5.85,1,2.55,1.85,3.73,5.72,1.75,8.53-1.72,2.45-5.13,3.09-7.76,2.2-2.83-.96-5.06-3.8-4.57-6.82.4-2.47,2.49-4.28,4.73-4.91Z"/>
  <path vector-effect="non-scaling-stroke" class="cls-3" d="M692.98,265.47c-1.18-4.16,1.05-9.3,5.57-11.02,5.54-2.11,11.37,2.1,13.19,6.47.21.51,1.85,4.63-.53,7.96-2.8,3.93-9.45,4.35-13.72,1.99-.81-.45-3.59-2.13-4.52-5.4Z"/>
  <g>
    <path vector-effect="non-scaling-stroke" class="cls-5" d="M1070.85,92.93c1.2-2.92,4.19-5.05,7.51-4.68,2.94.33,5.51,2.55,6.21,5.57.88,3.79-1.72,6.64-1.87,6.8-2.63,2.78-7.63,3.41-10.49.49-2.1-2.13-2.44-5.54-1.35-8.19Z"/>
    <path vector-effect="non-scaling-stroke" class="cls-2" d="M1087.52,84.14c.25-1.5,2.92-2.45,4.41-1.5.06.04.98.65,1.04,1.67.07,1.33-1.35,2.74-2.89,2.65-1.54-.1-2.75-1.67-2.56-2.82Z"/>
  </g>
  <path vector-effect="non-scaling-stroke" class="cls-6" d="M790.36,24.08c-1.87,1.1-6.94,4.07-8.11,9.86-1.45,7.12,3.7,14.91,10.5,17.26,6.05,2.09,11.47-.79,13.36-1.97,1.13-.71,7.7-4.83,8.11-12.82.25-4.84-1.81-9.87-5.73-12.82-7.38-5.57-16.73-.33-18.13.49Z"/>
  <path vector-effect="non-scaling-stroke" class="cls-1" d="M794.43,68.34c-1.28,4.09,1.23,8.87,5.17,10.69,3.72,1.72,8.78.83,11.08-3.05,2.49-4.21.5-9.89-3.32-12.21-4.61-2.8-11.36-.43-12.93,4.58Z"/>
  <path vector-effect="non-scaling-stroke" class="cls-1" d="M814.27,62.78c1.95,1,4.55.29,5.84-1.72,1.21-1.89.98-4.49-.56-6.04-1.89-1.91-5.18-1.65-6.81.43-1.8,2.3-.97,6.05,1.53,7.33Z"/>
  <path vector-effect="non-scaling-stroke" class="cls-6" d="M1169.8,45.06c-8.91-4.32-22.53-3.47-30,5.66-7.97,9.75-4.68,23.75,2.31,31.71,9.55,10.88,28.08,12.8,36.92,4.53,10.81-10.11,6.08-34.47-9.23-41.9Z"/>
  <path vector-effect="non-scaling-stroke" class="cls-4" d="M1114.77,34.26c11.33-17.81,33.23-25.1,51.4-23.18,32.06,3.4,59.1,36.2,52.79,64.08-7.2,31.85-56.66,51.67-87.27,31.8-22.34-14.5-32.25-48.61-16.92-72.7Z"/>
  <path vector-effect="non-scaling-stroke" class="cls-2" d="M484.36,70.07c-5.14-19,4.57-42.44,24.21-50.3,24.06-9.63,49.4,9.59,57.3,29.54.93,2.35,8.04,21.12-2.29,36.35-12.18,17.96-41.06,19.84-59.6,9.09-3.54-2.05-15.58-9.71-19.63-24.67Z"/>
  <path vector-effect="non-scaling-stroke" class="cls-5" d="M491.77,65.77c3.01-9.42,16.95-14.92,27.96-10.73,11.22,4.26,15.03,16.9,8.18,24.85-5.28,6.13-15.9,8.3-24.55,5.08-8.9-3.31-14.01-11.67-11.59-19.2Z"/>
</svg>