<?xml version="1.0" encoding="UTF-8"?>
<svg id="Layer_1" data-name="Layer 1" xmlns="http://www.w3.org/2000/svg" viewBox="0 0 1220.88 847.22">
  <defs>
    <style>
      .cls-1, .cls-2 {
        fill: none;
      }

      .cls-1, .cls-2, .cls-3, .cls-4 {
        stroke-miterlimit: 10;
      }

      .cls-1, .cls-4 {
        stroke: #aa4a4b;
        stroke-width: 6px;
      }

      .cls-2, .cls-3 {
        stroke: #231f20;
        stroke-width: 2px;
      }

      .cls-3 {
        fill: #231f20;
      }

      .cls-4 {
        fill: #aa4a4b;
      }
    </style>
  </defs>
  <path vector-effect="non-scaling-stroke" class="cls-3" d="M242.27,105.93c1.2-2.92,4.19-5.05,7.51-4.68,2.94.33,5.51,2.55,6.21,5.57.88,3.79-1.72,6.64-1.87,6.8-2.63,2.78-7.63,3.41-10.49.49-2.1-2.13-2.44-5.54-1.35-8.19Z"/>
  <path vector-effect="non-scaling-stroke" class="cls-1" d="M258.93,97.13c.25-1.5,2.92-2.45,4.41-1.5.06.04.98.65,1.04,1.67.07,1.33-1.35,2.74-2.89,2.65-1.54-.1-2.75-1.67-2.56-2.82Z"/>
  <path vector-effect="non-scaling-stroke" class="cls-4" d="M9.04,14.47c-2.3,7.51-8.47,30.29-2.69,54.67,8.45,35.67,37.04,52,59.39,47.69,4.45-.86,24.93-4.8,36.4-32.4,14.01-33.7,1.62-71.45.88-73.62-31.33,1.22-62.65,2.44-93.98,3.65Z"/>
  <path vector-effect="non-scaling-stroke" class="cls-2" d="M84.23,2.11c-1.28,7.25-2.61,18.26-1.69,31.44,1.67,23.95,10.92,57.8,31.16,68.93,10.94,6.01,20.83,3.03,25.32,1.59,3.89-1.25,19.44-6.24,27.53-24.62,9.08-20.64,6.36-52.66-7.33-78.44-25,.37-50,.73-74.99,1.1Z"/>
  <path vector-effect="non-scaling-stroke" class="cls-2" d="M111.51,128.32c-.23,9.45-.54,24.71-.63,43.64-.11,23.34.2,33.04,0,52.99-.11,11.08-.4,27.74-1.26,48.31"/>
  <path vector-effect="non-scaling-stroke" class="cls-2" d="M117.01,129c-.23,12.08-.54,31.58-.63,55.79-.11,29.84.2,42.23,0,67.74-.11,14.17-.4,35.46-1.26,61.77"/>
  <path vector-effect="non-scaling-stroke" class="cls-2" d="M93.38,146.69c14.53.16,38,.37,67.12.34,35.9-.03,50.81-.4,81.5-.33,17.05.04,42.66.21,74.32.93"/>
  <path vector-effect="non-scaling-stroke" class="cls-2" d="M94.41,141.34c18.58.15,48.58.33,85.81.27,45.9-.07,64.96-.45,104.2-.42,21.8.02,54.54.17,95.01.84"/>
</svg>