<?xml version="1.0" encoding="UTF-8"?>
<svg id="Layer_1" data-name="Layer 1" xmlns="http://www.w3.org/2000/svg" viewBox="0 0 1220.88 847.22">
  <defs>
    <style>
      .cls-1, .cls-2, .cls-3, .cls-4, .cls-5 {
        stroke-miterlimit: 10;
      }

      .cls-1, .cls-2, .cls-4, .cls-5 {
        fill: none;
      }

      .cls-1, .cls-3, .cls-4 {
        stroke: #1f3555;
      }

      .cls-2 {
        stroke: #203555;
      }

      .cls-2, .cls-3, .cls-4, .cls-5 {
        stroke-width: 2px;
      }

      .cls-3 {
        fill: #1f3555;
      }

      .cls-5 {
        stroke: #1e3555;
      }
    </style>
  </defs>
  <path vector-effect="non-scaling-stroke" class="cls-3" d="M982.35,556.16c-1.32-.83-2.05-3.75-1.63-6.51s1.84-4.33,3.16-3.5,2.05,3.75,1.63,6.51c-.42,2.76-1.84,4.33-3.16,3.5Z"/>
  <path vector-effect="non-scaling-stroke" class="cls-1" d="M971.58,580.68c2.39-3.13,3.44-3.5,3.96-3.27.82.36.44,2.26,1.32,2.64,1.32.56,3.57-3.04,4.57-2.51.67.36.02,2.19.7,2.63.7.45,2.33-.81,4.19-2.65"/>
  <g>
    <path vector-effect="non-scaling-stroke" class="cls-2" d="M1037.05,482.32c-13.29-10.13-25.13-13.65-32.4-15.07-25.71-4.99-46.33,6.34-57.53,12.71-10.87,6.18-19.08,13.25-24.39,18.36,3.74-1.8,8.26-3.54,13.47-4.71,8.19-1.84,15.34-1.65,20.75-.94-3.95.4-9.75,1.66-16.02,5.65-3.27,2.08-5.93,4.44-8.01,6.59,4.91-1.35,10.01-2.62,15.29-3.77,3.21-.7,6.37-1.32,9.47-1.88-3.45,1.21-7.87,3.21-12.64,6.67-5.21,3.78-9.1,8.03-11.78,11.45,2.29-.92,4.63-1.82,7.01-2.69,11.06-4.01,21.68-6.82,31.71-8.74-2.12,1.24-5.62,3.73-8.74,8.48-2.04,3.1-3.27,6.18-4.01,8.48,5.31-4.14,12.32-8.51,20.95-11.31,23.39-7.59,43.27,1.39,51.54,5.89"/>
    <g>
      <path vector-effect="non-scaling-stroke" class="cls-2" d="M952.39,546.92c-3.5-2.41-7.9-1.59-10.32,1.7-2.84,3.86-1.79,9.54.74,12.45,3.23,3.72,9.48,3.66,13.51-1.27"/>
      <g>
        <path vector-effect="non-scaling-stroke" class="cls-2" d="M1057.71,487.27c8.03,1.13,14.19,3.59,18.13,5.49,5.92,2.87,18.17,8.8,24.82,22.6,2.5,5.19,3.47,9.95,3.9,13.03-1.52-2.34-3.91-5.49-7.47-8.44-4.49-3.72-8.88-5.51-11.72-6.4,2.06,1.56,5.26,4.4,7.99,8.92,3.05,5.06,4.09,9.87,4.48,12.63-1.82-2.38-4.67-5.52-8.81-8.15-2.05-1.31-4-2.23-5.7-2.88,4.94,5.3,5.76,6.74,5.53,7.03-.48.62-5.67-3.93-13.42-8.18-5.5-3.02-10.35-4.82-13.68-5.88"/>
        <path vector-effect="non-scaling-stroke" class="cls-2" d="M1087.4,555.17c3.53-2.41,7.98-1.59,10.42,1.7,2.87,3.86,1.81,9.54-.74,12.45-3.26,3.72-9.58,3.66-13.65-1.27"/>
        <path vector-effect="non-scaling-stroke" class="cls-3" d="M1054.93,557.72c-1.32-.83-2.05-3.75-1.63-6.51s1.84-4.33,3.16-3.5c1.32.83,2.05,3.75,1.63,6.51s-1.84,4.33-3.16,3.5Z"/>
        <g>
          <path vector-effect="non-scaling-stroke" class="cls-2" d="M980.66,610.05c-1.88,5.19-4.8,13.24-8.51,23.26-2.17,5.87-2.56,6.86-2.93,8.25-1.74,6.47-2.09,17.31,7.06,34.57"/>
          <path vector-effect="non-scaling-stroke" class="cls-2" d="M1070.87,596.79c2.23,5,5.7,12.77,10.09,22.42,2.57,5.66,3.02,6.61,3.49,7.96,2.18,6.3,3.28,17.07-4.65,35.09"/>
          <g>
            <path vector-effect="non-scaling-stroke" class="cls-2" d="M950.47,517.98c-.57,24.31,4.52,42.57,8.15,52.83,4.44,12.52,9.33,26.32,21.91,37.57,14.1,12.61,29.14,14.22,34.15,14.68,6.02.55,20.33.91,35.68-8.22,17.85-10.62,25.97-27.45,29.05-34.05,9.57-20.5,9.23-39.89,8.66-48.14"/>
            <path vector-effect="non-scaling-stroke" class="cls-2" d="M980.66,610.05c-2.45,36.29-5.57,73.52-9.44,111.63-1.77,17.45-3.67,34.67-5.66,51.66,12.28,5.61,31.51,12.39,55.6,12.91,33.25.72,58.79-10.85,72.07-18.2-7.43-57.4-14.86-114.81-22.3-172.21"/>
            <path vector-effect="non-scaling-stroke" class="cls-2" d="M1014.99,785.66c.39,7.78.78,15.57,1.17,23.35-4.22.63-8.44,1.27-12.65,1.9"/>
            <path vector-effect="non-scaling-stroke" class="cls-2" d="M1039.63,785.47c-.39,7.78-.78,15.57-1.17,23.35,4.22.63,8.44,1.27,12.65,1.9"/>
            <g>
              <path vector-effect="non-scaling-stroke" class="cls-4" d="M1007.35,559.67c-7.39,13.64-47.17,12.19-53.94-3.32-1.95-4.46-1.61-11.09-1.48-13.59.31-6.08,1.84-10.93,3.09-14.06,17.98,1.11,35.96,2.21,53.94,3.32.71,3.92,1.4,9.86.64,17.01-.49,4.68-.85,8.05-2.26,10.65Z"/>
              <path vector-effect="non-scaling-stroke" class="cls-4" d="M1008.76,546.14c2.22-.88,6.61-2.26,12.16-1.63,4.46.5,7.83,2.09,9.79,3.22"/>
              <path vector-effect="non-scaling-stroke" class="cls-4" d="M1085.66,564.26c-7.39,13.64-47.17,12.19-53.94-3.32-1.95-4.46-1.61-11.09-1.48-13.59.31-6.08,1.84-10.93,3.09-14.06,17.98,1.11,35.96,2.21,53.94,3.32.71,3.92,1.4,9.86.64,17.01-.49,4.68-.85,8.05-2.26,10.65Z"/>
            </g>
            <path vector-effect="non-scaling-stroke" class="cls-5" d="M1018.37,566.17c.46,2.23.1,3.09-.35,3.47-.72.6-1.55-.21-3.54.05-.82.1-2.35.29-3.31,1.55-.7.91-.96,2.17-.68,3.3.53,2.21,2.89,2.95,3.45,3.12,1.84.57,3.43.01,4.02-.23"/>
            <path vector-effect="non-scaling-stroke" class="cls-5" d="M1005.05,604.92c2.47,1.83,5.73,3.58,9.6,3.88,5.97.46,10.79-2.72,13.86-5.44"/>
          </g>
        </g>
      </g>
    </g>
    <path vector-effect="non-scaling-stroke" class="cls-1" d="M1044.81,583.17c2.39-3.13,3.44-3.5,3.96-3.27.82.36.44,2.26,1.32,2.64,1.32.56,3.57-3.04,4.57-2.51.67.36.02,2.19.7,2.63.7.45,2.33-.81,4.19-2.65"/>
  </g>
</svg>